<?xml version="1.0" encoding="utf-8"?>
<!-- Generator: Adobe Illustrator 21.0.2, SVG Export Plug-In . SVG Version: 6.00 Build 0)  -->
<svg version="1.1" id="Capa_1" xmlns="http://www.w3.org/2000/svg" xmlns:xlink="http://www.w3.org/1999/xlink" x="0px" y="0px"
	 viewBox="0 0 52.8 33" style="enable-background:new 0 0 52.8 33;" xml:space="preserve">
<g>
	<g>
		<path d="M17.6,13c1-0.7,1.6-1.9,1.6-3.5c0-0.9-0.2-1.6-0.5-2.2c-0.4-0.6-0.8-1.1-1.4-1.4c-0.5-0.3-1.1-0.5-1.8-0.6
			C14.8,5.1,14.2,5,13.5,5H6v9h8C15.4,14,16.6,13.7,17.6,13z M8,7h5.5c0.6,0,1.1,0,1.6,0.1c0.4,0.1,0.8,0.2,1.2,0.4
			c0.3,0.2,0.5,0.4,0.7,0.7c0.2,0.3,0.3,0.7,0.3,1.2c0,1.4-0.6,1.8-0.7,1.9l0,0C15.8,11.8,15,12,14,12H8V7z"/>
		<path d="M23.1,15c0.7-0.5,1.3-1.1,1.7-1.8c0.8-1.2,1.2-2.7,1.2-4.5c0-1.6-0.3-3-0.8-4.1c-0.6-1.1-1.3-2.1-2.4-2.8
			c-1-0.7-2.2-1.1-3.5-1.4C18.1,0.1,16.8,0,15.2,0H0v33h15.6c1.5,0,2.9-0.2,4.3-0.6c1.4-0.4,2.7-1,3.8-1.8c1.2-0.8,2.1-1.9,2.7-3.2
			c0.7-1.3,1-2.8,1-4.5c0-2.1-0.5-4-1.6-5.5C25.2,16.4,24.2,15.6,23.1,15z M24.7,26.6c-0.5,1-1.2,1.8-2.1,2.5
			c-0.9,0.6-2,1.1-3.2,1.5c-1.2,0.3-2.5,0.5-3.8,0.5H2V2h13.2c1.4,0,2.7,0.1,3.8,0.4l0,0c1.1,0.2,2,0.6,2.8,1.1
			c0.7,0.5,1.3,1.1,1.7,2C23.8,6.3,24,7.4,24,8.7c0,1.4-0.3,2.5-0.9,3.3c-0.6,0.9-1.5,1.6-2.8,2.2L18,15.4l2.5,0.7
			c1.7,0.5,2.9,1.3,3.7,2.5c0.8,1.2,1.2,2.7,1.2,4.4C25.5,24.4,25.2,25.6,24.7,26.6z"/>
		<path d="M14.1,17H6v11h8c0.8,0,1.5-0.1,2.1-0.2c0.8-0.2,1.4-0.5,1.9-0.8c0.6-0.4,1.1-1,1.4-1.7c0.3-0.7,0.5-1.5,0.5-2.6
			c0-2-0.6-3.5-1.7-4.4C17.2,17.4,15.8,17,14.1,17z M17.7,24.4c-0.2,0.4-0.5,0.7-0.8,0.9c-0.3,0.2-0.7,0.4-1.2,0.5l0,0
			C15.2,25.9,14.6,26,14,26H8v-7h6.1c1.2,0,2.2,0.3,2.9,0.8c0.6,0.5,1,1.5,1,2.8C18,23.4,17.9,24,17.7,24.4z"/>
		<path d="M46.6,18c-0.2-1.7-0.7-3.2-1.7-4.3c-0.9-1.1-2.4-1.6-4.2-1.6c-1.1,0-2.1,0.2-2.9,0.6c-0.8,0.4-1.4,0.9-1.9,1.6
			c-0.5,0.6-0.8,1.3-1,2c-0.2,0.6-0.3,1.2-0.3,1.7l-0.1,1.1h12.1L46.6,18z M36.8,17.1c0-0.1,0-0.2,0.1-0.3c0.1-0.5,0.3-0.9,0.6-1.3
			c0.3-0.4,0.7-0.7,1.2-1c0.5-0.3,1.2-0.4,2-0.4c1.2,0,2.2,0.3,2.7,1c0.5,0.5,0.8,1.2,1,2L36.8,17.1L36.8,17.1z"/>
		<path d="M45,24.4c-0.1,0.5-0.6,0.9-1.2,1.4c-0.7,0.5-1.6,0.7-2.6,0.7c-1.5,0-2.6-0.3-3.3-1v0c-0.6-0.5-1-1.5-1.1-2.5h16l0.1-0.9
			c0.1-1.8,0-3.5-0.5-5.2c-0.4-1.7-1.2-3.2-2.1-4.5c-1-1.3-2.3-2.4-3.8-3.2c-1.5-0.8-3.4-1.2-5.4-1.2c-1.8,0-3.5,0.3-5,1
			c-1.5,0.6-2.8,1.5-3.9,2.6c-1.1,1.1-1.9,2.4-2.6,4c-0.6,1.5-0.9,3.2-0.9,4.9c0,1.8,0.3,3.5,0.9,5c0.6,1.5,1.4,2.9,2.5,4
			c1.1,1.1,2.4,2,4,2.6c1.5,0.6,3.3,0.9,5.1,0.9c2.7,0,5.1-0.6,7-1.8c2-1.2,3.5-3.3,4.4-6.1l0.4-1.3h-7.5L45,24.4z M46.6,25.7h3.3
			c-0.8,1.7-1.8,3-3.1,3.8c-1.6,1-3.6,1.5-5.9,1.5c-1.6,0-3.1-0.3-4.4-0.8c-1.3-0.5-2.4-1.2-3.2-2.1c-0.9-0.9-1.6-2-2.1-3.3
			c-0.5-1.3-0.7-2.7-0.7-4.3c0-1.5,0.3-2.9,0.8-4.2c0.5-1.3,1.2-2.4,2.1-3.3c0.9-0.9,2-1.7,3.3-2.2c1.3-0.5,2.7-0.8,4.3-0.8
			c1.7,0,3.2,0.3,4.5,1c1.3,0.6,2.3,1.5,3.1,2.6c0.8,1.1,1.4,2.4,1.8,3.8c0.3,1.1,0.4,2.3,0.4,3.6H34.6v1c0,2,0.7,3.9,1.8,4.9
			c1.1,1.1,2.7,1.6,4.7,1.6c1.4,0,2.7-0.4,3.8-1.1C45.7,26.9,46.3,26.3,46.6,25.7z"/>
		<path d="M48,2H33v5h15V2z M46,5H35V4h11V5z"/>
	</g>
</g>
</svg>
