<?xml version="1.0" encoding="utf-8"?>
<!-- Generator: Adobe Illustrator 21.0.2, SVG Export Plug-In . SVG Version: 6.00 Build 0)  -->
<svg version="1.1" id="Capa_1" xmlns="http://www.w3.org/2000/svg" xmlns:xlink="http://www.w3.org/1999/xlink" x="0px" y="0px"
	 viewBox="0 0 618.7 397.4" style="enable-background:new 0 0 618.7 397.4; fill:#2b3255;" xml:space="preserve">
<style type="text/css">
	.st0{stroke:#000000;stroke-width:2;stroke-miterlimit:10;}
</style>
<g>
	<g id="behance">
		<g>
			<path class="st0" d="M197.3,203.4H96.2c-7.3,0-13.2,5.9-13.2,13.2v92.9c0,7.3,5.9,13.2,13.2,13.2h89.6h3.9h2.8
				c34.7-0.8,54.7-22.1,54.7-58.4C247.2,216.1,214.6,203.4,197.3,203.4z M192,296.2h-82.5v-66.4h87.8c3.9,0.1,23.4,2.1,23.4,34.5
				C220.7,291.8,206.9,295.9,192,296.2z M96.2,176.3h94.9c29.7,0,44.1-17.9,44.1-54.6c0-39.1-24.7-49.4-37.8-49.4H96.2
				c-7.3,0-13.2,5.9-13.2,13.2V163C82.9,170.4,88.9,176.3,96.2,176.3z M109.4,98.8h87.9c0.1,0,11.3,0.3,11.3,22.9
				c0,28.1-8.2,28.1-17.6,28.1h-81.6V98.8L109.4,98.8z M282.3,179.5c14.6-12.1,26.6-32,26.6-63.2c0-64.3-43.8-105.8-111.6-105.8
				H16.5c-7.3,0-13.2,6-13.2,13.3v347.4c0,7.3,5.9,13.2,13.2,13.2h180.4c0.1,0,1.5,0,1.6,0l0,0c8.2,0,37.2-1.1,65.1-15.4
				c26.1-13.4,57.3-41.7,57.2-99.6c0.1-2,2.4-49.7-25-78.7C291.8,186.3,287.2,182.6,282.3,179.5z M294.4,268.7
				c0,36.4-14.4,62.2-42.8,76.8c-23.3,11.9-48.3,12.5-53,12.5l0,0h-1.2H29.8V37h167.5c53.3,0,85.1,29.6,85.1,79.3
				c0,47.9-36.7,52.5-40.8,52.9c-7.1,0.5-12.5,6.6-12.2,13.7c0.3,7.1,6.1,12.8,13.2,12.8c14.5,0,25.6,4.3,34,13.1
				C296.2,229.4,294.5,267.6,294.4,268.7z M614.2,252c0.4-3.1,9.5-77-33.1-125.6c-23.4-26.7-57.4-40.2-101-40.2
				c-75.8,0-111.8,40.3-128.7,74.1c-17.9,35.8-18,71.2-18,71.8c-0.2,2.9-4,71.8,39.9,118.6c25.5,27.2,61.4,40.9,105.9,40.9h0.1
				c0,0,2,0.1,5.5,0.1c61.6,0,127.3-27.8,127.3-105.7c0-7.3-5.9-13.2-13.2-13.2h-61.2c-3.5,0-6.9,1.5-9.4,4.1
				c-2.5,2.5-3.9,6.1-3.8,9.6c0,0.4,0.1,8.7-6.3,15.2c-6.7,6.8-18.3,9.7-35.2,8.6c-21.5-1.5-44.2-6.7-48.2-46.6H601
				C607.7,263.6,613.3,258.6,614.2,252z M588.7,237.1H421.1c-7.3,0-13.2,5.9-13.2,13.2c0,81.2,55.3,85.1,73.5,86.3
				c25.9,1.8,44.1-4,56.4-16.9c6.4-6.7,9.8-14.2,11.5-20.4H585c-3.3,24.9-16.6,42.5-40.3,53.7c-23.3,11.1-49.5,12.2-59.7,12.2
				c-2.4,0-3.9-0.1-4.8-0.1c-37.7,0-67.1-10.9-87.4-32.5c-36-38.2-32.9-98.3-32.9-99.7c0-4.9,1.8-120.3,120.2-120.3
				c35.6,0,62.8,10.5,81,31.1C586.9,173.2,589.2,216.6,588.7,237.1z M481.5,137.2c-51.6,0-71.1,42.5-74.3,65
				c-0.5,3.8,0.6,7.6,3.1,10.5s6.2,4.6,10,4.6h114.1c7.2,0,13.1-5.8,13.2-13.1c0-1.2,0.2-29.5-19.2-49.1
				C516.9,143.2,501,137.2,481.5,137.2z M438.3,190.7c5.7-12.1,17.9-27.1,43.3-27.1c12.3,0,21.5,3.2,28.1,9.9
				c5.1,5.1,8,11.6,9.6,17.2L438.3,190.7L438.3,190.7z M405.4,75h143.3c7.3,0,13.2-5.9,13.2-13.2V18.9c0-7.3-5.9-13.2-13.2-13.2
				H405.4c-7.3,0-13.2,5.9-13.2,13.2v42.8C392.2,69,398.1,75,405.4,75z M418.7,32.2h116.8v16.3H418.7V32.2z"/>
		</g>
	</g>
</g>
</svg>
