<?xml version="1.0" encoding="utf-8"?>
<!-- Generator: Adobe Illustrator 21.0.2, SVG Export Plug-In . SVG Version: 6.00 Build 0)  -->
<svg version="1.1" id="Layer_1" xmlns="http://www.w3.org/2000/svg" xmlns:xlink="http://www.w3.org/1999/xlink" x="0px" y="0px"
	 viewBox="0 0 266.8 266.8" style="enable-background:new 0 0 266.8 266.8;" xml:space="preserve">
<style type="text/css">
	.st0{fill:none;}
	.st1{fill:#4C27F2;}
	.st2{fill:url(#SVGID_2_);}
</style>
<pattern  x="64.8" y="64.8" width="142" height="142" patternUnits="userSpaceOnUse" id="SVGID_1_" viewBox="0.1 -144 142 142" style="overflow:visible;">
	<g>
		<rect x="0.1" y="-144" class="st0" width="142" height="142"/>
		<g>
			<rect x="0.1" y="-144" class="st0" width="142" height="142"/>
			<path class="st1" d="M99.9,0L99.9,0h-3.7l0,0C97.2-1,98.9-1,99.9,0z M127.4,0h2.2C128.9-0.3,128.1-0.3,127.4,0z M144.1-133.7
				L144.1-133.7L144.1-133.7L144.1-133.7z M144.1-74.2v-3c-0.3,0.4-0.5,1-0.5,1.5S143.8-74.7,144.1-74.2z M144.1-91.2v-3
				c-0.3,0.4-0.5,1-0.5,1.5S143.8-91.7,144.1-91.2z M42.5-133.7c0,0.7,0.3,1.4,0.8,1.8c0.5,0.5,1.2,0.8,1.8,0.8
				c0.7,0,1.4-0.3,1.8-0.8c0.5-0.5,0.8-1.2,0.8-1.8c0-0.7-0.3-1.4-0.8-1.8c-1-1-2.7-1-3.7,0C42.8-135,42.5-134.4,42.5-133.7z
				 M27.7-127.1c0.7,0,1.4-0.3,1.8-0.8c0.5-0.5,0.8-1.2,0.8-1.8c0-0.7-0.3-1.3-0.8-1.8c-1-1-2.7-1-3.7,0c-0.5,0.5-0.7,1.1-0.7,1.8
				c0,0.7,0.3,1.4,0.8,1.8C26.3-127.4,27-127.1,27.7-127.1z M28.2-135.6c0.7,0,1.4-0.3,1.8-0.8c0.5-0.5,0.8-1.2,0.8-1.8
				c0-0.7-0.3-1.3-0.8-1.8c-1-1-2.7-1-3.7,0c-0.5,0.5-0.8,1.2-0.8,1.8c0,0.7,0.3,1.4,0.8,1.8C26.8-135.9,27.5-135.6,28.2-135.6z
				 M32.3-132c-0.5,0.5-0.8,1.2-0.8,1.8c0,0.7,0.3,1.4,0.8,1.8c0.5,0.5,1.2,0.8,1.8,0.8c0.7,0,1.4-0.3,1.8-0.8
				c0.5-0.5,0.8-1.2,0.8-1.8c0-0.7-0.3-1.4-0.8-1.8C35-133,33.3-133,32.3-132z M38.6-134.6c0.7,0,1.4-0.3,1.8-0.8
				c0.5-0.5,0.8-1.2,0.8-1.8c0-0.7-0.3-1.4-0.8-1.8c-1-1-2.7-1-3.7,0c-0.5,0.5-0.8,1.2-0.8,1.8c0,0.7,0.3,1.4,0.8,1.8
				C37.3-134.9,38-134.6,38.6-134.6z M48.6-136.1c0.7,0,1.4-0.3,1.8-0.8c0.5-0.5,0.8-1.2,0.8-1.8c0-0.7-0.3-1.4-0.8-1.8
				c-1-1-2.7-1-3.7,0c-0.5,0.5-0.8,1.2-0.8,1.8c0,0.7,0.3,1.4,0.8,1.8C47.3-136.4,48-136.1,48.6-136.1z M62.1-138.1
				c0.7,0,1.4-0.3,1.8-0.8c0.5-0.5,0.8-1.2,0.8-1.8c0-0.7-0.3-1.4-0.8-1.8c-1-1-2.7-1-3.7,0c-0.5,0.5-0.8,1.2-0.8,1.8
				c0,0.7,0.3,1.4,0.8,1.8C60.8-138.3,61.4-138.1,62.1-138.1z M54.8-137c-0.5,0.5-0.8,1.2-0.8,1.8c0,0.7,0.3,1.4,0.8,1.8
				c0.5,0.5,1.2,0.8,1.8,0.8c0.7,0,1.4-0.3,1.8-0.8c0.5-0.5,0.8-1.2,0.8-1.8c0-0.7-0.3-1.4-0.8-1.8C57.5-138,55.8-138,54.8-137z
				 M53.3-131.5c-0.5,0.5-0.8,1.2-0.8,1.8c0,0.7,0.3,1.4,0.8,1.8c0.5,0.5,1.2,0.8,1.8,0.8c0.7,0,1.4-0.3,1.8-0.8
				c0.5-0.5,0.8-1.2,0.8-1.8c0-0.7-0.3-1.4-0.8-1.8C56-132.5,54.3-132.5,53.3-131.5z M49.3-125.5c-0.5,0.5-0.8,1.2-0.8,1.8
				c0,0.7,0.3,1.3,0.8,1.8s1.2,0.8,1.8,0.8c0.7,0,1.4-0.3,1.8-0.8c0.5-0.5,0.8-1.2,0.8-1.8c0-0.7-0.3-1.3-0.8-1.8
				C52-126.5,50.3-126.5,49.3-125.5z M43.1-124.6c0.7,0,1.4-0.3,1.8-0.8c0.5-0.5,0.8-1.2,0.8-1.8c0-0.7-0.3-1.4-0.8-1.8
				c-1-1-2.7-1-3.7,0c-0.5,0.5-0.8,1.2-0.8,1.8c0,0.7,0.3,1.4,0.8,1.8C41.8-124.9,42.5-124.6,43.1-124.6z M40.8-118.4
				c0.5,0.5,1.2,0.8,1.8,0.8c0.7,0,1.4-0.3,1.8-0.8c0.5-0.5,0.8-1.2,0.8-1.8c0-0.7-0.3-1.4-0.8-1.8c-1-1-2.7-1-3.7,0
				c-0.5,0.5-0.8,1.2-0.8,1.8C40-119.5,40.3-118.8,40.8-118.4z M30.8-124c-0.5,0.5-0.8,1.2-0.8,1.8c0,0.7,0.3,1.4,0.8,1.8
				c0.5,0.5,1.2,0.8,1.8,0.8c0.7,0,1.4-0.3,1.8-0.8c0.5-0.5,0.8-1.2,0.8-1.8c0-0.7-0.3-1.4-0.8-1.8C33.5-125,31.8-125,30.8-124z
				 M37.3-117.5c-0.5,0.5-0.8,1.2-0.8,1.8c0,0.7,0.3,1.4,0.8,1.8c0.5,0.5,1.2,0.8,1.8,0.8c0.7,0,1.4-0.3,1.8-0.8
				c0.5-0.5,0.8-1.2,0.8-1.8c0-0.7-0.3-1.4-0.8-1.8C40-118.5,38.3-118.5,37.3-117.5z M41.8-111.1c-0.5,0.5-0.8,1.2-0.8,1.8
				c0,0.7,0.3,1.4,0.8,1.8c0.5,0.5,1.2,0.8,1.8,0.8c0.7,0,1.4-0.3,1.8-0.8c0.5-0.5,0.8-1.2,0.8-1.8c0-0.7-0.3-1.4-0.8-1.8
				C44.5-112.1,42.8-112.1,41.8-111.1z M47.8-108.5c-0.5,0.5-0.8,1.2-0.8,1.8c0,0.6,0.3,1.4,0.8,1.8c0.5,0.5,1.2,0.8,1.8,0.8
				c0.7,0,1.4-0.3,1.8-0.8c0.5-0.5,0.8-1.2,0.8-1.8c0-0.6-0.3-1.3-0.8-1.8C50.5-109.5,48.8-109.5,47.8-108.5z M53.8-112
				c-0.5,0.5-0.8,1.2-0.8,1.8c0,0.6,0.3,1.4,0.8,1.8c0.5,0.5,1.2,0.8,1.8,0.8c0.7,0,1.4-0.3,1.8-0.8c0.5-0.5,0.8-1.2,0.8-1.8
				c0-0.6-0.3-1.4-0.8-1.8C56.5-113,54.7-113,53.8-112z M52.8-118.5c-0.5,0.5-0.8,1.2-0.8,1.8c0,0.7,0.3,1.4,0.8,1.8
				c0.5,0.5,1.2,0.8,1.8,0.8c0.7,0,1.4-0.3,1.8-0.8c0.5-0.5,0.8-1.2,0.8-1.8c0-0.7-0.3-1.4-0.8-1.8
				C55.5-119.5,53.8-119.5,52.8-118.5z M56.8-123c-0.5,0.5-0.8,1.2-0.8,1.8c0,0.7,0.3,1.4,0.8,1.8c0.5,0.5,1.2,0.8,1.8,0.8
				c0.7,0,1.4-0.3,1.8-0.8c0.5-0.5,0.8-1.2,0.8-1.8c0-0.7-0.3-1.3-0.8-1.8C59.5-124,57.8-124,56.8-123z M65.3-123
				c-0.5,0.5-0.8,1.2-0.8,1.8c0,0.7,0.3,1.4,0.8,1.8c0.5,0.5,1.2,0.8,1.8,0.8s1.4-0.3,1.8-0.8c0.5-0.5,0.8-1.2,0.8-1.8
				c0-0.7-0.3-1.4-0.8-1.8C68-124,66.2-124,65.3-123z M65.4-113.5c-1-1-2.7-1-3.7,0c-0.5,0.5-0.8,1.2-0.8,1.8s0.3,1.4,0.8,1.8
				c0.5,0.5,1.2,0.8,1.8,0.8s1.4-0.3,1.8-0.8c0.5-0.5,0.8-1.2,0.8-1.8C66.1-112.3,65.9-113.1,65.4-113.5z M66.3-106.6
				c-0.5,0.5-0.8,1.2-0.8,1.8c0,0.7,0.3,1.4,0.8,1.8c0.5,0.5,1.2,0.8,1.8,0.8s1.4-0.3,1.8-0.8c0.5-0.5,0.8-1.2,0.8-1.8
				c0-0.7-0.3-1.3-0.8-1.8C69-107.5,67.2-107.5,66.3-106.6z M58.5-104.2c0,0.7,0.3,1.4,0.8,1.8c0.5,0.5,1.2,0.8,1.8,0.8
				c0.7,0,1.4-0.3,1.8-0.8c0.5-0.5,0.8-1.2,0.8-1.8c0-0.7-0.3-1.4-0.8-1.8c-1-1-2.7-1-3.7,0C58.8-105.6,58.5-104.9,58.5-104.2z
				 M54.1-100.1c0.7,0,1.4-0.3,1.8-0.8c0.5-0.5,0.8-1.2,0.8-1.8c0-0.7-0.3-1.4-0.8-1.8c-1-1-2.7-1-3.7,0c-0.5,0.5-0.8,1.2-0.8,1.8
				c0,0.7,0.3,1.4,0.8,1.8C52.8-100.4,53.4-100.1,54.1-100.1z M71.3-111.9c0.5,0.5,1.2,0.8,1.8,0.8c0.7,0,1.4-0.3,1.8-0.8
				c0.5-0.5,0.8-1.2,0.8-1.8s-0.3-1.3-0.8-1.8c-1-1-2.7-1-3.7,0c-0.5,0.5-0.8,1.2-0.8,1.8S70.8-112.3,71.3-111.9z M60.8-130
				c-0.5,0.5-0.8,1.2-0.8,1.8c0,0.7,0.3,1.4,0.8,1.8c0.5,0.5,1.2,0.8,1.8,0.8c0.7,0,1.4-0.3,1.8-0.8c0.5-0.5,0.8-1.2,0.8-1.8
				c0-0.7-0.3-1.4-0.8-1.8C63.5-131,61.8-131,60.8-130z M64.8-132.3c0.5,0.5,1.2,0.8,1.8,0.8c0.7,0,1.4-0.3,1.8-0.8
				c0.5-0.5,0.8-1.2,0.8-1.8c0-0.7-0.3-1.4-0.8-1.8c-1-1-2.7-1-3.7,0c-0.5,0.5-0.8,1.2-0.8,1.8C64-133.5,64.3-132.8,64.8-132.3z
				 M72.1-138.6c0.7,0,1.4-0.3,1.8-0.8c0.5-0.5,0.8-1.2,0.8-1.8c0-0.7-0.3-1.3-0.8-1.8c-1-1-2.7-1-3.7,0c-0.5,0.5-0.8,1.2-0.8,1.8
				c0,0.7,0.3,1.4,0.8,1.8C70.7-138.8,71.4-138.6,72.1-138.6z M71.8-136.5c-0.5,0.5-0.8,1.2-0.8,1.8c0,0.7,0.3,1.4,0.8,1.8
				c0.5,0.5,1.2,0.8,1.8,0.8c0.7,0,1.4-0.3,1.8-0.8c0.5-0.5,0.8-1.2,0.8-1.8c0-0.7-0.3-1.3-0.8-1.8
				C74.5-137.5,72.7-137.5,71.8-136.5z M71.3-130.5c-0.5,0.5-0.8,1.2-0.8,1.8c0,0.7,0.3,1.4,0.8,1.8c0.5,0.5,1.2,0.8,1.8,0.8
				c0.7,0,1.4-0.3,1.8-0.8c0.5-0.5,0.8-1.2,0.8-1.8c0-0.7-0.3-1.3-0.8-1.8C74-131.5,72.2-131.5,71.3-130.5z M71.8-123
				c-0.5,0.5-0.8,1.2-0.8,1.8c0,0.7,0.3,1.4,0.8,1.8c0.5,0.5,1.2,0.8,1.8,0.8c0.7,0,1.4-0.3,1.8-0.8c0.5-0.5,0.8-1.2,0.8-1.8
				c0-0.7-0.3-1.3-0.8-1.8C74.5-124,72.7-124,71.8-123z M80.6-135.1c0.7,0,1.4-0.3,1.8-0.8c0.5-0.5,0.8-1.2,0.8-1.8
				c0-0.7-0.3-1.4-0.8-1.8c-1-1-2.7-1-3.7,0c-0.5,0.5-0.8,1.2-0.8,1.8c0,0.7,0.3,1.4,0.8,1.8C79.2-135.4,79.9-135.1,80.6-135.1z
				 M80.2-132c-0.5,0.5-0.8,1.2-0.8,1.8c0,0.7,0.3,1.4,0.8,1.8c0.5,0.5,1.2,0.8,1.8,0.8c0.7,0,1.4-0.3,1.8-0.8
				c0.5-0.5,0.8-1.2,0.8-1.8c0-0.7-0.3-1.4-0.8-1.8C83-133,81.2-133,80.2-132z M79.2-124c-0.5,0.5-0.8,1.2-0.8,1.8
				c0,0.7,0.3,1.4,0.8,1.8c0.5,0.5,1.2,0.8,1.8,0.8c0.7,0,1.4-0.3,1.8-0.8c0.5-0.5,0.8-1.2,0.8-1.8c0-0.7-0.3-1.4-0.8-1.8
				C82-125,80.2-125,79.2-124z M79.7-115c-0.5,0.5-0.8,1.2-0.8,1.8s0.3,1.4,0.8,1.8c0.5,0.5,1.2,0.8,1.8,0.8c0.7,0,1.4-0.3,1.8-0.8
				c0.5-0.5,0.8-1.2,0.8-1.8s-0.3-1.4-0.8-1.8C82.5-116,80.7-116,79.7-115z M82.7-108c-0.5,0.5-0.8,1.2-0.8,1.8
				c0,0.7,0.3,1.4,0.8,1.8c0.5,0.5,1.2,0.8,1.8,0.8c0.7,0,1.4-0.3,1.8-0.8c0.5-0.5,0.8-1.2,0.8-1.8c0-0.7-0.3-1.4-0.8-1.8
				C85.5-109,83.7-109,82.7-108z M73.3-108.5c-0.5,0.5-0.8,1.2-0.8,1.8c0,0.6,0.3,1.4,0.8,1.8c0.5,0.5,1.2,0.8,1.8,0.8
				c0.7,0,1.4-0.3,1.8-0.8c0.5-0.5,0.8-1.2,0.8-1.8c0-0.6-0.3-1.4-0.8-1.8C76-109.5,74.2-109.5,73.3-108.5z M75.8-99.6
				c-0.5,0.5-0.8,1.2-0.8,1.8c0,0.7,0.3,1.4,0.8,1.8c0.5,0.5,1.2,0.8,1.8,0.8c0.7,0,1.4-0.3,1.8-0.8c0.5-0.5,0.8-1.2,0.8-1.8
				c0-0.7-0.3-1.4-0.8-1.8C78.5-100.5,76.7-100.5,75.8-99.6z M67.3-100.1c-0.5,0.5-0.8,1.2-0.8,1.8c0,0.7,0.3,1.4,0.8,1.8
				c0.5,0.5,1.2,0.8,1.8,0.8s1.4-0.3,1.8-0.8c0.5-0.5,0.8-1.2,0.8-1.8c0-0.7-0.3-1.4-0.8-1.8C70-101,68.2-101,67.3-100.1z
				 M90.7-105.1c-0.5,0.5-0.8,1.2-0.8,1.8c0,0.7,0.3,1.4,0.8,1.8c0.5,0.5,1.2,0.8,1.8,0.8c0.7,0,1.4-0.3,1.8-0.8
				c0.5-0.5,0.8-1.2,0.8-1.8c0-0.7-0.3-1.4-0.8-1.8C93.5-106,91.7-106,90.7-105.1z M88.7-112c-0.5,0.5-0.8,1.2-0.8,1.8
				c0,0.6,0.3,1.4,0.8,1.8c0.5,0.5,1.2,0.8,1.8,0.8c0.7,0,1.4-0.3,1.8-0.8c0.5-0.5,0.8-1.2,0.8-1.8c0-0.6-0.3-1.4-0.8-1.8
				C91.5-113,89.7-113,88.7-112z M88.6-114.6c0.7,0,1.4-0.3,1.8-0.8c0.5-0.5,0.8-1.2,0.8-1.8c0-0.7-0.3-1.4-0.8-1.8
				c-1-1-2.7-1-3.7,0c-0.5,0.5-0.8,1.2-0.8,1.8c0,0.7,0.3,1.4,0.8,1.8C87.2-114.9,87.9-114.6,88.6-114.6z M87.2-127
				c-0.5,0.5-0.8,1.2-0.8,1.8c0,0.7,0.3,1.4,0.8,1.8c0.5,0.5,1.2,0.8,1.8,0.8c0.7,0,1.4-0.3,1.8-0.8c0.5-0.5,0.8-1.2,0.8-1.8
				c0-0.7-0.3-1.4-0.8-1.8C90-128,88.2-128,87.2-127z M86.7-135.5c-0.5,0.5-0.8,1.2-0.8,1.8c0,0.7,0.3,1.4,0.8,1.8
				c0.5,0.5,1.2,0.8,1.8,0.8c0.7,0,1.4-0.3,1.8-0.8c0.5-0.5,0.8-1.2,0.8-1.8c0-0.7-0.3-1.4-0.8-1.8
				C89.4-136.5,87.7-136.5,86.7-135.5z M88.1-137.6c0.7,0,1.4-0.3,1.8-0.8c0.5-0.5,0.8-1.2,0.8-1.8c0-0.7-0.3-1.4-0.8-1.8
				c-1-1-2.7-1-3.7,0c-0.5,0.5-0.8,1.2-0.8,1.8c0,0.7,0.3,1.4,0.8,1.8C86.7-137.8,87.4-137.6,88.1-137.6z M98.1-139.6
				c0.7,0,1.4-0.3,1.8-0.8c0.5-0.5,0.8-1.2,0.8-1.8c0-0.7-0.3-1.4-0.8-1.8h-3.7c-0.5,0.5-0.8,1.2-0.8,1.8c0,0.7,0.3,1.4,0.8,1.8
				C96.7-139.8,97.4-139.6,98.1-139.6z M96.6-131.1c0.7,0,1.4-0.3,1.8-0.8c0.5-0.5,0.8-1.2,0.8-1.8c0-0.7-0.3-1.4-0.8-1.8
				c-1-1-2.7-1-3.7,0c-0.5,0.5-0.8,1.2-0.8,1.8c0,0.7,0.3,1.4,0.8,1.8C95.2-131.4,95.9-131.1,96.6-131.1z M103.6-131.1
				c0.7,0,1.4-0.3,1.8-0.8c0.5-0.5,0.8-1.2,0.8-1.8c0-0.7-0.3-1.4-0.8-1.8c-1-1-2.7-1-3.7,0c-0.5,0.5-0.8,1.2-0.8,1.8
				c0,0.7,0.3,1.4,0.8,1.8C102.2-131.4,102.9-131.1,103.6-131.1z M103.1-124.1c0.7,0,1.4-0.3,1.8-0.8c0.5-0.5,0.8-1.2,0.8-1.8
				c0-0.7-0.3-1.4-0.8-1.8c-1-1-2.7-1-3.7,0c-0.5,0.5-0.8,1.2-0.8,1.8c0,0.7,0.3,1.4,0.8,1.8C101.7-124.4,102.4-124.1,103.1-124.1z
				 M95.6-124.6c0.7,0,1.4-0.3,1.8-0.8c0.5-0.5,0.8-1.1,0.8-1.8c0-0.7-0.3-1.4-0.8-1.8c-1-1-2.7-1-3.7,0c-0.5,0.5-0.8,1.2-0.8,1.8
				c0,0.7,0.3,1.4,0.8,1.8C94.2-124.9,94.9-124.6,95.6-124.6z M94.2-120c-0.5,0.5-0.8,1.2-0.8,1.8c0,0.7,0.3,1.4,0.8,1.8
				c0.5,0.5,1.2,0.8,1.8,0.8c0.7,0,1.4-0.3,1.8-0.8c0.5-0.5,0.8-1.2,0.8-1.8c0-0.7-0.3-1.4-0.8-1.8C96.9-121,95.2-121,94.2-120z
				 M101.2-116.4c0.5,0.5,1.2,0.8,1.8,0.8c0.7,0,1.4-0.3,1.8-0.8c0.5-0.5,0.8-1.2,0.8-1.8c0-0.7-0.3-1.4-0.8-1.8c-1-1-2.7-1-3.7,0
				c-0.5,0.5-0.8,1.2-0.8,1.8C100.5-117.5,100.7-116.8,101.2-116.4z M95.7-113c-0.5,0.5-0.8,1.2-0.8,1.8s0.3,1.4,0.8,1.8
				c0.5,0.5,1.2,0.8,1.8,0.8c0.7,0,1.4-0.3,1.8-0.8c0.5-0.5,0.8-1.2,0.8-1.8s-0.3-1.4-0.8-1.8C98.4-114,96.7-114,95.7-113z
				 M98-102.7c0,0.7,0.3,1.4,0.8,1.8c0.5,0.5,1.2,0.8,1.8,0.8c0.7,0,1.4-0.3,1.8-0.8c0.5-0.5,0.8-1.2,0.8-1.8c0-0.7-0.3-1.4-0.8-1.8
				c-1-1-2.7-1-3.7,0C98.2-104.1,98-103.4,98-102.7z M102.2-98.1c-0.5,0.5-0.8,1.2-0.8,1.8c0,0.7,0.3,1.4,0.8,1.8
				c0.5,0.5,1.2,0.8,1.8,0.8c0.7,0,1.4-0.3,1.8-0.8c0.5-0.5,0.8-1.2,0.8-1.8c0-0.7-0.3-1.4-0.8-1.8C104.9-99,103.2-99,102.2-98.1z
				 M107.2-103.6c-0.5,0.5-0.8,1.2-0.8,1.8c0,0.7,0.3,1.4,0.8,1.8c0.5,0.5,1.2,0.8,1.8,0.8c0.7,0,1.4-0.3,1.8-0.8
				c0.5-0.5,0.8-1.2,0.8-1.8c0-0.7-0.3-1.4-0.8-1.8C109.9-104.5,108.2-104.5,107.2-103.6z M104.2-110.5c-0.5,0.5-0.8,1.2-0.8,1.8
				c0,0.6,0.3,1.4,0.8,1.8c0.5,0.5,1.2,0.8,1.8,0.8c0.7,0,1.4-0.3,1.8-0.8c0.5-0.5,0.8-1.2,0.8-1.8c0-0.6-0.3-1.4-0.8-1.8
				C106.9-111.5,105.2-111.5,104.2-110.5z M108.7-112.9c0.5,0.5,1.2,0.8,1.8,0.8s1.4-0.3,1.8-0.8c0.5-0.5,0.8-1.2,0.8-1.8
				s-0.3-1.4-0.8-1.8c-1-1-2.7-1-3.7,0c-0.5,0.5-0.8,1.2-0.8,1.8S108.2-113.3,108.7-112.9z M111-120.6c0.7,0,1.4-0.3,1.8-0.8
				c0.5-0.5,0.8-1.2,0.8-1.8c0-0.7-0.3-1.4-0.8-1.8c-1-1-2.7-1-3.7,0c-0.5,0.5-0.8,1.2-0.8,1.8c0,0.7,0.3,1.4,0.8,1.8
				C109.7-120.9,110.4-120.6,111-120.6z M115.4-131.2c0,0.7,0.3,1.3,0.8,1.8s1.2,0.8,1.8,0.8c0.7,0,1.4-0.3,1.8-0.8
				c0.5-0.5,0.8-1.2,0.8-1.8c0-0.7-0.3-1.4-0.8-1.8c-1-1-2.7-1-3.7,0C115.7-132.5,115.4-131.9,115.4-131.2z M122-135.6
				c0.7,0,1.4-0.3,1.8-0.8c0.5-0.5,0.8-1.2,0.8-1.8c0-0.7-0.3-1.4-0.8-1.8c-1-1-2.7-1-3.7,0c-0.5,0.5-0.8,1.2-0.8,1.8
				c0,0.7,0.3,1.4,0.8,1.8C120.7-135.9,121.4-135.6,122-135.6z M128.5-139.1c0.7,0,1.4-0.3,1.8-0.8c0.5-0.5,0.8-1.2,0.8-1.8
				c0-0.7-0.3-1.4-0.8-1.8c-0.2-0.2-0.5-0.4-0.8-0.5h-2.2c-0.3,0.1-0.5,0.3-0.8,0.5c-0.5,0.5-0.8,1.2-0.8,1.8c0,0.7,0.3,1.4,0.8,1.8
				C127.2-139.3,127.8-139.1,128.5-139.1z M129.9-137.7c0,0.7,0.3,1.4,0.8,1.8c0.5,0.5,1.2,0.8,1.8,0.8c0.7,0,1.4-0.3,1.8-0.8
				c0.5-0.5,0.8-1.2,0.8-1.8c0-0.7-0.3-1.4-0.8-1.8c-0.9-1-2.7-1-3.7,0C130.2-139,129.9-138.3,129.9-137.7z M122.9-131.7
				c0,0.7,0.3,1.4,0.8,1.8c0.5,0.5,1.2,0.8,1.8,0.8c0.7,0,1.4-0.3,1.8-0.8c0.5-0.5,0.8-1.2,0.8-1.8c0-0.7-0.3-1.4-0.8-1.8
				c-0.9-1-2.7-1-3.7,0C123.2-133,122.9-132.4,122.9-131.7z M124-121.6c0.7,0,1.4-0.3,1.8-0.8c0.5-0.5,0.8-1.2,0.8-1.8
				c0-0.7-0.3-1.4-0.8-1.8c-1-1-2.7-1-3.7,0c-0.5,0.5-0.8,1.2-0.8,1.8c0,0.7,0.3,1.4,0.8,1.8C122.7-121.9,123.4-121.6,124-121.6z
				 M116.7-121.5c-0.5,0.5-0.8,1.2-0.8,1.8c0,0.7,0.3,1.4,0.8,1.8c0.5,0.5,1.2,0.8,1.8,0.8c0.7,0,1.4-0.3,1.8-0.8
				c0.5-0.5,0.8-1.2,0.8-1.8c0-0.7-0.3-1.4-0.8-1.8C119.4-122.5,117.7-122.5,116.7-121.5z M121.7-112.4c0.5,0.5,1.2,0.8,1.8,0.8
				c0.7,0,1.4-0.3,1.8-0.8c0.5-0.5,0.8-1.2,0.8-1.8s-0.3-1.4-0.8-1.8c-1-1-2.7-1-3.7,0c-0.5,0.5-0.8,1.2-0.8,1.8
				S121.2-112.8,121.7-112.4z M133.6-112.2c0-0.7-0.3-1.4-0.8-1.8c-1-1-2.7-1-3.7,0c-0.5,0.5-0.8,1.2-0.8,1.8s0.3,1.4,0.8,1.8
				c0.5,0.5,1.2,0.8,1.8,0.8c0.7,0,1.4-0.3,1.8-0.8C133.3-110.8,133.6-111.5,133.6-112.2z M124.4-107.7c0,0.7,0.3,1.4,0.8,1.8
				c0.5,0.5,1.2,0.8,1.8,0.8c0.7,0,1.4-0.3,1.8-0.8c0.5-0.5,0.8-1.2,0.8-1.8s-0.3-1.4-0.8-1.8c-1-1-2.7-1-3.7,0
				C124.7-109.1,124.4-108.4,124.4-107.7z M118.2-108.5c-0.5,0.5-0.8,1.2-0.8,1.8c0,0.6,0.3,1.4,0.8,1.8c0.5,0.5,1.2,0.8,1.8,0.8
				c0.7,0,1.4-0.3,1.8-0.8c0.5-0.5,0.8-1.2,0.8-1.8c0-0.6-0.3-1.4-0.8-1.8C120.9-109.5,119.2-109.5,118.2-108.5z M112.7-109.5
				c-0.5,0.5-0.8,1.2-0.8,1.8c0,0.6,0.3,1.4,0.8,1.8c0.5,0.5,1.2,0.8,1.8,0.8s1.4-0.3,1.8-0.8c0.5-0.5,0.8-1.2,0.8-1.8
				c0-0.6-0.3-1.4-0.8-1.8C115.4-110.5,113.7-110.5,112.7-109.5z M115.4-99.2c0,0.7,0.3,1.3,0.8,1.8s1.2,0.8,1.8,0.8
				c0.7,0,1.4-0.3,1.8-0.8c0.5-0.5,0.8-1.2,0.8-1.8c0-0.7-0.3-1.4-0.8-1.8c-1-1-2.7-1-3.7,0C115.7-100.6,115.4-99.9,115.4-99.2z
				 M127-99.1c0.7,0,1.4-0.3,1.8-0.8c0.5-0.5,0.8-1.2,0.8-1.8c0-0.7-0.3-1.4-0.8-1.8c-1-1-2.7-1-3.7,0c-0.5,0.5-0.8,1.2-0.8,1.8
				c0,0.7,0.3,1.4,0.8,1.8C125.7-99.4,126.3-99.1,127-99.1z M138.1-99.7c0-0.7-0.3-1.4-0.8-1.8c-0.9-1-2.7-1-3.7,0
				c-0.5,0.5-0.8,1.2-0.8,1.8c0,0.7,0.3,1.3,0.8,1.8s1.2,0.8,1.8,0.8c0.7,0,1.4-0.3,1.8-0.8C137.8-98.4,138.1-99,138.1-99.7z
				 M137.4-108.5c-1-1-2.7-1-3.7,0c-0.5,0.5-0.8,1.2-0.8,1.8c0,0.6,0.3,1.4,0.8,1.8c0.5,0.5,1.2,0.8,1.8,0.8c0.7,0,1.4-0.3,1.8-0.8
				c0.5-0.5,0.8-1.2,0.8-1.8C138.1-107.3,137.8-108.1,137.4-108.5z M126.9-120.2c0,0.7,0.3,1.4,0.8,1.8c0.5,0.5,1.2,0.8,1.8,0.8
				c0.7,0,1.4-0.3,1.8-0.8c0.5-0.5,0.8-1.2,0.8-1.8c0-0.7-0.3-1.4-0.8-1.8c-1-1-2.7-1-3.7,0C127.2-121.6,126.9-120.9,126.9-120.2z
				 M129.2-129.5c-0.5,0.5-0.8,1.2-0.8,1.8c0,0.7,0.3,1.4,0.8,1.8c0.5,0.5,1.2,0.8,1.8,0.8c0.7,0,1.4-0.3,1.8-0.8
				c0.5-0.5,0.8-1.2,0.8-1.8c0-0.7-0.3-1.4-0.8-1.8C131.9-130.5,130.2-130.5,129.2-129.5z M138-129.1c0.7,0,1.4-0.3,1.8-0.8
				c0.5-0.5,0.8-1.2,0.8-1.8c0-0.7-0.3-1.4-0.8-1.8c-1-1-2.7-1-3.7,0c-0.5,0.5-0.8,1.2-0.8,1.8c0,0.7,0.3,1.4,0.8,1.8
				C136.7-129.4,137.3-129.1,138-129.1z M140-138.6c0.7,0,1.4-0.3,1.8-0.8c0.5-0.5,0.8-1.2,0.8-1.8c0-0.7-0.3-1.4-0.8-1.8
				c-1-1-2.7-1-3.7,0c-0.5,0.5-0.8,1.2-0.8,1.8c0,0.7,0.3,1.3,0.8,1.8C138.7-138.8,139.3-138.6,140-138.6z M138-116.1
				c0.7,0,1.4-0.3,1.8-0.8c0.5-0.5,0.8-1.2,0.8-1.8c0-0.7-0.3-1.4-0.8-1.8c-1-1-2.7-1-3.7,0c-0.5,0.5-0.8,1.2-0.8,1.8
				c0,0.7,0.3,1.4,0.8,1.8C136.7-116.4,137.3-116.1,138-116.1z M139.7-113.5c-0.5,0.5-0.8,1.2-0.8,1.8s0.3,1.4,0.8,1.8
				c0.5,0.5,1.2,0.8,1.8,0.8c0.7,0,1.4-0.3,1.8-0.8c0.5-0.5,0.8-1.1,0.8-1.8l0,0c0-0.7-0.3-1.3-0.8-1.8
				C142.4-114.5,140.6-114.5,139.7-113.5z M108.9-133.2c0,0.7,0.3,1.4,0.8,1.8c0.5,0.5,1.2,0.8,1.8,0.8s1.4-0.3,1.8-0.8
				c0.5-0.5,0.8-1.2,0.8-1.8c0-0.7-0.3-1.4-0.8-1.8c-1-1-2.7-1-3.7,0C109.2-134.5,108.9-133.9,108.9-133.2z M114.5-137.6
				c0.7,0,1.4-0.3,1.8-0.8c0.5-0.5,0.8-1.2,0.8-1.8c0-0.7-0.3-1.4-0.8-1.8c-1-1-2.7-1-3.7,0c-0.5,0.5-0.8,1.2-0.8,1.8
				c0,0.7,0.3,1.4,0.8,1.8C113.2-137.8,113.9-137.6,114.5-137.6z M106.6-136.1c0.7,0,1.4-0.3,1.8-0.8c0.5-0.5,0.8-1.2,0.8-1.8
				c0-0.7-0.3-1.4-0.8-1.8c-1-1-2.7-1-3.7,0c-0.5,0.5-0.8,1.2-0.8,1.8c0,0.7,0.3,1.4,0.8,1.8C105.2-136.4,105.9-136.1,106.6-136.1z
				 M44.8-101.6c-0.5,0.5-0.8,1.2-0.8,1.8c0,0.7,0.3,1.4,0.8,1.8c0.5,0.5,1.2,0.8,1.8,0.8c0.7,0,1.4-0.3,1.8-0.8
				c0.5-0.5,0.8-1.2,0.8-1.8c0-0.7-0.3-1.4-0.8-1.8C47.5-102.5,45.8-102.5,44.8-101.6z M36.8-103.4c0.5,0.5,1.2,0.8,1.8,0.8
				c0.7,0,1.4-0.3,1.8-0.8c0.5-0.5,0.8-1.2,0.8-1.8c0-0.7-0.3-1.3-0.8-1.8c-1-1-2.7-1-3.7,0c-0.5,0.5-0.8,1.2-0.8,1.8
				C36-104.5,36.3-103.9,36.8-103.4z M32.7-108.6c0.7,0,1.4-0.3,1.8-0.8c0.5-0.5,0.8-1.2,0.8-1.8s-0.3-1.4-0.8-1.8c-1-1-2.7-1-3.7,0
				c-0.5,0.5-0.8,1.2-0.8,1.8s0.3,1.4,0.8,1.8C31.3-108.9,32-108.6,32.7-108.6z M26.3-119c-0.5,0.5-0.8,1.2-0.8,1.8
				c0,0.7,0.3,1.4,0.8,1.8c0.5,0.5,1.2,0.8,1.8,0.8c0.7,0,1.4-0.3,1.8-0.8c0.5-0.5,0.8-1.2,0.8-1.8c0-0.7-0.3-1.3-0.8-1.8
				C29-120,27.3-120,26.3-119z M21.8-124.5c-0.5,0.5-0.7,1.1-0.7,1.8c0,0.7,0.3,1.4,0.8,1.8c0.5,0.5,1.2,0.8,1.8,0.8
				s1.4-0.3,1.8-0.8c0.5-0.5,0.8-1.2,0.8-1.8c0-0.7-0.3-1.4-0.8-1.8C24.5-125.5,22.8-125.5,21.8-124.5z M28.1-103.2
				c0,0.7,0.3,1.4,0.8,1.8c0.5,0.5,1.2,0.8,1.8,0.8c0.7,0,1.4-0.3,1.8-0.8c0.5-0.5,0.8-1.2,0.8-1.8c0-0.7-0.3-1.3-0.8-1.8
				c-1-1-2.7-1-3.7,0C28.3-104.6,28.1-103.9,28.1-103.2z M33.8-100.6c-0.5,0.5-0.8,1.2-0.8,1.8c0,0.7,0.3,1.4,0.8,1.8
				c0.5,0.5,1.2,0.8,1.8,0.8c0.7,0,1.4-0.3,1.8-0.8c0.5-0.5,0.8-1.2,0.8-1.8c0-0.7-0.3-1.4-0.8-1.8
				C36.5-101.5,34.8-101.5,33.8-100.6z M24.8-97.6c-0.5,0.5-0.8,1.2-0.8,1.8c0,0.7,0.3,1.4,0.8,1.8c0.5,0.5,1.2,0.8,1.8,0.8
				s1.4-0.3,1.8-0.8c0.5-0.5,0.8-1.2,0.8-1.8c0-0.7-0.3-1.4-0.8-1.8C27.5-98.5,25.8-98.5,24.8-97.6z M19.1-101.7
				c0,0.7,0.3,1.4,0.8,1.8c0.5,0.5,1.2,0.8,1.8,0.8s1.4-0.3,1.8-0.8c0.5-0.5,0.8-1.2,0.8-1.8c0-0.7-0.3-1.3-0.8-1.8
				c-1-1-2.7-1-3.7,0C19.3-103.1,19.1-102.4,19.1-101.7z M44.8-116.5c-0.5,0.5-0.8,1.2-0.8,1.8s0.3,1.4,0.8,1.8
				c0.5,0.5,1.2,0.8,1.8,0.8c0.7,0,1.4-0.3,1.8-0.8c0.5-0.5,0.8-1.2,0.8-1.8s-0.3-1.4-0.8-1.8C47.5-117.5,45.8-117.5,44.8-116.5z
				 M2.7-131.1c0.7,0,1.4-0.3,1.8-0.8c0.5-0.5,0.8-1.2,0.8-1.8c0-0.7-0.3-1.3-0.8-1.8c-1-1-2.7-1-3.7,0c-0.4,0.5-0.7,1.1-0.7,1.8
				v0.1c0,0.7,0.3,1.3,0.8,1.8C1.3-131.4,2-131.1,2.7-131.1z M2.6-114.7c0,0.7,0.3,1.4,0.8,1.8c0.5,0.5,1.2,0.8,1.8,0.8
				c0.7,0,1.4-0.3,1.8-0.8c0.5-0.5,0.8-1.2,0.8-1.8s-0.3-1.4-0.8-1.8c-1-1-2.7-1-3.7,0C2.9-116.1,2.6-115.4,2.6-114.7z M9.2-105.6
				c0.7,0,1.4-0.3,1.8-0.8c0.5-0.5,0.8-1.2,0.8-1.8s-0.3-1.3-0.8-1.8c-1-1-2.7-1-3.7,0c-0.5,0.5-0.8,1.2-0.8,1.8s0.3,1.4,0.8,1.8
				C7.8-105.9,8.5-105.6,9.2-105.6z M4.4-123.5c-0.5,0.5-0.8,1.2-0.8,1.8c0,0.7,0.3,1.4,0.8,1.8c0.5,0.5,1.2,0.8,1.8,0.8
				c0.7,0,1.4-0.3,1.8-0.8c0.5-0.5,0.8-1.2,0.8-1.8c0-0.7-0.3-1.4-0.8-1.8C7-124.5,5.3-124.5,4.4-123.5z M14.8-138
				c-0.4,0.5-0.7,1.1-0.7,1.8c0,0.7,0.3,1.4,0.8,1.8c0.5,0.5,1.2,0.8,1.8,0.8c0.7,0,1.4-0.3,1.8-0.8c0.5-0.5,0.8-1.2,0.8-1.8
				c0-0.7-0.3-1.4-0.8-1.8C17.6-139,15.8-139,14.8-138z M7.6-135.2c0,0.7,0.3,1.4,0.8,1.8c0.5,0.5,1.2,0.8,1.8,0.8
				c0.7,0,1.4-0.3,1.8-0.8c0.5-0.5,0.8-1.2,0.8-1.8c0-0.7-0.3-1.4-0.8-1.8c-1-1-2.7-1-3.7,0C7.9-136.5,7.6-135.9,7.6-135.2z
				 M8.8-130.5c-0.4,0.5-0.7,1.1-0.7,1.8c0,0.7,0.3,1.4,0.8,1.8c0.5,0.5,1.2,0.8,1.8,0.8c0.7,0,1.4-0.3,1.8-0.8
				c0.5-0.5,0.8-1.2,0.8-1.8c0-0.7-0.3-1.3-0.8-1.8C11.6-131.5,9.8-131.5,8.8-130.5z M18.3-132c-0.5,0.5-0.8,1.2-0.8,1.8
				c0,0.7,0.3,1.4,0.8,1.8c0.5,0.5,1.2,0.8,1.8,0.8s1.4-0.3,1.8-0.8c0.5-0.5,0.8-1.2,0.8-1.8c0-0.7-0.3-1.3-0.8-1.8
				C21-133,19.3-133,18.3-132z M6.2-138.1c0.7,0,1.4-0.3,1.8-0.8c0.5-0.4,0.8-1.1,0.8-1.8c0-0.7-0.3-1.4-0.8-1.8c-1-1-2.7-1-3.7,0
				c-0.4,0.5-0.7,1.2-0.7,1.8c0,0.7,0.3,1.4,0.8,1.8C4.8-138.3,5.5-138.1,6.2-138.1z M10.8-121c-0.5,0.5-0.8,1.2-0.8,1.8
				c0,0.7,0.3,1.4,0.8,1.8c0.5,0.5,1.2,0.8,1.8,0.8s1.4-0.3,1.8-0.8c0.5-0.5,0.8-1.2,0.8-1.8c0-0.7-0.3-1.3-0.8-1.8
				C13.6-122,11.8-122,10.8-121z M15.6-123.7c0,0.7,0.3,1.3,0.8,1.8c0.5,0.5,1.2,0.8,1.8,0.8s1.4-0.3,1.8-0.8
				c0.5-0.5,0.8-1.2,0.8-1.8c0-0.7-0.3-1.4-0.8-1.8c-1-1-2.7-1-3.7,0C15.9-125,15.6-124.4,15.6-123.7z M16.3-113.9
				c0.5,0.5,1.2,0.8,1.8,0.8s1.4-0.3,1.8-0.8c0.5-0.5,0.8-1.2,0.8-1.8c0-0.7-0.3-1.4-0.8-1.8c-1-1-2.7-1-3.7,0
				c-0.5,0.5-0.8,1.2-0.8,1.8C15.6-115,15.9-114.4,16.3-113.9z M21.8-112c-0.5,0.5-0.8,1.2-0.8,1.8c0,0.6,0.3,1.4,0.8,1.8
				c0.5,0.5,1.2,0.8,1.8,0.8c0.7,0,1.4-0.3,1.8-0.8c0.5-0.5,0.8-1.2,0.8-1.8c0-0.6-0.3-1.4-0.8-1.8C24.5-113,22.8-113,21.8-112z
				 M13.3-108.5c-0.5,0.5-0.8,1.2-0.8,1.8c0,0.6,0.3,1.4,0.8,1.8c0.5,0.5,1.2,0.8,1.8,0.8c0.7,0,1.4-0.3,1.8-0.8
				c0.5-0.5,0.8-1.2,0.8-1.8c0-0.6-0.3-1.3-0.8-1.8C16.1-109.5,14.3-109.5,13.3-108.5z M8.3-97.6c-0.5,0.5-0.8,1.2-0.8,1.8
				c0,0.7,0.3,1.4,0.8,1.8c0.5,0.5,1.2,0.8,1.8,0.8c0.7,0,1.4-0.3,1.8-0.8c0.5-0.5,0.8-1.2,0.8-1.8c0-0.7-0.3-1.4-0.8-1.8
				C11.1-98.5,9.3-98.5,8.3-97.6z M6.8-99.9c0.5,0.5,1.2,0.8,1.8,0.8c0.7,0,1.4-0.3,1.8-0.8c0.5-0.5,0.8-1.2,0.8-1.8
				c0-0.7-0.3-1.3-0.8-1.8c-1-1-2.7-1-3.7,0c-0.3,0.4-0.6,1.1-0.6,1.8S6.4-100.4,6.8-99.9z M31.3-4.3c0-0.7-0.3-1.3-0.8-1.8
				c-1-1-2.7-1-3.7,0C26.3-5.6,26-4.9,26-4.3c0,0.7,0.3,1.4,0.8,1.8C27.3-2,28-1.7,28.6-1.7c0.7,0,1.4-0.3,1.8-0.8
				C31-3,31.3-3.7,31.3-4.3z M33.8-8.2C33.3-7.7,33-7,33-6.4c0,0.7,0.3,1.4,0.8,1.8c0.5,0.5,1.2,0.8,1.8,0.8c0.7,0,1.4-0.3,1.8-0.8
				c0.5-0.5,0.8-1.2,0.8-1.8c0-0.7-0.3-1.4-0.8-1.8C36.5-9.1,34.8-9.1,33.8-8.2z M44.8-6.2C44.3-5.7,44-5,44-4.4
				c0,0.7,0.3,1.4,0.8,1.8c0.5,0.5,1.2,0.8,1.8,0.8c0.7,0,1.4-0.3,1.8-0.8c0.5-0.5,0.8-1.2,0.8-1.8c0-0.7-0.3-1.4-0.8-1.8
				C47.5-7.1,45.8-7.1,44.8-6.2z M55.3-7.2c-0.5,0.5-0.8,1.2-0.8,1.8c0,0.7,0.3,1.4,0.8,1.8c0.5,0.5,1.2,0.8,1.8,0.8
				c0.7,0,1.4-0.3,1.8-0.8c0.5-0.5,0.8-1.2,0.8-1.8c0-0.7-0.3-1.4-0.8-1.8C58-8.1,56.3-8.1,55.3-7.2z M62.3-6.2
				c-0.5,0.5-0.8,1.2-0.8,1.8c0,0.7,0.3,1.4,0.8,1.8c0.5,0.5,1.2,0.8,1.8,0.8s1.4-0.3,1.8-0.8c0.5-0.5,0.8-1.2,0.8-1.8
				c0-0.7-0.3-1.4-0.8-1.8C65-7.1,63.3-7.1,62.3-6.2z M72.3-7.2c-0.5,0.5-0.8,1.2-0.8,1.8c0,0.7,0.3,1.4,0.8,1.8
				c0.5,0.5,1.2,0.8,1.8,0.8c0.7,0,1.4-0.3,1.8-0.8c0.5-0.5,0.8-1.2,0.8-1.8c0-0.7-0.3-1.4-0.8-1.8C75-8.1,73.2-8.1,72.3-7.2z
				 M90.4-9c0.5-0.5,0.8-1.2,0.8-1.8s-0.3-1.4-0.8-1.8c-1-1-2.7-1-3.7,0c-0.5,0.5-0.8,1.2-0.8,1.8s0.3,1.4,0.8,1.8
				c0.5,0.5,1.2,0.8,1.8,0.8C89.3-8.2,89.9-8.5,90.4-9z M96.2-9.2c-0.5,0.5-0.8,1.2-0.8,1.8c0,0.7,0.3,1.4,0.8,1.8
				c0.5,0.5,1.2,0.8,1.8,0.8c0.7,0,1.4-0.3,1.8-0.8c0.5-0.5,0.8-1.2,0.8-1.8c0-0.7-0.3-1.4-0.8-1.8C98.9-10.1,97.2-10.1,96.2-9.2z
				 M116.2-6.2c-0.5,0.5-0.8,1.2-0.8,1.8c0,0.7,0.3,1.3,0.8,1.8s1.2,0.8,1.8,0.8c0.7,0,1.4-0.3,1.8-0.8c0.5-0.5,0.8-1.2,0.8-1.8
				c0-0.7-0.3-1.4-0.8-1.8C118.9-7.2,117.2-7.1,116.2-6.2z M132.2-4.7c-0.5,0.5-0.8,1.2-0.8,1.8c0,0.7,0.3,1.4,0.8,1.8
				c0.5,0.5,1.2,0.8,1.8,0.8c0.7,0,1.4-0.3,1.8-0.8c0.5-0.5,0.8-1.2,0.8-1.8c0-0.7-0.3-1.4-0.8-1.8C134.9-5.6,133.1-5.6,132.2-4.7z
				 M107.9-6.5c0.5-0.5,0.8-1.2,0.8-1.8c0-0.7-0.3-1.4-0.8-1.8c-1-1-2.7-1-3.7,0c-0.5,0.5-0.8,1.2-0.8,1.8c0,0.7,0.3,1.4,0.8,1.8
				c0.5,0.5,1.2,0.8,1.8,0.8C106.7-5.7,107.4-6,107.9-6.5z M20.5-6.8c-1-1-2.7-1-3.7,0C16.3-6.3,16-5.6,16-5s0.3,1.4,0.8,1.8
				c0.5,0.5,1.2,0.8,1.8,0.8s1.4-0.3,1.8-0.8c0.5-0.5,0.8-1.2,0.8-1.8S21-6.3,20.5-6.8z M12.8-5.8c0-0.7-0.3-1.3-0.8-1.8
				c-1-1-2.7-1-3.7,0C7.8-7.1,7.5-6.4,7.5-5.8c0,0.7,0.3,1.4,0.8,1.8c0.5,0.5,1.2,0.8,1.8,0.8c0.7,0,1.4-0.3,1.8-0.8
				C12.5-4.5,12.8-5.2,12.8-5.8z M40-94.2c0,0.7,0.3,1.4,0.8,1.8c0.5,0.5,1.2,0.8,1.8,0.8c0.7,0,1.4-0.3,1.8-0.8
				c0.5-0.5,0.8-1.2,0.8-1.8c0-0.7-0.3-1.4-0.8-1.8c-1-1-2.7-1-3.7,0C40.3-95.6,40-94.9,40-94.2z M49-92.2c0,0.7,0.3,1.4,0.8,1.8
				c0.5,0.5,1.2,0.8,1.8,0.8c0.7,0,1.4-0.3,1.8-0.8c0.5-0.5,0.8-1.2,0.8-1.8c0-0.7-0.3-1.3-0.8-1.8c-1-1-2.7-1-3.7,0
				C49.3-93.6,49-92.9,49-92.2z M56.5-96.2c0,0.7,0.3,1.4,0.8,1.8c0.5,0.5,1.2,0.8,1.8,0.8c0.7,0,1.4-0.3,1.8-0.8
				c0.5-0.5,0.8-1.2,0.8-1.8c0-0.7-0.3-1.4-0.8-1.8c-1-1-2.7-1-3.7,0C56.8-97.6,56.5-96.9,56.5-96.2z M58.5-86.4
				c0.5-0.5,0.8-1.2,0.8-1.8c0-0.7-0.3-1.4-0.8-1.8c-1-1-2.7-1-3.7,0c-0.5,0.5-0.8,1.2-0.8,1.8c0,0.7,0.3,1.4,0.8,1.8
				c0.5,0.5,1.2,0.8,1.8,0.8C57.3-85.6,58-85.9,58.5-86.4z M49.3-82.4c0.5,0.5,1.2,0.8,1.8,0.8c0.7,0,1.4-0.3,1.8-0.8
				c0.5-0.5,0.8-1.2,0.8-1.8c0-0.7-0.3-1.4-0.8-1.8c-1-1-2.7-1-3.7,0c-0.5,0.5-0.8,1.2-0.8,1.8C48.5-83.6,48.8-82.9,49.3-82.4z
				 M42.3-87.6c-0.5,0.5-0.8,1.2-0.8,1.8c0,0.7,0.3,1.4,0.8,1.8c0.5,0.5,1.2,0.8,1.8,0.8c0.7,0,1.4-0.3,1.8-0.8
				c0.5-0.5,0.8-1.2,0.8-1.8c0-0.7-0.3-1.4-0.8-1.8C45-88.6,43.3-88.5,42.3-87.6z M35.8-86.1c-0.5,0.5-0.8,1.2-0.8,1.8
				c0,0.7,0.3,1.4,0.8,1.8c0.5,0.5,1.2,0.8,1.8,0.8c0.7,0,1.4-0.3,1.8-0.8c0.5-0.5,0.8-1.2,0.8-1.8c0-0.7-0.3-1.4-0.8-1.8
				C38.5-87.1,36.8-87,35.8-86.1z M32.8-93.6c-0.5,0.5-0.8,1.2-0.8,1.8c0,0.7,0.3,1.4,0.8,1.8c0.5,0.5,1.2,0.8,1.8,0.8
				c0.7,0,1.4-0.3,1.8-0.8c0.5-0.5,0.8-1.2,0.8-1.8c0-0.7-0.3-1.4-0.8-1.8C35.5-94.5,33.8-94.5,32.8-93.6z M32.5-84.9
				c0.5-0.5,0.8-1.2,0.8-1.8c0-0.7-0.3-1.4-0.8-1.8c-1-1-2.7-1-3.7,0C28.3-88,28-87.3,28-86.7c0,0.7,0.3,1.4,0.8,1.8
				c0.5,0.5,1.2,0.8,1.8,0.8C31.4-84.1,32-84.4,32.5-84.9z M24.2-86.6c0.7,0,1.4-0.3,1.8-0.8c0.5-0.5,0.8-1.2,0.8-1.8
				c0-0.7-0.3-1.3-0.8-1.8c-1-1-2.7-1-3.7,0c-0.5,0.5-0.8,1.2-0.8,1.8c0,0.7,0.3,1.4,0.8,1.8C22.8-86.9,23.5-86.6,24.2-86.6z
				 M15.8-84.4c0.5,0.5,1.2,0.8,1.8,0.8c0.7,0,1.4-0.3,1.8-0.8c0.5-0.5,0.8-1.2,0.8-1.8c0-0.7-0.3-1.3-0.8-1.8c-1-1-2.7-1-3.7,0
				c-0.5,0.5-0.8,1.2-0.8,1.8C15.1-85.6,15.4-84.9,15.8-84.4z M13.1-79.7c0,0.7,0.3,1.4,0.8,1.8c0.5,0.5,1.2,0.8,1.8,0.8
				c0.7,0,1.4-0.3,1.8-0.8c0.5-0.5,0.8-1.2,0.8-1.8c0-0.7-0.3-1.4-0.8-1.8c-1-1-2.7-1-3.7,0C13.4-81.1,13.1-80.4,13.1-79.7z
				 M23.7-73.7c0.7,0,1.4-0.3,1.8-0.8c0.5-0.5,0.8-1.2,0.8-1.8c0-0.7-0.3-1.4-0.8-1.8c-1-1-2.7-1-3.7,0c-0.5,0.5-0.8,1.2-0.8,1.8
				c0,0.7,0.3,1.4,0.8,1.8C22.3-73.9,23-73.7,23.7-73.7z M29.2-78.6c0.7,0,1.4-0.3,1.8-0.8c0.5-0.5,0.8-1.2,0.8-1.8
				c0-0.7-0.3-1.4-0.8-1.8c-1-1-2.7-1-3.7,0c-0.5,0.5-0.8,1.2-0.8,1.8c0,0.7,0.3,1.4,0.8,1.8C27.8-78.9,28.5-78.6,29.2-78.6z
				 M34.8-78.6c-0.5,0.5-0.8,1.2-0.8,1.8c0,0.7,0.3,1.4,0.8,1.8c0.5,0.5,1.2,0.8,1.8,0.8c0.7,0,1.4-0.3,1.8-0.8
				c0.5-0.5,0.8-1.2,0.8-1.8c0-0.7-0.3-1.4-0.8-1.8C37.5-79.5,35.8-79.5,34.8-78.6z M30.7-69.2c0.7,0,1.4-0.3,1.8-0.8
				c0.5-0.5,0.8-1.2,0.8-1.8c0-0.7-0.3-1.4-0.8-1.8c-1-1-2.7-1-3.7,0c-0.5,0.5-0.8,1.2-0.8,1.8c0,0.7,0.3,1.4,0.8,1.8
				C29.3-69.4,30-69.2,30.7-69.2z M24.7-63.7c0.7,0,1.4-0.3,1.8-0.8c0.5-0.5,0.8-1.2,0.8-1.8s-0.3-1.4-0.8-1.8c-1-1-2.7-1-3.7,0
				c-0.5,0.5-0.8,1.2-0.8,1.8s0.3,1.4,0.8,1.8C23.3-63.9,24-63.7,24.7-63.7z M16.3-64.6c-0.5,0.5-0.8,1.2-0.8,1.8s0.3,1.3,0.8,1.8
				s1.2,0.8,1.8,0.8s1.4-0.3,1.8-0.8c0.5-0.5,0.8-1.2,0.8-1.8s-0.3-1.4-0.8-1.8C19.1-65.6,17.3-65.6,16.3-64.6z M20.5-73.1
				c-1-1-2.7-1-3.7,0c-0.5,0.5-0.8,1.2-0.8,1.8c0,0.7,0.3,1.4,0.8,1.8c0.5,0.5,1.2,0.8,1.8,0.8s1.4-0.3,1.8-0.8
				c0.5-0.5,0.8-1.2,0.8-1.8C21.3-71.9,21-72.6,20.5-73.1z M10.3-70.1c-0.5,0.5-0.8,1.2-0.8,1.8s0.3,1.4,0.8,1.8
				c0.5,0.5,1.2,0.8,1.8,0.8s1.4-0.3,1.8-0.8c0.5-0.5,0.8-1.2,0.8-1.8s-0.3-1.4-0.8-1.8C13.1-71.1,11.3-71.1,10.3-70.1z M10.2-74.7
				c0.7,0,1.4-0.3,1.8-0.8c0.5-0.5,0.8-1.2,0.8-1.8c0-0.7-0.3-1.3-0.8-1.8c-1-1-2.7-1-3.7,0c-0.5,0.5-0.8,1.2-0.8,1.8
				c0,0.7,0.3,1.4,0.8,1.8C8.8-74.9,9.5-74.7,10.2-74.7z M9.7-85.1c0.7,0,1.4-0.3,1.8-0.8c0.5-0.5,0.8-1.2,0.8-1.8
				c0-0.7-0.3-1.4-0.8-1.8c-1-1-2.7-1-3.7,0c-0.4,0.4-0.7,1.1-0.7,1.8s0.3,1.4,0.8,1.8C8.3-85.4,9-85.1,9.7-85.1z M1.9-85.6
				c-0.5,0.5-0.8,1.2-0.8,1.9s0.3,1.4,0.8,1.8c0.5,0.5,1.2,0.8,1.8,0.8c0.7,0,1.4-0.3,1.8-0.8c0.5-0.5,0.8-1.2,0.8-1.8
				c0-0.7-0.3-1.3-0.8-1.8C4.6-86.5,2.8-86.5,1.9-85.6z M2.2-73.2c0.7,0,1.4-0.3,1.8-0.8c0.5-0.5,0.8-1.2,0.8-1.8
				c0-0.7-0.3-1.4-0.8-1.8c-1-1-2.7-1-3.7,0c-0.1,0.1-0.2,0.2-0.3,0.3v3c0.1,0.1,0.2,0.2,0.3,0.3C0.9-73.4,1.5-73.2,2.2-73.2z
				 M2.2-90.1c0.7,0,1.4-0.3,1.8-0.8c0.5-0.5,0.8-1.2,0.8-1.8c0-0.7-0.3-1.4-0.8-1.8c-1-1-2.7-1-3.7,0c-0.1,0.1-0.2,0.2-0.3,0.3v3
				c0.1,0.1,0.2,0.2,0.3,0.3C0.9-90.4,1.5-90.1,2.2-90.1z M2.9-70.6c-0.5,0.5-0.8,1.2-0.8,1.8s0.3,1.4,0.8,1.8
				c0.5,0.5,1.2,0.8,1.8,0.8c0.7,0,1.4-0.3,1.8-0.8c0.5-0.5,0.8-1.2,0.8-1.8S7-70.2,6.5-70.6C5.6-71.6,3.8-71.6,2.9-70.6z M5.7-58.7
				c0.7,0,1.4-0.3,1.8-0.8C8-60,8.3-60.7,8.3-61.3c0-0.7-0.3-1.4-0.8-1.8c-1-1-2.7-1-3.7,0c-0.4,0.5-0.7,1.1-0.7,1.8
				s0.3,1.4,0.8,1.8C4.4-59,5-58.7,5.7-58.7z M1.6-49.3c0,0.7,0.3,1.4,0.8,1.8c0.5,0.5,1.2,0.8,1.8,0.8c0.7,0,1.4-0.3,1.8-0.8
				c0.5-0.5,0.8-1.2,0.8-1.8c0-0.7-0.3-1.4-0.8-1.8c-1-1-2.7-1-3.7,0C1.9-50.6,1.6-50,1.6-49.3z M6.2-40.7c0.7,0,1.4-0.3,1.8-0.8
				c0.5-0.5,0.8-1.2,0.8-1.8c0-0.7-0.3-1.3-0.8-1.8c-1-1-2.7-1-3.7,0c-0.5,0.5-0.8,1.2-0.8,1.8c0,0.7,0.3,1.4,0.8,1.8
				C4.8-41,5.5-40.7,6.2-40.7z M11.3-49.1c-0.5,0.5-0.8,1.2-0.8,1.8c0,0.7,0.3,1.4,0.8,1.8c0.5,0.5,1.2,0.8,1.8,0.8
				c0.7,0,1.4-0.3,1.8-0.8c0.5-0.5,0.8-1.2,0.8-1.8c0-0.7-0.3-1.4-0.8-1.8C14.1-50.1,12.3-50.1,11.3-49.1z M7.1-55.3
				c0,0.7,0.3,1.4,0.8,1.8c0.5,0.5,1.2,0.8,1.8,0.8c0.7,0,1.4-0.3,1.8-0.8c0.5-0.5,0.8-1.2,0.8-1.8c0-0.7-0.3-1.3-0.8-1.8
				c-1-1-2.7-1-3.7,0C7.4-56.6,7.1-56,7.1-55.3z M20.3-54.3c0-0.7-0.3-1.3-0.8-1.8c-1-1-2.7-1-3.7,0c-0.4,0.5-0.7,1.1-0.7,1.8
				s0.3,1.4,0.8,1.8c0.5,0.5,1.2,0.8,1.8,0.8c0.7,0,1.4-0.3,1.8-0.8C20-52.9,20.3-53.6,20.3-54.3z M22.7-45.7c0.7,0,1.4-0.3,1.8-0.8
				c0.5-0.5,0.8-1.2,0.8-1.8c0-0.7-0.3-1.3-0.8-1.8c-1-1-2.7-1-3.7,0c-0.5,0.5-0.7,1.1-0.7,1.8s0.3,1.4,0.8,1.8
				C21.3-46,22-45.7,22.7-45.7z M28.7-43.7c0.7,0,1.4-0.3,1.8-0.8c0.5-0.5,0.8-1.2,0.8-1.8c0-0.7-0.3-1.4-0.8-1.8c-1-1-2.7-1-3.7,0
				c-0.5,0.4-0.7,1.1-0.7,1.8s0.3,1.4,0.8,1.8C27.3-44,28-43.7,28.7-43.7z M34.2-40.7c0.7,0,1.4-0.3,1.8-0.8
				c0.5-0.5,0.8-1.2,0.8-1.8c0-0.7-0.3-1.4-0.8-1.8c-1-1-2.7-1-3.7,0c-0.5,0.5-0.8,1.2-0.8,1.8c0,0.7,0.3,1.4,0.8,1.8
				C32.8-41,33.5-40.7,34.2-40.7z M26.3-56.8c0-0.7-0.3-1.4-0.8-1.8c-1-1-2.7-1-3.7,0c-0.5,0.5-0.8,1.2-0.8,1.8
				c0,0.7,0.3,1.4,0.8,1.8c0.5,0.5,1.2,0.8,1.8,0.8s1.4-0.3,1.8-0.8C26-55.4,26.3-56.1,26.3-56.8z M33.3-54.3c0-0.7-0.3-1.4-0.8-1.8
				c-1-1-2.7-1-3.7,0c-0.5,0.5-0.7,1.1-0.7,1.8s0.3,1.4,0.8,1.8c0.5,0.5,1.2,0.8,1.8,0.8c0.7,0,1.4-0.3,1.8-0.8
				C33-52.9,33.3-53.6,33.3-54.3z M39-54.1c-1-1-2.7-1-3.7,0c-0.5,0.5-0.8,1.2-0.8,1.8c0,0.7,0.3,1.4,0.8,1.8
				c0.5,0.5,1.2,0.8,1.8,0.8c0.7,0,1.4-0.3,1.8-0.8c0.5-0.5,0.8-1.2,0.8-1.8C39.7-53,39.5-53.6,39-54.1z M31.2-60.7
				c0.7,0,1.4-0.3,1.8-0.8c0.5-0.5,0.8-1.2,0.8-1.8s-0.3-1.4-0.8-1.8c-1-1-2.7-1-3.7,0c-0.5,0.5-0.8,1.2-0.8,1.8s0.3,1.4,0.8,1.8
				C29.8-61,30.5-60.7,31.2-60.7z M41-63.1c-1-1-2.7-1-3.7,0c-0.5,0.5-0.8,1.2-0.8,1.8c0,0.7,0.3,1.4,0.8,1.8
				c0.5,0.5,1.2,0.8,1.8,0.8c0.7,0,1.4-0.3,1.8-0.8c0.5-0.5,0.8-1.2,0.8-1.8C41.7-62,41.5-62.6,41-63.1z M43.2-69.8
				c0-0.7-0.3-1.4-0.8-1.8c-1-1-2.7-1-3.7,0c-0.5,0.5-0.8,1.2-0.8,1.8s0.3,1.4,0.8,1.8c0.5,0.5,1.2,0.8,1.8,0.8
				c0.7,0,1.4-0.3,1.8-0.8C43-68.4,43.2-69.1,43.2-69.8z M48.2-63.8c0-0.7-0.3-1.4-0.8-1.8c-1-1-2.7-1-3.7,0
				c-0.5,0.5-0.8,1.2-0.8,1.8s0.3,1.4,0.8,1.8c0.5,0.5,1.2,0.8,1.8,0.8c0.7,0,1.4-0.3,1.8-0.8C48-62.4,48.2-63.1,48.2-63.8z
				 M49.3-66.9c0.5,0.5,1.2,0.8,1.8,0.8c0.7,0,1.4-0.3,1.8-0.8c0.5-0.5,0.8-1.2,0.8-1.8s-0.3-1.3-0.8-1.8c-1-1-2.7-1-3.7,0
				c-0.5,0.5-0.8,1.2-0.8,1.8S48.8-67.4,49.3-66.9z M45.5-57.6c-1-1-2.7-1-3.7,0c-0.5,0.5-0.8,1.2-0.8,1.8c0,0.7,0.3,1.4,0.8,1.8
				c0.5,0.5,1.2,0.8,1.8,0.8c0.7,0,1.4-0.3,1.8-0.8c0.5-0.5,0.8-1.2,0.8-1.8C46.2-56.5,46-57.1,45.5-57.6z M52.5-53.6
				c-1-1-2.7-1-3.7,0c-0.5,0.5-0.8,1.2-0.8,1.8c0,0.7,0.3,1.4,0.8,1.8c0.5,0.5,1.2,0.8,1.8,0.8c0.7,0,1.4-0.3,1.8-0.8
				c0.5-0.5,0.8-1.2,0.8-1.8C53.2-52.5,52.9-53.1,52.5-53.6z M52.5-45.6c-1-1-2.7-1-3.7,0c-0.5,0.5-0.8,1.2-0.8,1.8
				c0,0.7,0.3,1.4,0.8,1.8c0.5,0.5,1.2,0.8,1.8,0.8c0.7,0,1.4-0.3,1.8-0.8c0.5-0.5,0.8-1.2,0.8-1.8C53.2-44.5,52.9-45.2,52.5-45.6z
				 M40.8-49.1c-0.5,0.5-0.8,1.2-0.8,1.8c0,0.7,0.3,1.4,0.8,1.8c0.5,0.5,1.2,0.8,1.8,0.8c0.7,0,1.4-0.3,1.8-0.8
				c0.5-0.5,0.8-1.2,0.8-1.8c0-0.7-0.3-1.3-0.8-1.8C43.5-50.1,41.8-50.1,40.8-49.1z M57.6-47.2c0.7,0,1.4-0.3,1.8-0.8
				c0.5-0.5,0.8-1.2,0.8-1.8c0-0.7-0.3-1.4-0.8-1.8c-1-1-2.7-1-3.7,0c-0.5,0.5-0.8,1.2-0.8,1.8c0,0.7,0.3,1.4,0.8,1.8
				C56.3-47.5,56.9-47.2,57.6-47.2z M57.3-66.1c-0.5,0.5-0.8,1.2-0.8,1.8s0.3,1.4,0.8,1.8c0.5,0.5,1.2,0.8,1.8,0.8
				c0.7,0,1.4-0.3,1.8-0.8c0.5-0.5,0.8-1.2,0.8-1.8s-0.3-1.4-0.8-1.8C60-67.1,58.3-67.1,57.3-66.1z M61-74.1c-1-1-2.7-1-3.7,0
				c-0.5,0.5-0.8,1.2-0.8,1.8c0,0.7,0.3,1.4,0.8,1.8c0.5,0.5,1.2,0.8,1.8,0.8c0.7,0,1.4-0.3,1.8-0.8c0.5-0.5,0.8-1.2,0.8-1.8
				S61.4-73.6,61-74.1z M55.2-75.8c0-0.7-0.3-1.4-0.8-1.8c-1-1-2.7-1-3.7,0c-0.5,0.5-0.8,1.2-0.8,1.8c0,0.7,0.3,1.4,0.8,1.8
				c0.5,0.5,1.2,0.8,1.8,0.8c0.7,0,1.4-0.3,1.8-0.8C54.9-74.4,55.2-75.1,55.2-75.8z M45.6-73.2c0.7,0,1.4-0.3,1.8-0.8
				c0.5-0.5,0.8-1.2,0.8-1.8c0-0.7-0.3-1.4-0.8-1.8c-1-1-2.7-1-3.7,0c-0.5,0.5-0.8,1.2-0.8,1.8c0,0.7,0.3,1.4,0.8,1.8
				C44.3-73.4,45-73.2,45.6-73.2z M58.6-80.1c0.7,0,1.4-0.3,1.8-0.8c0.5-0.5,0.8-1.2,0.8-1.8c0-0.7-0.3-1.3-0.8-1.8
				c-1-1-2.7-1-3.7,0c-0.5,0.5-0.8,1.2-0.8,1.8c0,0.7,0.3,1.4,0.8,1.8C57.3-80.4,57.9-80.1,58.6-80.1z M63.8-70.1
				c-0.5,0.5-0.8,1.2-0.8,1.8s0.3,1.4,0.8,1.8c0.5,0.5,1.2,0.8,1.8,0.8s1.4-0.3,1.8-0.8c0.5-0.5,0.8-1.2,0.8-1.8s-0.3-1.4-0.8-1.8
				C66.5-71.1,64.7-71.1,63.8-70.1z M65-60.8c0,0.7,0.3,1.4,0.8,1.8c0.5,0.5,1.2,0.8,1.8,0.8c0.7,0,1.4-0.3,1.8-0.8
				c0.5-0.5,0.8-1.2,0.8-1.8c0-0.7-0.3-1.4-0.8-1.8c-1-1-2.7-1-3.7,0C65.3-62.1,65-61.5,65-60.8z M63.5-54.4
				c0.5-0.5,0.8-1.2,0.8-1.8c0-0.7-0.3-1.3-0.8-1.8c-1-1-2.7-1-3.7,0c-0.5,0.5-0.8,1.2-0.8,1.8c0,0.7,0.3,1.4,0.8,1.8
				c0.5,0.5,1.2,0.8,1.8,0.8C62.3-53.7,63-54,63.5-54.4z M69.9-55.1c-1-1-2.7-1-3.7,0c-0.5,0.5-0.8,1.2-0.8,1.8
				c0,0.7,0.3,1.4,0.8,1.8c0.5,0.5,1.2,0.8,1.8,0.8s1.4-0.3,1.8-0.8c0.5-0.5,0.8-1.2,0.8-1.8C70.7-54,70.4-54.6,69.9-55.1z
				 M74.1-42.2c0.7,0,1.4-0.3,1.8-0.8c0.5-0.5,0.8-1.2,0.8-1.8c0-0.7-0.3-1.4-0.8-1.8c-1-1-2.7-1-3.7,0c-0.5,0.5-0.8,1.2-0.8,1.8
				c0,0.7,0.3,1.4,0.8,1.8C72.7-42.5,73.4-42.2,74.1-42.2z M66.7-46.8c0-0.7-0.3-1.4-0.8-1.8c-1-1-2.7-1-3.7,0
				c-0.5,0.5-0.8,1.2-0.8,1.8c0,0.7,0.3,1.4,0.8,1.8c0.5,0.5,1.2,0.8,1.8,0.8s1.4-0.3,1.8-0.8C66.4-45.5,66.7-46.1,66.7-46.8z
				 M75.6-50.2c0.7,0,1.4-0.3,1.8-0.8c0.5-0.5,0.8-1.2,0.8-1.8c0-0.7-0.3-1.4-0.8-1.8c-1-1-2.7-1-3.7,0c-0.5,0.5-0.8,1.2-0.8,1.8
				c0,0.7,0.3,1.4,0.8,1.8C74.3-50.5,74.9-50.2,75.6-50.2z M76.9-59.9c0.5-0.5,0.8-1.2,0.8-1.8s-0.3-1.4-0.8-1.8c-1-1-2.7-1-3.7,0
				c-0.5,0.5-0.8,1.2-0.8,1.8s0.3,1.4,0.8,1.8c0.5,0.5,1.2,0.8,1.8,0.8C75.8-59.2,76.5-59.5,76.9-59.9z M73.6-66.2
				c0.7,0,1.4-0.3,1.8-0.8c0.5-0.5,0.8-1.2,0.8-1.8s-0.3-1.3-0.8-1.8c-1-1-2.7-1-3.7,0c-0.5,0.5-0.8,1.2-0.8,1.8s0.3,1.4,0.8,1.8
				C72.3-66.4,72.9-66.2,73.6-66.2z M62.8-75.4c0.5,0.5,1.2,0.8,1.8,0.8s1.4-0.3,1.8-0.8c0.5-0.5,0.8-1.2,0.8-1.8
				c0-0.7-0.3-1.4-0.8-1.8c-1-1-2.7-1-3.7,0c-0.5,0.5-0.8,1.2-0.8,1.8C62-76.6,62.3-75.9,62.8-75.4z M73.2-76.3
				c0-0.7-0.3-1.4-0.8-1.8c-1-1-2.7-1-3.7,0c-0.5,0.5-0.8,1.2-0.8,1.8c0,0.7,0.3,1.4,0.8,1.8c0.5,0.5,1.2,0.8,1.8,0.8
				s1.4-0.3,1.8-0.8C72.9-74.9,73.2-75.6,73.2-76.3z M67.9-85.6c-1-1-2.7-1-3.7,0c-0.5,0.5-0.8,1.2-0.8,1.8c0,0.7,0.3,1.4,0.8,1.8
				c0.5,0.5,1.2,0.8,1.8,0.8s1.4-0.3,1.8-0.8c0.5-0.5,0.8-1.2,0.8-1.8C68.7-84.4,68.4-85.1,67.9-85.6z M66.9-89.9
				c0.5-0.5,0.8-1.2,0.8-1.8c0-0.7-0.3-1.4-0.8-1.8c-1-1-2.7-1-3.7,0c-0.5,0.5-0.8,1.2-0.8,1.8c0,0.7,0.3,1.4,0.8,1.8
				c0.5,0.5,1.2,0.8,1.8,0.8C65.8-89.1,66.5-89.4,66.9-89.9z M70.8-93.1c-0.5,0.5-0.8,1.2-0.8,1.8c0,0.7,0.3,1.4,0.8,1.8
				c0.5,0.5,1.2,0.8,1.8,0.8c0.7,0,1.4-0.3,1.8-0.8c0.5-0.5,0.8-1.2,0.8-1.8c0-0.7-0.3-1.4-0.8-1.8C73.5-94,71.7-94,70.8-93.1z
				 M72.3-84.1c-0.5,0.5-0.8,1.2-0.8,1.8c0,0.7,0.3,1.4,0.8,1.8c0.5,0.5,1.2,0.8,1.8,0.8c0.7,0,1.4-0.3,1.8-0.8
				c0.5-0.5,0.8-1.2,0.8-1.8c0-0.7-0.3-1.4-0.8-1.8C75-85,73.2-85.1,72.3-84.1z M80.4-73.9c0.5-0.5,0.8-1.2,0.8-1.8
				c0-0.7-0.3-1.4-0.8-1.8c-1-1-2.7-1-3.7,0c-0.5,0.5-0.8,1.2-0.8,1.8c0,0.7,0.3,1.4,0.8,1.8c0.5,0.5,1.2,0.8,1.8,0.8
				C79.3-73.2,79.9-73.4,80.4-73.9z M87.2-70.8c0-0.7-0.3-1.4-0.8-1.8c-1-1-2.7-1-3.7,0c-0.5,0.5-0.8,1.2-0.8,1.8
				c0,0.7,0.3,1.4,0.8,1.8c0.5,0.5,1.2,0.8,1.8,0.8c0.7,0,1.4-0.3,1.8-0.8C86.9-69.4,87.2-70.1,87.2-70.8z M81.7-65.1
				c-0.5,0.5-0.8,1.2-0.8,1.8s0.3,1.4,0.8,1.8c0.5,0.5,1.2,0.8,1.8,0.8c0.7,0,1.4-0.3,1.8-0.8c0.5-0.5,0.8-1.2,0.8-1.8
				s-0.3-1.4-0.8-1.8C84.5-66.1,82.7-66.1,81.7-65.1z M82.1-53.2c0.7,0,1.4-0.3,1.8-0.8c0.5-0.5,0.8-1.2,0.8-1.8
				c0-0.7-0.3-1.4-0.8-1.8c-1-1-2.7-1-3.7,0c-0.5,0.5-0.8,1.2-0.8,1.8c0,0.7,0.3,1.4,0.8,1.8C80.7-53.5,81.4-53.2,82.1-53.2z
				 M86.1-46.2c0.7,0,1.4-0.3,1.8-0.8c0.5-0.5,0.8-1.2,0.8-1.8c0-0.7-0.3-1.4-0.8-1.8c-1-1-2.7-1-3.7,0c-0.5,0.5-0.8,1.2-0.8,1.8
				c0,0.7,0.3,1.4,0.8,1.8C84.7-46.5,85.4-46.2,86.1-46.2z M92.1-52.2c0.7,0,1.4-0.3,1.8-0.8c0.5-0.5,0.8-1.2,0.8-1.8
				c0-0.7-0.3-1.4-0.8-1.8c-1-1-2.7-1-3.7,0c-0.5,0.5-0.8,1.2-0.8,1.8c0,0.7,0.3,1.4,0.8,1.8C90.7-52.5,91.4-52.2,92.1-52.2z
				 M92.1-43.2c0.7,0,1.4-0.3,1.8-0.8c0.5-0.5,0.8-1.2,0.8-1.8c0-0.7-0.3-1.4-0.8-1.8c-1-1-2.7-1-3.7,0c-0.5,0.5-0.8,1.2-0.8,1.8
				c0,0.7,0.3,1.4,0.8,1.8C90.7-43.5,91.4-43.2,92.1-43.2z M91.6-61.7c0.7,0,1.4-0.3,1.8-0.8c0.5-0.5,0.8-1.2,0.8-1.8
				s-0.3-1.4-0.8-1.8c-1-1-2.7-1-3.7,0c-0.5,0.5-0.8,1.2-0.8,1.8s0.3,1.4,0.8,1.8C90.2-62,90.9-61.7,91.6-61.7z M96.7-70.3
				c0-0.7-0.3-1.4-0.8-1.8c-1-1-2.7-1-3.7,0c-0.5,0.5-0.8,1.2-0.8,1.8s0.3,1.4,0.8,1.8c0.5,0.5,1.2,0.8,1.8,0.8
				c0.7,0,1.4-0.3,1.8-0.8C96.4-68.9,96.7-69.6,96.7-70.3z M90.2-78.2c0-0.7-0.3-1.4-0.8-1.8c-1-1-2.7-1-3.7,0
				c-0.5,0.5-0.8,1.2-0.8,1.8c0,0.7,0.3,1.4,0.8,1.8c0.5,0.5,1.2,0.8,1.8,0.8c0.7,0,1.3-0.3,1.8-0.8C89.9-76.9,90.2-77.6,90.2-78.2z
				 M80.2-83.5c-0.5,0.5-0.8,1.2-0.8,1.8c0,0.7,0.3,1.4,0.8,1.8c0.5,0.5,1.2,0.8,1.8,0.8c0.7,0,1.4-0.3,1.8-0.8
				c0.5-0.5,0.8-1.2,0.8-1.8c0-0.7-0.3-1.3-0.8-1.8C83-84.5,81.2-84.5,80.2-83.5z M78.3-89.6c-0.5,0.5-0.8,1.2-0.8,1.8
				c0,0.7,0.3,1.4,0.8,1.8c0.5,0.5,1.2,0.8,1.8,0.8c0.7,0,1.4-0.3,1.8-0.8c0.5-0.5,0.8-1.2,0.8-1.8c0-0.7-0.3-1.4-0.8-1.8
				C81-90.5,79.2-90.6,78.3-89.6z M84.7-93.6c-0.5,0.5-0.8,1.2-0.8,1.8c0,0.7,0.3,1.4,0.8,1.8c0.5,0.5,1.2,0.8,1.8,0.8
				c0.7,0,1.4-0.3,1.8-0.8c0.5-0.5,0.8-1.2,0.8-1.8c0-0.7-0.3-1.4-0.8-1.8C87.5-94.5,85.7-94.5,84.7-93.6z M86.4-97.9
				c0.5-0.5,0.8-1.2,0.8-1.8c0-0.7-0.3-1.4-0.8-1.8c-1-1-2.7-1-3.7,0c-0.5,0.5-0.8,1.2-0.8,1.8c0,0.7,0.3,1.4,0.8,1.8
				c0.5,0.5,1.2,0.8,1.8,0.8C85.3-97.1,85.9-97.4,86.4-97.9z M95.9-96.1c-1-1-2.7-1-3.7,0c-0.5,0.5-0.8,1.2-0.8,1.8
				c0,0.7,0.3,1.4,0.8,1.8c0.5,0.5,1.2,0.8,1.8,0.8c0.7,0,1.4-0.3,1.8-0.8c0.5-0.5,0.8-1.2,0.8-1.8C96.7-94.9,96.4-95.6,95.9-96.1z
				 M89-85.7c0,0.7,0.3,1.4,0.8,1.8c0.5,0.5,1.2,0.8,1.8,0.8c0.7,0,1.4-0.3,1.8-0.8c0.5-0.5,0.8-1.2,0.8-1.8c0-0.7-0.3-1.4-0.8-1.8
				c-1-1-2.7-1-3.7,0C89.3-87.1,89-86.4,89-85.7z M98.2-79.2c0-0.7-0.3-1.4-0.8-1.8c-1-1-2.7-1-3.7,0c-0.5,0.5-0.8,1.2-0.8,1.8
				c0,0.7,0.3,1.4,0.8,1.8c0.5,0.5,1.2,0.8,1.8,0.8c0.7,0,1.4-0.3,1.8-0.8C97.9-77.9,98.2-78.6,98.2-79.2z M102.1-71.7
				c0.7,0,1.4-0.3,1.8-0.8c0.5-0.5,0.8-1.2,0.8-1.8c0-0.7-0.3-1.4-0.8-1.8c-1-1-2.7-1-3.7,0c-0.5,0.5-0.8,1.2-0.8,1.8
				c0,0.7,0.3,1.3,0.8,1.8C100.7-71.9,101.4-71.7,102.1-71.7z M104.2-66.3c0-0.7-0.3-1.4-0.8-1.8c-1-1-2.7-1-3.7,0
				c-0.5,0.5-0.8,1.2-0.8,1.8s0.3,1.3,0.8,1.8s1.2,0.8,1.8,0.8c0.7,0,1.4-0.3,1.8-0.8C103.9-64.9,104.2-65.6,104.2-66.3z
				 M102.2-58.3c0-0.7-0.3-1.3-0.8-1.8c-1-1-2.7-1-3.7,0c-0.5,0.5-0.8,1.2-0.8,1.8c0,0.7,0.3,1.4,0.8,1.8c0.5,0.5,1.2,0.8,1.8,0.8
				c0.7,0,1.4-0.3,1.8-0.8C101.9-56.9,102.2-57.6,102.2-58.3z M108.9-61.6c-1-1-2.7-1-3.7,0c-0.5,0.5-0.8,1.2-0.8,1.8
				c0,0.7,0.3,1.4,0.8,1.8c0.5,0.5,1.2,0.8,1.8,0.8c0.7,0,1.4-0.3,1.8-0.8c0.5-0.5,0.8-1.2,0.8-1.8
				C109.6-60.5,109.4-61.1,108.9-61.6z M104.7-52.6c-0.5,0.5-0.8,1.2-0.8,1.8c0,0.7,0.3,1.4,0.8,1.8c0.5,0.5,1.2,0.8,1.8,0.8
				c0.7,0,1.4-0.3,1.8-0.8c0.5-0.5,0.8-1.2,0.8-1.8c0-0.7-0.3-1.4-0.8-1.8C107.4-53.6,105.7-53.6,104.7-52.6z M112-42.2
				c0.7,0,1.4-0.3,1.8-0.8c0.5-0.5,0.8-1.2,0.8-1.8c0-0.7-0.3-1.4-0.8-1.8c-1-1-2.7-1-3.7,0c-0.5,0.5-0.8,1.2-0.8,1.8
				c0,0.7,0.3,1.4,0.8,1.8C110.7-42.5,111.4-42.2,112-42.2z M111.7-63.6c-0.5,0.5-0.8,1.2-0.8,1.8s0.3,1.4,0.8,1.8
				c0.5,0.5,1.2,0.8,1.8,0.8c0.7,0,1.4-0.3,1.8-0.8c0.5-0.5,0.8-1.2,0.8-1.8s-0.3-1.4-0.8-1.8C114.4-64.6,112.7-64.6,111.7-63.6z
				 M111.5-67.2c0.7,0,1.4-0.3,1.8-0.8c0.5-0.5,0.8-1.2,0.8-1.8s-0.3-1.4-0.8-1.8c-1-1-2.7-1-3.7,0c-0.5,0.5-0.8,1.2-0.8,1.8
				s0.3,1.4,0.8,1.8C110.2-67.4,110.9-67.2,111.5-67.2z M55.7-59.8c0-0.7-0.3-1.4-0.8-1.8c-1-1-2.7-1-3.7,0
				c-0.5,0.5-0.8,1.2-0.8,1.8c0,0.7,0.3,1.4,0.8,1.8c0.5,0.5,1.2,0.8,1.8,0.8c0.7,0,1.4-0.3,1.8-0.8C55.4-58.4,55.7-59.1,55.7-59.8z
				 M140.8-79.4c0.5-0.5,0.8-1.2,0.8-1.8c0-0.7-0.3-1.4-0.8-1.8c-1-1-2.7-1-3.7,0c-0.5,0.5-0.8,1.2-0.8,1.8c0,0.7,0.3,1.4,0.8,1.8
				c0.5,0.5,1.2,0.8,1.8,0.8C139.7-78.6,140.4-78.9,140.8-79.4z M143.6-89.7c0-0.7-0.3-1.4-0.8-1.8c-1-1-2.7-1-3.7,0
				c-0.5,0.5-0.8,1.2-0.8,1.8c0,0.7,0.3,1.4,0.8,1.8c0.5,0.5,1.2,0.8,1.8,0.8c0.7,0,1.4-0.3,1.8-0.8
				C143.3-88.4,143.6-89.1,143.6-89.7z M136.4-95.1c-1-1-2.7-1-3.7,0c-0.5,0.5-0.8,1.2-0.8,1.8c0,0.7,0.3,1.4,0.8,1.8
				c0.5,0.5,1.2,0.8,1.8,0.8c0.7,0,1.4-0.3,1.8-0.8c0.5-0.5,0.8-1.2,0.8-1.8C137.1-93.9,136.8-94.6,136.4-95.1z M136.9-76.6
				c-1-1-2.7-1-3.7,0c-0.5,0.5-0.8,1.2-0.8,1.8c0,0.7,0.3,1.4,0.8,1.8c0.5,0.5,1.2,0.8,1.8,0.8c0.7,0,1.4-0.3,1.8-0.8
				c0.5-0.5,0.8-1.2,0.8-1.8S137.3-76.1,136.9-76.6z M132.7-69.1c-0.5,0.5-0.8,1.2-0.8,1.8s0.3,1.4,0.8,1.8c0.5,0.5,1.2,0.8,1.8,0.8
				c0.7,0,1.4-0.3,1.8-0.8c0.5-0.5,0.8-1.2,0.8-1.8s-0.3-1.4-0.8-1.8C135.4-70.1,133.7-70.1,132.7-69.1z M139.7-71.6
				c-0.5,0.5-0.8,1.2-0.8,1.8s0.3,1.4,0.8,1.8c0.5,0.5,1.2,0.8,1.8,0.8c0.7,0,1.4-0.3,1.8-0.8c0.5-0.5,0.8-1.1,0.8-1.8l0,0
				c0-0.7-0.3-1.3-0.8-1.8C142.4-72.6,140.6-72.6,139.7-71.6z M142.6-61.8c0-0.7-0.3-1.4-0.8-1.8c-1-1-2.7-1-3.7,0
				c-0.5,0.5-0.8,1.2-0.8,1.8s0.3,1.4,0.8,1.8c0.5,0.5,1.2,0.8,1.8,0.8c0.7,0,1.4-0.3,1.8-0.8C142.3-60.4,142.6-61.1,142.6-61.8z
				 M140.3-48.6c-1-1-2.7-1-3.7,0c-0.5,0.5-0.8,1.2-0.8,1.8c0,0.7,0.3,1.4,0.8,1.8c0.5,0.5,1.2,0.8,1.8,0.8c0.7,0,1.4-0.3,1.8-0.8
				c0.5-0.5,0.8-1.2,0.8-1.8C141.1-47.5,140.8-48.1,140.3-48.6z M138.3-51.9c0.5-0.5,0.8-1.2,0.8-1.8c0-0.7-0.3-1.4-0.8-1.8
				c-1-1-2.7-1-3.7,0c-0.5,0.5-0.8,1.2-0.8,1.8c0,0.7,0.3,1.4,0.8,1.8c0.5,0.5,1.2,0.8,1.8,0.8C137.2-51.2,137.9-51.5,138.3-51.9z
				 M129.7-83.9c0.5,0.5,1.2,0.8,1.8,0.8c0.7,0,1.4-0.3,1.8-0.8c0.5-0.5,0.8-1.2,0.8-1.8c0-0.7-0.3-1.4-0.8-1.8c-1-1-2.7-1-3.7,0
				c-0.5,0.5-0.8,1.2-0.8,1.8C128.9-85.1,129.2-84.4,129.7-83.9z M121.9-85.2c0,0.7,0.3,1.4,0.8,1.8c0.5,0.5,1.2,0.8,1.8,0.8
				c0.7,0,1.4-0.3,1.8-0.8c0.5-0.5,0.8-1.2,0.8-1.8c0-0.7-0.3-1.4-0.8-1.8c-1-1-2.7-1-3.7,0C122.2-86.6,121.9-85.9,121.9-85.2z
				 M124.7-92.9c0.5,0.5,1.2,0.8,1.8,0.8c0.7,0,1.4-0.3,1.8-0.8c0.5-0.5,0.8-1.2,0.8-1.8c0-0.7-0.3-1.4-0.8-1.8c-1-1-2.7-1-3.7,0
				c-0.5,0.5-0.8,1.2-0.8,1.8C123.9-94,124.2-93.4,124.7-92.9z M121.4-93.6c-1-1-2.7-1-3.7,0c-0.5,0.5-0.8,1.2-0.8,1.8
				c0,0.7,0.3,1.4,0.8,1.8c0.5,0.5,1.2,0.8,1.8,0.8c0.7,0,1.4-0.3,1.8-0.8c0.5-0.5,0.8-1.2,0.8-1.8
				C122.1-92.4,121.9-93.1,121.4-93.6z M110.2-95.6c-0.5,0.5-0.8,1.2-0.8,1.8c0,0.7,0.3,1.4,0.8,1.8c0.5,0.5,1.2,0.8,1.8,0.8
				s1.4-0.3,1.8-0.8c0.5-0.5,0.8-1.1,0.8-1.8c0-0.7-0.3-1.4-0.8-1.8C112.9-96.5,111.2-96.5,110.2-95.6z M107.7-90.2
				c0-0.7-0.3-1.4-0.8-1.8c-1-1-2.7-1-3.7,0c-0.5,0.5-0.8,1.2-0.8,1.8c0,0.7,0.3,1.4,0.8,1.8c0.5,0.5,1.2,0.8,1.8,0.8
				c0.7,0,1.4-0.3,1.8-0.8C107.4-88.9,107.7-89.6,107.7-90.2z M100.9-86.4c0.5-0.5,0.8-1.2,0.8-1.8c0-0.7-0.3-1.4-0.8-1.8
				c-1-1-2.7-1-3.7,0c-0.5,0.5-0.8,1.2-0.8,1.8c0,0.7,0.3,1.4,0.8,1.8c0.5,0.5,1.2,0.8,1.8,0.8C99.7-85.6,100.4-85.9,100.9-86.4z
				 M101.7-82.6c-0.5,0.5-0.8,1.2-0.8,1.8c0,0.7,0.3,1.4,0.8,1.8c0.5,0.5,1.2,0.8,1.8,0.8c0.7,0,1.4-0.3,1.8-0.8
				c0.5-0.5,0.8-1.2,0.8-1.8c0-0.7-0.3-1.4-0.8-1.8C104.4-83.5,102.7-83.5,101.7-82.6z M113.9-83.9c0.5-0.5,0.8-1.1,0.8-1.8
				s-0.3-1.4-0.8-1.8c-1-1-2.7-1-3.7,0c-0.5,0.5-0.8,1.2-0.8,1.8c0,0.7,0.3,1.4,0.8,1.8c0.5,0.5,1.2,0.8,1.8,0.8
				S113.4-83.4,113.9-83.9z M116.2-77.9c0.5,0.5,1.2,0.8,1.8,0.8c0.7,0,1.4-0.3,1.8-0.8c0.5-0.5,0.8-1.2,0.8-1.8
				c0-0.7-0.3-1.4-0.8-1.8c-1-1-2.7-1-3.7,0c-0.5,0.5-0.8,1.2-0.8,1.8C115.4-79.1,115.7-78.4,116.2-77.9z M108-76.8
				c0,0.7,0.3,1.4,0.8,1.8c0.5,0.5,1.2,0.8,1.8,0.8c0.7,0,1.4-0.3,1.8-0.8c0.5-0.5,0.8-1.2,0.8-1.8c0-0.7-0.3-1.4-0.8-1.8
				c-1-1-2.7-1-3.7,0C108.2-78.1,108-77.4,108-76.8z M121.1-71.3c0-0.7-0.3-1.4-0.8-1.8c-1-1-2.7-1-3.7,0c-0.5,0.5-0.8,1.2-0.8,1.8
				c0,0.7,0.3,1.4,0.8,1.8c0.5,0.5,1.2,0.8,1.8,0.8c0.7,0,1.4-0.3,1.8-0.8C120.9-69.9,121.1-70.6,121.1-71.3z M127.5-75.7
				c0.7,0,1.4-0.3,1.8-0.8c0.5-0.5,0.8-1.2,0.8-1.8c0-0.7-0.3-1.4-0.8-1.8c-1-1-2.7-1-3.7,0c-0.5,0.5-0.8,1.2-0.8,1.8
				c0,0.7,0.3,1.4,0.8,1.8C126.2-75.9,126.8-75.7,127.5-75.7z M125.2-69.9c0.5,0.5,1.2,0.8,1.8,0.8c0.7,0,1.4-0.3,1.8-0.8
				c0.5-0.5,0.8-1.2,0.8-1.8c0-0.7-0.3-1.4-0.8-1.8c-1-1-2.7-1-3.7,0c-0.5,0.5-0.8,1.2-0.8,1.8C124.4-71.1,124.7-70.4,125.2-69.9z
				 M121.5-60.7c0.7,0,1.4-0.3,1.8-0.8c0.5-0.5,0.8-1.2,0.8-1.8s-0.3-1.4-0.8-1.8c-1-1-2.7-1-3.7,0c-0.5,0.5-0.8,1.2-0.8,1.8
				s0.3,1.4,0.8,1.8C120.2-61,120.9-60.7,121.5-60.7z M124-52.7c0.7,0,1.4-0.3,1.8-0.8c0.5-0.5,0.8-1.2,0.8-1.8
				c0-0.7-0.3-1.4-0.8-1.8c-1-1-2.7-1-3.7,0c-0.5,0.5-0.8,1.2-0.8,1.8c0,0.7,0.3,1.4,0.8,1.8C122.7-53,123.4-52.7,124-52.7z
				 M111.7-56.1c-0.5,0.5-0.8,1.2-0.8,1.8c0,0.7,0.3,1.4,0.8,1.8c0.5,0.5,1.2,0.8,1.8,0.8s1.4-0.3,1.8-0.8c0.5-0.5,0.8-1.2,0.8-1.8
				c0-0.7-0.3-1.4-0.8-1.8C114.4-57.1,112.7-57.1,111.7-56.1z M120.9-48c0.5-0.5,0.8-1.2,0.8-1.8c0-0.7-0.3-1.4-0.8-1.8
				c-1-1-2.7-1-3.7,0c-0.5,0.5-0.8,1.2-0.8,1.8c0,0.7,0.3,1.3,0.8,1.8s1.2,0.8,1.8,0.8C119.7-47.2,120.4-47.5,120.9-48z M128.2-51.1
				c-0.5,0.5-0.8,1.2-0.8,1.8c0,0.7,0.3,1.4,0.8,1.8c0.5,0.5,1.2,0.8,1.8,0.8c0.7,0,1.4-0.3,1.8-0.8c0.5-0.5,0.8-1.2,0.8-1.8
				c0-0.7-0.3-1.4-0.8-1.8C130.9-52.1,129.2-52.1,128.2-51.1z M127.7-62.6c-0.5,0.5-0.8,1.2-0.8,1.8c0,0.7,0.3,1.4,0.8,1.8
				c0.5,0.5,1.2,0.8,1.8,0.8c0.7,0,1.4-0.3,1.8-0.8c0.5-0.5,0.8-1.2,0.8-1.8c0-0.7-0.3-1.4-0.8-1.8
				C130.4-63.6,128.7-63.6,127.7-62.6z M100.4-51.6c-1-1-2.7-1-3.7,0c-0.5,0.5-0.8,1.2-0.8,1.8c0,0.7,0.3,1.4,0.8,1.8
				c0.5,0.5,1.2,0.8,1.8,0.8c0.7,0,1.4-0.3,1.8-0.8c0.5-0.5,0.8-1.2,0.8-1.8C101.2-50.5,100.9-51.1,100.4-51.6z M123.9-40.5
				c0.5-0.5,0.8-1.2,0.8-1.8c0-0.7-0.3-1.4-0.8-1.8c-1-1-2.7-1-3.7,0c-0.5,0.5-0.8,1.2-0.8,1.8c0,0.7,0.3,1.4,0.8,1.8
				c0.5,0.5,1.2,0.8,1.8,0.8C122.7-39.7,123.4-40,123.9-40.5z M12.2-27.7c0.7,0,1.4-0.3,1.8-0.8c0.5-0.5,0.8-1.2,0.8-1.8
				c0-0.7-0.3-1.3-0.8-1.8c-1-1-2.7-1-3.7,0c-0.5,0.5-0.8,1.2-0.8,1.8c0,0.7,0.3,1.4,0.8,1.8C10.8-28,11.5-27.7,12.2-27.7z
				 M16.8-39.3c0-0.7-0.3-1.4-0.8-1.8c-1-1-2.7-1-3.7,0c-0.5,0.5-0.8,1.2-0.8,1.8c0,0.7,0.3,1.4,0.8,1.8c0.5,0.5,1.2,0.8,1.8,0.8
				c0.7,0,1.4-0.3,1.8-0.8C16.5-37.9,16.8-38.6,16.8-39.3z M23.3-41.8c0-0.7-0.3-1.4-0.8-1.8c-1-1-2.7-1-3.7,0
				c-0.5,0.5-0.8,1.2-0.8,1.8c0,0.7,0.3,1.4,0.8,1.8c0.5,0.5,1.2,0.8,1.8,0.8s1.4-0.3,1.8-0.8C23-40.4,23.3-41.1,23.3-41.8z
				 M18.7-31.2c0.7,0,1.4-0.3,1.8-0.8c0.5-0.5,0.8-1.2,0.8-1.8c0-0.7-0.3-1.4-0.8-1.8c-1-1-2.7-1-3.7,0c-0.5,0.5-0.8,1.2-0.8,1.8
				c0,0.7,0.3,1.4,0.8,1.8C17.3-31.5,18-31.2,18.7-31.2z M27.5-31.7c-1-1-2.7-1-3.7,0c-0.5,0.5-0.8,1.2-0.8,1.8
				c0,0.7,0.3,1.4,0.8,1.8c0.5,0.5,1.2,0.8,1.8,0.8s1.4-0.3,1.8-0.8c0.5-0.5,0.8-1.2,0.8-1.8C28.3-30.5,28-31.2,27.5-31.7z
				 M23.8-23.7c-0.5,0.5-0.8,1.2-0.8,1.8s0.3,1.4,0.8,1.8c0.5,0.5,1.2,0.8,1.8,0.8s1.4-0.3,1.8-0.8c0.5-0.5,0.8-1.2,0.8-1.8
				s-0.3-1.4-0.8-1.8C26.5-24.6,24.8-24.6,23.8-23.7z M17.7-22.7c0.7,0,1.4-0.3,1.8-0.8c0.5-0.5,0.8-1.2,0.8-1.8s-0.3-1.4-0.8-1.8
				c-1-1-2.7-1-3.7,0c-0.5,0.5-0.8,1.2-0.8,1.8s0.3,1.4,0.8,1.8C16.3-23,17-22.7,17.7-22.7z M32.7-25.2c0.7,0,1.4-0.3,1.8-0.8
				c0.5-0.5,0.8-1.2,0.8-1.8c0-0.7-0.3-1.4-0.8-1.8c-1-1-2.7-1-3.7,0c-0.5,0.5-0.8,1.2-0.8,1.8c0,0.7,0.3,1.4,0.8,1.8
				C31.3-25.5,32-25.2,32.7-25.2z M33.2-19.2c0.7,0,1.4-0.3,1.8-0.8c0.5-0.5,0.8-1.2,0.8-1.8s-0.3-1.3-0.8-1.8c-1-1-2.7-1-3.7,0
				c-0.5,0.5-0.8,1.2-0.8,1.8s0.3,1.4,0.8,1.8C31.8-19.5,32.5-19.2,33.2-19.2z M44.5-37c0.5-0.5,0.8-1.2,0.8-1.8
				c0-0.7-0.3-1.4-0.8-1.8c-1-1-2.7-1-3.7,0c-0.5,0.5-0.8,1.2-0.8,1.8c0,0.7,0.3,1.4,0.8,1.8c0.5,0.5,1.2,0.8,1.8,0.8
				C43.3-36.2,44-36.5,44.5-37z M36.6-31.7c0.7,0,1.4-0.3,1.8-0.8c0.5-0.5,0.8-1.2,0.8-1.8c0-0.7-0.3-1.4-0.8-1.8c-1-1-2.7-1-3.7,0
				c-0.5,0.5-0.8,1.2-0.8,1.8c0,0.7,0.3,1.4,0.8,1.8C35.3-32,36-31.7,36.6-31.7z M43.1-28.7c0.7,0,1.4-0.3,1.8-0.8
				c0.5-0.5,0.8-1.2,0.8-1.8c0-0.7-0.3-1.4-0.8-1.8c-1-1-2.7-1-3.7,0c-0.5,0.5-0.8,1.2-0.8,1.8c0,0.7,0.3,1.4,0.8,1.8
				C41.8-29,42.5-28.7,43.1-28.7z M49.1-20.2c0.7,0,1.4-0.3,1.8-0.8c0.5-0.5,0.8-1.2,0.8-1.8s-0.3-1.3-0.8-1.8c-1-1-2.7-1-3.7,0
				c-0.5,0.5-0.8,1.2-0.8,1.8s0.3,1.4,0.8,1.8C47.8-20.5,48.5-20.2,49.1-20.2z M41-23c0.5-0.5,0.8-1.2,0.8-1.8s-0.3-1.4-0.8-1.8
				c-1-1-2.7-1-3.7,0c-0.5,0.5-0.8,1.2-0.8,1.8s0.3,1.4,0.8,1.8c0.5,0.5,1.2,0.8,1.8,0.8C39.8-22.2,40.5-22.5,41-23z M50.6-26.2
				c0.7,0,1.4-0.3,1.8-0.8c0.5-0.5,0.8-1.2,0.8-1.8c0-0.7-0.3-1.4-0.8-1.8c-1-1-2.7-1-3.7,0c-0.5,0.5-0.8,1.2-0.8,1.8
				c0,0.7,0.3,1.4,0.8,1.8C49.3-26.5,49.9-26.2,50.6-26.2z M52-36c0.5-0.5,0.8-1.2,0.8-1.8c0-0.7-0.3-1.4-0.8-1.8c-1-1-2.7-1-3.7,0
				c-0.5,0.5-0.8,1.2-0.8,1.8c0,0.7,0.3,1.4,0.8,1.8c0.5,0.5,1.2,0.8,1.8,0.8C50.8-35.2,51.5-35.5,52-36z M58.6-38.7
				c0.7,0,1.4-0.3,1.8-0.8c0.5-0.5,0.8-1.2,0.8-1.8c0-0.7-0.3-1.3-0.8-1.8c-1-1-2.7-1-3.7,0c-0.5,0.5-0.8,1.2-0.8,1.8
				c0,0.7,0.3,1.4,0.8,1.8C57.3-39,57.9-38.7,58.6-38.7z M57.1-32.7c0.7,0,1.4-0.3,1.8-0.8c0.5-0.5,0.8-1.2,0.8-1.8
				c0-0.7-0.3-1.4-0.8-1.8c-1-1-2.7-1-3.7,0c-0.5,0.5-0.8,1.2-0.8,1.8c0,0.7,0.3,1.4,0.8,1.8C55.8-33,56.4-32.7,57.1-32.7z
				 M61.5-29.7c-1-1-2.7-1-3.7,0c-0.5,0.5-0.8,1.2-0.8,1.8c0,0.7,0.3,1.4,0.8,1.8c0.5,0.5,1.2,0.8,1.8,0.8c0.7,0,1.4-0.3,1.8-0.8
				c0.5-0.5,0.8-1.2,0.8-1.8S61.9-29.2,61.5-29.7z M65.3-34.6c-0.5,0.5-0.8,1.2-0.8,1.8c0,0.7,0.3,1.4,0.8,1.8
				c0.5,0.5,1.2,0.8,1.8,0.8s1.4-0.3,1.8-0.8c0.5-0.5,0.8-1.2,0.8-1.8c0-0.7-0.3-1.4-0.8-1.8C68-35.6,66.2-35.6,65.3-34.6z
				 M66.6-19.2c0.7,0,1.4-0.3,1.8-0.8c0.5-0.5,0.8-1.2,0.8-1.8s-0.3-1.4-0.8-1.8c-1-1-2.7-1-3.7,0c-0.5,0.5-0.8,1.2-0.8,1.8
				s0.3,1.4,0.8,1.8C65.2-19.5,65.9-19.2,66.6-19.2z M67.6-37.2c0.7,0,1.4-0.3,1.8-0.8c0.5-0.5,0.8-1.2,0.8-1.8
				c0-0.7-0.3-1.4-0.8-1.8c-1-1-2.7-1-3.7,0c-0.5,0.5-0.8,1.2-0.8,1.8c0,0.7,0.3,1.4,0.8,1.8C66.3-37.5,66.9-37.2,67.6-37.2z
				 M74.6-33.7c0.7,0,1.4-0.3,1.8-0.8c0.5-0.5,0.8-1.2,0.8-1.8c0-0.7-0.3-1.4-0.8-1.8c-1-1-2.7-1-3.7,0c-0.5,0.5-0.8,1.2-0.8,1.8
				c0,0.7,0.3,1.4,0.8,1.8C73.3-34,73.9-33.7,74.6-33.7z M30.8-37.8c0-0.7-0.3-1.3-0.8-1.8c-1-1-2.7-1-3.7,0
				c-0.5,0.5-0.8,1.2-0.8,1.8c0,0.7,0.3,1.4,0.8,1.8c0.5,0.5,1.2,0.8,1.8,0.8c0.7,0,1.4-0.3,1.8-0.8C30.5-36.4,30.8-37.1,30.8-37.8z
				 M74.4-26.5c0.5-0.5,0.8-1.2,0.8-1.8c0-0.7-0.3-1.4-0.8-1.8c-1-1-2.7-1-3.7,0c-0.5,0.5-0.8,1.2-0.8,1.8c0,0.7,0.3,1.4,0.8,1.8
				c0.5,0.5,1.2,0.8,1.8,0.8C73.3-25.7,74-26,74.4-26.5z M7.5-19.2c-1-1-2.7-1-3.7,0c-0.4,0.5-0.7,1.2-0.7,1.9s0.3,1.4,0.8,1.8
				c0.5,0.5,1.2,0.8,1.8,0.8c0.7,0,1.4-0.3,1.8-0.8C8-16,8.3-16.7,8.3-17.3S8-18.7,7.5-19.2z M1.9-11.2C1.4-10.7,1.1-10,1.1-9.3
				s0.3,1.4,0.8,1.8C2.4-7,3.1-6.7,3.7-6.7c0.7,0,1.4-0.3,1.8-0.8C6-8,6.3-8.7,6.3-9.3c0-0.7-0.3-1.4-0.8-1.8
				C4.6-12.1,2.8-12.1,1.9-11.2z M19.7-12.6c-0.5,0.5-0.8,1.2-0.8,1.8s0.3,1.4,0.8,1.8c0.5,0.5,1.2,0.8,1.8,0.8
				c0.7,0,1.4-0.3,1.8-0.8c0.5-0.5,0.8-1.2,0.8-1.8s-0.3-1.3-0.8-1.8C22.4-13.6,20.7-13.6,19.7-12.6z M19.2-15.2
				c0.7,0,1.4-0.3,1.8-0.8c0.5-0.5,0.8-1.2,0.8-1.8s-0.3-1.4-0.8-1.8c-1-1-2.7-1-3.7,0c-0.5,0.5-0.8,1.2-0.8,1.8s0.3,1.4,0.8,1.8
				C17.8-15.5,18.5-15.2,19.2-15.2z M29.5-12.5c0.5-0.5,0.8-1.2,0.8-1.8s-0.3-1.3-0.8-1.8c-1-1-2.7-1-3.7,0
				c-0.5,0.5-0.8,1.2-0.8,1.8s0.3,1.4,0.8,1.8c0.5,0.5,1.2,0.8,1.8,0.8C28.4-11.7,29-12,29.5-12.5z M35.1-12.7
				c0.7,0,1.4-0.3,1.8-0.8c0.5-0.5,0.8-1.2,0.8-1.8s-0.3-1.4-0.8-1.8c-1-1-2.7-1-3.7,0c-0.5,0.5-0.8,1.2-0.8,1.8s0.3,1.4,0.8,1.8
				C33.8-13,34.5-12.7,35.1-12.7z M43.6-14.2c0.7,0,1.4-0.3,1.8-0.8c0.5-0.5,0.8-1.2,0.8-1.8c0-0.7-0.3-1.3-0.8-1.8
				c-1-1-2.7-1-3.7,0c-0.5,0.5-0.8,1.2-0.8,1.8c0,0.7,0.3,1.4,0.8,1.8C42.3-14.5,43-14.2,43.6-14.2z M44-12.7c-1-1-2.7-1-3.7,0
				c-0.5,0.5-0.8,1.2-0.8,1.8s0.3,1.4,0.8,1.8c0.5,0.5,1.2,0.8,1.8,0.8c0.7,0,1.4-0.3,1.8-0.8c0.5-0.5,0.8-1.2,0.8-1.8
				S44.5-12.2,44-12.7z M54-6.5c0.5-0.5,0.8-1.2,0.8-1.8c0-0.7-0.3-1.4-0.8-1.8c-1-1-2.7-1-3.7,0c-0.5,0.5-0.8,1.2-0.8,1.8
				c0,0.7,0.3,1.4,0.8,1.8c0.5,0.5,1.2,0.8,1.8,0.8C52.8-5.7,53.5-6,54-6.5z M52.6-12.7c0.7,0,1.4-0.3,1.8-0.8
				c0.5-0.5,0.8-1.2,0.8-1.8s-0.3-1.4-0.8-1.8c-1-1-2.7-1-3.7,0c-0.5,0.5-0.8,1.2-0.8,1.8s0.3,1.4,0.8,1.8
				C51.3-13,51.9-12.7,52.6-12.7z M63.2-10.3c0-0.7-0.3-1.4-0.8-1.8c-1-1-2.7-1-3.7,0c-0.5,0.5-0.8,1.2-0.8,1.8s0.3,1.4,0.8,1.8
				c0.5,0.5,1.2,0.8,1.8,0.8c0.7,0,1.4-0.3,1.8-0.8C62.9-9,63.2-9.7,63.2-10.3z M65.3-15.2c-0.5,0.5-0.8,1.2-0.8,1.8
				s0.3,1.4,0.8,1.8c0.5,0.5,1.2,0.8,1.8,0.8s1.4-0.3,1.8-0.8c0.5-0.5,0.8-1.2,0.8-1.8s-0.3-1.4-0.8-1.8
				C68-16.1,66.2-16.2,65.3-15.2z M13.2-10.7c0.7,0,1.4-0.3,1.8-0.8c0.5-0.5,0.8-1.2,0.8-1.8s-0.3-1.4-0.8-1.8c-1-1-2.7-1-3.7,0
				c-0.5,0.5-0.8,1.2-0.8,1.8s0.3,1.4,0.8,1.8C11.8-11,12.5-10.7,13.2-10.7z M84.2-43.3c0-0.7-0.3-1.4-0.8-1.8c-1-1-2.7-1-3.7,0
				c-0.5,0.5-0.8,1.2-0.8,1.8c0,0.7,0.3,1.4,0.8,1.8c0.5,0.5,1.2,0.8,1.8,0.8c0.7,0,1.4-0.3,1.8-0.8C83.9-41.9,84.2-42.6,84.2-43.3z
				 M90.2-38.8c0-0.7-0.3-1.4-0.8-1.8c-1-1-2.7-1-3.7,0c-0.5,0.5-0.8,1.2-0.8,1.8c0,0.7,0.3,1.4,0.8,1.8c0.5,0.5,1.2,0.8,1.8,0.8
				c0.7,0,1.4-0.3,1.8-0.8C89.9-37.4,90.2-38.1,90.2-38.8z M98.9-39c0.5-0.5,0.8-1.2,0.8-1.8c0-0.7-0.3-1.4-0.8-1.8
				c-1-1-2.7-1-3.7,0c-0.5,0.5-0.8,1.2-0.8,1.8c0,0.7,0.3,1.4,0.8,1.8c0.5,0.5,1.2,0.8,1.8,0.8C97.8-38.2,98.4-38.5,98.9-39z
				 M98.6-28.7c0.7,0,1.4-0.3,1.8-0.8c0.5-0.5,0.8-1.2,0.8-1.8c0-0.7-0.3-1.4-0.8-1.8c-1-1-2.7-1-3.7,0c-0.5,0.5-0.8,1.2-0.8,1.8
				c0,0.7,0.3,1.4,0.8,1.8C97.2-29,97.9-28.7,98.6-28.7z M90.7-27.7c-0.5,0.5-0.8,1.2-0.8,1.8s0.3,1.4,0.8,1.8
				c0.5,0.5,1.2,0.8,1.8,0.8c0.7,0,1.4-0.3,1.8-0.8c0.5-0.5,0.8-1.2,0.8-1.8s-0.3-1.4-0.8-1.8C93.5-28.6,91.7-28.6,90.7-27.7z
				 M84.2-24.2c-0.5,0.5-0.8,1.2-0.8,1.8s0.3,1.4,0.8,1.8c0.5,0.5,1.2,0.8,1.8,0.8c0.7,0,1.4-0.3,1.8-0.8c0.5-0.5,0.8-1.2,0.8-1.8
				s-0.3-1.4-0.8-1.8C87-25.1,85.2-25.1,84.2-24.2z M88.4-32.7c-1-1-2.7-1-3.7,0c-0.5,0.5-0.8,1.2-0.8,1.8c0,0.7,0.3,1.4,0.8,1.8
				c0.5,0.5,1.2,0.8,1.8,0.8c0.7,0,1.4-0.3,1.8-0.8c0.5-0.5,0.8-1.2,0.8-1.8C89.2-31.5,88.9-32.2,88.4-32.7z M80.2-17.7
				c-0.5,0.5-0.8,1.2-0.8,1.8c0,0.7,0.3,1.4,0.8,1.8c0.5,0.5,1.2,0.8,1.8,0.8c0.7,0,1.4-0.3,1.8-0.8c0.5-0.5,0.8-1.2,0.8-1.8
				c0-0.7-0.3-1.4-0.8-1.8C83-18.6,81.2-18.6,80.2-17.7z M89.7-18.2c-0.5,0.5-0.8,1.2-0.8,1.8c0,0.7,0.3,1.4,0.8,1.8
				c0.5,0.5,1.2,0.8,1.8,0.8c0.7,0,1.4-0.3,1.8-0.8c0.5-0.5,0.8-1.2,0.8-1.8c0-0.7-0.3-1.4-0.8-1.8C92.5-19.1,90.7-19.1,89.7-18.2z
				 M96.7-15.7c-0.5,0.5-0.8,1.2-0.8,1.8s0.3,1.4,0.8,1.8c0.5,0.5,1.2,0.8,1.8,0.8c0.7,0,1.4-0.3,1.8-0.8c0.5-0.5,0.8-1.2,0.8-1.8
				s-0.3-1.3-0.8-1.8C99.4-16.6,97.7-16.7,96.7-15.7z M97.2-24.7c-0.5,0.5-0.8,1.2-0.8,1.8s0.3,1.4,0.8,1.8c0.5,0.5,1.2,0.8,1.8,0.8
				c0.7,0,1.4-0.3,1.8-0.8c0.5-0.5,0.8-1.2,0.8-1.8s-0.3-1.4-0.8-1.8C99.9-25.6,98.2-25.6,97.2-24.7z M2.6-25.8
				c0,0.7,0.3,1.4,0.8,1.8c0.5,0.5,1.2,0.8,1.8,0.8c0.7,0,1.4-0.3,1.8-0.8c0.5-0.5,0.8-1.2,0.8-1.8S7.5-27.1,7-27.6
				c-1-1-2.7-1-3.7,0C2.9-27.2,2.6-26.5,2.6-25.8z M4.4-33.5c0.5,0.5,1.2,0.8,1.8,0.8c0.7,0,1.4-0.3,1.8-0.8
				c0.5-0.5,0.8-1.2,0.8-1.8c0-0.7-0.3-1.4-0.8-1.8c-1-1-2.7-1-3.7,0c-0.5,0.5-0.8,1.2-0.8,1.8C3.6-34.6,3.9-33.9,4.4-33.5z
				 M136.7-11.7c-0.5,0.5-0.8,1.2-0.8,1.8s0.3,1.4,0.8,1.8c0.5,0.5,1.2,0.8,1.8,0.8c0.7,0,1.4-0.3,1.8-0.8c0.5-0.5,0.8-1.2,0.8-1.8
				s-0.3-1.4-0.8-1.8C139.4-12.6,137.6-12.6,136.7-11.7z M133.9-11c0.5-0.5,0.8-1.2,0.8-1.8s-0.3-1.4-0.8-1.8c-1-1-2.7-1-3.7,0
				c-0.5,0.5-0.8,1.2-0.8,1.8s0.3,1.4,0.8,1.8c0.5,0.5,1.2,0.8,1.8,0.8C132.7-10.2,133.4-10.5,133.9-11z M141.4-14.8
				c0,0.7,0.3,1.4,0.8,1.8c0.5,0.5,1.2,0.8,1.8,0.8h0.1v-5.1c-0.7,0-1.4,0.2-1.9,0.7C141.7-16.2,141.4-15.5,141.4-14.8z M137-27.2
				c0.7,0,1.4-0.3,1.8-0.8c0.5-0.5,0.8-1.2,0.8-1.8c0-0.7-0.3-1.4-0.8-1.8c-0.9-1-2.7-1-3.7,0c-0.5,0.5-0.8,1.2-0.8,1.8
				c0,0.7,0.3,1.4,0.8,1.8C135.7-27.5,136.3-27.2,137-27.2z M137.5-37.7c0.7,0,1.4-0.3,1.8-0.8c0.5-0.5,0.8-1.2,0.8-1.8
				c0-0.7-0.3-1.4-0.8-1.8c-1-1-2.7-1-3.7,0c-0.5,0.5-0.8,1.2-0.8,1.8c0,0.7,0.3,1.4,0.8,1.8C136.2-38,136.8-37.7,137.5-37.7z
				 M140.5-19.7c0.7,0,1.4-0.3,1.8-0.8c0.5-0.5,0.8-1.2,0.8-1.8s-0.3-1.4-0.8-1.8c-1-1-2.7-1-3.7,0c-0.5,0.5-0.8,1.2-0.8,1.8
				s0.3,1.4,0.8,1.8C139.1-20,139.8-19.7,140.5-19.7z M75.3-19.5c0.5,0.5,1.2,0.8,1.8,0.8c0.7,0,1.4-0.3,1.8-0.8
				c0.5-0.5,0.8-1.2,0.8-1.8s-0.3-1.4-0.8-1.8c-1-1-2.7-1-3.7,0c-0.5,0.5-0.8,1.2-0.8,1.8S74.8-20,75.3-19.5z M72.3-17.2
				c-0.5,0.5-0.8,1.2-0.8,1.8s0.3,1.4,0.8,1.8c0.5,0.5,1.2,0.8,1.8,0.8c0.7,0,1.4-0.3,1.8-0.8c0.5-0.5,0.8-1.2,0.8-1.8
				s-0.3-1.4-0.8-1.8C75-18.1,73.2-18.2,72.3-17.2z M105.6-15.2c0.7,0,1.4-0.3,1.8-0.8c0.5-0.5,0.8-1.2,0.8-1.8s-0.3-1.4-0.8-1.8
				c-1-1-2.7-1-3.7,0c-0.5,0.5-0.8,1.2-0.8,1.8s0.3,1.4,0.8,1.8C104.2-15.5,104.9-15.2,105.6-15.2z M115.4-16.5
				c0.5-0.5,0.8-1.2,0.8-1.8s-0.3-1.4-0.8-1.8c-1-1-2.7-1-3.7,0c-0.5,0.5-0.8,1.2-0.8,1.8s0.3,1.4,0.8,1.8c0.5,0.5,1.2,0.8,1.8,0.8
				S114.9-16,115.4-16.5z M106.4-25c0.5-0.5,0.8-1.2,0.8-1.8c0-0.7-0.3-1.3-0.8-1.8c-1-1-2.7-1-3.7,0c-0.5,0.5-0.8,1.2-0.8,1.8
				c0,0.7,0.3,1.4,0.8,1.8c0.5,0.5,1.2,0.8,1.8,0.8C105.3-24.2,105.9-24.5,106.4-25z M110.5-23.2c0.7,0,1.4-0.3,1.8-0.8
				c0.5-0.5,0.8-1.2,0.8-1.8s-0.3-1.4-0.8-1.8c-1-1-2.7-1-3.7,0c-0.5,0.5-0.8,1.2-0.8,1.8s0.3,1.4,0.8,1.8
				C109.2-23.5,109.9-23.2,110.5-23.2z M106.1-32.2c0.7,0,1.4-0.3,1.8-0.8c0.5-0.5,0.8-1.2,0.8-1.8c0-0.7-0.3-1.4-0.8-1.8
				c-1-1-2.7-1-3.7,0c-0.5,0.5-0.8,1.2-0.8,1.8c0,0.7,0.3,1.4,0.8,1.8C104.7-32.5,105.4-32.2,106.1-32.2z M115.9-30
				c0.5-0.5,0.8-1.2,0.8-1.8c0-0.7-0.3-1.4-0.8-1.8c-1-1-2.7-1-3.7,0c-0.5,0.5-0.8,1.2-0.8,1.8c0,0.7,0.3,1.4,0.8,1.8
				c0.5,0.5,1.2,0.8,1.8,0.8S115.4-29.5,115.9-30z M118.5-22.7c0.7,0,1.4-0.3,1.8-0.8c0.5-0.5,0.8-1.2,0.8-1.8s-0.3-1.4-0.8-1.8
				c-1-1-2.7-1-3.7,0c-0.5,0.5-0.8,1.2-0.8,1.8s0.3,1.4,0.8,1.8C117.2-23,117.9-22.7,118.5-22.7z M124.4-19c0.5-0.5,0.8-1.2,0.8-1.8
				s-0.3-1.4-0.8-1.8c-1-1-2.7-1-3.7,0c-0.5,0.5-0.8,1.2-0.8,1.8s0.3,1.4,0.8,1.8c0.5,0.5,1.2,0.8,1.8,0.8
				C123.2-18.2,123.9-18.5,124.4-19z M126.1-12.8c0-0.7-0.3-1.4-0.8-1.8c-1-1-2.7-1-3.7,0c-0.5,0.5-0.8,1.2-0.8,1.8s0.3,1.4,0.8,1.8
				c0.5,0.5,1.2,0.8,1.8,0.8c0.7,0,1.4-0.3,1.8-0.8C125.8-11.5,126.1-12.2,126.1-12.8z M127.5-25.2c0.7,0,1.4-0.3,1.8-0.8
				c0.5-0.5,0.8-1.2,0.8-1.8c0-0.7-0.3-1.4-0.8-1.8c-1-1-2.7-1-3.7,0c-0.5,0.5-0.8,1.2-0.8,1.8c0,0.7,0.3,1.4,0.8,1.8
				C126.2-25.5,126.8-25.2,127.5-25.2z M124-30.2c0.7,0,1.4-0.3,1.8-0.8c0.5-0.5,0.8-1.2,0.8-1.8c0-0.7-0.3-1.4-0.8-1.8
				c-1-1-2.7-1-3.7,0c-0.5,0.5-0.8,1.2-0.8,1.8c0,0.7,0.3,1.3,0.8,1.8C122.7-30.5,123.4-30.2,124-30.2z M115.5-36.2
				c0.7,0,1.4-0.3,1.8-0.8c0.5-0.5,0.8-1.2,0.8-1.8c0-0.7-0.3-1.4-0.8-1.8c-1-1-2.7-1-3.7,0c-0.5,0.5-0.8,1.2-0.8,1.8
				c0,0.7,0.3,1.4,0.8,1.8C114.2-36.5,114.9-36.2,115.5-36.2z M131.5-32.7c0.7,0,1.4-0.3,1.8-0.8c0.5-0.5,0.8-1.2,0.8-1.8
				c0-0.7-0.3-1.4-0.8-1.8c-1-1-2.7-1-3.7,0c-0.5,0.5-0.8,1.2-0.8,1.8c0,0.7,0.3,1.4,0.8,1.8C130.2-33,130.8-32.7,131.5-32.7z
				 M132-18.2c0.7,0,1.4-0.3,1.8-0.8c0.5-0.5,0.8-1.2,0.8-1.8s-0.3-1.4-0.8-1.8c-1-1-2.7-1-3.7,0c-0.5,0.5-0.8,1.2-0.8,1.8
				s0.3,1.4,0.8,1.8C130.7-18.5,131.3-18.2,132-18.2z M105.6-39.2c0.7,0,1.4-0.3,1.8-0.8c0.5-0.5,0.8-1.2,0.8-1.8
				c0-0.7-0.3-1.4-0.8-1.8c-1-1-2.7-1-3.7,0c-0.5,0.5-0.8,1.2-0.8,1.8c0,0.7,0.3,1.4,0.8,1.8C104.2-39.5,104.9-39.2,105.6-39.2z
				 M117.6-11.3c0-0.7-0.3-1.4-0.8-1.8c-1-1-2.7-1-3.7,0c-0.5,0.5-0.8,1.2-0.8,1.8s0.3,1.4,0.8,1.8c0.5,0.5,1.2,0.8,1.8,0.8
				c0.7,0,1.4-0.3,1.8-0.8C117.4-10,117.6-10.7,117.6-11.3z M125.2-9.2c-0.5,0.5-0.8,1.2-0.8,1.8c0,0.7,0.3,1.4,0.8,1.8
				c0.5,0.5,1.2,0.8,1.8,0.8c0.7,0,1.4-0.3,1.8-0.8c0.5-0.5,0.8-1.2,0.8-1.8c0-0.7-0.3-1.4-0.8-1.8C127.9-10.1,126.1-10.1,125.2-9.2
				z M129-39.7c0.7,0,1.4-0.3,1.8-0.8c0.5-0.5,0.8-1.2,0.8-1.8c0-0.7-0.3-1.4-0.8-1.8c-1-1-2.7-1-3.7,0c-0.5,0.5-0.8,1.2-0.8,1.8
				c0,0.7,0.3,1.4,0.8,1.8C127.7-40,128.3-39.7,129-39.7z M15.8-97.1c-0.5,0.5-0.8,1.2-0.8,1.8c0,0.7,0.3,1.4,0.8,1.8
				c0.5,0.5,1.2,0.8,1.8,0.8c0.7,0,1.4-0.3,1.8-0.8c0.5-0.5,0.8-1.2,0.8-1.8c0-0.7-0.3-1.4-0.8-1.8C18.6-98,16.8-98,15.8-97.1z
				 M10.2-19.7c0.7,0,1.4-0.3,1.8-0.8c0.5-0.5,0.8-1.2,0.8-1.8s-0.3-1.3-0.8-1.8c-1-1-2.7-1-3.7,0c-0.5,0.5-0.8,1.2-0.8,1.8
				s0.3,1.4,0.8,1.8C8.8-20,9.5-19.7,10.2-19.7z M57.3-22.2c-0.5,0.5-0.8,1.2-0.8,1.8s0.3,1.4,0.8,1.8c0.5,0.5,1.2,0.8,1.8,0.8
				c0.7,0,1.4-0.3,1.8-0.8c0.5-0.5,0.8-1.2,0.8-1.8s-0.3-1.4-0.8-1.8C60-23.1,58.2-23.1,57.3-22.2z M82.2-31.3
				c0-0.7-0.3-1.4-0.8-1.8c-1-1-2.7-1-3.7,0c-0.5,0.5-0.8,1.2-0.8,1.8c0,0.7,0.3,1.4,0.8,1.8c0.5,0.5,1.2,0.8,1.8,0.8
				c0.7,0,1.4-0.3,1.8-0.8C81.9-30,82.2-30.6,82.2-31.3z M93.1-31.7c0.7,0,1.4-0.3,1.8-0.8c0.5-0.5,0.8-1.2,0.8-1.8
				c0-0.7-0.3-1.4-0.8-1.8c-1-1-2.7-1-3.7,0c-0.5,0.5-0.8,1.2-0.8,1.8c0,0.7,0.3,1.4,0.8,1.8C91.7-32,92.4-31.7,93.1-31.7z
				 M78.8-4.2C78.3-3.7,78-3,78-2.4c0,0.7,0.3,1.4,0.8,1.8c0.2,0.2,0.5,0.4,0.8,0.5h2.1c0.3-0.1,0.5-0.3,0.8-0.5
				c0.5-0.5,0.8-1.2,0.8-1.8c0-0.7-0.3-1.4-0.8-1.8C81.5-5.1,79.7-5.1,78.8-4.2z M20.8,0h2.6C22.6-0.4,21.6-0.4,20.8,0z M39.3-2.2
				c-0.5,0.5-0.8,1.2-0.8,1.8c0,0.1,0,0.2,0,0.4h5.1c0-0.1,0-0.2,0-0.4c0-0.7-0.3-1.4-0.8-1.8C42-3.2,40.3-3.2,39.3-2.2z M30.8-0.7
				c-0.2,0.2-0.4,0.4-0.5,0.7h4.6c-0.1-0.3-0.3-0.5-0.5-0.7C33.5-1.7,31.8-1.7,30.8-0.7z M52.3-0.7c-0.2,0.2-0.4,0.4-0.5,0.7h4.6
				c-0.1-0.3-0.3-0.5-0.5-0.7C55-1.7,53.3-1.7,52.3-0.7z M12.3-1.7c-0.4,0.4-0.7,1.1-0.7,1.7h5.2c0-0.6-0.3-1.2-0.7-1.7
				C15.1-2.7,13.3-2.7,12.3-1.7z M106.7-2.7c-0.5,0.5-0.8,1.2-0.8,1.8c0,0.3,0.1,0.6,0.2,0.9h4.9c0.1-0.3,0.2-0.6,0.2-0.9
				c0-0.7-0.3-1.4-0.8-1.8C109.4-3.7,107.7-3.7,106.7-2.7z M141.7-129c-0.5,0.5-0.8,1.2-0.8,1.8c0,0.7,0.3,1.4,0.8,1.8
				c0.5,0.5,1.2,0.8,1.8,0.8c0.2,0,0.4,0,0.6-0.1v-5C143.2-129.9,142.3-129.7,141.7-129z M141.4-120.7c0,0.7,0.3,1.4,0.8,1.8
				c0.5,0.5,1.2,0.8,1.8,0.8h0.1v-5.1c-0.7,0-1.4,0.2-1.9,0.7C141.7-122.1,141.4-121.4,141.4-120.7z M141.9-106.2
				c0,0.7,0.3,1.4,0.8,1.8c0.4,0.4,0.9,0.6,1.4,0.7v-5.1c-0.5,0.1-1,0.3-1.4,0.7C142.2-107.6,141.9-106.9,141.9-106.2z M141.2-101.6
				c-0.5,0.5-0.8,1.2-0.8,1.8c0,0.7,0.3,1.4,0.8,1.8c0.5,0.5,1.2,0.8,1.8,0.8c0.4,0,0.8-0.1,1.1-0.3v-4.5
				C143.1-102.5,141.9-102.3,141.2-101.6z M141.4-3.8c0,0.7,0.3,1.4,0.8,1.8c0.5,0.5,1.2,0.8,1.8,0.8h0.1v-5.1
				c-0.7,0-1.4,0.2-1.9,0.7C141.7-5.2,141.4-4.5,141.4-3.8z M142.4-54.8c0,0.7,0.3,1.4,0.8,1.8c0.3,0.3,0.6,0.5,0.9,0.6v-4.8
				c-0.3,0.1-0.7,0.3-0.9,0.6C142.7-56.1,142.4-55.5,142.4-54.8z M141.2-35.1c-0.5,0.5-0.8,1.2-0.8,1.8c0,0.7,0.3,1.4,0.8,1.8
				c0.5,0.5,1.2,0.8,1.8,0.8c0.4,0,0.8-0.1,1.1-0.3v-4.7C143.1-36.1,141.9-35.9,141.2-35.1z M142.4-41.3c0,0.7,0.3,1.4,0.8,1.8
				c0.3,0.3,0.6,0.5,0.9,0.6v-4.8c-0.3,0.1-0.7,0.3-0.9,0.6C142.7-42.7,142.4-42,142.4-41.3z M89.2-6.2c-0.5,0.5-0.8,1.2-0.8,1.8
				c0,0.7,0.3,1.4,0.8,1.8c0.5,0.5,1.2,0.8,1.8,0.8c0.7,0,1.4-0.3,1.8-0.8c0.5-0.5,0.8-1.2,0.8-1.8c0-0.7-0.3-1.3-0.8-1.8
				C91.9-7.1,90.2-7.1,89.2-6.2z M81.4-7.5c0.5-0.5,0.8-1.2,0.8-1.8c0-0.7-0.3-1.4-0.8-1.8c-1-1-2.7-1-3.7,0
				c-0.5,0.5-0.8,1.2-0.8,1.8c0,0.7,0.3,1.4,0.8,1.8c0.5,0.5,1.2,0.8,1.8,0.8C80.3-6.7,80.9-7,81.4-7.5z M0.1-111.7L0.1-111.7
				L0.1-111.7L0.1-111.7z M0.1-69.8L0.1-69.8C0.1-69.7,0.1-69.8,0.1-69.8L0.1-69.8z M2.6-14.8c0-0.7-0.3-1.4-0.8-1.8
				c-0.5-0.5-1.1-0.7-1.7-0.7v5.1c0.6,0,1.3-0.3,1.7-0.7C2.3-13.5,2.6-14.2,2.6-14.8z M2.1-127.2c0-0.7-0.3-1.4-0.8-1.8
				c-0.3-0.3-0.8-0.6-1.2-0.7v5c0.5-0.1,0.9-0.3,1.2-0.7C1.8-125.8,2.1-126.5,2.1-127.2z M2.6-120.7c0-0.7-0.3-1.4-0.8-1.8
				c-0.4-0.5-1.1-0.7-1.7-0.7v5.1c0.6,0,1.3-0.3,1.7-0.7C2.3-119.3,2.6-120,2.6-120.7z M2.3-104.4c0.5-0.5,0.8-1.1,0.8-1.8
				s-0.3-1.4-0.8-1.8c-0.6-0.6-1.4-0.8-2.2-0.7v5.1c0.1,0,0.3,0,0.4,0C1.2-103.6,1.9-103.9,2.3-104.4z M1.6-99.7
				c0-0.7-0.3-1.4-0.8-1.8c-0.2-0.3-0.4-0.4-0.7-0.5v4.7c0.3-0.1,0.5-0.3,0.7-0.5C1.3-98.4,1.6-99,1.6-99.7z M0.1-6.4v5.1
				c0.6,0,1.3-0.3,1.7-0.7c0.5-0.5,0.8-1.2,0.8-1.8c0-0.7-0.3-1.4-0.8-1.8C1.4-6.2,0.7-6.4,0.1-6.4z M2.8-52.9
				c0.5-0.5,0.8-1.2,0.8-1.8c0-0.7-0.3-1.4-0.8-1.8c-0.7-0.8-1.8-1-2.7-0.7v4.8c0.3,0.1,0.6,0.2,0.9,0.2C1.7-52.2,2.4-52.5,2.8-52.9
				z M1.6-33.3c0-0.7-0.3-1.4-0.8-1.8c-0.2-0.2-0.5-0.4-0.7-0.5v4.7c0.3-0.1,0.5-0.3,0.7-0.5C1.3-32,1.6-32.6,1.6-33.3z M2.8-39.5
				c0.5-0.5,0.8-1.2,0.8-1.8c0-0.7-0.3-1.4-0.8-1.8C2.1-43.8,1-44,0.1-43.7v4.8c0.3,0.1,0.6,0.2,0.9,0.2C1.7-38.7,2.4-39,2.8-39.5z
				 M81.7-144h-2.1c0.3,0.2,0.7,0.2,1.1,0.2S81.3-143.8,81.7-144z M22.1-139.2c0.7,0,1.4-0.3,1.8-0.8c0.5-0.5,0.8-1.2,0.8-1.8
				c0-0.6-0.3-1.4-0.8-1.8c-0.2-0.2-0.3-0.3-0.5-0.4h-2.6c-0.2,0.1-0.4,0.2-0.5,0.4c-0.5,0.5-0.8,1.2-0.8,1.8c0,0.6,0.3,1.4,0.8,1.8
				C20.7-139.5,21.4-139.2,22.1-139.2z M41.1-141.8c0.7,0,1.4-0.3,1.8-0.8c0.4-0.4,0.6-0.9,0.7-1.5h-5.1c0.1,0.6,0.3,1.1,0.7,1.5
				C39.8-142,40.5-141.8,41.1-141.8z M32.7-140.3c0.7,0,1.4-0.3,1.8-0.8c0.5-0.5,0.8-1.2,0.8-1.8c0-0.4-0.1-0.8-0.3-1.1h-4.6
				c-0.2,0.4-0.3,0.7-0.3,1.1c0,0.7,0.3,1.4,0.8,1.8C31.3-140.5,32-140.3,32.7-140.3z M54.1-140.3c0.7,0,1.4-0.3,1.8-0.8
				c0.5-0.5,0.8-1.2,0.8-1.8c0-0.4-0.1-0.8-0.3-1.1h-4.6c-0.2,0.4-0.3,0.7-0.3,1.1c0,0.7,0.3,1.4,0.8,1.8
				C52.8-140.5,53.4-140.3,54.1-140.3z M14.2-141.3c0.7,0,1.4-0.3,1.8-0.8c0.5-0.5,0.8-1.2,0.8-1.8v-0.1h-5.2v0.1
				c0,0.7,0.3,1.4,0.8,1.8C12.8-141.5,13.5-141.3,14.2-141.3z M108.6-142.3c0.7,0,1.4-0.3,1.8-0.8c0.3-0.3,0.5-0.6,0.6-1h-4.9
				c0.1,0.4,0.3,0.7,0.6,1C107.2-142.5,107.9-142.3,108.6-142.3z"/>
		</g>
	</g>
</pattern>
<pattern  id="SVGID_2_" xlink:href="#SVGID_1_" patternTransform="matrix(1 0 0 1 192.1006 17068.5)">
</pattern>
<circle class="st2" cx="133.3" cy="133.3" r="133.5"/>
</svg>
