<?xml version="1.0" encoding="utf-8"?>
<!-- Generator: Adobe Illustrator 21.0.2, SVG Export Plug-In . SVG Version: 6.00 Build 0)  -->
<svg version="1.1" id="Capa_1" xmlns="http://www.w3.org/2000/svg" xmlns:xlink="http://www.w3.org/1999/xlink" x="0px" y="0px"
	 viewBox="0 0 56.8 50.4" style="enable-background:new 0 0 56.8 50.4;" xml:space="preserve">
<style type="text/css">
	.st0{fill:#2B3255;stroke:#2B3255;stroke-width:1.25;stroke-miterlimit:10;}
	.st1{fill:#2B3255;stroke:#2B3255;stroke-width:1.35;stroke-miterlimit:10;}
</style>
<g>
	<g>
		<path class="st0" d="M19.2,26.4c-2.8,0-5,2.7-5,6s2.2,6,5,6s5-2.7,5-6S22,26.4,19.2,26.4z M19.2,36.4c-1.7,0-3-1.8-3-4s1.3-4,3-4
			s3,1.8,3,4S20.9,36.4,19.2,36.4z"/>
		<path class="st0" d="M38.2,26.4c-2.8,0-5,2.7-5,6s2.2,6,5,6s5-2.7,5-6S41,26.4,38.2,26.4z M38.2,36.4c-1.7,0-3-1.8-3-4s1.3-4,3-4
			s3,1.8,3,4S39.9,36.4,38.2,36.4z"/>
		<path class="st0" d="M39.8,21.4L39.8,21.4c-1,0-2,0.1-2.9,0.1c-0.8,0-1.7,0.1-2.5,0.1h-1.5c-2.6,0.1-5.2,0.1-7.8,0.1
			c-1.2,0-2.3,0-3.5-0.1c-1.6-0.1-3.2-0.1-4.9-0.1c-2.3,0.1-4.2,0.8-5.7,2.2l0,0C8.5,26,7.5,29,7.9,33c0.5,5.7,2.9,8.7,8,10.1
			c4.3,1.2,8.7,1.3,12.3,1.3h1.2c0.4,0,0.8,0,1.2,0c0.5,0,1,0,1.5,0c3.6-0.1,6.7-0.7,9.6-1.6c3.2-1.1,5.3-3.2,6.3-6.2
			c0.8-2.3,1-4.5,0.7-6.7C48.2,26.4,45.2,21.4,39.8,21.4z M46.2,35.9c-0.8,2.4-2.4,4-5,4.9c-2.7,0.9-5.7,1.4-9,1.5
			c-0.9,0-1.8,0-2.7,0h-1.2c-3.5,0-7.7-0.1-11.8-1.2c-4.3-1.2-6.1-3.5-6.6-8.4c-0.3-3.3,0.5-5.8,2.5-7.6c1.1-1,2.6-1.6,4.4-1.6
			c1.6,0,3.2,0,4.8,0.1c1.2,0,2.4,0.1,3.6,0.1c2.6,0,5.2,0,7.8-0.1h1.5c0.9,0,1.7-0.1,2.6-0.1c0.9,0,1.8-0.1,2.7-0.1h0.1
			c4.1,0,6.6,4,7,6.8C47,32.1,46.8,33.9,46.2,35.9z"/>
		<path class="st1" d="M52.6,16.3c-0.6-0.8-0.9-1.3-0.8-2.2c0.2-1.8-0.1-3.7-0.3-5.5V8.5c-0.3-2.4-1-4.7-1.9-6.8l-0.3-0.8l-1.5,0.3
			c-2.1,0.4-4.2,0.9-6.1,2c-1.3,0.7-2.6,1.5-3.8,2.3c-0.8,0.5-1.7,1-2.5,1.5c0,0-0.1,0-0.2,0l0,0c-4.5-0.8-9.1-0.8-13.8,0
			c-0.1,0-0.2,0-0.4-0.1c-0.5-0.3-1-0.6-1.5-1c-0.6-0.3-1.2-0.7-1.8-1c-2.9-1.7-6-3.3-9.8-3.8L7.3,1L6.9,1.8C6.8,2,6.7,2.1,6.7,2.2
			C5.6,5.1,5,8.1,4.8,11.3c-0.1,1.1-0.1,2.2,0,3.4c0.1,0.4,0,0.5-0.1,0.6c-1.3,1.7-2.3,3.4-2.9,5.4C0.7,23.9,0.5,27.5,1.2,32
			c0.5,3.7,1.5,6.5,3,8.9c3.2,5,8.1,7.8,14.7,8.4c3.3,0.3,6.6,0.3,9.8,0.3c0.7,0,1.4,0,2.1,0c0.9,0,1.8,0,2.7,0
			c4.2,0,7.5-0.5,10.5-1.7c5.4-2.1,9-6,10.7-11.7c0.9-3.1,1.4-6.5,1.2-9.9C55.7,22.4,54.6,19,52.6,16.3z M52.6,35.6
			c-1.5,5.1-4.6,8.5-9.5,10.4c-2.8,1.1-5.9,1.6-9.8,1.6c-0.9,0-1.8,0-2.7,0c-3.9,0-7.9,0-11.7-0.3c-6-0.5-10.3-3-13.1-7.5
			c-1.4-2.1-2.2-4.6-2.7-8.1c-0.6-4.2-0.5-7.4,0.5-10.4C4.2,19.6,5,18,6.2,16.6c0.5-0.7,0.7-1.3,0.5-2.2c-0.1-0.9-0.1-2,0-3.1
			c0.2-2.8,0.8-5.6,1.7-8.2c3.1,0.5,5.8,1.9,8.3,3.4c0.6,0.3,1.1,0.7,1.7,1.1c0.5,0.3,1.1,0.7,1.6,1s1.2,0.5,1.7,0.4
			c4.5-0.7,8.9-0.7,13.1,0c0.5,0.1,1.1,0,1.5-0.3c0.8-0.5,1.7-1,2.5-1.5c1.4-0.8,2.6-1.5,3.9-2.3c1.6-0.9,3.4-1.3,5.4-1.7
			c0.6,1.7,1.1,3.6,1.4,5.5v0.1c0.2,1.7,0.5,3.4,0.3,5s0.5,2.6,1.2,3.5c1.8,2.5,2.7,5.4,2.8,8.9C53.9,29.5,53.5,32.7,52.6,35.6z"/>
	</g>
</g>
</svg>
