<?xml version="1.0" encoding="utf-8"?>
<!-- Generator: Adobe Illustrator 21.0.2, SVG Export Plug-In . SVG Version: 6.00 Build 0)  -->
<svg version="1.1" id="Capa_1" xmlns="http://www.w3.org/2000/svg" xmlns:xlink="http://www.w3.org/1999/xlink" x="0px" y="0px"
	 viewBox="0 0 55.1 48.7" style="enable-background:new 0 0 55.1 48.7;" xml:space="preserve">
<g>
	<g>
		<path d="M18.5,26.7c-2.8,0-5,2.7-5,6s2.2,6,5,6s5-2.7,5-6S21.3,26.7,18.5,26.7z M18.5,36.7c-1.7,0-3-1.8-3-4s1.3-4,3-4s3,1.8,3,4
			S20.2,36.7,18.5,36.7z"/>
		<path d="M37.5,26.7c-2.8,0-5,2.7-5,6s2.2,6,5,6s5-2.7,5-6S40.3,26.7,37.5,26.7z M37.5,36.7c-1.7,0-3-1.8-3-4s1.3-4,3-4s3,1.8,3,4
			S39.2,36.7,37.5,36.7z"/>
		<path d="M39.1,21.7c0,0-0.1,0-0.1,0c-0.9,0-1.9,0.1-2.8,0.1c-0.8,0-1.7,0.1-2.5,0.1l-1.5,0C29.6,22,27,22,24.4,22
			c-1.2,0-2.3,0-3.5-0.1c-1.6-0.1-3.2-0.1-4.9-0.1c-2.3,0.1-4.2,0.8-5.7,2.2l0,0c-2.5,2.3-3.5,5.3-3.1,9.3c0.5,5.7,2.9,8.7,8,10.1
			c4.3,1.2,8.7,1.3,12.3,1.3l1.2,0c0.4,0,0.8,0,1.2,0c0.5,0,1,0,1.5,0c3.6-0.1,6.7-0.7,9.6-1.6c3.2-1.1,5.3-3.2,6.3-6.2
			c0.8-2.3,1-4.5,0.7-6.7C47.5,26.7,44.5,21.7,39.1,21.7z M45.5,36.2c-0.8,2.4-2.4,4-5,4.9c-2.7,0.9-5.7,1.4-9,1.5
			c-0.9,0-1.8,0-2.7,0l-1.2,0c-3.5,0-7.7-0.1-11.8-1.2c-4.3-1.2-6.1-3.5-6.6-8.4c-0.3-3.3,0.5-5.8,2.5-7.6c1.1-1,2.6-1.6,4.4-1.6
			c1.6,0,3.2,0,4.8,0.1c1.2,0,2.4,0.1,3.6,0.1c2.6,0,5.2,0,7.8-0.1l1.5,0c0.9,0,1.7-0.1,2.6-0.1c0.9,0,1.8-0.1,2.7-0.1
			c0,0,0.1,0,0.1,0c4.1,0,6.6,4,7,6.8C46.3,32.4,46.1,34.2,45.5,36.2z"/>
		<path d="M51.9,15.4c-0.6-0.8-0.9-1.3-0.8-2.2c0.2-1.8-0.1-3.7-0.3-5.5l0-0.1c-0.3-2.4-1-4.7-1.9-6.8L48.6,0l-1.5,0.3
			c-2.1,0.4-4.2,0.9-6.1,2c-1.3,0.7-2.6,1.5-3.8,2.3c-0.8,0.5-1.7,1-2.5,1.5c0,0-0.1,0-0.2,0l0,0c-4.5-0.8-9.1-0.8-13.8,0
			c-0.1,0-0.2,0-0.4-0.1c-0.5-0.3-1-0.6-1.5-1C18.2,4.7,17.6,4.3,17,4c-2.9-1.7-6-3.3-9.8-3.8L6.6,0.1L6.2,0.9C6.1,1.1,6,1.2,6,1.3
			c-1.1,2.9-1.7,5.9-1.9,9.1c-0.1,1.1-0.1,2.2,0,3.4c0.1,0.4,0,0.5-0.1,0.6c-1.3,1.7-2.3,3.4-2.9,5.4c-1.1,3.2-1.3,6.8-0.6,11.3
			c0.5,3.7,1.5,6.5,3,8.9c3.2,5,8.1,7.8,14.7,8.4c3.3,0.3,6.6,0.3,9.8,0.3c0.7,0,1.4,0,2.1,0c0.9,0,1.8,0,2.7,0
			c4.2,0,7.5-0.5,10.5-1.7c5.4-2.1,9-6,10.7-11.7c0.9-3.1,1.4-6.5,1.2-9.9C55,21.5,53.9,18.1,51.9,15.4z M51.9,34.7
			c-1.5,5.1-4.6,8.5-9.5,10.4c-2.8,1.1-5.9,1.6-9.8,1.6c-0.9,0-1.8,0-2.7,0c-3.9,0-7.9,0-11.7-0.3c-6-0.5-10.3-3-13.1-7.5
			c-1.4-2.1-2.2-4.6-2.7-8.1c-0.6-4.2-0.5-7.4,0.5-10.4c0.6-1.7,1.4-3.3,2.6-4.7C6,15,6.2,14.4,6,13.5c-0.1-0.9-0.1-2,0-3.1
			c0.2-2.8,0.8-5.6,1.7-8.2c3.1,0.5,5.8,1.9,8.3,3.4c0.6,0.3,1.1,0.7,1.7,1.1c0.5,0.3,1.1,0.7,1.6,1c0.5,0.3,1.2,0.5,1.7,0.4
			c4.5-0.7,8.9-0.7,13.1,0c0.5,0.1,1.1,0,1.5-0.3c0.8-0.5,1.7-1,2.5-1.5C39.5,5.5,40.7,4.8,42,4c1.6-0.9,3.4-1.3,5.4-1.7
			C48,4,48.5,5.9,48.8,7.8l0,0.1c0.2,1.7,0.5,3.4,0.3,5c-0.2,1.6,0.5,2.6,1.2,3.5c1.8,2.5,2.7,5.4,2.8,8.9
			C53.2,28.6,52.8,31.8,51.9,34.7z"/>
	</g>
</g>
</svg>
