<?xml version="1.0" encoding="utf-8"?>
<!-- Generator: Adobe Illustrator 21.0.2, SVG Export Plug-In . SVG Version: 6.00 Build 0)  -->
<svg version="1.1" id="Capa_1" xmlns="http://www.w3.org/2000/svg" xmlns:xlink="http://www.w3.org/1999/xlink" x="0px" y="0px"
	 viewBox="0 0 648.5 664.1" style="enable-background:new 0 0 648.5 664.1;" xml:space="preserve">
<style type="text/css">
	.st0{fill:#2B3255;stroke:#2B3255;stroke-width:20;stroke-miterlimit:10;}
</style>
<g id="linkedin">
	<g>
		<path class="st0" d="M147.8,207.4H29.2c-8.1,0-14.7,6.6-14.7,14.7v414.5c0,8.1,6.6,14.7,14.7,14.7h118.6c8.1,0,14.7-6.6,14.7-14.7
			V222.1C162.5,214,155.9,207.4,147.8,207.4z M133.1,622H43.9V236.8h89.2V622z M478.5,202.4c-57.6,0-95.3,24.8-117.1,46.5l-2.7-28.1
			c-0.7-7.6-7.1-13.3-14.6-13.3h-0.3l-108.1,2.1c-4,0.1-7.7,1.7-10.4,4.6c-2.7,2.9-4.1,6.8-4,10.7c1.4,30.3,1.3,65.6,1.2,106.6
			v307.3c0,8.1,6.6,14.7,14.7,14.7h118.6c8.1,0,14.7-6.6,14.7-14.7V399.1c0-12.2,1.1-21.1,3.2-26.4c7.4-18.8,31.8-38.3,59.8-38.3
			c36.3,0,57.9,27.6,57.9,73.8v230.4c0,8.1,6.6,14.7,14.7,14.7h116.5c8.1,0,14.7-6.6,14.7-14.7V393.3
			C637.2,273.7,577.9,202.4,478.5,202.4z M607.8,624.1h-87.1V408.3c0-62.7-34.3-103.2-87.3-103.2c-42.1,0-76.3,29.3-87.1,56.8
			c-3.6,8.9-5.2,20.7-5.2,37.2V624h-89.2V331.5c0-34.8,0.1-65.6-0.7-92.9l79.6-1.5l4.6,47.4c0.7,7.5,7.1,13.3,14.6,13.3h2.5
			c5.1,0,9.8-2.6,12.5-6.9c8.7-13.9,42.5-59,113.6-59c82.2,0,129.3,58.9,129.3,161.5L607.8,624.1L607.8,624.1L607.8,624.1z M93.5,11
			c-47.7,0-82.3,32.9-82.3,78.2s33.9,78.1,80.7,78.1c48.2,0,83.1-32.9,83.1-78.5C173.9,43,140.4,11,93.5,11z M91.9,137.9
			c-30.2,0-51.3-20-51.3-48.7c0-29.2,21.3-48.8,52.9-48.8c31,0,51.4,19.3,52.1,48.8C145.6,118.3,124,137.9,91.9,137.9z"/>
	</g>
</g>
</svg>
