<?xml version="1.0" encoding="utf-8"?>
<!-- Generator: Adobe Illustrator 21.0.2, SVG Export Plug-In . SVG Version: 6.00 Build 0)  -->
<svg version="1.1" id="Capa_1" xmlns="http://www.w3.org/2000/svg" xmlns:xlink="http://www.w3.org/1999/xlink" x="0px" y="0px"
	 viewBox="0 0 60 56.6" style="enable-background:new 0 0 60 56.6;" xml:space="preserve">
<style type="text/css">
	.st0{fill:#2B3255;}
</style>
<g>
	<path class="st0" d="M30,27.5c3.8,0,6.7-3,6.7-6.7s-3-6.7-6.7-6.7s-6.7,3-6.7,6.7S26.2,27.5,30,27.5z M30,15.2
		c3.1,0,5.6,2.5,5.6,5.6s-2.5,5.6-5.6,5.6s-5.6-2.5-5.6-5.6S26.9,15.2,30,15.2z"/>
	<path class="st0" d="M29.8,56.6l15.3-22.2c5.8-7.7,4.9-20.3-1.8-27c-3.6-3.6-8.4-5.6-13.6-5.6s-9.9,2-13.6,5.6
		c-6.7,6.7-7.5,19.3-1.8,27L29.8,56.6z M17.8,9c3.2-3.2,7.6-5,12-5s8.9,1.8,12,5c6,6,6.8,17.3,1.6,24.3L29.8,53L16.2,33.2
		C11,26.3,11.7,15,17.8,9z"/>
</g>
</svg>
