<?xml version="1.0" encoding="utf-8"?>
<!-- Generator: Adobe Illustrator 21.0.2, SVG Export Plug-In . SVG Version: 6.00 Build 0)  -->
<svg version="1.1" id="Layer_1" xmlns="http://www.w3.org/2000/svg" xmlns:xlink="http://www.w3.org/1999/xlink" x="0px" y="0px"
	 viewBox="0 0 520 266.2" style="enable-background:new 0 0 520 266.2;" xml:space="preserve">
<style type="text/css">
	.st0{fill:none;}
	.st1{fill:#4C27F2;}
	.st2{fill:url(#SVGID_1_);}
</style>
<pattern  x="125.8" y="392" width="142" height="142" patternUnits="userSpaceOnUse" id="SVGID_2_" viewBox="0.1 -142.1 142 142" style="overflow:visible;">
	<g>
		<rect x="0.1" y="-142.1" class="st0" width="142" height="142"/>
		<g>
			<rect x="0.1" y="-142.1" class="st0" width="142" height="142"/>
			<g>
				<rect x="0.1" y="-142.1" class="st0" width="142" height="142"/>
				<path class="st1" d="M99.9-144.1L99.9-144.1h-3.7l0,0C97.2-143.1,98.9-143.1,99.9-144.1z M127.4-144.1h2.2
					C128.9-143.8,128.1-143.8,127.4-144.1z M144.1-10.4L144.1-10.4L144.1-10.4L144.1-10.4z M144.1-69.9v3c-0.3-0.4-0.5-1-0.5-1.5
					S143.8-69.4,144.1-69.9z M144.1-52.9v3c-0.3-0.4-0.5-1-0.5-1.5S143.8-52.4,144.1-52.9z M42.5-10.4c0-0.7,0.3-1.4,0.8-1.8
					c0.5-0.5,1.2-0.8,1.8-0.8c0.7,0,1.4,0.3,1.8,0.8c0.5,0.5,0.8,1.2,0.8,1.8c0,0.7-0.3,1.4-0.8,1.8c-1,1-2.7,1-3.7,0
					C42.8-9.1,42.5-9.7,42.5-10.4z M27.7-17c0.7,0,1.4,0.3,1.8,0.8c0.5,0.5,0.8,1.2,0.8,1.8c0,0.7-0.3,1.3-0.8,1.8c-1,1-2.7,1-3.7,0
					c-0.5-0.5-0.7-1.1-0.7-1.8s0.3-1.4,0.8-1.8C26.3-16.7,27-17,27.7-17z M28.2-8.5c0.7,0,1.4,0.3,1.8,0.8c0.5,0.5,0.8,1.2,0.8,1.8
					c0,0.7-0.3,1.3-0.8,1.8c-1,1-2.7,1-3.7,0c-0.5-0.5-0.8-1.2-0.8-1.8c0-0.7,0.3-1.4,0.8-1.8C26.8-8.2,27.5-8.5,28.2-8.5z
					 M32.3-12.1c-0.5-0.5-0.8-1.2-0.8-1.8c0-0.7,0.3-1.4,0.8-1.8c0.5-0.5,1.2-0.8,1.8-0.8c0.7,0,1.4,0.3,1.8,0.8
					c0.5,0.5,0.8,1.2,0.8,1.8c0,0.7-0.3,1.4-0.8,1.8C35-11.1,33.3-11.1,32.3-12.1z M38.6-9.5c0.7,0,1.4,0.3,1.8,0.8
					c0.5,0.5,0.8,1.2,0.8,1.8c0,0.7-0.3,1.4-0.8,1.8c-1,1-2.7,1-3.7,0c-0.5-0.5-0.8-1.2-0.8-1.8c0-0.7,0.3-1.4,0.8-1.8
					C37.3-9.2,38-9.5,38.6-9.5z M48.6-8c0.7,0,1.4,0.3,1.8,0.8c0.5,0.5,0.8,1.2,0.8,1.8c0,0.7-0.3,1.4-0.8,1.8c-1,1-2.7,1-3.7,0
					c-0.5-0.5-0.8-1.2-0.8-1.8c0-0.7,0.3-1.4,0.8-1.8C47.3-7.7,48-8,48.6-8z M62.1-6c0.7,0,1.4,0.3,1.8,0.8c0.5,0.5,0.8,1.2,0.8,1.8
					c0,0.7-0.3,1.4-0.8,1.8c-1,1-2.7,1-3.7,0c-0.5-0.5-0.8-1.2-0.8-1.8c0-0.7,0.3-1.4,0.8-1.8C60.8-5.8,61.4-6,62.1-6z M54.8-7.1
					C54.3-7.6,54-8.3,54-8.9c0-0.7,0.3-1.4,0.8-1.8c0.5-0.5,1.2-0.8,1.8-0.8c0.7,0,1.4,0.3,1.8,0.8c0.5,0.5,0.8,1.2,0.8,1.8
					c0,0.7-0.3,1.4-0.8,1.8C57.5-6.1,55.8-6.1,54.8-7.1z M53.3-12.6c-0.5-0.5-0.8-1.2-0.8-1.8c0-0.7,0.3-1.4,0.8-1.8
					c0.5-0.5,1.2-0.8,1.8-0.8c0.7,0,1.4,0.3,1.8,0.8c0.5,0.5,0.8,1.2,0.8,1.8c0,0.7-0.3,1.4-0.8,1.8C56-11.6,54.3-11.6,53.3-12.6z
					 M49.3-18.6c-0.5-0.5-0.8-1.2-0.8-1.8c0-0.7,0.3-1.3,0.8-1.8s1.2-0.8,1.8-0.8c0.7,0,1.4,0.3,1.8,0.8c0.5,0.5,0.8,1.2,0.8,1.8
					c0,0.7-0.3,1.3-0.8,1.8C52-17.6,50.3-17.6,49.3-18.6z M43.1-19.5c0.7,0,1.4,0.3,1.8,0.8c0.5,0.5,0.8,1.2,0.8,1.8
					c0,0.7-0.3,1.4-0.8,1.8c-1,1-2.7,1-3.7,0c-0.5-0.5-0.8-1.2-0.8-1.8c0-0.7,0.3-1.4,0.8-1.8C41.8-19.2,42.5-19.5,43.1-19.5z
					 M40.8-25.7c0.5-0.5,1.2-0.8,1.8-0.8c0.7,0,1.4,0.3,1.8,0.8c0.5,0.5,0.8,1.2,0.8,1.8c0,0.7-0.3,1.4-0.8,1.8c-1,1-2.7,1-3.7,0
					c-0.5-0.5-0.8-1.2-0.8-1.8C40-24.6,40.3-25.3,40.8-25.7z M30.8-20.1c-0.5-0.5-0.8-1.2-0.8-1.8c0-0.7,0.3-1.4,0.8-1.8
					c0.5-0.5,1.2-0.8,1.8-0.8c0.7,0,1.4,0.3,1.8,0.8c0.5,0.5,0.8,1.2,0.8,1.8c0,0.7-0.3,1.4-0.8,1.8C33.5-19.1,31.8-19.1,30.8-20.1z
					 M37.3-26.6c-0.5-0.5-0.8-1.2-0.8-1.8c0-0.7,0.3-1.4,0.8-1.8c0.5-0.5,1.2-0.8,1.8-0.8c0.7,0,1.4,0.3,1.8,0.8
					c0.5,0.5,0.8,1.2,0.8,1.8c0,0.7-0.3,1.4-0.8,1.8C40-25.6,38.3-25.6,37.3-26.6z M41.8-33c-0.5-0.5-0.8-1.2-0.8-1.8
					c0-0.7,0.3-1.4,0.8-1.8c0.5-0.5,1.2-0.8,1.8-0.8c0.7,0,1.4,0.3,1.8,0.8c0.5,0.5,0.8,1.2,0.8,1.8c0,0.7-0.3,1.4-0.8,1.8
					C44.5-32,42.8-32,41.8-33z M47.8-35.6c-0.5-0.5-0.8-1.2-0.8-1.8c0-0.6,0.3-1.4,0.8-1.8c0.5-0.5,1.2-0.8,1.8-0.8
					c0.7,0,1.4,0.3,1.8,0.8c0.5,0.5,0.8,1.2,0.8,1.8c0,0.6-0.3,1.3-0.8,1.8C50.5-34.6,48.8-34.6,47.8-35.6z M53.8-32.1
					c-0.5-0.5-0.8-1.2-0.8-1.8c0-0.6,0.3-1.4,0.8-1.8c0.5-0.5,1.2-0.8,1.8-0.8c0.7,0,1.4,0.3,1.8,0.8c0.5,0.5,0.8,1.2,0.8,1.8
					c0,0.6-0.3,1.4-0.8,1.8C56.5-31.1,54.7-31.1,53.8-32.1z M52.8-25.6c-0.5-0.5-0.8-1.2-0.8-1.8c0-0.7,0.3-1.4,0.8-1.8
					c0.5-0.5,1.2-0.8,1.8-0.8c0.7,0,1.4,0.3,1.8,0.8c0.5,0.5,0.8,1.2,0.8,1.8c0,0.7-0.3,1.4-0.8,1.8C55.5-24.6,53.8-24.6,52.8-25.6z
					 M56.8-21.1c-0.5-0.5-0.8-1.2-0.8-1.8c0-0.7,0.3-1.4,0.8-1.8c0.5-0.5,1.2-0.8,1.8-0.8c0.7,0,1.4,0.3,1.8,0.8
					c0.5,0.5,0.8,1.2,0.8,1.8c0,0.7-0.3,1.3-0.8,1.8C59.5-20.1,57.8-20.1,56.8-21.1z M65.3-21.1c-0.5-0.5-0.8-1.2-0.8-1.8
					c0-0.7,0.3-1.4,0.8-1.8c0.5-0.5,1.2-0.8,1.8-0.8s1.4,0.3,1.8,0.8c0.5,0.5,0.8,1.2,0.8,1.8c0,0.7-0.3,1.4-0.8,1.8
					C68-20.1,66.2-20.1,65.3-21.1z M65.4-30.6c-1,1-2.7,1-3.7,0c-0.5-0.5-0.8-1.2-0.8-1.8s0.3-1.4,0.8-1.8c0.5-0.5,1.2-0.8,1.8-0.8
					s1.4,0.3,1.8,0.8c0.5,0.5,0.8,1.2,0.8,1.8C66.1-31.8,65.9-31,65.4-30.6z M66.3-37.5c-0.5-0.5-0.8-1.2-0.8-1.8
					c0-0.7,0.3-1.4,0.8-1.8c0.5-0.5,1.2-0.8,1.8-0.8s1.4,0.3,1.8,0.8c0.5,0.5,0.8,1.2,0.8,1.8c0,0.7-0.3,1.3-0.8,1.8
					C69-36.6,67.2-36.6,66.3-37.5z M58.5-39.9c0-0.7,0.3-1.4,0.8-1.8c0.5-0.5,1.2-0.8,1.8-0.8c0.7,0,1.4,0.3,1.8,0.8
					c0.5,0.5,0.8,1.2,0.8,1.8c0,0.7-0.3,1.4-0.8,1.8c-1,1-2.7,1-3.7,0C58.8-38.5,58.5-39.2,58.5-39.9z M54.1-44
					c0.7,0,1.4,0.3,1.8,0.8c0.5,0.5,0.8,1.2,0.8,1.8c0,0.7-0.3,1.4-0.8,1.8c-1,1-2.7,1-3.7,0c-0.5-0.5-0.8-1.2-0.8-1.8
					c0-0.7,0.3-1.4,0.8-1.8C52.8-43.7,53.4-44,54.1-44z M71.3-32.2c0.5-0.5,1.2-0.8,1.8-0.8c0.7,0,1.4,0.3,1.8,0.8
					c0.5,0.5,0.8,1.2,0.8,1.8s-0.3,1.3-0.8,1.8c-1,1-2.7,1-3.7,0c-0.5-0.5-0.8-1.2-0.8-1.8S70.8-31.8,71.3-32.2z M60.8-14.1
					c-0.5-0.5-0.8-1.2-0.8-1.8c0-0.7,0.3-1.4,0.8-1.8c0.5-0.5,1.2-0.8,1.8-0.8c0.7,0,1.4,0.3,1.8,0.8c0.5,0.5,0.8,1.2,0.8,1.8
					c0,0.7-0.3,1.4-0.8,1.8C63.5-13.1,61.8-13.1,60.8-14.1z M64.8-11.8c0.5-0.5,1.2-0.8,1.8-0.8c0.7,0,1.4,0.3,1.8,0.8
					c0.5,0.5,0.8,1.2,0.8,1.8c0,0.7-0.3,1.4-0.8,1.8c-1,1-2.7,1-3.7,0c-0.5-0.5-0.8-1.2-0.8-1.8C64-10.6,64.3-11.3,64.8-11.8z
					 M72.1-5.5c0.7,0,1.4,0.3,1.8,0.8c0.5,0.5,0.8,1.2,0.8,1.8c0,0.7-0.3,1.3-0.8,1.8c-1,1-2.7,1-3.7,0c-0.5-0.5-0.8-1.2-0.8-1.8
					c0-0.7,0.3-1.4,0.8-1.8C70.7-5.3,71.4-5.5,72.1-5.5z M71.8-7.6C71.3-8.1,71-8.8,71-9.4c0-0.7,0.3-1.4,0.8-1.8
					c0.5-0.5,1.2-0.8,1.8-0.8c0.7,0,1.4,0.3,1.8,0.8c0.5,0.5,0.8,1.2,0.8,1.8c0,0.7-0.3,1.3-0.8,1.8C74.5-6.6,72.7-6.6,71.8-7.6z
					 M71.3-13.6c-0.5-0.5-0.8-1.2-0.8-1.8c0-0.7,0.3-1.4,0.8-1.8c0.5-0.5,1.2-0.8,1.8-0.8c0.7,0,1.4,0.3,1.8,0.8
					c0.5,0.5,0.8,1.2,0.8,1.8c0,0.7-0.3,1.3-0.8,1.8C74-12.6,72.2-12.6,71.3-13.6z M71.8-21.1c-0.5-0.5-0.8-1.2-0.8-1.8
					c0-0.7,0.3-1.4,0.8-1.8c0.5-0.5,1.2-0.8,1.8-0.8c0.7,0,1.4,0.3,1.8,0.8c0.5,0.5,0.8,1.2,0.8,1.8c0,0.7-0.3,1.3-0.8,1.8
					C74.5-20.1,72.7-20.1,71.8-21.1z M80.6-9c0.7,0,1.4,0.3,1.8,0.8c0.5,0.5,0.8,1.2,0.8,1.8c0,0.7-0.3,1.4-0.8,1.8
					c-1,1-2.7,1-3.7,0c-0.5-0.5-0.8-1.2-0.8-1.8c0-0.7,0.3-1.4,0.8-1.8C79.2-8.7,79.9-9,80.6-9z M80.2-12.1
					c-0.5-0.5-0.8-1.2-0.8-1.8c0-0.7,0.3-1.4,0.8-1.8c0.5-0.5,1.2-0.8,1.8-0.8c0.7,0,1.4,0.3,1.8,0.8c0.5,0.5,0.8,1.2,0.8,1.8
					c0,0.7-0.3,1.4-0.8,1.8C83-11.1,81.2-11.1,80.2-12.1z M79.2-20.1c-0.5-0.5-0.8-1.2-0.8-1.8c0-0.7,0.3-1.4,0.8-1.8
					c0.5-0.5,1.2-0.8,1.8-0.8c0.7,0,1.4,0.3,1.8,0.8c0.5,0.5,0.8,1.2,0.8,1.8c0,0.7-0.3,1.4-0.8,1.8C82-19.1,80.2-19.1,79.2-20.1z
					 M79.7-29.1c-0.5-0.5-0.8-1.2-0.8-1.8s0.3-1.4,0.8-1.8c0.5-0.5,1.2-0.8,1.8-0.8c0.7,0,1.4,0.3,1.8,0.8c0.5,0.5,0.8,1.2,0.8,1.8
					s-0.3,1.4-0.8,1.8C82.5-28.1,80.7-28.1,79.7-29.1z M82.7-36.1c-0.5-0.5-0.8-1.2-0.8-1.8c0-0.7,0.3-1.4,0.8-1.8
					c0.5-0.5,1.2-0.8,1.8-0.8c0.7,0,1.4,0.3,1.8,0.8c0.5,0.5,0.8,1.2,0.8,1.8c0,0.7-0.3,1.4-0.8,1.8C85.5-35.1,83.7-35.1,82.7-36.1z
					 M73.3-35.6c-0.5-0.5-0.8-1.2-0.8-1.8c0-0.6,0.3-1.4,0.8-1.8c0.5-0.5,1.2-0.8,1.8-0.8c0.7,0,1.4,0.3,1.8,0.8
					c0.5,0.5,0.8,1.2,0.8,1.8c0,0.6-0.3,1.4-0.8,1.8C76-34.6,74.2-34.6,73.3-35.6z M75.8-44.5C75.3-45,75-45.7,75-46.3
					c0-0.7,0.3-1.4,0.8-1.8c0.5-0.5,1.2-0.8,1.8-0.8c0.7,0,1.4,0.3,1.8,0.8c0.5,0.5,0.8,1.2,0.8,1.8c0,0.7-0.3,1.4-0.8,1.8
					C78.5-43.6,76.7-43.6,75.8-44.5z M67.3-44c-0.5-0.5-0.8-1.2-0.8-1.8c0-0.7,0.3-1.4,0.8-1.8c0.5-0.5,1.2-0.8,1.8-0.8
					s1.4,0.3,1.8,0.8c0.5,0.5,0.8,1.2,0.8,1.8c0,0.7-0.3,1.4-0.8,1.8C70-43.1,68.2-43.1,67.3-44z M90.7-39c-0.5-0.5-0.8-1.2-0.8-1.8
					c0-0.7,0.3-1.4,0.8-1.8c0.5-0.5,1.2-0.8,1.8-0.8c0.7,0,1.4,0.3,1.8,0.8c0.5,0.5,0.8,1.2,0.8,1.8c0,0.7-0.3,1.4-0.8,1.8
					C93.5-38.1,91.7-38.1,90.7-39z M88.7-32.1c-0.5-0.5-0.8-1.2-0.8-1.8c0-0.6,0.3-1.4,0.8-1.8c0.5-0.5,1.2-0.8,1.8-0.8
					c0.7,0,1.4,0.3,1.8,0.8c0.5,0.5,0.8,1.2,0.8,1.8c0,0.6-0.3,1.4-0.8,1.8C91.5-31.1,89.7-31.1,88.7-32.1z M88.6-29.5
					c0.7,0,1.4,0.3,1.8,0.8c0.5,0.5,0.8,1.2,0.8,1.8c0,0.7-0.3,1.4-0.8,1.8c-1,1-2.7,1-3.7,0c-0.5-0.5-0.8-1.2-0.8-1.8
					c0-0.7,0.3-1.4,0.8-1.8C87.2-29.2,87.9-29.5,88.6-29.5z M87.2-17.1c-0.5-0.5-0.8-1.2-0.8-1.8c0-0.7,0.3-1.4,0.8-1.8
					c0.5-0.5,1.2-0.8,1.8-0.8c0.7,0,1.4,0.3,1.8,0.8c0.5,0.5,0.8,1.2,0.8,1.8c0,0.7-0.3,1.4-0.8,1.8C90-16.1,88.2-16.1,87.2-17.1z
					 M86.7-8.6c-0.5-0.5-0.8-1.2-0.8-1.8c0-0.7,0.3-1.4,0.8-1.8c0.5-0.5,1.2-0.8,1.8-0.8c0.7,0,1.4,0.3,1.8,0.8
					c0.5,0.5,0.8,1.2,0.8,1.8c0,0.7-0.3,1.4-0.8,1.8C89.4-7.6,87.7-7.6,86.7-8.6z M88.1-6.5c0.7,0,1.4,0.3,1.8,0.8
					c0.5,0.5,0.8,1.2,0.8,1.8c0,0.7-0.3,1.4-0.8,1.8c-1,1-2.7,1-3.7,0c-0.5-0.5-0.8-1.2-0.8-1.8c0-0.7,0.3-1.4,0.8-1.8
					C86.7-6.3,87.4-6.5,88.1-6.5z M98.1-4.5c0.7,0,1.4,0.3,1.8,0.8c0.5,0.5,0.8,1.2,0.8,1.8c0,0.7-0.3,1.4-0.8,1.8h-3.7
					c-0.5-0.5-0.8-1.2-0.8-1.8c0-0.7,0.3-1.4,0.8-1.8C96.7-4.3,97.4-4.5,98.1-4.5z M96.6-13c0.7,0,1.4,0.3,1.8,0.8
					c0.5,0.5,0.8,1.2,0.8,1.8c0,0.7-0.3,1.4-0.8,1.8c-1,1-2.7,1-3.7,0c-0.5-0.5-0.8-1.2-0.8-1.8c0-0.7,0.3-1.4,0.8-1.8
					C95.2-12.7,95.9-13,96.6-13z M103.6-13c0.7,0,1.4,0.3,1.8,0.8c0.5,0.5,0.8,1.2,0.8,1.8c0,0.7-0.3,1.4-0.8,1.8c-1,1-2.7,1-3.7,0
					c-0.5-0.5-0.8-1.2-0.8-1.8c0-0.7,0.3-1.4,0.8-1.8C102.2-12.7,102.9-13,103.6-13z M103.1-20c0.7,0,1.4,0.3,1.8,0.8
					c0.5,0.5,0.8,1.2,0.8,1.8c0,0.7-0.3,1.4-0.8,1.8c-1,1-2.7,1-3.7,0c-0.5-0.5-0.8-1.2-0.8-1.8c0-0.7,0.3-1.4,0.8-1.8
					C101.7-19.7,102.4-20,103.1-20z M95.6-19.5c0.7,0,1.4,0.3,1.8,0.8c0.5,0.5,0.8,1.1,0.8,1.8c0,0.7-0.3,1.4-0.8,1.8
					c-1,1-2.7,1-3.7,0c-0.5-0.5-0.8-1.2-0.8-1.8c0-0.7,0.3-1.4,0.8-1.8C94.2-19.2,94.9-19.5,95.6-19.5z M94.2-24.1
					c-0.5-0.5-0.8-1.2-0.8-1.8c0-0.7,0.3-1.4,0.8-1.8c0.5-0.5,1.2-0.8,1.8-0.8c0.7,0,1.4,0.3,1.8,0.8c0.5,0.5,0.8,1.2,0.8,1.8
					c0,0.7-0.3,1.4-0.8,1.8C96.9-23.1,95.2-23.1,94.2-24.1z M101.2-27.7c0.5-0.5,1.2-0.8,1.8-0.8c0.7,0,1.4,0.3,1.8,0.8
					c0.5,0.5,0.8,1.2,0.8,1.8c0,0.7-0.3,1.4-0.8,1.8c-1,1-2.7,1-3.7,0c-0.5-0.5-0.8-1.2-0.8-1.8C100.5-26.6,100.7-27.3,101.2-27.7z
					 M95.7-31.1c-0.5-0.5-0.8-1.2-0.8-1.8s0.3-1.4,0.8-1.8c0.5-0.5,1.2-0.8,1.8-0.8c0.7,0,1.4,0.3,1.8,0.8c0.5,0.5,0.8,1.2,0.8,1.8
					s-0.3,1.4-0.8,1.8C98.4-30.1,96.7-30.1,95.7-31.1z M98-41.4c0-0.7,0.3-1.4,0.8-1.8c0.5-0.5,1.2-0.8,1.8-0.8
					c0.7,0,1.4,0.3,1.8,0.8c0.5,0.5,0.8,1.2,0.8,1.8c0,0.7-0.3,1.4-0.8,1.8c-1,1-2.7,1-3.7,0C98.2-40,98-40.7,98-41.4z M102.2-46
					c-0.5-0.5-0.8-1.2-0.8-1.8c0-0.7,0.3-1.4,0.8-1.8c0.5-0.5,1.2-0.8,1.8-0.8c0.7,0,1.4,0.3,1.8,0.8c0.5,0.5,0.8,1.2,0.8,1.8
					c0,0.7-0.3,1.4-0.8,1.8C104.9-45.1,103.2-45.1,102.2-46z M107.2-40.5c-0.5-0.5-0.8-1.2-0.8-1.8c0-0.7,0.3-1.4,0.8-1.8
					c0.5-0.5,1.2-0.8,1.8-0.8c0.7,0,1.4,0.3,1.8,0.8c0.5,0.5,0.8,1.2,0.8,1.8c0,0.7-0.3,1.4-0.8,1.8
					C109.9-39.6,108.2-39.6,107.2-40.5z M104.2-33.6c-0.5-0.5-0.8-1.2-0.8-1.8c0-0.6,0.3-1.4,0.8-1.8c0.5-0.5,1.2-0.8,1.8-0.8
					c0.7,0,1.4,0.3,1.8,0.8c0.5,0.5,0.8,1.2,0.8,1.8c0,0.6-0.3,1.4-0.8,1.8C106.9-32.6,105.2-32.6,104.2-33.6z M108.7-31.2
					c0.5-0.5,1.2-0.8,1.8-0.8s1.4,0.3,1.8,0.8c0.5,0.5,0.8,1.2,0.8,1.8s-0.3,1.4-0.8,1.8c-1,1-2.7,1-3.7,0c-0.5-0.5-0.8-1.2-0.8-1.8
					S108.2-30.8,108.7-31.2z M111-23.5c0.7,0,1.4,0.3,1.8,0.8c0.5,0.5,0.8,1.2,0.8,1.8c0,0.7-0.3,1.4-0.8,1.8c-1,1-2.7,1-3.7,0
					c-0.5-0.5-0.8-1.2-0.8-1.8c0-0.7,0.3-1.4,0.8-1.8C109.7-23.2,110.4-23.5,111-23.5z M115.4-12.9c0-0.7,0.3-1.3,0.8-1.8
					s1.2-0.8,1.8-0.8c0.7,0,1.4,0.3,1.8,0.8c0.5,0.5,0.8,1.2,0.8,1.8c0,0.7-0.3,1.4-0.8,1.8c-1,1-2.7,1-3.7,0
					C115.7-11.6,115.4-12.2,115.4-12.9z M122-8.5c0.7,0,1.4,0.3,1.8,0.8c0.5,0.5,0.8,1.2,0.8,1.8c0,0.7-0.3,1.4-0.8,1.8
					c-1,1-2.7,1-3.7,0c-0.5-0.5-0.8-1.2-0.8-1.8c0-0.7,0.3-1.4,0.8-1.8C120.7-8.2,121.4-8.5,122-8.5z M128.5-5
					c0.7,0,1.4,0.3,1.8,0.8c0.5,0.5,0.8,1.2,0.8,1.8c0,0.7-0.3,1.4-0.8,1.8c-0.2,0.2-0.5,0.4-0.8,0.5h-2.2c-0.3-0.1-0.5-0.3-0.8-0.5
					c-0.5-0.5-0.8-1.2-0.8-1.8c0-0.7,0.3-1.4,0.8-1.8C127.2-4.8,127.8-5,128.5-5z M129.9-6.4c0-0.7,0.3-1.4,0.8-1.8
					c0.5-0.5,1.2-0.8,1.8-0.8c0.7,0,1.4,0.3,1.8,0.8c0.5,0.5,0.8,1.2,0.8,1.8c0,0.7-0.3,1.4-0.8,1.8c-0.9,1-2.7,1-3.7,0
					C130.2-5.1,129.9-5.8,129.9-6.4z M122.9-12.4c0-0.7,0.3-1.4,0.8-1.8c0.5-0.5,1.2-0.8,1.8-0.8c0.7,0,1.4,0.3,1.8,0.8
					c0.5,0.5,0.8,1.2,0.8,1.8c0,0.7-0.3,1.4-0.8,1.8c-0.9,1-2.7,1-3.7,0C123.2-11.1,122.9-11.7,122.9-12.4z M124-22.5
					c0.7,0,1.4,0.3,1.8,0.8c0.5,0.5,0.8,1.2,0.8,1.8c0,0.7-0.3,1.4-0.8,1.8c-1,1-2.7,1-3.7,0c-0.5-0.5-0.8-1.2-0.8-1.8
					c0-0.7,0.3-1.4,0.8-1.8C122.7-22.2,123.4-22.5,124-22.5z M116.7-22.6c-0.5-0.5-0.8-1.2-0.8-1.8c0-0.7,0.3-1.4,0.8-1.8
					c0.5-0.5,1.2-0.8,1.8-0.8c0.7,0,1.4,0.3,1.8,0.8c0.5,0.5,0.8,1.2,0.8,1.8c0,0.7-0.3,1.4-0.8,1.8
					C119.4-21.6,117.7-21.6,116.7-22.6z M121.7-31.7c0.5-0.5,1.2-0.8,1.8-0.8c0.7,0,1.4,0.3,1.8,0.8c0.5,0.5,0.8,1.2,0.8,1.8
					s-0.3,1.4-0.8,1.8c-1,1-2.7,1-3.7,0c-0.5-0.5-0.8-1.2-0.8-1.8S121.2-31.3,121.7-31.7z M133.6-31.9c0,0.7-0.3,1.4-0.8,1.8
					c-1,1-2.7,1-3.7,0c-0.5-0.5-0.8-1.2-0.8-1.8s0.3-1.4,0.8-1.8c0.5-0.5,1.2-0.8,1.8-0.8c0.7,0,1.4,0.3,1.8,0.8
					C133.3-33.3,133.6-32.6,133.6-31.9z M124.4-36.4c0-0.7,0.3-1.4,0.8-1.8c0.5-0.5,1.2-0.8,1.8-0.8c0.7,0,1.4,0.3,1.8,0.8
					c0.5,0.5,0.8,1.2,0.8,1.8s-0.3,1.4-0.8,1.8c-1,1-2.7,1-3.7,0C124.7-35,124.4-35.7,124.4-36.4z M118.2-35.6
					c-0.5-0.5-0.8-1.2-0.8-1.8c0-0.6,0.3-1.4,0.8-1.8c0.5-0.5,1.2-0.8,1.8-0.8c0.7,0,1.4,0.3,1.8,0.8c0.5,0.5,0.8,1.2,0.8,1.8
					c0,0.6-0.3,1.4-0.8,1.8C120.9-34.6,119.2-34.6,118.2-35.6z M112.7-34.6c-0.5-0.5-0.8-1.2-0.8-1.8c0-0.6,0.3-1.4,0.8-1.8
					c0.5-0.5,1.2-0.8,1.8-0.8s1.4,0.3,1.8,0.8c0.5,0.5,0.8,1.2,0.8,1.8c0,0.6-0.3,1.4-0.8,1.8C115.4-33.6,113.7-33.6,112.7-34.6z
					 M115.4-44.9c0-0.7,0.3-1.3,0.8-1.8s1.2-0.8,1.8-0.8c0.7,0,1.4,0.3,1.8,0.8c0.5,0.5,0.8,1.2,0.8,1.8c0,0.7-0.3,1.4-0.8,1.8
					c-1,1-2.7,1-3.7,0C115.7-43.5,115.4-44.2,115.4-44.9z M127-45c0.7,0,1.4,0.3,1.8,0.8c0.5,0.5,0.8,1.2,0.8,1.8
					c0,0.7-0.3,1.4-0.8,1.8c-1,1-2.7,1-3.7,0c-0.5-0.5-0.8-1.2-0.8-1.8c0-0.7,0.3-1.4,0.8-1.8C125.7-44.7,126.3-45,127-45z
					 M138.1-44.4c0,0.7-0.3,1.4-0.8,1.8c-0.9,1-2.7,1-3.7,0c-0.5-0.5-0.8-1.2-0.8-1.8c0-0.7,0.3-1.3,0.8-1.8s1.2-0.8,1.8-0.8
					c0.7,0,1.4,0.3,1.8,0.8C137.8-45.7,138.1-45.1,138.1-44.4z M137.4-35.6c-1,1-2.7,1-3.7,0c-0.5-0.5-0.8-1.2-0.8-1.8
					c0-0.6,0.3-1.4,0.8-1.8c0.5-0.5,1.2-0.8,1.8-0.8c0.7,0,1.4,0.3,1.8,0.8c0.5,0.5,0.8,1.2,0.8,1.8S137.8-36,137.4-35.6z
					 M126.9-23.9c0-0.7,0.3-1.4,0.8-1.8c0.5-0.5,1.2-0.8,1.8-0.8c0.7,0,1.4,0.3,1.8,0.8c0.5,0.5,0.8,1.2,0.8,1.8
					c0,0.7-0.3,1.4-0.8,1.8c-1,1-2.7,1-3.7,0C127.2-22.5,126.9-23.2,126.9-23.9z M129.2-14.6c-0.5-0.5-0.8-1.2-0.8-1.8
					c0-0.7,0.3-1.4,0.8-1.8c0.5-0.5,1.2-0.8,1.8-0.8c0.7,0,1.4,0.3,1.8,0.8c0.5,0.5,0.8,1.2,0.8,1.8c0,0.7-0.3,1.4-0.8,1.8
					C131.9-13.6,130.2-13.6,129.2-14.6z M138-15c0.7,0,1.4,0.3,1.8,0.8c0.5,0.5,0.8,1.2,0.8,1.8c0,0.7-0.3,1.4-0.8,1.8
					c-1,1-2.7,1-3.7,0c-0.5-0.5-0.8-1.2-0.8-1.8c0-0.7,0.3-1.4,0.8-1.8C136.7-14.7,137.3-15,138-15z M140-5.5c0.7,0,1.4,0.3,1.8,0.8
					c0.5,0.5,0.8,1.2,0.8,1.8c0,0.7-0.3,1.4-0.8,1.8c-1,1-2.7,1-3.7,0c-0.5-0.5-0.8-1.2-0.8-1.8c0-0.7,0.3-1.3,0.8-1.8
					C138.7-5.3,139.3-5.5,140-5.5z M138-28c0.7,0,1.4,0.3,1.8,0.8c0.5,0.5,0.8,1.2,0.8,1.8c0,0.7-0.3,1.4-0.8,1.8c-1,1-2.7,1-3.7,0
					c-0.5-0.5-0.8-1.2-0.8-1.8c0-0.7,0.3-1.4,0.8-1.8C136.7-27.7,137.3-28,138-28z M139.7-30.6c-0.5-0.5-0.8-1.2-0.8-1.8
					s0.3-1.4,0.8-1.8c0.5-0.5,1.2-0.8,1.8-0.8c0.7,0,1.4,0.3,1.8,0.8c0.5,0.5,0.8,1.1,0.8,1.8l0,0c0,0.7-0.3,1.3-0.8,1.8
					C142.4-29.6,140.6-29.6,139.7-30.6z M108.9-10.9c0-0.7,0.3-1.4,0.8-1.8c0.5-0.5,1.2-0.8,1.8-0.8s1.4,0.3,1.8,0.8
					c0.5,0.5,0.8,1.2,0.8,1.8c0,0.7-0.3,1.4-0.8,1.8c-1,1-2.7,1-3.7,0C109.2-9.6,108.9-10.2,108.9-10.9z M114.5-6.5
					c0.7,0,1.4,0.3,1.8,0.8c0.5,0.5,0.8,1.2,0.8,1.8c0,0.7-0.3,1.4-0.8,1.8c-1,1-2.7,1-3.7,0c-0.5-0.5-0.8-1.2-0.8-1.8
					c0-0.7,0.3-1.4,0.8-1.8C113.2-6.3,113.9-6.5,114.5-6.5z M106.6-8c0.7,0,1.4,0.3,1.8,0.8c0.5,0.5,0.8,1.2,0.8,1.8
					c0,0.7-0.3,1.4-0.8,1.8c-1,1-2.7,1-3.7,0c-0.5-0.5-0.8-1.2-0.8-1.8c0-0.7,0.3-1.4,0.8-1.8C105.2-7.7,105.9-8,106.6-8z
					 M44.8-42.5C44.3-43,44-43.7,44-44.3c0-0.7,0.3-1.4,0.8-1.8c0.5-0.5,1.2-0.8,1.8-0.8c0.7,0,1.4,0.3,1.8,0.8
					c0.5,0.5,0.8,1.2,0.8,1.8c0,0.7-0.3,1.4-0.8,1.8C47.5-41.6,45.8-41.6,44.8-42.5z M36.8-40.7c0.5-0.5,1.2-0.8,1.8-0.8
					c0.7,0,1.4,0.3,1.8,0.8c0.5,0.5,0.8,1.2,0.8,1.8c0,0.7-0.3,1.3-0.8,1.8c-1,1-2.7,1-3.7,0c-0.5-0.5-0.8-1.2-0.8-1.8
					C36-39.6,36.3-40.2,36.8-40.7z M32.7-35.5c0.7,0,1.4,0.3,1.8,0.8c0.5,0.5,0.8,1.2,0.8,1.8s-0.3,1.4-0.8,1.8c-1,1-2.7,1-3.7,0
					c-0.5-0.5-0.8-1.2-0.8-1.8s0.3-1.4,0.8-1.8C31.3-35.2,32-35.5,32.7-35.5z M26.3-25.1c-0.5-0.5-0.8-1.2-0.8-1.8
					c0-0.7,0.3-1.4,0.8-1.8c0.5-0.5,1.2-0.8,1.8-0.8c0.7,0,1.4,0.3,1.8,0.8c0.5,0.5,0.8,1.2,0.8,1.8c0,0.7-0.3,1.3-0.8,1.8
					C29-24.1,27.3-24.1,26.3-25.1z M21.8-19.6c-0.5-0.5-0.7-1.1-0.7-1.8c0-0.7,0.3-1.4,0.8-1.8c0.5-0.5,1.2-0.8,1.8-0.8
					s1.4,0.3,1.8,0.8c0.5,0.5,0.8,1.2,0.8,1.8c0,0.7-0.3,1.4-0.8,1.8C24.5-18.6,22.8-18.6,21.8-19.6z M28.1-40.9
					c0-0.7,0.3-1.4,0.8-1.8c0.5-0.5,1.2-0.8,1.8-0.8c0.7,0,1.4,0.3,1.8,0.8c0.5,0.5,0.8,1.2,0.8,1.8c0,0.7-0.3,1.3-0.8,1.8
					c-1,1-2.7,1-3.7,0C28.3-39.5,28.1-40.2,28.1-40.9z M33.8-43.5C33.3-44,33-44.7,33-45.3c0-0.7,0.3-1.4,0.8-1.8
					c0.5-0.5,1.2-0.8,1.8-0.8c0.7,0,1.4,0.3,1.8,0.8c0.5,0.5,0.8,1.2,0.8,1.8c0,0.7-0.3,1.4-0.8,1.8C36.5-42.6,34.8-42.6,33.8-43.5z
					 M24.8-46.5C24.3-47,24-47.7,24-48.3c0-0.7,0.3-1.4,0.8-1.8c0.5-0.5,1.2-0.8,1.8-0.8s1.4,0.3,1.8,0.8c0.5,0.5,0.8,1.2,0.8,1.8
					c0,0.7-0.3,1.4-0.8,1.8C27.5-45.6,25.8-45.6,24.8-46.5z M19.1-42.4c0-0.7,0.3-1.4,0.8-1.8c0.5-0.5,1.2-0.8,1.8-0.8
					s1.4,0.3,1.8,0.8c0.5,0.5,0.8,1.2,0.8,1.8c0,0.7-0.3,1.3-0.8,1.8c-1,1-2.7,1-3.7,0C19.3-41,19.1-41.7,19.1-42.4z M44.8-27.6
					c-0.5-0.5-0.8-1.2-0.8-1.8s0.3-1.4,0.8-1.8c0.5-0.5,1.2-0.8,1.8-0.8c0.7,0,1.4,0.3,1.8,0.8c0.5,0.5,0.8,1.2,0.8,1.8
					s-0.3,1.4-0.8,1.8C47.5-26.6,45.8-26.6,44.8-27.6z M2.7-13c0.7,0,1.4,0.3,1.8,0.8C5-11.7,5.3-11,5.3-10.4c0,0.7-0.3,1.3-0.8,1.8
					c-1,1-2.7,1-3.7,0c-0.4-0.5-0.7-1.1-0.7-1.8v-0.1c0-0.7,0.3-1.3,0.8-1.8C1.3-12.7,2-13,2.7-13z M2.6-29.4c0-0.7,0.3-1.4,0.8-1.8
					C3.9-31.7,4.6-32,5.2-32c0.7,0,1.4,0.3,1.8,0.8c0.5,0.5,0.8,1.2,0.8,1.8S7.5-28,7-27.6c-1,1-2.7,1-3.7,0
					C2.9-28,2.6-28.7,2.6-29.4z M9.2-38.5c0.7,0,1.4,0.3,1.8,0.8c0.5,0.5,0.8,1.2,0.8,1.8s-0.3,1.3-0.8,1.8c-1,1-2.7,1-3.7,0
					c-0.5-0.5-0.8-1.2-0.8-1.8s0.3-1.4,0.8-1.8C7.8-38.2,8.5-38.5,9.2-38.5z M4.4-20.6c-0.5-0.5-0.8-1.2-0.8-1.8
					c0-0.7,0.3-1.4,0.8-1.8C4.9-24.7,5.6-25,6.2-25c0.7,0,1.4,0.3,1.8,0.8c0.5,0.5,0.8,1.2,0.8,1.8c0,0.7-0.3,1.4-0.8,1.8
					C7-19.6,5.3-19.6,4.4-20.6z M14.8-6.1c-0.4-0.5-0.7-1.1-0.7-1.8s0.3-1.4,0.8-1.8c0.5-0.5,1.2-0.8,1.8-0.8c0.7,0,1.4,0.3,1.8,0.8
					c0.5,0.5,0.8,1.2,0.8,1.8c0,0.7-0.3,1.4-0.8,1.8C17.6-5.1,15.8-5.1,14.8-6.1z M7.6-8.9c0-0.7,0.3-1.4,0.8-1.8
					c0.5-0.5,1.2-0.8,1.8-0.8c0.7,0,1.4,0.3,1.8,0.8c0.5,0.5,0.8,1.2,0.8,1.8c0,0.7-0.3,1.4-0.8,1.8c-1,1-2.7,1-3.7,0
					C7.9-7.6,7.6-8.2,7.6-8.9z M8.8-13.6c-0.4-0.5-0.7-1.1-0.7-1.8s0.3-1.4,0.8-1.8c0.5-0.5,1.2-0.8,1.8-0.8c0.7,0,1.4,0.3,1.8,0.8
					c0.5,0.5,0.8,1.2,0.8,1.8c0,0.7-0.3,1.3-0.8,1.8C11.6-12.6,9.8-12.6,8.8-13.6z M18.3-12.1c-0.5-0.5-0.8-1.2-0.8-1.8
					c0-0.7,0.3-1.4,0.8-1.8c0.5-0.5,1.2-0.8,1.8-0.8s1.4,0.3,1.8,0.8c0.5,0.5,0.8,1.2,0.8,1.8c0,0.7-0.3,1.3-0.8,1.8
					C21-11.1,19.3-11.1,18.3-12.1z M6.2-6C6.9-6,7.6-5.7,8-5.2c0.5,0.4,0.8,1.1,0.8,1.8S8.5-2,8-1.6c-1,1-2.7,1-3.7,0
					C3.9-2.1,3.6-2.8,3.6-3.4c0-0.7,0.3-1.4,0.8-1.8C4.8-5.8,5.5-6,6.2-6z M10.8-23.1c-0.5-0.5-0.8-1.2-0.8-1.8
					c0-0.7,0.3-1.4,0.8-1.8c0.5-0.5,1.2-0.8,1.8-0.8s1.4,0.3,1.8,0.8c0.5,0.5,0.8,1.2,0.8,1.8c0,0.7-0.3,1.3-0.8,1.8
					C13.6-22.1,11.8-22.1,10.8-23.1z M15.6-20.4c0-0.7,0.3-1.3,0.8-1.8c0.5-0.5,1.2-0.8,1.8-0.8s1.4,0.3,1.8,0.8
					c0.5,0.5,0.8,1.2,0.8,1.8c0,0.7-0.3,1.4-0.8,1.8c-1,1-2.7,1-3.7,0C15.9-19.1,15.6-19.7,15.6-20.4z M16.3-30.2
					c0.5-0.5,1.2-0.8,1.8-0.8s1.4,0.3,1.8,0.8c0.5,0.5,0.8,1.2,0.8,1.8c0,0.7-0.3,1.4-0.8,1.8c-1,1-2.7,1-3.7,0
					c-0.5-0.5-0.8-1.2-0.8-1.8C15.6-29.1,15.9-29.7,16.3-30.2z M21.8-32.1c-0.5-0.5-0.8-1.2-0.8-1.8c0-0.6,0.3-1.4,0.8-1.8
					c0.5-0.5,1.2-0.8,1.8-0.8c0.7,0,1.4,0.3,1.8,0.8c0.5,0.5,0.8,1.2,0.8,1.8c0,0.6-0.3,1.4-0.8,1.8C24.5-31.1,22.8-31.1,21.8-32.1z
					 M13.3-35.6c-0.5-0.5-0.8-1.2-0.8-1.8c0-0.6,0.3-1.4,0.8-1.8c0.5-0.5,1.2-0.8,1.8-0.8c0.7,0,1.4,0.3,1.8,0.8
					c0.5,0.5,0.8,1.2,0.8,1.8c0,0.6-0.3,1.3-0.8,1.8C16.1-34.6,14.3-34.6,13.3-35.6z M8.3-46.5c-0.5-0.5-0.8-1.2-0.8-1.8
					c0-0.7,0.3-1.4,0.8-1.8c0.5-0.5,1.2-0.8,1.8-0.8c0.7,0,1.4,0.3,1.8,0.8c0.5,0.5,0.8,1.2,0.8,1.8c0,0.7-0.3,1.4-0.8,1.8
					C11.1-45.6,9.3-45.6,8.3-46.5z M6.8-44.2C7.3-44.7,8-45,8.6-45c0.7,0,1.4,0.3,1.8,0.8c0.5,0.5,0.8,1.2,0.8,1.8
					c0,0.7-0.3,1.3-0.8,1.8c-1,1-2.7,1-3.7,0c-0.3-0.4-0.6-1.1-0.6-1.8S6.4-43.7,6.8-44.2z M31.3-139.8c0,0.7-0.3,1.3-0.8,1.8
					c-1,1-2.7,1-3.7,0c-0.5-0.5-0.8-1.2-0.8-1.8c0-0.7,0.3-1.4,0.8-1.8c0.5-0.5,1.2-0.8,1.8-0.8c0.7,0,1.4,0.3,1.8,0.8
					C31-141.1,31.3-140.4,31.3-139.8z M33.8-135.9c-0.5-0.5-0.8-1.2-0.8-1.8c0-0.7,0.3-1.4,0.8-1.8c0.5-0.5,1.2-0.8,1.8-0.8
					c0.7,0,1.4,0.3,1.8,0.8c0.5,0.5,0.8,1.2,0.8,1.8c0,0.7-0.3,1.4-0.8,1.8C36.5-135,34.8-135,33.8-135.9z M44.8-137.9
					c-0.5-0.5-0.8-1.2-0.8-1.8c0-0.7,0.3-1.4,0.8-1.8c0.5-0.5,1.2-0.8,1.8-0.8c0.7,0,1.4,0.3,1.8,0.8c0.5,0.5,0.8,1.2,0.8,1.8
					c0,0.7-0.3,1.4-0.8,1.8C47.5-137,45.8-137,44.8-137.9z M55.3-136.9c-0.5-0.5-0.8-1.2-0.8-1.8c0-0.7,0.3-1.4,0.8-1.8
					c0.5-0.5,1.2-0.8,1.8-0.8c0.7,0,1.4,0.3,1.8,0.8c0.5,0.5,0.8,1.2,0.8,1.8c0,0.7-0.3,1.4-0.8,1.8C58-136,56.3-136,55.3-136.9z
					 M62.3-137.9c-0.5-0.5-0.8-1.2-0.8-1.8c0-0.7,0.3-1.4,0.8-1.8c0.5-0.5,1.2-0.8,1.8-0.8s1.4,0.3,1.8,0.8c0.5,0.5,0.8,1.2,0.8,1.8
					c0,0.7-0.3,1.4-0.8,1.8C65-137,63.3-137,62.3-137.9z M72.3-136.9c-0.5-0.5-0.8-1.2-0.8-1.8c0-0.7,0.3-1.4,0.8-1.8
					c0.5-0.5,1.2-0.8,1.8-0.8c0.7,0,1.4,0.3,1.8,0.8c0.5,0.5,0.8,1.2,0.8,1.8c0,0.7-0.3,1.4-0.8,1.8C75-136,73.2-136,72.3-136.9z
					 M90.4-135.1c0.5,0.5,0.8,1.2,0.8,1.8c0,0.6-0.3,1.4-0.8,1.8c-1,1-2.7,1-3.7,0c-0.5-0.5-0.8-1.2-0.8-1.8c0-0.6,0.3-1.4,0.8-1.8
					c0.5-0.5,1.2-0.8,1.8-0.8C89.3-135.9,89.9-135.6,90.4-135.1z M96.2-134.9c-0.5-0.5-0.8-1.2-0.8-1.8c0-0.7,0.3-1.4,0.8-1.8
					c0.5-0.5,1.2-0.8,1.8-0.8c0.7,0,1.4,0.3,1.8,0.8c0.5,0.5,0.8,1.2,0.8,1.8c0,0.7-0.3,1.4-0.8,1.8C98.9-134,97.2-134,96.2-134.9z
					 M116.2-137.9c-0.5-0.5-0.8-1.2-0.8-1.8c0-0.7,0.3-1.3,0.8-1.8s1.2-0.8,1.8-0.8c0.7,0,1.4,0.3,1.8,0.8c0.5,0.5,0.8,1.2,0.8,1.8
					c0,0.7-0.3,1.4-0.8,1.8C118.9-136.9,117.2-137,116.2-137.9z M132.2-139.4c-0.5-0.5-0.8-1.2-0.8-1.8c0-0.7,0.3-1.4,0.8-1.8
					c0.5-0.5,1.2-0.8,1.8-0.8c0.7,0,1.4,0.3,1.8,0.8c0.5,0.5,0.8,1.2,0.8,1.8c0,0.7-0.3,1.4-0.8,1.8
					C134.9-138.5,133.1-138.5,132.2-139.4z M107.9-137.6c0.5,0.5,0.8,1.2,0.8,1.8c0,0.7-0.3,1.4-0.8,1.8c-1,1-2.7,1-3.7,0
					c-0.5-0.5-0.8-1.2-0.8-1.8c0-0.7,0.3-1.4,0.8-1.8c0.5-0.5,1.2-0.8,1.8-0.8C106.7-138.4,107.4-138.1,107.9-137.6z M20.5-137.3
					c-1,1-2.7,1-3.7,0c-0.5-0.5-0.8-1.2-0.8-1.8s0.3-1.4,0.8-1.8c0.5-0.5,1.2-0.8,1.8-0.8s1.4,0.3,1.8,0.8c0.5,0.5,0.8,1.2,0.8,1.8
					S21-137.8,20.5-137.3z M12.8-138.3c0,0.7-0.3,1.3-0.8,1.8c-1,1-2.7,1-3.7,0c-0.5-0.5-0.8-1.2-0.8-1.8c0-0.7,0.3-1.4,0.8-1.8
					c0.5-0.5,1.2-0.8,1.8-0.8c0.7,0,1.4,0.3,1.8,0.8C12.5-139.6,12.8-138.9,12.8-138.3z M40-49.9c0-0.7,0.3-1.4,0.8-1.8
					c0.5-0.5,1.2-0.8,1.8-0.8c0.7,0,1.4,0.3,1.8,0.8c0.5,0.5,0.8,1.2,0.8,1.8c0,0.7-0.3,1.4-0.8,1.8c-1,1-2.7,1-3.7,0
					C40.3-48.5,40-49.2,40-49.9z M49-51.9c0-0.7,0.3-1.4,0.8-1.8c0.5-0.5,1.2-0.8,1.8-0.8c0.7,0,1.4,0.3,1.8,0.8
					c0.5,0.5,0.8,1.2,0.8,1.8c0,0.7-0.3,1.3-0.8,1.8c-1,1-2.7,1-3.7,0C49.3-50.5,49-51.2,49-51.9z M56.5-47.9c0-0.7,0.3-1.4,0.8-1.8
					c0.5-0.5,1.2-0.8,1.8-0.8c0.7,0,1.4,0.3,1.8,0.8c0.5,0.5,0.8,1.2,0.8,1.8c0,0.7-0.3,1.4-0.8,1.8c-1,1-2.7,1-3.7,0
					C56.8-46.5,56.5-47.2,56.5-47.9z M58.5-57.7c0.5,0.5,0.8,1.2,0.8,1.8c0,0.7-0.3,1.4-0.8,1.8c-1,1-2.7,1-3.7,0
					c-0.5-0.5-0.8-1.2-0.8-1.8c0-0.7,0.3-1.4,0.8-1.8c0.5-0.5,1.2-0.8,1.8-0.8C57.3-58.5,58-58.2,58.5-57.7z M49.3-61.7
					c0.5-0.5,1.2-0.8,1.8-0.8c0.7,0,1.4,0.3,1.8,0.8c0.5,0.5,0.8,1.2,0.8,1.8c0,0.7-0.3,1.4-0.8,1.8c-1,1-2.7,1-3.7,0
					c-0.5-0.5-0.8-1.2-0.8-1.8C48.5-60.5,48.8-61.2,49.3-61.7z M42.3-56.5c-0.5-0.5-0.8-1.2-0.8-1.8c0-0.7,0.3-1.4,0.8-1.8
					c0.5-0.5,1.2-0.8,1.8-0.8c0.7,0,1.4,0.3,1.8,0.8c0.5,0.5,0.8,1.2,0.8,1.8c0,0.7-0.3,1.4-0.8,1.8C45-55.5,43.3-55.6,42.3-56.5z
					 M35.8-58c-0.5-0.5-0.8-1.2-0.8-1.8c0-0.7,0.3-1.4,0.8-1.8c0.5-0.5,1.2-0.8,1.8-0.8c0.7,0,1.4,0.3,1.8,0.8
					c0.5,0.5,0.8,1.2,0.8,1.8c0,0.7-0.3,1.4-0.8,1.8C38.5-57,36.8-57.1,35.8-58z M32.8-50.5C32.3-51,32-51.7,32-52.3
					c0-0.7,0.3-1.4,0.8-1.8c0.5-0.5,1.2-0.8,1.8-0.8c0.7,0,1.4,0.3,1.8,0.8c0.5,0.5,0.8,1.2,0.8,1.8c0,0.7-0.3,1.4-0.8,1.8
					C35.5-49.6,33.8-49.6,32.8-50.5z M32.5-59.2c0.5,0.5,0.8,1.2,0.8,1.8c0,0.7-0.3,1.4-0.8,1.8c-1,1-2.7,1-3.7,0
					c-0.5-0.5-0.8-1.2-0.8-1.8c0-0.7,0.3-1.4,0.8-1.8c0.5-0.5,1.2-0.8,1.8-0.8C31.4-60,32-59.7,32.5-59.2z M24.2-57.5
					c0.7,0,1.4,0.3,1.8,0.8c0.5,0.5,0.8,1.2,0.8,1.8c0,0.7-0.3,1.3-0.8,1.8c-1,1-2.7,1-3.7,0c-0.5-0.5-0.8-1.2-0.8-1.8
					c0-0.7,0.3-1.4,0.8-1.8C22.8-57.2,23.5-57.5,24.2-57.5z M15.8-59.7c0.5-0.5,1.2-0.8,1.8-0.8c0.7,0,1.4,0.3,1.8,0.8
					c0.5,0.5,0.8,1.2,0.8,1.8c0,0.7-0.3,1.3-0.8,1.8c-1,1-2.7,1-3.7,0c-0.5-0.5-0.8-1.2-0.8-1.8C15.1-58.5,15.4-59.2,15.8-59.7z
					 M13.1-64.4c0-0.7,0.3-1.4,0.8-1.8c0.5-0.5,1.2-0.8,1.8-0.8c0.7,0,1.4,0.3,1.8,0.8c0.5,0.5,0.8,1.2,0.8,1.8
					c0,0.7-0.3,1.4-0.8,1.8c-1,1-2.7,1-3.7,0C13.4-63,13.1-63.7,13.1-64.4z M23.7-70.4c0.7,0,1.4,0.3,1.8,0.8
					c0.5,0.5,0.8,1.2,0.8,1.8c0,0.7-0.3,1.4-0.8,1.8c-1,1-2.7,1-3.7,0c-0.5-0.5-0.8-1.2-0.8-1.8c0-0.7,0.3-1.4,0.8-1.8
					C22.3-70.2,23-70.4,23.7-70.4z M29.2-65.5c0.7,0,1.4,0.3,1.8,0.8c0.5,0.5,0.8,1.2,0.8,1.8c0,0.7-0.3,1.4-0.8,1.8
					c-1,1-2.7,1-3.7,0c-0.5-0.5-0.8-1.2-0.8-1.8c0-0.7,0.3-1.4,0.8-1.8C27.8-65.2,28.5-65.5,29.2-65.5z M34.8-65.5
					C34.3-66,34-66.7,34-67.3c0-0.7,0.3-1.4,0.8-1.8c0.5-0.5,1.2-0.8,1.8-0.8c0.7,0,1.4,0.3,1.8,0.8c0.5,0.5,0.8,1.2,0.8,1.8
					c0,0.7-0.3,1.4-0.8,1.8C37.5-64.6,35.8-64.6,34.8-65.5z M30.7-74.9c0.7,0,1.4,0.3,1.8,0.8c0.5,0.5,0.8,1.2,0.8,1.8
					c0,0.7-0.3,1.4-0.8,1.8c-1,1-2.7,1-3.7,0C28.3-71,28-71.7,28-72.3c0-0.7,0.3-1.4,0.8-1.8C29.3-74.7,30-74.9,30.7-74.9z
					 M24.7-80.4c0.7,0,1.4,0.3,1.8,0.8c0.5,0.5,0.8,1.2,0.8,1.8S27-76.4,26.5-76c-1,1-2.7,1-3.7,0c-0.5-0.5-0.8-1.2-0.8-1.8
					s0.3-1.4,0.8-1.8C23.3-80.2,24-80.4,24.7-80.4z M16.3-79.5c-0.5-0.5-0.8-1.2-0.8-1.8c0-0.6,0.3-1.3,0.8-1.8s1.2-0.8,1.8-0.8
					s1.4,0.3,1.8,0.8c0.5,0.5,0.8,1.2,0.8,1.8c0,0.6-0.3,1.4-0.8,1.8C19.1-78.5,17.3-78.5,16.3-79.5z M20.5-71c-1,1-2.7,1-3.7,0
					c-0.5-0.5-0.8-1.2-0.8-1.8c0-0.7,0.3-1.4,0.8-1.8c0.5-0.5,1.2-0.8,1.8-0.8s1.4,0.3,1.8,0.8c0.5,0.5,0.8,1.2,0.8,1.8
					C21.3-72.2,21-71.5,20.5-71z M10.3-74c-0.5-0.5-0.8-1.2-0.8-1.8s0.3-1.4,0.8-1.8c0.5-0.5,1.2-0.8,1.8-0.8s1.4,0.3,1.8,0.8
					c0.5,0.5,0.8,1.2,0.8,1.8s-0.3,1.4-0.8,1.8C13.1-73,11.3-73,10.3-74z M10.2-69.4c0.7,0,1.4,0.3,1.8,0.8c0.5,0.5,0.8,1.2,0.8,1.8
					c0,0.7-0.3,1.3-0.8,1.8c-1,1-2.7,1-3.7,0c-0.5-0.5-0.8-1.2-0.8-1.8c0-0.7,0.3-1.4,0.8-1.8C8.8-69.2,9.5-69.4,10.2-69.4z M9.7-59
					c0.7,0,1.4,0.3,1.8,0.8c0.5,0.5,0.8,1.2,0.8,1.8c0,0.7-0.3,1.4-0.8,1.8c-1,1-2.7,1-3.7,0c-0.4-0.4-0.7-1.1-0.7-1.8
					s0.3-1.4,0.8-1.8C8.3-58.7,9-59,9.7-59z M1.9-58.5c-0.5-0.5-0.8-1.2-0.8-1.9s0.3-1.4,0.8-1.8C2.4-62.7,3.1-63,3.7-63
					c0.7,0,1.4,0.3,1.8,0.8C6-61.7,6.3-61,6.3-60.4c0,0.7-0.3,1.3-0.8,1.8C4.6-57.6,2.8-57.6,1.9-58.5z M2.2-70.9
					c0.7,0,1.4,0.3,1.8,0.8c0.5,0.5,0.8,1.2,0.8,1.8c0,0.7-0.3,1.4-0.8,1.8c-1,1-2.7,1-3.7,0c-0.1-0.1-0.2-0.2-0.3-0.3v-3
					c0.1-0.1,0.2-0.2,0.3-0.3C0.9-70.7,1.5-70.9,2.2-70.9z M2.2-54c0.7,0,1.4,0.3,1.8,0.8c0.5,0.5,0.8,1.2,0.8,1.8
					c0,0.7-0.3,1.4-0.8,1.8c-1,1-2.7,1-3.7,0c-0.1-0.1-0.2-0.2-0.3-0.3v-3c0.1-0.1,0.2-0.2,0.3-0.3C0.9-53.7,1.5-54,2.2-54z
					 M2.9-73.5c-0.5-0.5-0.8-1.2-0.8-1.8s0.3-1.4,0.8-1.8c0.5-0.5,1.2-0.8,1.8-0.8c0.7,0,1.4,0.3,1.8,0.8c0.5,0.5,0.8,1.2,0.8,1.8
					S7-73.9,6.5-73.5C5.6-72.5,3.8-72.5,2.9-73.5z M5.7-85.4c0.7,0,1.4,0.3,1.8,0.8c0.5,0.5,0.8,1.2,0.8,1.8c0,0.7-0.3,1.4-0.8,1.8
					c-1,1-2.7,1-3.7,0c-0.4-0.5-0.7-1.1-0.7-1.8c0-0.7,0.3-1.4,0.8-1.8C4.4-85.1,5-85.4,5.7-85.4z M1.6-94.8c0-0.7,0.3-1.4,0.8-1.8
					c0.5-0.5,1.2-0.8,1.8-0.8c0.7,0,1.4,0.3,1.8,0.8c0.5,0.5,0.8,1.2,0.8,1.8c0,0.7-0.3,1.4-0.8,1.8c-1,1-2.7,1-3.7,0
					C1.9-93.5,1.6-94.1,1.6-94.8z M6.2-103.4c0.7,0,1.4,0.3,1.8,0.8c0.5,0.5,0.8,1.2,0.8,1.8c0,0.7-0.3,1.3-0.8,1.8
					c-1,1-2.7,1-3.7,0c-0.5-0.5-0.8-1.2-0.8-1.8c0-0.7,0.3-1.4,0.8-1.8C4.8-103.1,5.5-103.4,6.2-103.4z M11.3-95
					c-0.5-0.5-0.8-1.2-0.8-1.8c0-0.7,0.3-1.4,0.8-1.8c0.5-0.5,1.2-0.8,1.8-0.8c0.7,0,1.4,0.3,1.8,0.8c0.5,0.5,0.8,1.2,0.8,1.8
					c0,0.7-0.3,1.4-0.8,1.8C14.1-94,12.3-94,11.3-95z M7.1-88.8c0-0.7,0.3-1.4,0.8-1.8c0.5-0.5,1.2-0.8,1.8-0.8
					c0.7,0,1.4,0.3,1.8,0.8c0.5,0.5,0.8,1.2,0.8,1.8c0,0.7-0.3,1.3-0.8,1.8c-1,1-2.7,1-3.7,0C7.4-87.5,7.1-88.1,7.1-88.8z
					 M20.3-89.8c0,0.7-0.3,1.3-0.8,1.8c-1,1-2.7,1-3.7,0c-0.4-0.5-0.7-1.1-0.7-1.8c0-0.7,0.3-1.4,0.8-1.8c0.5-0.5,1.2-0.8,1.8-0.8
					c0.7,0,1.4,0.3,1.8,0.8C20-91.2,20.3-90.5,20.3-89.8z M22.7-98.4c0.7,0,1.4,0.3,1.8,0.8c0.5,0.5,0.8,1.2,0.8,1.8
					c0,0.7-0.3,1.3-0.8,1.8c-1,1-2.7,1-3.7,0c-0.5-0.5-0.7-1.1-0.7-1.8c0-0.7,0.3-1.4,0.8-1.8C21.3-98.1,22-98.4,22.7-98.4z
					 M28.7-100.4c0.7,0,1.4,0.3,1.8,0.8c0.5,0.5,0.8,1.2,0.8,1.8c0,0.7-0.3,1.4-0.8,1.8c-1,1-2.7,1-3.7,0c-0.5-0.4-0.7-1.1-0.7-1.8
					c0-0.7,0.3-1.4,0.8-1.8C27.3-100.1,28-100.4,28.7-100.4z M34.2-103.4c0.7,0,1.4,0.3,1.8,0.8c0.5,0.5,0.8,1.2,0.8,1.8
					c0,0.7-0.3,1.4-0.8,1.8c-1,1-2.7,1-3.7,0c-0.5-0.5-0.8-1.2-0.8-1.8c0-0.7,0.3-1.4,0.8-1.8C32.8-103.1,33.5-103.4,34.2-103.4z
					 M26.3-87.3c0,0.7-0.3,1.4-0.8,1.8c-1,1-2.7,1-3.7,0C21.3-86,21-86.7,21-87.3c0-0.7,0.3-1.4,0.8-1.8c0.5-0.5,1.2-0.8,1.8-0.8
					s1.4,0.3,1.8,0.8C26-88.7,26.3-88,26.3-87.3z M33.3-89.8c0,0.7-0.3,1.4-0.8,1.8c-1,1-2.7,1-3.7,0c-0.5-0.5-0.7-1.1-0.7-1.8
					c0-0.7,0.3-1.4,0.8-1.8c0.5-0.5,1.2-0.8,1.8-0.8c0.7,0,1.4,0.3,1.8,0.8C33-91.2,33.3-90.5,33.3-89.8z M39-90c-1,1-2.7,1-3.7,0
					c-0.5-0.5-0.8-1.2-0.8-1.8c0-0.7,0.3-1.4,0.8-1.8c0.5-0.5,1.2-0.8,1.8-0.8c0.7,0,1.4,0.3,1.8,0.8c0.5,0.5,0.8,1.2,0.8,1.8
					C39.7-91.1,39.5-90.5,39-90z M31.2-83.4c0.7,0,1.4,0.3,1.8,0.8c0.5,0.5,0.8,1.2,0.8,1.8c0,0.6-0.3,1.4-0.8,1.8c-1,1-2.7,1-3.7,0
					c-0.5-0.5-0.8-1.2-0.8-1.8c0-0.6,0.3-1.4,0.8-1.8C29.8-83.1,30.5-83.4,31.2-83.4z M41-81c-1,1-2.7,1-3.7,0
					c-0.5-0.5-0.8-1.2-0.8-1.8c0-0.7,0.3-1.4,0.8-1.8c0.5-0.5,1.2-0.8,1.8-0.8c0.7,0,1.4,0.3,1.8,0.8c0.5,0.5,0.8,1.2,0.8,1.8
					C41.7-82.1,41.5-81.5,41-81z M43.2-74.3c0,0.7-0.3,1.4-0.8,1.8c-1,1-2.7,1-3.7,0c-0.5-0.5-0.8-1.2-0.8-1.8s0.3-1.4,0.8-1.8
					c0.5-0.5,1.2-0.8,1.8-0.8c0.7,0,1.4,0.3,1.8,0.8C43-75.7,43.2-75,43.2-74.3z M48.2-80.3c0,0.7-0.3,1.4-0.8,1.8c-1,1-2.7,1-3.7,0
					c-0.5-0.5-0.8-1.2-0.8-1.8c0-0.6,0.3-1.4,0.8-1.8c0.5-0.5,1.2-0.8,1.8-0.8c0.7,0,1.4,0.3,1.8,0.8C48-81.7,48.2-81,48.2-80.3z
					 M49.3-77.2c0.5-0.5,1.2-0.8,1.8-0.8c0.7,0,1.4,0.3,1.8,0.8c0.5,0.5,0.8,1.2,0.8,1.8s-0.3,1.3-0.8,1.8c-1,1-2.7,1-3.7,0
					c-0.5-0.5-0.8-1.2-0.8-1.8S48.8-76.7,49.3-77.2z M45.5-86.5c-1,1-2.7,1-3.7,0C41.3-87,41-87.7,41-88.3c0-0.7,0.3-1.4,0.8-1.8
					c0.5-0.5,1.2-0.8,1.8-0.8c0.7,0,1.4,0.3,1.8,0.8c0.5,0.5,0.8,1.2,0.8,1.8C46.2-87.6,46-87,45.5-86.5z M52.5-90.5
					c-1,1-2.7,1-3.7,0C48.3-91,48-91.7,48-92.3c0-0.7,0.3-1.4,0.8-1.8c0.5-0.5,1.2-0.8,1.8-0.8c0.7,0,1.4,0.3,1.8,0.8
					c0.5,0.5,0.8,1.2,0.8,1.8C53.2-91.6,52.9-91,52.5-90.5z M52.5-98.5c-1,1-2.7,1-3.7,0c-0.5-0.5-0.8-1.2-0.8-1.8
					c0-0.7,0.3-1.4,0.8-1.8c0.5-0.5,1.2-0.8,1.8-0.8c0.7,0,1.4,0.3,1.8,0.8c0.5,0.5,0.8,1.2,0.8,1.8C53.2-99.6,52.9-98.9,52.5-98.5z
					 M40.8-95c-0.5-0.5-0.8-1.2-0.8-1.8c0-0.7,0.3-1.4,0.8-1.8c0.5-0.5,1.2-0.8,1.8-0.8c0.7,0,1.4,0.3,1.8,0.8
					c0.5,0.5,0.8,1.2,0.8,1.8c0,0.7-0.3,1.3-0.8,1.8C43.5-94,41.8-94,40.8-95z M57.6-96.9c0.7,0,1.4,0.3,1.8,0.8
					c0.5,0.5,0.8,1.2,0.8,1.8c0,0.7-0.3,1.4-0.8,1.8c-1,1-2.7,1-3.7,0c-0.5-0.5-0.8-1.2-0.8-1.8c0-0.7,0.3-1.4,0.8-1.8
					C56.3-96.6,56.9-96.9,57.6-96.9z M57.3-78c-0.5-0.5-0.8-1.2-0.8-1.8s0.3-1.4,0.8-1.8c0.5-0.5,1.2-0.8,1.8-0.8
					c0.7,0,1.4,0.3,1.8,0.8c0.5,0.5,0.8,1.2,0.8,1.8s-0.3,1.4-0.8,1.8C60-77,58.3-77,57.3-78z M61-70c-1,1-2.7,1-3.7,0
					c-0.5-0.5-0.8-1.2-0.8-1.8c0-0.7,0.3-1.4,0.8-1.8c0.5-0.5,1.2-0.8,1.8-0.8c0.7,0,1.4,0.3,1.8,0.8c0.5,0.5,0.8,1.2,0.8,1.8
					S61.4-70.5,61-70z M55.2-68.3c0,0.7-0.3,1.4-0.8,1.8c-1,1-2.7,1-3.7,0c-0.5-0.5-0.8-1.2-0.8-1.8c0-0.7,0.3-1.4,0.8-1.8
					c0.5-0.5,1.2-0.8,1.8-0.8c0.7,0,1.4,0.3,1.8,0.8C54.9-69.7,55.2-69,55.2-68.3z M45.6-70.9c0.7,0,1.4,0.3,1.8,0.8
					c0.5,0.5,0.8,1.2,0.8,1.8c0,0.7-0.3,1.4-0.8,1.8c-1,1-2.7,1-3.7,0c-0.5-0.5-0.8-1.2-0.8-1.8c0-0.7,0.3-1.4,0.8-1.8
					C44.3-70.7,45-70.9,45.6-70.9z M58.6-64c0.7,0,1.4,0.3,1.8,0.8c0.5,0.5,0.8,1.2,0.8,1.8c0,0.7-0.3,1.3-0.8,1.8c-1,1-2.7,1-3.7,0
					c-0.5-0.5-0.8-1.2-0.8-1.8c0-0.7,0.3-1.4,0.8-1.8C57.3-63.7,57.9-64,58.6-64z M63.8-74c-0.5-0.5-0.8-1.2-0.8-1.8
					s0.3-1.4,0.8-1.8c0.5-0.5,1.2-0.8,1.8-0.8s1.4,0.3,1.8,0.8c0.5,0.5,0.8,1.2,0.8,1.8s-0.3,1.4-0.8,1.8C66.5-73,64.7-73,63.8-74z
					 M65-83.3c0-0.7,0.3-1.4,0.8-1.8c0.5-0.5,1.2-0.8,1.8-0.8c0.7,0,1.4,0.3,1.8,0.8c0.5,0.5,0.8,1.2,0.8,1.8c0,0.7-0.3,1.4-0.8,1.8
					c-1,1-2.7,1-3.7,0C65.3-82,65-82.6,65-83.3z M63.5-89.7c0.5,0.5,0.8,1.2,0.8,1.8c0,0.7-0.3,1.3-0.8,1.8c-1,1-2.7,1-3.7,0
					c-0.5-0.5-0.8-1.2-0.8-1.8c0-0.7,0.3-1.4,0.8-1.8c0.5-0.5,1.2-0.8,1.8-0.8C62.3-90.4,63-90.1,63.5-89.7z M69.9-89
					c-1,1-2.7,1-3.7,0c-0.5-0.5-0.8-1.2-0.8-1.8c0-0.7,0.3-1.4,0.8-1.8c0.5-0.5,1.2-0.8,1.8-0.8s1.4,0.3,1.8,0.8
					c0.5,0.5,0.8,1.2,0.8,1.8C70.7-90.1,70.4-89.5,69.9-89z M74.1-101.9c0.7,0,1.4,0.3,1.8,0.8c0.5,0.5,0.8,1.2,0.8,1.8
					c0,0.7-0.3,1.4-0.8,1.8c-1,1-2.7,1-3.7,0c-0.5-0.5-0.8-1.2-0.8-1.8c0-0.7,0.3-1.4,0.8-1.8C72.7-101.6,73.4-101.9,74.1-101.9z
					 M66.7-97.3c0,0.7-0.3,1.4-0.8,1.8c-1,1-2.7,1-3.7,0c-0.5-0.5-0.8-1.2-0.8-1.8c0-0.7,0.3-1.4,0.8-1.8c0.5-0.5,1.2-0.8,1.8-0.8
					s1.4,0.3,1.8,0.8C66.4-98.6,66.7-98,66.7-97.3z M75.6-93.9c0.7,0,1.4,0.3,1.8,0.8c0.5,0.5,0.8,1.2,0.8,1.8
					c0,0.7-0.3,1.4-0.8,1.8c-1,1-2.7,1-3.7,0c-0.5-0.5-0.8-1.2-0.8-1.8c0-0.7,0.3-1.4,0.8-1.8C74.3-93.6,74.9-93.9,75.6-93.9z
					 M76.9-84.2c0.5,0.5,0.8,1.2,0.8,1.8c0,0.6-0.3,1.4-0.8,1.8c-1,1-2.7,1-3.7,0c-0.5-0.5-0.8-1.2-0.8-1.8c0-0.6,0.3-1.4,0.8-1.8
					c0.5-0.5,1.2-0.8,1.8-0.8C75.8-84.9,76.5-84.6,76.9-84.2z M73.6-77.9c0.7,0,1.4,0.3,1.8,0.8c0.5,0.5,0.8,1.2,0.8,1.8
					s-0.3,1.3-0.8,1.8c-1,1-2.7,1-3.7,0c-0.5-0.5-0.8-1.2-0.8-1.8s0.3-1.4,0.8-1.8C72.3-77.7,72.9-77.9,73.6-77.9z M62.8-68.7
					c0.5-0.5,1.2-0.8,1.8-0.8s1.4,0.3,1.8,0.8c0.5,0.5,0.8,1.2,0.8,1.8c0,0.7-0.3,1.4-0.8,1.8c-1,1-2.7,1-3.7,0
					c-0.5-0.5-0.8-1.2-0.8-1.8C62-67.5,62.3-68.2,62.8-68.7z M73.2-67.8c0,0.7-0.3,1.4-0.8,1.8c-1,1-2.7,1-3.7,0
					c-0.5-0.5-0.8-1.2-0.8-1.8c0-0.7,0.3-1.4,0.8-1.8c0.5-0.5,1.2-0.8,1.8-0.8s1.4,0.3,1.8,0.8C72.9-69.2,73.2-68.5,73.2-67.8z
					 M67.9-58.5c-1,1-2.7,1-3.7,0c-0.5-0.5-0.8-1.2-0.8-1.8c0-0.7,0.3-1.4,0.8-1.8c0.5-0.5,1.2-0.8,1.8-0.8s1.4,0.3,1.8,0.8
					c0.5,0.5,0.8,1.2,0.8,1.8C68.7-59.7,68.4-59,67.9-58.5z M66.9-54.2c0.5,0.5,0.8,1.2,0.8,1.8c0,0.7-0.3,1.4-0.8,1.8
					c-1,1-2.7,1-3.7,0c-0.5-0.5-0.8-1.2-0.8-1.8c0-0.7,0.3-1.4,0.8-1.8c0.5-0.5,1.2-0.8,1.8-0.8C65.8-55,66.5-54.7,66.9-54.2z
					 M70.8-51c-0.5-0.5-0.8-1.2-0.8-1.8c0-0.7,0.3-1.4,0.8-1.8c0.5-0.5,1.2-0.8,1.8-0.8c0.7,0,1.4,0.3,1.8,0.8
					c0.5,0.5,0.8,1.2,0.8,1.8c0,0.7-0.3,1.4-0.8,1.8C73.5-50.1,71.7-50.1,70.8-51z M72.3-60c-0.5-0.5-0.8-1.2-0.8-1.8
					c0-0.7,0.3-1.4,0.8-1.8c0.5-0.5,1.2-0.8,1.8-0.8c0.7,0,1.4,0.3,1.8,0.8c0.5,0.5,0.8,1.2,0.8,1.8c0,0.7-0.3,1.4-0.8,1.8
					C75-59.1,73.2-59,72.3-60z M80.4-70.2c0.5,0.5,0.8,1.2,0.8,1.8c0,0.7-0.3,1.4-0.8,1.8c-1,1-2.7,1-3.7,0
					c-0.5-0.5-0.8-1.2-0.8-1.8c0-0.7,0.3-1.4,0.8-1.8c0.5-0.5,1.2-0.8,1.8-0.8C79.3-70.9,79.9-70.7,80.4-70.2z M87.2-73.3
					c0,0.7-0.3,1.4-0.8,1.8c-1,1-2.7,1-3.7,0c-0.5-0.5-0.8-1.2-0.8-1.8c0-0.7,0.3-1.4,0.8-1.8c0.5-0.5,1.2-0.8,1.8-0.8
					c0.7,0,1.4,0.3,1.8,0.8C86.9-74.7,87.2-74,87.2-73.3z M81.7-79c-0.5-0.5-0.8-1.2-0.8-1.8c0-0.6,0.3-1.4,0.8-1.8
					c0.5-0.5,1.2-0.8,1.8-0.8c0.7,0,1.4,0.3,1.8,0.8c0.5,0.5,0.8,1.2,0.8,1.8c0,0.6-0.3,1.4-0.8,1.8C84.5-78,82.7-78,81.7-79z
					 M82.1-90.9c0.7,0,1.4,0.3,1.8,0.8c0.5,0.5,0.8,1.2,0.8,1.8c0,0.7-0.3,1.4-0.8,1.8c-1,1-2.7,1-3.7,0c-0.5-0.5-0.8-1.2-0.8-1.8
					c0-0.7,0.3-1.4,0.8-1.8C80.7-90.6,81.4-90.9,82.1-90.9z M86.1-97.9c0.7,0,1.4,0.3,1.8,0.8c0.5,0.5,0.8,1.2,0.8,1.8
					c0,0.7-0.3,1.4-0.8,1.8c-1,1-2.7,1-3.7,0c-0.5-0.5-0.8-1.2-0.8-1.8c0-0.7,0.3-1.4,0.8-1.8C84.7-97.6,85.4-97.9,86.1-97.9z
					 M92.1-91.9c0.7,0,1.4,0.3,1.8,0.8c0.5,0.5,0.8,1.2,0.8,1.8c0,0.7-0.3,1.4-0.8,1.8c-1,1-2.7,1-3.7,0c-0.5-0.5-0.8-1.2-0.8-1.8
					c0-0.7,0.3-1.4,0.8-1.8C90.7-91.6,91.4-91.9,92.1-91.9z M92.1-100.9c0.7,0,1.4,0.3,1.8,0.8c0.5,0.5,0.8,1.2,0.8,1.8
					c0,0.7-0.3,1.4-0.8,1.8c-1,1-2.7,1-3.7,0c-0.5-0.5-0.8-1.2-0.8-1.8c0-0.7,0.3-1.4,0.8-1.8C90.7-100.6,91.4-100.9,92.1-100.9z
					 M91.6-82.4c0.7,0,1.4,0.3,1.8,0.8c0.5,0.5,0.8,1.2,0.8,1.8s-0.3,1.4-0.8,1.8c-1,1-2.7,1-3.7,0c-0.5-0.5-0.8-1.2-0.8-1.8
					s0.3-1.4,0.8-1.8C90.2-82.1,90.9-82.4,91.6-82.4z M96.7-73.8c0,0.7-0.3,1.4-0.8,1.8c-1,1-2.7,1-3.7,0c-0.5-0.5-0.8-1.2-0.8-1.8
					s0.3-1.4,0.8-1.8c0.5-0.5,1.2-0.8,1.8-0.8c0.7,0,1.4,0.3,1.8,0.8C96.4-75.2,96.7-74.5,96.7-73.8z M90.2-65.9
					c0,0.7-0.3,1.4-0.8,1.8c-1,1-2.7,1-3.7,0c-0.5-0.5-0.8-1.2-0.8-1.8c0-0.7,0.3-1.4,0.8-1.8c0.5-0.5,1.2-0.8,1.8-0.8
					c0.7,0,1.3,0.3,1.8,0.8C89.9-67.2,90.2-66.5,90.2-65.9z M80.2-60.6c-0.5-0.5-0.8-1.2-0.8-1.8c0-0.7,0.3-1.4,0.8-1.8
					c0.5-0.5,1.2-0.8,1.8-0.8c0.7,0,1.4,0.3,1.8,0.8c0.5,0.5,0.8,1.2,0.8,1.8c0,0.7-0.3,1.3-0.8,1.8C83-59.6,81.2-59.6,80.2-60.6z
					 M78.3-54.5c-0.5-0.5-0.8-1.2-0.8-1.8c0-0.7,0.3-1.4,0.8-1.8c0.5-0.5,1.2-0.8,1.8-0.8c0.7,0,1.4,0.3,1.8,0.8
					c0.5,0.5,0.8,1.2,0.8,1.8c0,0.7-0.3,1.4-0.8,1.8C81-53.6,79.2-53.5,78.3-54.5z M84.7-50.5c-0.5-0.5-0.8-1.2-0.8-1.8
					c0-0.7,0.3-1.4,0.8-1.8c0.5-0.5,1.2-0.8,1.8-0.8c0.7,0,1.4,0.3,1.8,0.8c0.5,0.5,0.8,1.2,0.8,1.8c0,0.7-0.3,1.4-0.8,1.8
					C87.5-49.6,85.7-49.6,84.7-50.5z M86.4-46.2c0.5,0.5,0.8,1.2,0.8,1.8c0,0.7-0.3,1.4-0.8,1.8c-1,1-2.7,1-3.7,0
					c-0.5-0.5-0.8-1.2-0.8-1.8c0-0.7,0.3-1.4,0.8-1.8c0.5-0.5,1.2-0.8,1.8-0.8C85.3-47,85.9-46.7,86.4-46.2z M95.9-48
					c-1,1-2.7,1-3.7,0c-0.5-0.5-0.8-1.2-0.8-1.8c0-0.7,0.3-1.4,0.8-1.8c0.5-0.5,1.2-0.8,1.8-0.8c0.7,0,1.4,0.3,1.8,0.8
					c0.5,0.5,0.8,1.2,0.8,1.8C96.7-49.2,96.4-48.5,95.9-48z M89-58.4c0-0.7,0.3-1.4,0.8-1.8c0.5-0.5,1.2-0.8,1.8-0.8
					c0.7,0,1.4,0.3,1.8,0.8c0.5,0.5,0.8,1.2,0.8,1.8c0,0.7-0.3,1.4-0.8,1.8c-1,1-2.7,1-3.7,0C89.3-57,89-57.7,89-58.4z M98.2-64.9
					c0,0.7-0.3,1.4-0.8,1.8c-1,1-2.7,1-3.7,0c-0.5-0.5-0.8-1.2-0.8-1.8c0-0.7,0.3-1.4,0.8-1.8c0.5-0.5,1.2-0.8,1.8-0.8
					c0.7,0,1.4,0.3,1.8,0.8C97.9-66.2,98.2-65.5,98.2-64.9z M102.1-72.4c0.7,0,1.4,0.3,1.8,0.8c0.5,0.5,0.8,1.2,0.8,1.8
					c0,0.7-0.3,1.4-0.8,1.8c-1,1-2.7,1-3.7,0c-0.5-0.5-0.8-1.2-0.8-1.8c0-0.7,0.3-1.3,0.8-1.8C100.7-72.2,101.4-72.4,102.1-72.4z
					 M104.2-77.8c0,0.7-0.3,1.4-0.8,1.8c-1,1-2.7,1-3.7,0c-0.5-0.5-0.8-1.2-0.8-1.8s0.3-1.3,0.8-1.8s1.2-0.8,1.8-0.8
					c0.7,0,1.4,0.3,1.8,0.8C103.9-79.2,104.2-78.5,104.2-77.8z M102.2-85.8c0,0.7-0.3,1.3-0.8,1.8c-1,1-2.7,1-3.7,0
					c-0.5-0.5-0.8-1.2-0.8-1.8c0-0.7,0.3-1.4,0.8-1.8c0.5-0.5,1.2-0.8,1.8-0.8c0.7,0,1.4,0.3,1.8,0.8
					C101.9-87.2,102.2-86.5,102.2-85.8z M108.9-82.5c-1,1-2.7,1-3.7,0c-0.5-0.5-0.8-1.2-0.8-1.8c0-0.7,0.3-1.4,0.8-1.8
					c0.5-0.5,1.2-0.8,1.8-0.8c0.7,0,1.4,0.3,1.8,0.8c0.5,0.5,0.8,1.2,0.8,1.8C109.6-83.6,109.4-83,108.9-82.5z M104.7-91.5
					c-0.5-0.5-0.8-1.2-0.8-1.8c0-0.7,0.3-1.4,0.8-1.8c0.5-0.5,1.2-0.8,1.8-0.8c0.7,0,1.4,0.3,1.8,0.8c0.5,0.5,0.8,1.2,0.8,1.8
					c0,0.7-0.3,1.4-0.8,1.8C107.4-90.5,105.7-90.5,104.7-91.5z M112-101.9c0.7,0,1.4,0.3,1.8,0.8c0.5,0.5,0.8,1.2,0.8,1.8
					c0,0.7-0.3,1.4-0.8,1.8c-1,1-2.7,1-3.7,0c-0.5-0.5-0.8-1.2-0.8-1.8c0-0.7,0.3-1.4,0.8-1.8C110.7-101.6,111.4-101.9,112-101.9z
					 M111.7-80.5c-0.5-0.5-0.8-1.2-0.8-1.8c0-0.6,0.3-1.4,0.8-1.8c0.5-0.5,1.2-0.8,1.8-0.8c0.7,0,1.4,0.3,1.8,0.8
					c0.5,0.5,0.8,1.2,0.8,1.8c0,0.6-0.3,1.4-0.8,1.8C114.4-79.5,112.7-79.5,111.7-80.5z M111.5-76.9c0.7,0,1.4,0.3,1.8,0.8
					c0.5,0.5,0.8,1.2,0.8,1.8s-0.3,1.4-0.8,1.8c-1,1-2.7,1-3.7,0c-0.5-0.5-0.8-1.2-0.8-1.8s0.3-1.4,0.8-1.8
					C110.2-76.7,110.9-76.9,111.5-76.9z M55.7-84.3c0,0.7-0.3,1.4-0.8,1.8c-1,1-2.7,1-3.7,0c-0.5-0.5-0.8-1.2-0.8-1.8
					c0-0.7,0.3-1.4,0.8-1.8c0.5-0.5,1.2-0.8,1.8-0.8c0.7,0,1.4,0.3,1.8,0.8C55.4-85.7,55.7-85,55.7-84.3z M140.8-64.7
					c0.5,0.5,0.8,1.2,0.8,1.8c0,0.7-0.3,1.4-0.8,1.8c-1,1-2.7,1-3.7,0c-0.5-0.5-0.8-1.2-0.8-1.8c0-0.7,0.3-1.4,0.8-1.8
					c0.5-0.5,1.2-0.8,1.8-0.8C139.7-65.5,140.4-65.2,140.8-64.7z M143.6-54.4c0,0.7-0.3,1.4-0.8,1.8c-1,1-2.7,1-3.7,0
					c-0.5-0.5-0.8-1.2-0.8-1.8c0-0.7,0.3-1.4,0.8-1.8c0.5-0.5,1.2-0.8,1.8-0.8c0.7,0,1.4,0.3,1.8,0.8
					C143.3-55.7,143.6-55,143.6-54.4z M136.4-49c-1,1-2.7,1-3.7,0c-0.5-0.5-0.8-1.2-0.8-1.8c0-0.7,0.3-1.4,0.8-1.8
					c0.5-0.5,1.2-0.8,1.8-0.8c0.7,0,1.4,0.3,1.8,0.8c0.5,0.5,0.8,1.2,0.8,1.8S136.8-49.5,136.4-49z M136.9-67.5c-1,1-2.7,1-3.7,0
					c-0.5-0.5-0.8-1.2-0.8-1.8c0-0.7,0.3-1.4,0.8-1.8c0.5-0.5,1.2-0.8,1.8-0.8c0.7,0,1.4,0.3,1.8,0.8c0.5,0.5,0.8,1.2,0.8,1.8
					S137.3-68,136.9-67.5z M132.7-75c-0.5-0.5-0.8-1.2-0.8-1.8s0.3-1.4,0.8-1.8c0.5-0.5,1.2-0.8,1.8-0.8c0.7,0,1.4,0.3,1.8,0.8
					c0.5,0.5,0.8,1.2,0.8,1.8s-0.3,1.4-0.8,1.8C135.4-74,133.7-74,132.7-75z M139.7-72.5c-0.5-0.5-0.8-1.2-0.8-1.8s0.3-1.4,0.8-1.8
					c0.5-0.5,1.2-0.8,1.8-0.8c0.7,0,1.4,0.3,1.8,0.8c0.5,0.5,0.8,1.1,0.8,1.8l0,0c0,0.7-0.3,1.3-0.8,1.8
					C142.4-71.5,140.6-71.5,139.7-72.5z M142.6-82.3c0,0.7-0.3,1.4-0.8,1.8c-1,1-2.7,1-3.7,0c-0.5-0.5-0.8-1.2-0.8-1.8
					c0-0.6,0.3-1.4,0.8-1.8c0.5-0.5,1.2-0.8,1.8-0.8c0.7,0,1.4,0.3,1.8,0.8C142.3-83.7,142.6-83,142.6-82.3z M140.3-95.5
					c-1,1-2.7,1-3.7,0c-0.5-0.5-0.8-1.2-0.8-1.8c0-0.7,0.3-1.4,0.8-1.8c0.5-0.5,1.2-0.8,1.8-0.8c0.7,0,1.4,0.3,1.8,0.8
					c0.5,0.5,0.8,1.2,0.8,1.8C141.1-96.6,140.8-96,140.3-95.5z M138.3-92.2c0.5,0.5,0.8,1.2,0.8,1.8c0,0.7-0.3,1.4-0.8,1.8
					c-1,1-2.7,1-3.7,0c-0.5-0.5-0.8-1.2-0.8-1.8c0-0.7,0.3-1.4,0.8-1.8c0.5-0.5,1.2-0.8,1.8-0.8C137.2-92.9,137.9-92.6,138.3-92.2z
					 M129.7-60.2c0.5-0.5,1.2-0.8,1.8-0.8c0.7,0,1.4,0.3,1.8,0.8c0.5,0.5,0.8,1.2,0.8,1.8c0,0.7-0.3,1.4-0.8,1.8c-1,1-2.7,1-3.7,0
					c-0.5-0.5-0.8-1.2-0.8-1.8C128.9-59,129.2-59.7,129.7-60.2z M121.9-58.9c0-0.7,0.3-1.4,0.8-1.8c0.5-0.5,1.2-0.8,1.8-0.8
					c0.7,0,1.4,0.3,1.8,0.8c0.5,0.5,0.8,1.2,0.8,1.8c0,0.7-0.3,1.4-0.8,1.8c-1,1-2.7,1-3.7,0C122.2-57.5,121.9-58.2,121.9-58.9z
					 M124.7-51.2c0.5-0.5,1.2-0.8,1.8-0.8c0.7,0,1.4,0.3,1.8,0.8c0.5,0.5,0.8,1.2,0.8,1.8c0,0.7-0.3,1.4-0.8,1.8c-1,1-2.7,1-3.7,0
					c-0.5-0.5-0.8-1.2-0.8-1.8C123.9-50.1,124.2-50.7,124.7-51.2z M121.4-50.5c-1,1-2.7,1-3.7,0c-0.5-0.5-0.8-1.2-0.8-1.8
					c0-0.7,0.3-1.4,0.8-1.8c0.5-0.5,1.2-0.8,1.8-0.8c0.7,0,1.4,0.3,1.8,0.8c0.5,0.5,0.8,1.2,0.8,1.8C122.1-51.7,121.9-51,121.4-50.5
					z M110.2-48.5c-0.5-0.5-0.8-1.2-0.8-1.8c0-0.7,0.3-1.4,0.8-1.8c0.5-0.5,1.2-0.8,1.8-0.8s1.4,0.3,1.8,0.8
					c0.5,0.5,0.8,1.1,0.8,1.8c0,0.7-0.3,1.4-0.8,1.8C112.9-47.6,111.2-47.6,110.2-48.5z M107.7-53.9c0,0.7-0.3,1.4-0.8,1.8
					c-1,1-2.7,1-3.7,0c-0.5-0.5-0.8-1.2-0.8-1.8c0-0.7,0.3-1.4,0.8-1.8c0.5-0.5,1.2-0.8,1.8-0.8c0.7,0,1.4,0.3,1.8,0.8
					C107.4-55.2,107.7-54.5,107.7-53.9z M100.9-57.7c0.5,0.5,0.8,1.2,0.8,1.8c0,0.7-0.3,1.4-0.8,1.8c-1,1-2.7,1-3.7,0
					c-0.5-0.5-0.8-1.2-0.8-1.8c0-0.7,0.3-1.4,0.8-1.8c0.5-0.5,1.2-0.8,1.8-0.8C99.7-58.5,100.4-58.2,100.9-57.7z M101.7-61.5
					c-0.5-0.5-0.8-1.2-0.8-1.8c0-0.7,0.3-1.4,0.8-1.8c0.5-0.5,1.2-0.8,1.8-0.8c0.7,0,1.4,0.3,1.8,0.8c0.5,0.5,0.8,1.2,0.8,1.8
					c0,0.7-0.3,1.4-0.8,1.8C104.4-60.6,102.7-60.6,101.7-61.5z M113.9-60.2c0.5,0.5,0.8,1.1,0.8,1.8s-0.3,1.4-0.8,1.8
					c-1,1-2.7,1-3.7,0c-0.5-0.5-0.8-1.2-0.8-1.8c0-0.7,0.3-1.4,0.8-1.8c0.5-0.5,1.2-0.8,1.8-0.8S113.4-60.7,113.9-60.2z M116.2-66.2
					c0.5-0.5,1.2-0.8,1.8-0.8c0.7,0,1.4,0.3,1.8,0.8c0.5,0.5,0.8,1.2,0.8,1.8c0,0.7-0.3,1.4-0.8,1.8c-1,1-2.7,1-3.7,0
					c-0.5-0.5-0.8-1.2-0.8-1.8C115.4-65,115.7-65.7,116.2-66.2z M108-67.3c0-0.7,0.3-1.4,0.8-1.8c0.5-0.5,1.2-0.8,1.8-0.8
					c0.7,0,1.4,0.3,1.8,0.8c0.5,0.5,0.8,1.2,0.8,1.8c0,0.7-0.3,1.4-0.8,1.8c-1,1-2.7,1-3.7,0C108.2-66,108-66.7,108-67.3z
					 M121.1-72.8c0,0.7-0.3,1.4-0.8,1.8c-1,1-2.7,1-3.7,0c-0.5-0.5-0.8-1.2-0.8-1.8c0-0.7,0.3-1.4,0.8-1.8c0.5-0.5,1.2-0.8,1.8-0.8
					c0.7,0,1.4,0.3,1.8,0.8C120.9-74.2,121.1-73.5,121.1-72.8z M127.5-68.4c0.7,0,1.4,0.3,1.8,0.8c0.5,0.5,0.8,1.2,0.8,1.8
					c0,0.7-0.3,1.4-0.8,1.8c-1,1-2.7,1-3.7,0c-0.5-0.5-0.8-1.2-0.8-1.8c0-0.7,0.3-1.4,0.8-1.8C126.2-68.2,126.8-68.4,127.5-68.4z
					 M125.2-74.2c0.5-0.5,1.2-0.8,1.8-0.8c0.7,0,1.4,0.3,1.8,0.8c0.5,0.5,0.8,1.2,0.8,1.8c0,0.7-0.3,1.4-0.8,1.8c-1,1-2.7,1-3.7,0
					c-0.5-0.5-0.8-1.2-0.8-1.8C124.4-73,124.7-73.7,125.2-74.2z M121.5-83.4c0.7,0,1.4,0.3,1.8,0.8c0.5,0.5,0.8,1.2,0.8,1.8
					c0,0.6-0.3,1.4-0.8,1.8c-1,1-2.7,1-3.7,0c-0.5-0.5-0.8-1.2-0.8-1.8c0-0.6,0.3-1.4,0.8-1.8C120.2-83.1,120.9-83.4,121.5-83.4z
					 M124-91.4c0.7,0,1.4,0.3,1.8,0.8c0.5,0.5,0.8,1.2,0.8,1.8c0,0.7-0.3,1.4-0.8,1.8c-1,1-2.7,1-3.7,0c-0.5-0.5-0.8-1.2-0.8-1.8
					c0-0.7,0.3-1.4,0.8-1.8C122.7-91.1,123.4-91.4,124-91.4z M111.7-88c-0.5-0.5-0.8-1.2-0.8-1.8c0-0.7,0.3-1.4,0.8-1.8
					c0.5-0.5,1.2-0.8,1.8-0.8s1.4,0.3,1.8,0.8c0.5,0.5,0.8,1.2,0.8,1.8c0,0.7-0.3,1.4-0.8,1.8C114.4-87,112.7-87,111.7-88z
					 M120.9-96.1c0.5,0.5,0.8,1.2,0.8,1.8c0,0.7-0.3,1.4-0.8,1.8c-1,1-2.7,1-3.7,0c-0.5-0.5-0.8-1.2-0.8-1.8c0-0.7,0.3-1.3,0.8-1.8
					s1.2-0.8,1.8-0.8C119.7-96.9,120.4-96.6,120.9-96.1z M128.2-93c-0.5-0.5-0.8-1.2-0.8-1.8c0-0.7,0.3-1.4,0.8-1.8
					c0.5-0.5,1.2-0.8,1.8-0.8c0.7,0,1.4,0.3,1.8,0.8c0.5,0.5,0.8,1.2,0.8,1.8c0,0.7-0.3,1.4-0.8,1.8C130.9-92,129.2-92,128.2-93z
					 M127.7-81.5c-0.5-0.5-0.8-1.2-0.8-1.8c0-0.7,0.3-1.4,0.8-1.8c0.5-0.5,1.2-0.8,1.8-0.8c0.7,0,1.4,0.3,1.8,0.8
					c0.5,0.5,0.8,1.2,0.8,1.8c0,0.7-0.3,1.4-0.8,1.8C130.4-80.5,128.7-80.5,127.7-81.5z M100.4-92.5c-1,1-2.7,1-3.7,0
					c-0.5-0.5-0.8-1.2-0.8-1.8c0-0.7,0.3-1.4,0.8-1.8c0.5-0.5,1.2-0.8,1.8-0.8c0.7,0,1.4,0.3,1.8,0.8c0.5,0.5,0.8,1.2,0.8,1.8
					C101.2-93.6,100.9-93,100.4-92.5z M123.9-103.6c0.5,0.5,0.8,1.2,0.8,1.8c0,0.7-0.3,1.4-0.8,1.8c-1,1-2.7,1-3.7,0
					c-0.5-0.5-0.8-1.2-0.8-1.8c0-0.7,0.3-1.4,0.8-1.8c0.5-0.5,1.2-0.8,1.8-0.8C122.7-104.4,123.4-104.1,123.9-103.6z M12.2-116.4
					c0.7,0,1.4,0.3,1.8,0.8c0.5,0.5,0.8,1.2,0.8,1.8c0,0.7-0.3,1.3-0.8,1.8c-1,1-2.7,1-3.7,0c-0.5-0.5-0.8-1.2-0.8-1.8
					c0-0.7,0.3-1.4,0.8-1.8C10.8-116.1,11.5-116.4,12.2-116.4z M16.8-104.8c0,0.7-0.3,1.4-0.8,1.8c-1,1-2.7,1-3.7,0
					c-0.5-0.5-0.8-1.2-0.8-1.8c0-0.7,0.3-1.4,0.8-1.8c0.5-0.5,1.2-0.8,1.8-0.8c0.7,0,1.4,0.3,1.8,0.8
					C16.5-106.2,16.8-105.5,16.8-104.8z M23.3-102.3c0,0.7-0.3,1.4-0.8,1.8c-1,1-2.7,1-3.7,0c-0.5-0.5-0.8-1.2-0.8-1.8
					c0-0.7,0.3-1.4,0.8-1.8c0.5-0.5,1.2-0.8,1.8-0.8s1.4,0.3,1.8,0.8C23-103.7,23.3-103,23.3-102.3z M18.7-112.9
					c0.7,0,1.4,0.3,1.8,0.8c0.5,0.5,0.8,1.2,0.8,1.8c0,0.7-0.3,1.4-0.8,1.8c-1,1-2.7,1-3.7,0c-0.5-0.5-0.8-1.2-0.8-1.8
					c0-0.7,0.3-1.4,0.8-1.8C17.3-112.6,18-112.9,18.7-112.9z M27.5-112.4c-1,1-2.7,1-3.7,0c-0.5-0.5-0.8-1.2-0.8-1.8
					c0-0.7,0.3-1.4,0.8-1.8c0.5-0.5,1.2-0.8,1.8-0.8s1.4,0.3,1.8,0.8c0.5,0.5,0.8,1.2,0.8,1.8C28.3-113.6,28-112.9,27.5-112.4z
					 M23.8-120.4c-0.5-0.5-0.8-1.2-0.8-1.8s0.3-1.4,0.8-1.8c0.5-0.5,1.2-0.8,1.8-0.8s1.4,0.3,1.8,0.8c0.5,0.5,0.8,1.2,0.8,1.8
					s-0.3,1.4-0.8,1.8C26.5-119.5,24.8-119.5,23.8-120.4z M17.7-121.4c0.7,0,1.4,0.3,1.8,0.8c0.5,0.5,0.8,1.2,0.8,1.8
					c0,0.6-0.3,1.4-0.8,1.8c-1,1-2.7,1-3.7,0c-0.5-0.5-0.8-1.2-0.8-1.8c0-0.6,0.3-1.4,0.8-1.8C16.3-121.1,17-121.4,17.7-121.4z
					 M32.7-118.9c0.7,0,1.4,0.3,1.8,0.8c0.5,0.5,0.8,1.2,0.8,1.8c0,0.7-0.3,1.4-0.8,1.8c-1,1-2.7,1-3.7,0c-0.5-0.5-0.8-1.2-0.8-1.8
					c0-0.7,0.3-1.4,0.8-1.8C31.3-118.6,32-118.9,32.7-118.9z M33.2-124.9c0.7,0,1.4,0.3,1.8,0.8c0.5,0.5,0.8,1.2,0.8,1.8
					c0,0.6-0.3,1.3-0.8,1.8c-1,1-2.7,1-3.7,0c-0.5-0.5-0.8-1.2-0.8-1.8c0-0.6,0.3-1.4,0.8-1.8C31.8-124.6,32.5-124.9,33.2-124.9z
					 M44.5-107.1c0.5,0.5,0.8,1.2,0.8,1.8c0,0.7-0.3,1.4-0.8,1.8c-1,1-2.7,1-3.7,0c-0.5-0.5-0.8-1.2-0.8-1.8c0-0.7,0.3-1.4,0.8-1.8
					c0.5-0.5,1.2-0.8,1.8-0.8C43.3-107.9,44-107.6,44.5-107.1z M36.6-112.4c0.7,0,1.4,0.3,1.8,0.8c0.5,0.5,0.8,1.2,0.8,1.8
					c0,0.7-0.3,1.4-0.8,1.8c-1,1-2.7,1-3.7,0c-0.5-0.5-0.8-1.2-0.8-1.8c0-0.7,0.3-1.4,0.8-1.8C35.3-112.1,36-112.4,36.6-112.4z
					 M43.1-115.4c0.7,0,1.4,0.3,1.8,0.8c0.5,0.5,0.8,1.2,0.8,1.8c0,0.7-0.3,1.4-0.8,1.8c-1,1-2.7,1-3.7,0c-0.5-0.5-0.8-1.2-0.8-1.8
					c0-0.7,0.3-1.4,0.8-1.8C41.8-115.1,42.5-115.4,43.1-115.4z M49.1-123.9c0.7,0,1.4,0.3,1.8,0.8c0.5,0.5,0.8,1.2,0.8,1.8
					c0,0.6-0.3,1.3-0.8,1.8c-1,1-2.7,1-3.7,0c-0.5-0.5-0.8-1.2-0.8-1.8c0-0.6,0.3-1.4,0.8-1.8C47.8-123.6,48.5-123.9,49.1-123.9z
					 M41-121.1c0.5,0.5,0.8,1.2,0.8,1.8c0,0.6-0.3,1.4-0.8,1.8c-1,1-2.7,1-3.7,0c-0.5-0.5-0.8-1.2-0.8-1.8c0-0.6,0.3-1.4,0.8-1.8
					c0.5-0.5,1.2-0.8,1.8-0.8C39.8-121.9,40.5-121.6,41-121.1z M50.6-117.9c0.7,0,1.4,0.3,1.8,0.8c0.5,0.5,0.8,1.2,0.8,1.8
					c0,0.7-0.3,1.4-0.8,1.8c-1,1-2.7,1-3.7,0c-0.5-0.5-0.8-1.2-0.8-1.8c0-0.7,0.3-1.4,0.8-1.8C49.3-117.6,49.9-117.9,50.6-117.9z
					 M52-108.1c0.5,0.5,0.8,1.2,0.8,1.8c0,0.7-0.3,1.4-0.8,1.8c-1,1-2.7,1-3.7,0c-0.5-0.5-0.8-1.2-0.8-1.8c0-0.7,0.3-1.4,0.8-1.8
					c0.5-0.5,1.2-0.8,1.8-0.8C50.8-108.9,51.5-108.6,52-108.1z M58.6-105.4c0.7,0,1.4,0.3,1.8,0.8c0.5,0.5,0.8,1.2,0.8,1.8
					c0,0.7-0.3,1.3-0.8,1.8c-1,1-2.7,1-3.7,0c-0.5-0.5-0.8-1.2-0.8-1.8c0-0.7,0.3-1.4,0.8-1.8C57.3-105.1,57.9-105.4,58.6-105.4z
					 M57.1-111.4c0.7,0,1.4,0.3,1.8,0.8c0.5,0.5,0.8,1.2,0.8,1.8c0,0.7-0.3,1.4-0.8,1.8c-1,1-2.7,1-3.7,0c-0.5-0.5-0.8-1.2-0.8-1.8
					c0-0.7,0.3-1.4,0.8-1.8C55.8-111.1,56.4-111.4,57.1-111.4z M61.5-114.4c-1,1-2.7,1-3.7,0c-0.5-0.5-0.8-1.2-0.8-1.8
					c0-0.7,0.3-1.4,0.8-1.8c0.5-0.5,1.2-0.8,1.8-0.8c0.7,0,1.4,0.3,1.8,0.8c0.5,0.5,0.8,1.2,0.8,1.8S61.9-114.9,61.5-114.4z
					 M65.3-109.5c-0.5-0.5-0.8-1.2-0.8-1.8c0-0.7,0.3-1.4,0.8-1.8c0.5-0.5,1.2-0.8,1.8-0.8s1.4,0.3,1.8,0.8c0.5,0.5,0.8,1.2,0.8,1.8
					c0,0.7-0.3,1.4-0.8,1.8C68-108.5,66.2-108.5,65.3-109.5z M66.6-124.9c0.7,0,1.4,0.3,1.8,0.8c0.5,0.5,0.8,1.2,0.8,1.8
					c0,0.6-0.3,1.4-0.8,1.8c-1,1-2.7,1-3.7,0c-0.5-0.5-0.8-1.2-0.8-1.8c0-0.6,0.3-1.4,0.8-1.8C65.2-124.6,65.9-124.9,66.6-124.9z
					 M67.6-106.9c0.7,0,1.4,0.3,1.8,0.8c0.5,0.5,0.8,1.2,0.8,1.8c0,0.7-0.3,1.4-0.8,1.8c-1,1-2.7,1-3.7,0c-0.5-0.5-0.8-1.2-0.8-1.8
					c0-0.7,0.3-1.4,0.8-1.8C66.3-106.6,66.9-106.9,67.6-106.9z M74.6-110.4c0.7,0,1.4,0.3,1.8,0.8c0.5,0.5,0.8,1.2,0.8,1.8
					c0,0.7-0.3,1.4-0.8,1.8c-1,1-2.7,1-3.7,0c-0.5-0.5-0.8-1.2-0.8-1.8c0-0.7,0.3-1.4,0.8-1.8C73.3-110.1,73.9-110.4,74.6-110.4z
					 M30.8-106.3c0,0.7-0.3,1.3-0.8,1.8c-1,1-2.7,1-3.7,0c-0.5-0.5-0.8-1.2-0.8-1.8c0-0.7,0.3-1.4,0.8-1.8c0.5-0.5,1.2-0.8,1.8-0.8
					c0.7,0,1.4,0.3,1.8,0.8C30.5-107.7,30.8-107,30.8-106.3z M74.4-117.6c0.5,0.5,0.8,1.2,0.8,1.8c0,0.7-0.3,1.4-0.8,1.8
					c-1,1-2.7,1-3.7,0c-0.5-0.5-0.8-1.2-0.8-1.8c0-0.7,0.3-1.4,0.8-1.8c0.5-0.5,1.2-0.8,1.8-0.8C73.3-118.4,74-118.1,74.4-117.6z
					 M7.5-124.9c-1,1-2.7,1-3.7,0c-0.4-0.5-0.7-1.2-0.7-1.9s0.3-1.4,0.8-1.8c0.5-0.5,1.2-0.8,1.8-0.8c0.7,0,1.4,0.3,1.8,0.8
					c0.5,0.5,0.8,1.2,0.8,1.8C8.3-126.2,8-125.4,7.5-124.9z M1.9-132.9c-0.5-0.5-0.8-1.2-0.8-1.9s0.3-1.4,0.8-1.8
					c0.5-0.5,1.2-0.8,1.8-0.8c0.7,0,1.4,0.3,1.8,0.8c0.5,0.5,0.8,1.2,0.8,1.8c0,0.7-0.3,1.4-0.8,1.8C4.6-132,2.8-132,1.9-132.9z
					 M19.7-131.5c-0.5-0.5-0.8-1.2-0.8-1.8c0-0.6,0.3-1.4,0.8-1.8c0.5-0.5,1.2-0.8,1.8-0.8c0.7,0,1.4,0.3,1.8,0.8
					c0.5,0.5,0.8,1.2,0.8,1.8c0,0.6-0.3,1.3-0.8,1.8C22.4-130.5,20.7-130.5,19.7-131.5z M19.2-128.9c0.7,0,1.4,0.3,1.8,0.8
					c0.5,0.5,0.8,1.2,0.8,1.8c0,0.6-0.3,1.4-0.8,1.8c-1,1-2.7,1-3.7,0c-0.5-0.5-0.8-1.2-0.8-1.8c0-0.6,0.3-1.4,0.8-1.8
					C17.8-128.6,18.5-128.9,19.2-128.9z M29.5-131.6c0.5,0.5,0.8,1.2,0.8,1.8c0,0.6-0.3,1.3-0.8,1.8c-1,1-2.7,1-3.7,0
					c-0.5-0.5-0.8-1.2-0.8-1.8c0-0.6,0.3-1.4,0.8-1.8c0.5-0.5,1.2-0.8,1.8-0.8C28.4-132.4,29-132.1,29.5-131.6z M35.1-131.4
					c0.7,0,1.4,0.3,1.8,0.8c0.5,0.5,0.8,1.2,0.8,1.8c0,0.6-0.3,1.4-0.8,1.8c-1,1-2.7,1-3.7,0c-0.5-0.5-0.8-1.2-0.8-1.8
					c0-0.6,0.3-1.4,0.8-1.8C33.8-131.1,34.5-131.4,35.1-131.4z M43.6-129.9c0.7,0,1.4,0.3,1.8,0.8c0.5,0.5,0.8,1.2,0.8,1.8
					c0,0.7-0.3,1.3-0.8,1.8c-1,1-2.7,1-3.7,0c-0.5-0.5-0.8-1.2-0.8-1.8c0-0.7,0.3-1.4,0.8-1.8C42.3-129.6,43-129.9,43.6-129.9z
					 M44-131.4c-1,1-2.7,1-3.7,0c-0.5-0.5-0.8-1.2-0.8-1.8c0-0.6,0.3-1.4,0.8-1.8c0.5-0.5,1.2-0.8,1.8-0.8c0.7,0,1.4,0.3,1.8,0.8
					c0.5,0.5,0.8,1.2,0.8,1.8C44.7-132.6,44.5-131.9,44-131.4z M54-137.6c0.5,0.5,0.8,1.2,0.8,1.8c0,0.7-0.3,1.4-0.8,1.8
					c-1,1-2.7,1-3.7,0c-0.5-0.5-0.8-1.2-0.8-1.8c0-0.7,0.3-1.4,0.8-1.8c0.5-0.5,1.2-0.8,1.8-0.8C52.8-138.4,53.5-138.1,54-137.6z
					 M52.6-131.4c0.7,0,1.4,0.3,1.8,0.8c0.5,0.5,0.8,1.2,0.8,1.8c0,0.6-0.3,1.4-0.8,1.8c-1,1-2.7,1-3.7,0c-0.5-0.5-0.8-1.2-0.8-1.8
					c0-0.6,0.3-1.4,0.8-1.8C51.3-131.1,51.9-131.4,52.6-131.4z M63.2-133.8c0,0.7-0.3,1.4-0.8,1.8c-1,1-2.7,1-3.7,0
					c-0.5-0.5-0.8-1.2-0.8-1.8c0-0.6,0.3-1.4,0.8-1.8c0.5-0.5,1.2-0.8,1.8-0.8c0.7,0,1.4,0.3,1.8,0.8
					C62.9-135.1,63.2-134.4,63.2-133.8z M65.3-128.9c-0.5-0.5-0.8-1.2-0.8-1.8c0-0.6,0.3-1.4,0.8-1.8c0.5-0.5,1.2-0.8,1.8-0.8
					s1.4,0.3,1.8,0.8c0.5,0.5,0.8,1.2,0.8,1.8c0,0.6-0.3,1.4-0.8,1.8C68-128,66.2-127.9,65.3-128.9z M13.2-133.4
					c0.7,0,1.4,0.3,1.8,0.8c0.5,0.5,0.8,1.2,0.8,1.8c0,0.6-0.3,1.4-0.8,1.8c-1,1-2.7,1-3.7,0c-0.5-0.5-0.8-1.2-0.8-1.8
					c0-0.6,0.3-1.4,0.8-1.8C11.8-133.1,12.5-133.4,13.2-133.4z M84.2-100.8c0,0.7-0.3,1.4-0.8,1.8c-1,1-2.7,1-3.7,0
					c-0.5-0.5-0.8-1.2-0.8-1.8c0-0.7,0.3-1.4,0.8-1.8c0.5-0.5,1.2-0.8,1.8-0.8c0.7,0,1.4,0.3,1.8,0.8
					C83.9-102.2,84.2-101.5,84.2-100.8z M90.2-105.3c0,0.7-0.3,1.4-0.8,1.8c-1,1-2.7,1-3.7,0c-0.5-0.5-0.8-1.2-0.8-1.8
					c0-0.7,0.3-1.4,0.8-1.8c0.5-0.5,1.2-0.8,1.8-0.8c0.7,0,1.4,0.3,1.8,0.8C89.9-106.7,90.2-106,90.2-105.3z M98.9-105.1
					c0.5,0.5,0.8,1.2,0.8,1.8c0,0.7-0.3,1.4-0.8,1.8c-1,1-2.7,1-3.7,0c-0.5-0.5-0.8-1.2-0.8-1.8c0-0.7,0.3-1.4,0.8-1.8
					c0.5-0.5,1.2-0.8,1.8-0.8C97.8-105.9,98.4-105.6,98.9-105.1z M98.6-115.4c0.7,0,1.4,0.3,1.8,0.8c0.5,0.5,0.8,1.2,0.8,1.8
					c0,0.7-0.3,1.4-0.8,1.8c-1,1-2.7,1-3.7,0c-0.5-0.5-0.8-1.2-0.8-1.8c0-0.7,0.3-1.4,0.8-1.8C97.2-115.1,97.9-115.4,98.6-115.4z
					 M90.7-116.4c-0.5-0.5-0.8-1.2-0.8-1.8s0.3-1.4,0.8-1.8c0.5-0.5,1.2-0.8,1.8-0.8c0.7,0,1.4,0.3,1.8,0.8c0.5,0.5,0.8,1.2,0.8,1.8
					s-0.3,1.4-0.8,1.8C93.5-115.5,91.7-115.5,90.7-116.4z M84.2-119.9c-0.5-0.5-0.8-1.2-0.8-1.8s0.3-1.4,0.8-1.8
					c0.5-0.5,1.2-0.8,1.8-0.8c0.7,0,1.4,0.3,1.8,0.8c0.5,0.5,0.8,1.2,0.8,1.8s-0.3,1.4-0.8,1.8C87-119,85.2-119,84.2-119.9z
					 M88.4-111.4c-1,1-2.7,1-3.7,0c-0.5-0.5-0.8-1.2-0.8-1.8c0-0.7,0.3-1.4,0.8-1.8c0.5-0.5,1.2-0.8,1.8-0.8c0.7,0,1.4,0.3,1.8,0.8
					c0.5,0.5,0.8,1.2,0.8,1.8C89.2-112.6,88.9-111.9,88.4-111.4z M80.2-126.4c-0.5-0.5-0.8-1.2-0.8-1.8c0-0.7,0.3-1.4,0.8-1.8
					c0.5-0.5,1.2-0.8,1.8-0.8c0.7,0,1.4,0.3,1.8,0.8c0.5,0.5,0.8,1.2,0.8,1.8c0,0.7-0.3,1.4-0.8,1.8C83-125.5,81.2-125.5,80.2-126.4
					z M89.7-125.9c-0.5-0.5-0.8-1.2-0.8-1.8c0-0.7,0.3-1.4,0.8-1.8c0.5-0.5,1.2-0.8,1.8-0.8c0.7,0,1.4,0.3,1.8,0.8
					c0.5,0.5,0.8,1.2,0.8,1.8c0,0.7-0.3,1.4-0.8,1.8C92.5-125,90.7-125,89.7-125.9z M96.7-128.4c-0.5-0.5-0.8-1.2-0.8-1.8
					c0-0.6,0.3-1.4,0.8-1.8c0.5-0.5,1.2-0.8,1.8-0.8c0.7,0,1.4,0.3,1.8,0.8c0.5,0.5,0.8,1.2,0.8,1.8c0,0.6-0.3,1.3-0.8,1.8
					C99.4-127.5,97.7-127.4,96.7-128.4z M97.2-119.4c-0.5-0.5-0.8-1.2-0.8-1.8s0.3-1.4,0.8-1.8c0.5-0.5,1.2-0.8,1.8-0.8
					c0.7,0,1.4,0.3,1.8,0.8c0.5,0.5,0.8,1.2,0.8,1.8s-0.3,1.4-0.8,1.8C99.9-118.5,98.2-118.5,97.2-119.4z M2.6-118.3
					c0-0.7,0.3-1.4,0.8-1.8c0.5-0.5,1.2-0.8,1.8-0.8c0.7,0,1.4,0.3,1.8,0.8c0.5,0.5,0.8,1.2,0.8,1.8c0,0.6-0.3,1.3-0.8,1.8
					c-1,1-2.7,1-3.7,0C2.9-116.9,2.6-117.6,2.6-118.3z M4.4-110.6c0.5-0.5,1.2-0.8,1.8-0.8c0.7,0,1.4,0.3,1.8,0.8
					c0.5,0.5,0.8,1.2,0.8,1.8c0,0.7-0.3,1.4-0.8,1.8c-1,1-2.7,1-3.7,0c-0.5-0.5-0.8-1.2-0.8-1.8C3.6-109.5,3.9-110.2,4.4-110.6z
					 M136.7-132.4c-0.5-0.5-0.8-1.2-0.8-1.8c0-0.6,0.3-1.4,0.8-1.8c0.5-0.5,1.2-0.8,1.8-0.8c0.7,0,1.4,0.3,1.8,0.8
					c0.5,0.5,0.8,1.2,0.8,1.8c0,0.6-0.3,1.4-0.8,1.8C139.4-131.5,137.6-131.5,136.7-132.4z M133.9-133.1c0.5,0.5,0.8,1.2,0.8,1.8
					c0,0.6-0.3,1.4-0.8,1.8c-1,1-2.7,1-3.7,0c-0.5-0.5-0.8-1.2-0.8-1.8c0-0.6,0.3-1.4,0.8-1.8c0.5-0.5,1.2-0.8,1.8-0.8
					C132.7-133.9,133.4-133.6,133.9-133.1z M141.4-129.3c0-0.7,0.3-1.4,0.8-1.8c0.5-0.5,1.2-0.8,1.8-0.8h0.1v5.1
					c-0.7,0-1.4-0.2-1.9-0.7C141.7-127.9,141.4-128.6,141.4-129.3z M137-116.9c0.7,0,1.4,0.3,1.8,0.8c0.5,0.5,0.8,1.2,0.8,1.8
					c0,0.7-0.3,1.4-0.8,1.8c-0.9,1-2.7,1-3.7,0c-0.5-0.5-0.8-1.2-0.8-1.8c0-0.7,0.3-1.4,0.8-1.8C135.7-116.6,136.3-116.9,137-116.9z
					 M137.5-106.4c0.7,0,1.4,0.3,1.8,0.8c0.5,0.5,0.8,1.2,0.8,1.8c0,0.7-0.3,1.4-0.8,1.8c-1,1-2.7,1-3.7,0c-0.5-0.5-0.8-1.2-0.8-1.8
					c0-0.7,0.3-1.4,0.8-1.8C136.2-106.1,136.8-106.4,137.5-106.4z M140.5-124.4c0.7,0,1.4,0.3,1.8,0.8c0.5,0.5,0.8,1.2,0.8,1.8
					c0,0.6-0.3,1.4-0.8,1.8c-1,1-2.7,1-3.7,0c-0.5-0.5-0.8-1.2-0.8-1.8c0-0.6,0.3-1.4,0.8-1.8C139.1-124.1,139.8-124.4,140.5-124.4z
					 M75.3-124.6c0.5-0.5,1.2-0.8,1.8-0.8c0.7,0,1.4,0.3,1.8,0.8c0.5,0.5,0.8,1.2,0.8,1.8c0,0.6-0.3,1.4-0.8,1.8c-1,1-2.7,1-3.7,0
					c-0.5-0.5-0.8-1.2-0.8-1.8C74.4-123.4,74.8-124.1,75.3-124.6z M72.3-126.9c-0.5-0.5-0.8-1.2-0.8-1.8c0-0.6,0.3-1.4,0.8-1.8
					c0.5-0.5,1.2-0.8,1.8-0.8c0.7,0,1.4,0.3,1.8,0.8c0.5,0.5,0.8,1.2,0.8,1.8c0,0.6-0.3,1.4-0.8,1.8C75-126,73.2-125.9,72.3-126.9z
					 M105.6-128.9c0.7,0,1.4,0.3,1.8,0.8c0.5,0.5,0.8,1.2,0.8,1.8c0,0.6-0.3,1.4-0.8,1.8c-1,1-2.7,1-3.7,0c-0.5-0.5-0.8-1.2-0.8-1.8
					c0-0.6,0.3-1.4,0.8-1.8C104.2-128.6,104.9-128.9,105.6-128.9z M115.4-127.6c0.5,0.5,0.8,1.2,0.8,1.8c0,0.6-0.3,1.4-0.8,1.8
					c-1,1-2.7,1-3.7,0c-0.5-0.5-0.8-1.2-0.8-1.8c0-0.6,0.3-1.4,0.8-1.8c0.5-0.5,1.2-0.8,1.8-0.8S114.9-128.1,115.4-127.6z
					 M106.4-119.1c0.5,0.5,0.8,1.2,0.8,1.8c0,0.7-0.3,1.3-0.8,1.8c-1,1-2.7,1-3.7,0c-0.5-0.5-0.8-1.2-0.8-1.8c0-0.7,0.3-1.4,0.8-1.8
					c0.5-0.5,1.2-0.8,1.8-0.8C105.3-119.9,105.9-119.6,106.4-119.1z M110.5-120.9c0.7,0,1.4,0.3,1.8,0.8c0.5,0.5,0.8,1.2,0.8,1.8
					c0,0.6-0.3,1.4-0.8,1.8c-1,1-2.7,1-3.7,0c-0.5-0.5-0.8-1.2-0.8-1.8c0-0.6,0.3-1.4,0.8-1.8C109.2-120.6,109.9-120.9,110.5-120.9z
					 M106.1-111.9c0.7,0,1.4,0.3,1.8,0.8c0.5,0.5,0.8,1.2,0.8,1.8c0,0.7-0.3,1.4-0.8,1.8c-1,1-2.7,1-3.7,0c-0.5-0.5-0.8-1.2-0.8-1.8
					c0-0.7,0.3-1.4,0.8-1.8C104.7-111.6,105.4-111.9,106.1-111.9z M115.9-114.1c0.5,0.5,0.8,1.2,0.8,1.8c0,0.7-0.3,1.4-0.8,1.8
					c-1,1-2.7,1-3.7,0c-0.5-0.5-0.8-1.2-0.8-1.8c0-0.7,0.3-1.4,0.8-1.8c0.5-0.5,1.2-0.8,1.8-0.8S115.4-114.6,115.9-114.1z
					 M118.5-121.4c0.7,0,1.4,0.3,1.8,0.8c0.5,0.5,0.8,1.2,0.8,1.8c0,0.6-0.3,1.4-0.8,1.8c-1,1-2.7,1-3.7,0c-0.5-0.5-0.8-1.2-0.8-1.8
					c0-0.6,0.3-1.4,0.8-1.8C117.2-121.1,117.9-121.4,118.5-121.4z M124.4-125.1c0.5,0.5,0.8,1.2,0.8,1.8c0,0.6-0.3,1.4-0.8,1.8
					c-1,1-2.7,1-3.7,0c-0.5-0.5-0.8-1.2-0.8-1.8c0-0.6,0.3-1.4,0.8-1.8c0.5-0.5,1.2-0.8,1.8-0.8
					C123.2-125.9,123.9-125.6,124.4-125.1z M126.1-131.3c0,0.7-0.3,1.4-0.8,1.8c-1,1-2.7,1-3.7,0c-0.5-0.5-0.8-1.2-0.8-1.8
					c0-0.6,0.3-1.4,0.8-1.8c0.5-0.5,1.2-0.8,1.8-0.8c0.7,0,1.4,0.3,1.8,0.8C125.8-132.6,126.1-131.9,126.1-131.3z M127.5-118.9
					c0.7,0,1.4,0.3,1.8,0.8c0.5,0.5,0.8,1.2,0.8,1.8c0,0.7-0.3,1.4-0.8,1.8c-1,1-2.7,1-3.7,0c-0.5-0.5-0.8-1.2-0.8-1.8
					c0-0.7,0.3-1.4,0.8-1.8C126.2-118.6,126.8-118.9,127.5-118.9z M124-113.9c0.7,0,1.4,0.3,1.8,0.8c0.5,0.5,0.8,1.2,0.8,1.8
					c0,0.7-0.3,1.4-0.8,1.8c-1,1-2.7,1-3.7,0c-0.5-0.5-0.8-1.2-0.8-1.8c0-0.7,0.3-1.3,0.8-1.8C122.7-113.6,123.4-113.9,124-113.9z
					 M115.5-107.9c0.7,0,1.4,0.3,1.8,0.8c0.5,0.5,0.8,1.2,0.8,1.8c0,0.7-0.3,1.4-0.8,1.8c-1,1-2.7,1-3.7,0c-0.5-0.5-0.8-1.2-0.8-1.8
					c0-0.7,0.3-1.4,0.8-1.8C114.2-107.6,114.9-107.9,115.5-107.9z M131.5-111.4c0.7,0,1.4,0.3,1.8,0.8c0.5,0.5,0.8,1.2,0.8,1.8
					c0,0.7-0.3,1.4-0.8,1.8c-1,1-2.7,1-3.7,0c-0.5-0.5-0.8-1.2-0.8-1.8c0-0.7,0.3-1.4,0.8-1.8C130.2-111.1,130.8-111.4,131.5-111.4z
					 M132-125.9c0.7,0,1.4,0.3,1.8,0.8c0.5,0.5,0.8,1.2,0.8,1.8c0,0.6-0.3,1.4-0.8,1.8c-1,1-2.7,1-3.7,0c-0.5-0.5-0.8-1.2-0.8-1.8
					c0-0.6,0.3-1.4,0.8-1.8C130.7-125.6,131.3-125.9,132-125.9z M105.6-104.9c0.7,0,1.4,0.3,1.8,0.8c0.5,0.5,0.8,1.2,0.8,1.8
					c0,0.7-0.3,1.4-0.8,1.8c-1,1-2.7,1-3.7,0c-0.5-0.5-0.8-1.2-0.8-1.8c0-0.7,0.3-1.4,0.8-1.8C104.2-104.6,104.9-104.9,105.6-104.9z
					 M117.6-132.8c0,0.7-0.3,1.4-0.8,1.8c-1,1-2.7,1-3.7,0c-0.5-0.5-0.8-1.2-0.8-1.8c0-0.6,0.3-1.4,0.8-1.8c0.5-0.5,1.2-0.8,1.8-0.8
					c0.7,0,1.4,0.3,1.8,0.8C117.4-134.1,117.6-133.4,117.6-132.8z M125.2-134.9c-0.5-0.5-0.8-1.2-0.8-1.8c0-0.7,0.3-1.4,0.8-1.8
					c0.5-0.5,1.2-0.8,1.8-0.8c0.7,0,1.4,0.3,1.8,0.8c0.5,0.5,0.8,1.2,0.8,1.8c0,0.7-0.3,1.4-0.8,1.8
					C127.9-134,126.1-134,125.2-134.9z M129-104.4c0.7,0,1.4,0.3,1.8,0.8c0.5,0.5,0.8,1.2,0.8,1.8c0,0.7-0.3,1.4-0.8,1.8
					c-1,1-2.7,1-3.7,0c-0.5-0.5-0.8-1.2-0.8-1.8c0-0.7,0.3-1.4,0.8-1.8C127.7-104.1,128.3-104.4,129-104.4z M15.8-47
					c-0.5-0.5-0.8-1.2-0.8-1.8c0-0.7,0.3-1.4,0.8-1.8c0.5-0.5,1.2-0.8,1.8-0.8c0.7,0,1.4,0.3,1.8,0.8c0.5,0.5,0.8,1.2,0.8,1.8
					c0,0.7-0.3,1.4-0.8,1.8C18.6-46.1,16.8-46.1,15.8-47z M10.2-124.4c0.7,0,1.4,0.3,1.8,0.8c0.5,0.5,0.8,1.2,0.8,1.8
					c0,0.6-0.3,1.3-0.8,1.8c-1,1-2.7,1-3.7,0c-0.5-0.5-0.8-1.2-0.8-1.8c0-0.6,0.3-1.4,0.8-1.8C8.8-124.1,9.5-124.4,10.2-124.4z
					 M57.3-121.9c-0.5-0.5-0.8-1.2-0.8-1.8s0.3-1.4,0.8-1.8c0.5-0.5,1.2-0.8,1.8-0.8c0.7,0,1.4,0.3,1.8,0.8c0.5,0.5,0.8,1.2,0.8,1.8
					s-0.3,1.4-0.8,1.8C60-121,58.2-121,57.3-121.9z M82.2-112.8c0,0.7-0.3,1.4-0.8,1.8c-1,1-2.7,1-3.7,0c-0.5-0.5-0.8-1.2-0.8-1.8
					c0-0.7,0.3-1.4,0.8-1.8c0.5-0.5,1.2-0.8,1.8-0.8c0.7,0,1.4,0.3,1.8,0.8C81.9-114.1,82.2-113.5,82.2-112.8z M93.1-112.4
					c0.7,0,1.4,0.3,1.8,0.8c0.5,0.5,0.8,1.2,0.8,1.8c0,0.7-0.3,1.4-0.8,1.8c-1,1-2.7,1-3.7,0c-0.5-0.5-0.8-1.2-0.8-1.8
					c0-0.7,0.3-1.4,0.8-1.8C91.7-112.1,92.4-112.4,93.1-112.4z M78.8-139.9c-0.5-0.5-0.8-1.2-0.8-1.8c0-0.7,0.3-1.4,0.8-1.8
					c0.2-0.2,0.5-0.4,0.8-0.5h2.1c0.3,0.1,0.5,0.3,0.8,0.5c0.5,0.5,0.8,1.2,0.8,1.8c0,0.7-0.3,1.4-0.8,1.8
					C81.5-139,79.7-139,78.8-139.9z M20.8-144.1h2.6C22.6-143.7,21.6-143.7,20.8-144.1z M39.3-141.9c-0.5-0.5-0.8-1.2-0.8-1.8
					c0-0.1,0-0.2,0-0.4h5.1c0,0.1,0,0.2,0,0.4c0,0.7-0.3,1.4-0.8,1.8C42-140.9,40.3-140.9,39.3-141.9z M30.8-143.4
					c-0.2-0.2-0.4-0.4-0.5-0.7h4.6c-0.1,0.3-0.3,0.5-0.5,0.7C33.5-142.4,31.8-142.4,30.8-143.4z M52.3-143.4
					c-0.2-0.2-0.4-0.4-0.5-0.7h4.6c-0.1,0.3-0.3,0.5-0.5,0.7C55-142.4,53.3-142.4,52.3-143.4z M12.3-142.4c-0.4-0.4-0.7-1.1-0.7-1.7
					h5.2c0,0.6-0.3,1.2-0.7,1.7C15.1-141.4,13.3-141.4,12.3-142.4z M106.7-141.4c-0.5-0.5-0.8-1.2-0.8-1.8c0-0.3,0.1-0.6,0.2-0.9
					h4.9c0.1,0.3,0.2,0.6,0.2,0.9c0,0.7-0.3,1.4-0.8,1.8C109.4-140.4,107.7-140.4,106.7-141.4z M141.7-15.1
					c-0.5-0.5-0.8-1.2-0.8-1.8c0-0.7,0.3-1.4,0.8-1.8c0.5-0.5,1.2-0.8,1.8-0.8c0.2,0,0.4,0,0.6,0.1v5
					C143.2-14.2,142.3-14.4,141.7-15.1z M141.4-23.4c0-0.7,0.3-1.4,0.8-1.8c0.5-0.5,1.2-0.8,1.8-0.8h0.1v5.1c-0.7,0-1.4-0.2-1.9-0.7
					C141.7-22,141.4-22.7,141.4-23.4z M141.9-37.9c0-0.7,0.3-1.4,0.8-1.8c0.4-0.4,0.9-0.6,1.4-0.7v5.1c-0.5-0.1-1-0.3-1.4-0.7
					C142.2-36.5,141.9-37.2,141.9-37.9z M141.2-42.5c-0.5-0.5-0.8-1.2-0.8-1.8c0-0.7,0.3-1.4,0.8-1.8c0.5-0.5,1.2-0.8,1.8-0.8
					c0.4,0,0.8,0.1,1.1,0.3v4.5C143.1-41.6,141.9-41.8,141.2-42.5z M141.4-140.3c0-0.7,0.3-1.4,0.8-1.8c0.5-0.5,1.2-0.8,1.8-0.8h0.1
					v5.1c-0.7,0-1.4-0.2-1.9-0.7C141.7-138.9,141.4-139.6,141.4-140.3z M142.4-89.3c0-0.7,0.3-1.4,0.8-1.8c0.3-0.3,0.6-0.5,0.9-0.6
					v4.8c-0.3-0.1-0.7-0.3-0.9-0.6C142.7-88,142.4-88.6,142.4-89.3z M141.2-109c-0.5-0.5-0.8-1.2-0.8-1.8c0-0.7,0.3-1.4,0.8-1.8
					c0.5-0.5,1.2-0.8,1.8-0.8c0.4,0,0.8,0.1,1.1,0.3v4.7C143.1-108,141.9-108.2,141.2-109z M142.4-102.8c0-0.7,0.3-1.4,0.8-1.8
					c0.3-0.3,0.6-0.5,0.9-0.6v4.8c-0.3-0.1-0.7-0.3-0.9-0.6C142.7-101.4,142.4-102.1,142.4-102.8z M89.2-137.9
					c-0.5-0.5-0.8-1.2-0.8-1.8c0-0.7,0.3-1.4,0.8-1.8c0.5-0.5,1.2-0.8,1.8-0.8c0.7,0,1.4,0.3,1.8,0.8c0.5,0.5,0.8,1.2,0.8,1.8
					c0,0.7-0.3,1.3-0.8,1.8C91.9-137,90.2-137,89.2-137.9z M81.4-136.6c0.5,0.5,0.8,1.2,0.8,1.8c0,0.7-0.3,1.4-0.8,1.8
					c-1,1-2.7,1-3.7,0c-0.5-0.5-0.8-1.2-0.8-1.8c0-0.7,0.3-1.4,0.8-1.8c0.5-0.5,1.2-0.8,1.8-0.8C80.3-137.4,80.9-137.1,81.4-136.6z
					 M0.1-32.4L0.1-32.4L0.1-32.4L0.1-32.4z M0.1-74.3L0.1-74.3C0.1-74.4,0.1-74.3,0.1-74.3L0.1-74.3z M2.6-129.3
					c0,0.7-0.3,1.4-0.8,1.8c-0.5,0.5-1.1,0.7-1.7,0.7v-5.1c0.6,0,1.3,0.3,1.7,0.7C2.3-130.6,2.6-129.9,2.6-129.3z M2.1-16.9
					c0,0.7-0.3,1.4-0.8,1.8c-0.3,0.3-0.8,0.6-1.2,0.7v-5c0.5,0.1,0.9,0.3,1.2,0.7C1.8-18.3,2.1-17.6,2.1-16.9z M2.6-23.4
					c0,0.7-0.3,1.4-0.8,1.8c-0.4,0.5-1.1,0.7-1.7,0.7V-26c0.6,0,1.3,0.3,1.7,0.7C2.3-24.8,2.6-24.1,2.6-23.4z M2.3-39.7
					c0.5,0.5,0.8,1.1,0.8,1.8s-0.3,1.4-0.8,1.8c-0.6,0.6-1.4,0.8-2.2,0.7v-5.1c0.1,0,0.3,0,0.4,0C1.2-40.5,1.9-40.2,2.3-39.7z
					 M1.6-44.4c0,0.7-0.3,1.4-0.8,1.8c-0.2,0.3-0.4,0.4-0.7,0.5v-4.7c0.3,0.1,0.5,0.3,0.7,0.5C1.3-45.7,1.6-45.1,1.6-44.4z
					 M0.1-137.7v-5.1c0.6,0,1.3,0.3,1.7,0.7c0.5,0.5,0.8,1.2,0.8,1.8c0,0.7-0.3,1.4-0.8,1.8C1.4-137.9,0.7-137.7,0.1-137.7z
					 M2.8-91.2c0.5,0.5,0.8,1.2,0.8,1.8c0,0.7-0.3,1.4-0.8,1.8c-0.7,0.8-1.8,1-2.7,0.7v-4.8c0.3-0.1,0.6-0.2,0.9-0.2
					C1.7-91.9,2.4-91.6,2.8-91.2z M1.6-110.8c0,0.7-0.3,1.4-0.8,1.8c-0.2,0.2-0.5,0.4-0.7,0.5v-4.7c0.3,0.1,0.5,0.3,0.7,0.5
					C1.3-112.1,1.6-111.5,1.6-110.8z M2.8-104.6c0.5,0.5,0.8,1.2,0.8,1.8c0,0.7-0.3,1.4-0.8,1.8c-0.7,0.7-1.8,0.9-2.7,0.6v-4.8
					c0.3-0.1,0.6-0.2,0.9-0.2C1.7-105.4,2.4-105.1,2.8-104.6z M81.7-0.1h-2.1c0.3-0.2,0.7-0.2,1.1-0.2S81.3-0.3,81.7-0.1z M22.1-4.9
					c0.7,0,1.4,0.3,1.8,0.8c0.5,0.5,0.8,1.2,0.8,1.8s-0.3,1.4-0.8,1.8c-0.2,0.2-0.3,0.3-0.5,0.4h-2.6c-0.2-0.1-0.4-0.2-0.5-0.4
					c-0.5-0.5-0.8-1.2-0.8-1.8s0.3-1.4,0.8-1.8C20.7-4.6,21.4-4.9,22.1-4.9z M41.1-2.3c0.7,0,1.4,0.3,1.8,0.8
					c0.4,0.4,0.6,0.9,0.7,1.5h-5.1c0.1-0.6,0.3-1.1,0.7-1.5C39.8-2.1,40.5-2.3,41.1-2.3z M32.7-3.8c0.7,0,1.4,0.3,1.8,0.8
					c0.5,0.5,0.8,1.2,0.8,1.8c0,0.4-0.1,0.8-0.3,1.1h-4.6c-0.2-0.4-0.3-0.7-0.3-1.1c0-0.7,0.3-1.4,0.8-1.8C31.3-3.6,32-3.8,32.7-3.8
					z M54.1-3.8c0.7,0,1.4,0.3,1.8,0.8c0.5,0.5,0.8,1.2,0.8,1.8c0,0.4-0.1,0.8-0.3,1.1h-4.6c-0.2-0.4-0.3-0.7-0.3-1.1
					c0-0.7,0.3-1.4,0.8-1.8C52.8-3.6,53.4-3.8,54.1-3.8z M14.2-2.8c0.7,0,1.4,0.3,1.8,0.8c0.5,0.5,0.8,1.2,0.8,1.8v0.1h-5.2v-0.1
					c0-0.7,0.3-1.4,0.8-1.8C12.8-2.6,13.5-2.8,14.2-2.8z M108.6-1.8c0.7,0,1.4,0.3,1.8,0.8c0.3,0.3,0.5,0.6,0.6,1h-4.9
					c0.1-0.4,0.3-0.7,0.6-1C107.2-1.6,107.9-1.8,108.6-1.8z"/>
			</g>
		</g>
	</g>
</pattern>
<pattern  id="SVGID_1_" xlink:href="#SVGID_2_" patternTransform="matrix(6.123234e-17 1 1 -6.123234e-17 17506.3008 -288.4)">
</pattern>
<polygon class="st2" points="517.8,266.2 0,266.2 0,0 "/>
</svg>
