<?xml version="1.0" encoding="utf-8"?>
<!-- Generator: Adobe Illustrator 21.0.2, SVG Export Plug-In . SVG Version: 6.00 Build 0)  -->
<svg version="1.1" id="Layer_1" xmlns="http://www.w3.org/2000/svg" xmlns:xlink="http://www.w3.org/1999/xlink" x="0px" y="0px"
	 viewBox="0 0 430.3 517.8" style="enable-background:new 0 0 430.3 517.8;" xml:space="preserve">
<style type="text/css">
	.st0{fill:none;}
	.st1{fill:#F60065;}
	.st2{fill:url(#SVGID_1_);}
</style>
<pattern  x="164.1" y="517.8" width="142" height="142" patternUnits="userSpaceOnUse" id="SVGID_2_" viewBox="0.2 -142.2 142 142" style="overflow:visible;">
	<g>
		<rect x="0.2" y="-142.2" class="st0" width="142" height="142"/>
		<g>
			<rect x="0.2" y="-142.2" class="st0" width="142" height="142"/>
			<g>
				<rect x="0.2" y="-142.2" class="st0" width="142" height="142"/>
				<path class="st1" d="M21.2-122.9l1.3,1.3c0.4,0.4,1,0.4,1.4,0c0.4-0.4,0.4-1,0.1-1.4c-0.2-0.3-0.5-0.5-0.7-0.8
					c-1-1-1.3-1.5-1.1-2.2c0.1-0.4,0-0.9-0.4-1.1c-0.4-0.2-0.8-0.2-1.2,0.1c-0.3,0.2-0.5,0.5-0.8,0.7c-0.1,0.1-0.2,0.2-0.2,0.2
					c0-0.1-0.1-0.2-0.2-0.3l-2-2c-0.2-0.2-0.4-0.3-0.7-0.3s-0.5,0.1-0.7,0.3l-1.4,1.4c-0.4,0.4-0.4,1,0,1.4l3.9,4
					c0.4,0.4,1,0.4,1.4,0L21.2-122.9z M34.2-105.8l-2.8,0.5c-0.3,0.1-0.6,0-0.8-0.2c-0.2-0.2-0.3-0.5-0.3-0.8v-1.6
					c-2.3,0.3-4.3-0.4-6.1-1c-0.5-0.2-1.1-0.4-1.6-0.5s-0.8-0.7-0.7-1.2s0.6-0.8,1.1-0.8l1.5,0.2c-0.1-0.6-0.1-1.3,0.1-2
					c-0.6-0.4-1-0.8-0.8-1.4c0.1-0.4,0.5-0.7,1-0.7c0.7,0,2.9,1.4,3.6,3c0.4,0.8,0.4,1.6,0.1,2.3c0.7,0.1,1.5,0.1,2.3,0
					c0.1,0,0.3-0.1,0.4-0.1s0.3,0,0.4,0c1.5-0.2,2.7-0.6,3.1-0.7c0.3-0.1,0.4-0.2,0.6-0.2c0.5,0,0.9,0.4,1,0.8
					c0.1,0.7-0.3,0.9-0.7,1.1l0,0h-0.1c-0.1,0-0.1,0.1-0.2,0.1h-0.1v2.1C35-106.3,34.7-105.9,34.2-105.8z M71.2-81.4
					c-0.1,0.4-0.4,0.6-0.8,0.7c-0.4,0.1-0.7-0.1-0.9-0.4L66-86.4c0,0.3-0.1,0.7-0.5,0.9l-3.8,2.3v0.1l0.9,1.5c0.3,0.4,0.2,1-0.2,1.3
					c-0.3,0.2-0.6,0.4-0.9,0.6c-0.6,0.4-1.1,0.7-1.4,1.1c-0.1,0.4-0.1,0.7-0.2,1c-0.1,0.5-0.5,0.9-1,0.9l0,0c-0.5,0-0.9-0.4-1-0.9
					c-0.1-0.6,0-1.2,0.3-1.7c0.3-1,0.7-2.2,1.2-3.6l0,0c-0.1-0.2-0.2-0.5-0.1-0.7c0.1-0.3,0.2-0.5,0.4-0.6l0.4-0.2
					c0.8-1.9,1.7-3.7,2.4-5c0.2-0.4,0.3-0.7,0.5-0.9c-0.1-0.3,0-0.6,0.2-0.8c0.3-0.4,0.6-0.8,1.1-0.8l0,0c0.3,0,0.7,0.2,0.8,0.5
					c0,0.1,0.1,0.2,0.1,0.2L66-91c0.4,0.1,0.7,0.4,0.7,0.8c0.1,0.4-0.1,0.8-0.5,1l-1.5,1l0.5,0.8c0-0.2,0-0.3,0.1-0.5
					c0.2-0.3,0.5-0.5,0.9-0.5h3.9c0.4,0,0.8,0.2,0.9,0.6c0.2,0.4,0.1,0.8-0.2,1.1l-1.3,1.3l0,0C70.6-84.7,71.9-83.4,71.2-81.4z
					 M48.3-80.5l1.9,0.7c0.5,0.2,0.7,0.7,0.6,1.1c-0.1,0.6-0.3,1.2-0.6,1.7c-0.2,1.1-0.9,2.3-2.3,3.6c-0.2,0.2-0.4,0.2-0.6,0.3
					L46.2-73c-1.7,0.7-3.8,0.9-5.9,0.4c-0.5-0.1-0.8-0.5-0.8-1s0.4-0.9,0.9-0.9l5.3-0.4c1.2-0.5,2.1-1.4,2.6-2.6
					c0-0.3-0.2-0.7-0.9-1.2l-2.3-0.8c-0.6,1.4-2,2.2-3.2,2.7c-0.2,0.1-0.5,0.2-0.7,0.3c-0.3,0.1-0.6,0.2-0.9,0.3l-0.8,0.3
					c-0.3,0.1-0.6,0.1-0.9-0.1c-0.3-0.2-0.4-0.5-0.4-0.8c0-0.6-0.4-0.8-1.8-1.3c-0.3-0.1-0.7-0.2-1-0.4c-0.5-0.2-0.6-0.7-0.5-1.2
					s0.7-0.8,1.2-0.7c0.4,0,0.7-0.3,1-0.5c1-2.1,1.3-2.4,1.9-2.4c0.4,0,0.8,0.2,0.9,0.6c0.3,0.8-0.5,2-1,2.7
					c0.5,1.1,1.1,1.7,1.8,1.7c0.1-0.1,0.3-0.1,0.4-0.2c0.8-0.5,1.7-1.8,2.1-3c-0.1-0.1-0.1-0.1-0.2-0.2c-0.3-0.4-0.4-0.9,0-1.3
					c0.3-0.4,0.8-0.9,1.4-0.9c0.3,0,0.7,0.2,0.9,0.4c0.2,0.3,0.3,0.7,0.2,1.2c0.5,0.3,1,0.6,1.5,0.9C47.4-81.1,47.9-80.8,48.3-80.5z
					 M1.6-73.5c0.1,0.4-0.2,0.8-0.5,1l-0.9,0.4v-2.3c0.2,0,0.4,0,0.6,0.1C1.2-74.3,1.5-73.9,1.6-73.5z M17.4-117.7
					c-0.2,0.4-0.8,0.6-1.2,0.4l-5.2-2.1c-0.2-0.1-0.4-0.3-0.5-0.5s-0.1-0.5,0-0.8l0.4-1.1l-1.7-1.4c-0.4-0.3-0.5-0.8-0.2-1.3
					c0.2-0.3,0.5-0.5,0.8-0.5c0.1,0,0.2,0,0.4,0.1l2.6,1c0.2,0.1,0.4,0.3,0.5,0.5c0.1,0.2,0.1,0.5,0,0.8l-0.1,0.2l3.9,3.4
					C17.6-118.6,17.6-118.1,17.4-117.7z M27.8-71.9C27.6-72,27.5-72,27.4-72c-0.6,0-1.1,0.5-1.8,1.2c-0.3,0.3-0.5,0.5-0.8,0.7
					s-0.7,0.3-1,0.1c-0.3-0.2-0.6-0.5-0.6-0.9v-5.3c-0.2-0.2-0.4-0.5-0.6-0.7c-0.3-0.3-0.6-0.7-0.9-1c-1-1.2-1.9-2.2-3.1-1.9
					c-0.3,0.1-0.6,0-0.9-0.2c-0.2-0.2-0.4-0.5-0.4-0.8v-2c0-0.4,0.2-0.7,0.5-0.9c-0.4,0.2-0.8,0.1-1.1-0.2l-0.9-0.9
					c-0.2-0.2-0.3-0.5-0.3-0.7c0-0.3,0.2-0.5,0.4-0.7l4.7-3.8c0.4-0.3,1-0.3,1.3,0.1l0.5,0.5l2.7-0.8c0.1,0,0.2,0,0.3,0
					c0.4,0,0.7,0.2,0.9,0.6c0.2,0.5,0,1-0.4,1.2L18-83.6c0.1,0,0.2-0.1,0.3-0.1h3.9c0.5,0,1,0.4,1,1v2c0,0.9,0.2,1.7,0.9,2.5
					c0.2,0.2,0.4,0.4,0.7,0.6c0.2,0.1,0.3,0.3,0.4,0.6c0.4,0.4,0.8,0.7,1.2,1.1c0.9,0.8,1.8,1.6,2.5,2.5c0.3,0.3,0.3,0.8,0,1.2
					C28.7-72,28.2-71.8,27.8-71.9z M32.8-65.6c0.3,0.4,0.3,0.9,0,1.3s-0.9,0.4-1.3,0.2c-1.7-1.1-2.5-2.3-2.5-3.7
					c-0.1-0.5,0-0.9,0.2-1.4c0-0.1,0.1-0.3,0.2-0.4c0.3-0.6,0.6-1.2,1-1.8c0.2-0.4,0.5-0.8,0.7-1.2c-0.1-0.3,0-0.7,0.3-0.9l0.2-0.2
					c0.2-0.9,0.1-1.7-0.4-2.6c-0.2-0.4-0.1-1,0.3-1.3c0.2-0.1,0.4-0.2,0.6-0.2c0.3,0,0.5,0.1,0.7,0.3l2,2c0.4,0.4,0.4,1,0,1.4
					l-1.3,1.3l1.2,1.2c0.8,0.4,1.4,1,1.8,1.8l0.1,0.1c0.7,0.1,1.3-0.4,2-1.1c0.3-0.3,0.5-0.5,0.8-0.7c0.4-0.3,1-0.3,1.3,0.1l1.4,1.4
					c0.4,0.4,0.4,1,0,1.4l-3.2,3.3c0.2,0.3,0.2,0.6,0.1,1c-0.2,0.4-0.5,0.6-0.9,0.6h-2c-0.5,0-1-0.4-1-1v-0.8c0-0.3,0-0.6,0-0.9
					c0-0.1,0-0.1,0-0.2s0-0.1,0-0.2c0-0.7-0.1-1.3-0.3-1.7l-1.2-1.2c-0.1,0-0.2,0-0.2,0c-0.6,0-1.1,0.5-1.8,1.2
					c-0.1,0.1-0.3,0.3-0.4,0.4c-0.1,0.2-0.1,0.3-0.1,0.5c0.1,0.5,0.6,1,1.1,1.6C32.4-66.1,32.6-65.9,32.8-65.6z M14.2-63
					c-0.3,0.1-0.6,0.1-0.9-0.1c-0.3-0.2-0.4-0.5-0.4-0.8v-2l0,0v-2c0-0.5,0.4-1,1-1h2c0.4,0,0.8,0.2,0.9,0.6
					c0.2,0.4,0.1,0.8-0.2,1.1l-1.3,1.3l3.2,3.3l0,0l2,2c0.4,0.4,0.4,1,0,1.4L19.2-58l1.3,1.3c0.2,0.2,0.3,0.6,0.3,0.9
					c-0.1,0.3-0.3,0.6-0.6,0.7c-0.4,0.1-0.7,0.2-1.1,0.2c-1.4,0-2.4-0.9-3.1-1.7c-0.2-0.2-0.4-0.4-0.7-0.6c-0.4-0.3-0.5-1-0.1-1.4
					c0.2-0.3,0.5-0.5,0.7-0.8c0.8-0.9,1.2-1.4,1.1-2c-0.2-0.2-0.4-0.3-0.5-0.5C15.6-62.7,15-63.3,14.2-63z M30.4-91.1
					c1.3,0.3,2.6,0.7,3.7,1.3c0.8,0,2,0.1,2,1.2c0,1.1-1.2,1.1-1.9,1.1c-0.3,0-0.5-0.1-0.6-0.2c0,0,0,0-0.1,0
					c-1.1,0-2.1,0.2-2.8,0.6c-0.3,1-0.9,1.7-1.9,2.1c-0.3,0.1-0.7,0.1-1-0.1s-0.4-0.6-0.3-1c0.2-0.9,0.7-1.6,1.5-2.2
					c0-0.3,0-0.5,0.1-0.8c0-0.1,0-0.1,0-0.2c-1.7-0.5-3.4-1.1-4.4-2.4l-3.1-1.6L21.5-92l0,0c0,0.2-0.1,0.4-0.3,0.6l0,0l0,0l0,0
					c-0.1,0.1-0.2,0.2-0.3,0.2l0,0l0,0c-0.2,0-0.3,0-0.5,0c-0.6,0-1.2-0.1-1.8-0.1c-1-0.1-2-0.1-2.8-0.1l-0.3,4.5
					c0,0.4-0.3,0.7-0.7,0.9c-0.4,0.1-0.8,0-1.1-0.3l-2.5-2.9c-0.3-0.3-0.3-0.8-0.1-1.2c0.7-1.2,1.7-2.1,2.9-2.5
					c0.2-0.4,0.5-0.6,1-0.6l4.6,0.3l0.1-1.8c0,0,0,0,0-0.1c0.1-0.5,0.5-0.9,1-0.9l0,0h0.2c0.3,0,0.6,0,0.8,0c0.3,0,0.5,0,0.8,0
					c0.9,0,1.3-0.2,1.6-0.7c0.2-0.3,0.5-0.5,0.8-0.5c0.1,0,0.2,0,0.4,0.1c0.5,0.2,0.7,0.7,0.6,1.1c-0.2,1.1-0.2,1.9,0.1,2.5
					L30.4-91.1z M59.5-47c0-0.3,0.1-0.6,0.3-0.8l2-2c0.2-0.2,0.4-0.3,0.7-0.3c0.2,0,0.4,0,0.5,0.1c0.4,0.2,0.6,0.7,0.4,1.2
					c-0.3,0.8,0.1,1.2,1.1,2.2c0.1,0.1,0.2,0.2,0.3,0.3c0.5-0.1,1.1-0.3,1.7-0.4c0.2-0.1,0.3-0.3,0.5-0.5c0.3-0.3,0.5-0.5,0.8-0.7
					c0.4-0.3,1-0.3,1.3,0.1l0.3,0.3c0.5-0.1,1-0.3,1.6-0.4c0.8-0.9,1.8-1.4,2.8-1.4c1.2,0,2.3,0.6,3.3,1.2c1.5,0.4,2.7,1.1,3.8,2.2
					c0.3,0.3,0.4,0.8,0.1,1.2s-0.7,0.6-1.1,0.4c-1.2-0.4-2.2-1-3.2-1.7l-0.5-0.1c-1.2-0.2-2.6-0.2-4.3,0.1c-0.3,0.4-0.5,0.8-0.8,1.4
					c-0.1,0.3-0.4,0.5-0.7,0.5c-0.3,0.1-0.6-0.1-0.9-0.3l-0.8-0.8c-0.4,0.1-0.7,0.2-1.1,0.3l-0.3,0.1c-0.7,0.5-1.8,1.1-3.1,0.8
					c-0.6,0.1-1.1,0.2-1.5,0.2C60.8-43.9,59.7-45,59.5-47z M93.3-58.4c-3.1,0-3.6-2.8-3.9-4.8c-0.2-1-0.3-1.8-0.6-2.4l-1.6-1.2
					c-0.2,0-0.3,0-0.6,0c-0.5,0-1-0.4-1-1c0-0.5,0.4-1,1-1c3.7,0,4.2,3.1,4.6,5.3l4.5,3.6c-0.6,0.2-1.1,0.3-1.6,0.4v0.1
					C94.3-58.8,93.8-58.4,93.3-58.4z M64-35.8c-0.2-0.3-0.3-0.8,0-1.1c0.1-0.2,0.3-0.4,0.4-0.6c1.1-1.6,1.7-2.6,0.8-4.1
					C65-42,65-42.5,65.4-42.8c0.2-0.2,0.4-0.3,0.7-0.3c0.2,0,0.4,0.1,0.6,0.2l1.7,1.3c0.3,0.2,0.4,0.6,0.4,0.9
					c-0.2,2.3-1.1,3.9-2.4,5c-0.1,0.1-0.2,0.1-0.3,0.2l-0.9,0.3C64.6-35.3,64.2-35.4,64-35.8z M104.8-81.2c0.5-0.1,1,0.1,1.2,0.6
					s0,1-0.5,1.2c-1.3,0.7-1.7,1.7-2.1,2.9c-0.1,0.4-0.3,0.7-0.4,1c0,0,0,0.1-0.1,0.1c0,0.1-0.1,0.1-0.2,0.2s-0.3,0.2-0.4,0.3h-0.1
					l-2.4,0.4l-1.8,5c-0.1,0.3-0.4,0.6-0.7,0.6c-0.9,1.3-2.1,2.3-3.7,3.1c-0.4,0.2-0.9,0.1-1.2-0.2l-2-2.3c-0.2-0.3-0.3-0.6-0.2-1
					c0.1-0.3,0.4-0.6,0.8-0.6l5.2-0.8c0.6-1,1-2.1,1.4-3.2c0.2-0.6,0.4-1.2,0.7-1.8c0-0.1,0.1-0.2,0.1-0.3l0,0l0,0l0,0l0,0l0,0l0,0
					l0,0l0,0l0,0l0,0l0,0l0,0l0,0l0,0l0,0l0,0l0,0l0,0l0,0l0,0l0,0l0,0l0,0l0,0l0,0l0,0l0,0l0,0l0,0l0,0l0,0l0,0l0,0l0,0l0,0l0,0
					l0,0l0,0l0,0l0,0l0,0l0,0l0,0l0,0l0,0l0,0l0,0l0,0l0,0l0,0l0,0l0,0l0,0l0,0l0,0l0,0l0,0l0,0l0,0l0,0l0,0l0,0l0,0l0,0l0,0l0,0
					l0,0l0,0l0,0l0,0l0,0l0,0l0,0l0,0l0,0l0,0l0,0l0,0l0,0l0,0l0,0l0,0l0,0l0,0l0,0l0,0c0.1-0.1,0.2-0.1,0.4-0.2l0,0l0,0l0,0l0,0
					l0,0l0,0l0,0l0,0l0,0l0,0l0,0l0,0l0,0l0,0l0,0l0,0l0,0l0,0l0,0l0,0l0,0l0,0l0,0l0,0l0,0l0,0l0,0l0,0l2.1-0.3l-0.3-3.1
					c-0.9-0.9-0.9-2.4-0.7-3.8c-0.3,0-0.6,0.1-0.8,0.2c-0.9,0.8-1.8,1.4-2.8,1.7c-0.4,0.1-0.9-0.1-1.1-0.4c-0.2-0.4-0.2-0.8,0.1-1.2
					c0.7-0.9,1.6-1.5,2.7-1.8c1-1.1,1.7-2.5,2.1-3.2c-0.1-0.2-0.1-0.5,0-0.7c0.4-0.8,0.7-1.5,1.4-1.5c0.3,0,0.7,0.2,0.8,0.5
					c0.2,0.4,0.3,0.7-0.2,1.9c0.2,1,0,2.3-0.2,3.5l0.4,3.8C103-80.8,103.8-80.9,104.8-81.2z M69.6-36.6l0.9-5.2
					c0.1-0.3,0.3-0.6,0.6-0.8c0.1,0,0.2-0.1,0.4-0.1c0.2,0,0.4,0.1,0.6,0.2c2.7,2.1,0.6,5.1-0.6,6.6l-1.6,8.7
					c-0.1,0.3-0.3,0.6-0.5,0.7c-0.3,0.1-0.6,0.1-0.9,0c-1.5-0.7-2.3-1.7-2.6-2.9c-0.4-2.2,1.3-4.3,3-6.4
					C69.1-36.1,69.3-36.3,69.6-36.6z M81.5-96.9c0.6,0,0.8,0.4,1,0.8c0,0.1,0.1,0.2,0.1,0.3c1.3,2.9,2.1,5.6,2.2,7.7
					c0.5,2.4-0.2,4.2-2.2,5.4l0,0c-0.5,0.3-1.1,0.1-1.3-0.3c-0.1-0.2-0.1-0.3-0.1-0.5c0-0.3,0.2-0.7,0.5-0.9c0,0,0.1,0,0.1-0.1
					c0.4-0.3,1.3-1,1.1-3.3c-0.2-0.9-0.6-1.8-1-2.7c-0.6-1.6-1.3-3.2-1.3-4.8c-0.1-0.3-0.2-0.7,0-1.1C80.9-96.7,81.2-96.9,81.5-96.9
					z M91.4-76.3c-0.2,0.4-0.7,0.6-1.1,0.5c-6-1.4-10.1-3-12.1-3.8c-0.3,0.1-0.6,0-0.9-0.1c-0.5-0.4-1.1-0.8-0.9-1.5
					c0.1-0.4,0.5-0.7,1-0.7c0.2,0,0.4,0,0.8,0.2c0.7-0.2,1.3-0.4,2-0.4c2,0,3.5,1.1,4.6,2c0.5,0.4,1.1,0.8,1.4,0.8
					c0,0,0.3-0.1,0.9-1.4c0.2-0.5,0.7-0.7,1.2-0.6s0.8,0.6,0.7,1.1c-0.1,0.8,0.3,1.2,1.4,2c0.3,0.2,0.6,0.4,0.8,0.6
					C91.5-77.2,91.6-76.7,91.4-76.3z M87.7-90.6c0.1,0,0.2-0.1,0.3-0.1c0.4,0,0.8,0.3,0.9,0.7l2,5.9c0.2,0.5-0.1,1-0.6,1.2
					c-0.5,0.2-1,0-1.3-0.5l-1.4-2.7l-1,1c-0.4,0.4-1,0.4-1.4,0s-0.4-1-0.1-1.4c0.2-0.3,0.5-0.5,0.7-0.8c1-1,1.3-1.5,1.1-2.2
					C86.9-89.8,87.1-90.4,87.7-90.6z M81.4-87c0,0.3-0.2,0.5-0.4,0.7l-1,0.8c-0.2,0.1-0.4,0.2-0.6,0.2l-2,0.1
					c-0.3,0-0.5-0.1-0.7-0.3s-0.3-0.4-0.3-0.7l-0.1-2c0-0.5,0.4-1,0.9-1l2-0.1l0,0c0.3,0,0.6,0.1,0.7,0.3l1.1,1.2
					C81.3-87.5,81.4-87.3,81.4-87z M78.4-76c0.1,0,0.3-0.1,0.4-0.1s0.3,0,0.4,0c1.5-0.2,2.8-0.6,3.2-0.7c0.3-0.1,0.4-0.2,0.6-0.2
					c0.5,0,0.9,0.4,1,0.8c0.1,0.7-0.3,0.9-0.7,1.1l0,0h-0.1c-0.1,0-0.1,0.1-0.2,0.1h-0.1v2.1c0,0.5-0.3,0.9-0.8,1l-2.9,0.5
					c-0.3,0.1-0.6,0-0.8-0.2s-0.3-0.5-0.3-0.8V-74c-2.3,0.3-4.3-0.4-6.1-1c-0.5-0.2-1.1-0.4-1.6-0.5s-0.8-0.7-0.7-1.2
					c0.1-0.5,0.6-0.8,1.1-0.8l1.4,0.3c-0.1-0.6-0.1-1.3,0.1-2c-0.6-0.4-1-0.8-0.8-1.4c0.1-0.4,0.5-0.7,1-0.7c0.7,0,2.9,1.4,3.6,3
					c0.4,0.8,0.4,1.6,0.1,2.3C76.7-75.9,77.6-75.9,78.4-76z M36.7-88.3c0.1-0.2,0.4-0.4,0.6-0.4l0.4-0.1c2-1.5,3.8-2.7,5.2-3.6
					c0.6-0.4,1.2-0.8,1.9-1.1c0.1-0.1,0.3-0.1,0.4-0.1c0.4,0,0.7,0.2,0.9,0.5c0.2,0.5,0.1,1-0.4,1.3c-0.5,0.3-1,0.6-1.6,1
					c-0.8,0.6-1.3,1.3-1.8,2.1c-0.2,0.3-0.5,0.7-0.7,1c-0.1,0.2-0.4,0.3-0.6,0.4l-2.5,0.4l-0.8,0.6l-3.1,4.4
					c-0.1,0.2-0.4,0.4-0.6,0.4L31.1-81l-1.6,2.3c-0.3,0.3-0.6,0.5-0.9,0.5s-0.6-0.1-0.8-0.4l-0.1-0.2c-0.5,0.2-1.1-0.1-1.3-0.6
					c-0.3-0.7,0.1-1,0.8-1.6c0.1-0.1,0.3-0.2,0.5-0.2c0.4-0.3,1-0.8,1.7-1.3c1.8-1.4,4.3-3.3,6.8-5.2L36.7-88.3z M12.9-115.8
					c0.1-0.3,0.2-0.5,0.5-0.6c0.5-0.3,0.7-0.3,1-0.3c0.4,0,0.8,0.3,0.9,0.7c0.1,0.2,0.1,0.4,0,0.5l0.5,0.4c0.3,0.2,0.4,0.6,0.3,1
					c-0.1,0.4-0.4,0.7-0.8,0.7l-2,0.3v1.9c0,0.5-0.3,0.9-0.8,1l-4.6,0.8l-0.1,0.2v1.8c0,0.5-0.3,0.8-0.7,1c-0.3,0.1-0.7,0.2-1.1,0.2
					c-0.7,0.1-1.4,0.3-1.9,0.6c-0.3,0.3-0.5,0.6-0.7,0.9c-0.3,0.4-0.9,0.5-1.3,0.3c-0.4-0.3-0.6-0.8-0.4-1.3c0.3-0.6,0.6-1,1.1-1.4
					c0.8-0.9,1.8-1.9,3-3v-0.1c0-0.5,0.3-0.9,0.8-1l0.5-0.1c1.7-1.5,3.5-2.8,4.8-3.8C12.3-115.4,12.6-115.6,12.9-115.8z M20.3-98.5
					c-0.5-0.2-1.1-0.3-1.7-0.4c-2.2-0.5-5-1.1-5.9-3.5c-0.4-0.4-0.7-0.9-0.9-1.4l-0.9,0.2c-0.4,0.1-0.8-0.1-1-0.5
					c-0.2-0.4-0.2-0.8,0.1-1.1l1.4-1.6c0.2-0.2,0.5-0.3,0.7-0.3c0.1,0,0.2,0,0.3,0c0.4,0.1,0.6,0.4,0.7,0.8c0,0.1,0,0.2,0.1,0.3h0.2
					c0.3-0.1,0.6,0.1,0.9,0.3c0.2,0.2,0.3,0.6,0.3,0.9c-0.1,0.6-0.1,1.1,0,1.5c1.3,1.2,3.3,1.4,5.7,0.3c0.3-0.1,0.7-0.1,0.9,0.1
					c0.3,0.2,0.4,0.5,0.4,0.8v2.8c0,0.3-0.1,0.6-0.4,0.8C20.9-98.3,20.6-98.4,20.3-98.5z M17.5-104.3c-0.3,0.3-0.8,0.3-1.2,0
					c-1.4-1-2.6-5.4-2.3-6.4c0.1-0.4,0.6-0.8,1-0.8c0.6,0,1,0.5,1.3,1.1l1.2,0.1l0.1-1.7c0-1,0-2,0.1-3.1c0.1-0.5,0.5-0.8,1-0.8h0.1
					c0.5,0.1,0.9,0.5,0.9,1l-0.1,2.9v0.4C19.6-109,19.7-106.1,17.5-104.3z M2.7-117.4c0.7-0.1,1-0.4,1.1-1.1
					c0.1-0.3,0.3-0.6,0.6-0.8c0.3-0.1,0.7-0.1,1,0.2l2.8,2.3c0.3,0.2,0.4,0.6,0.3,1c-0.1,0.4-0.4,0.7-0.8,0.7
					c-1,0.2-2.4,0.1-3.6-0.1c-0.5-0.1-1-0.1-1.5-0.2c-0.4,0.1-0.9,0.1-1.4,0c-0.4,0.1-0.8,0.2-1.2,0.4v-2.6c0.4,0.1,0.8,0.2,1.1,0.2
					C1.8-117.5,2.2-117.5,2.7-117.4z M12.1-61.4C11-62,9.9-62.5,8.7-62.7c-2.7,1.3-5.9,1.4-8.5,1.4v-2.5c2.5-0.8,5.5-1.4,8.2-1
					c0.3-0.2,0.5-0.4,0.8-0.6c0.2-0.1,0.4-0.2,0.6-0.2c0.2,0,0.4,0.1,0.6,0.2l2.8,2.3c0.4,0.3,0.5,0.9,0.2,1.3
					C13.1-61.3,12.5-61.2,12.1-61.4z M25.3-66L23-66.2c-0.2,0.5-0.3,1.1-0.4,1.5c-0.1,0.5-0.2,1.3-1.1,1.3s-1-0.3-1.3-2.6L19-66.6
					c-0.4-0.2-0.6-0.7-0.5-1.2s0.6-0.8,1-0.7l2.4,0.2c0.5-0.5,1.1-0.6,1.5-0.6c0.8,0,1.6,0.4,2.5,1.1c0.3,0.3,0.4,0.7,0.3,1.1
					C26.1-66.2,25.7-65.9,25.3-66z M59.3-72.8l4.6-4.3l0.1-2.8c0-0.3,0.2-0.6,0.4-0.8c0.2-0.1,0.4-0.2,0.5-0.2s0.2,0,0.3,0.1
					l1.2,0.5c0.3,0.1,0.5,0.3,0.6,0.6c0.1,0.3,0.1,0.5,0,0.8l-1.3,2.7c0,0,0,0,0,0.1l-1.3,2.7c-0.2,0.3-0.5,0.6-0.9,0.6
					c-0.3,0-0.6-0.1-0.8-0.3c-0.4,0.2-1,0.8-1.4,1.1c-0.3,0.2-0.5,0.5-0.8,0.7c-1,1.6-1,2.8-1.1,4.2c0,0.4,0,0.8-0.1,1.2
					c0,0.3-0.2,0.5-0.4,0.7c-0.3,0.2-0.6,0.5-0.8,0.7c-1,0.9-1.9,1.7-2.9,1.7c-0.6,0-1.1-0.3-1.4-0.9c-0.2-0.4-0.1-0.9,0.2-1.2
					l2.2-2l0.1-2.8c0-0.3,0.1-0.5,0.3-0.7L59.3-72.8C59.3-72.7,59.3-72.8,59.3-72.8z M34.2-50.4c-0.2-0.2-0.3-0.5-0.2-0.8
					c0-0.3,0.2-0.5,0.4-0.7l5.9-4c0.2-0.1,0.4-0.2,0.5-0.2c0.3,0,0.5,0.1,0.7,0.3c0.3,0.3,0.4,0.9,0.1,1.3c-0.5,0.8-1.2,1.4-1.9,2
					c-1.3,1.1-2.1,1.8-1.9,2.9c0.2,0.2,0.4,0.3,0.5,0.5c0.1,0.1,0.2,0.2,0.3,0.3c1-0.3,1.9-0.4,2.8-0.4c0.5-0.6,0.6-1,0.4-1.5
					c-0.1-0.4,0-0.8,0.3-1.1s0.8-0.3,1.1-0.1c1.3,0.8,2.3,2,3.2,3.2c0.8,1,1.6,2,2.5,2.5l0.4,0.2c0.9,0.4,1.7,0.4,2.8-0.1
					c0.4-0.2,0.8-0.1,1.1,0.2l2,2c0.3,0.3,0.4,0.7,0.2,1.1s-0.6,0.6-1,0.6c-2.6-0.3-4.5-1.2-6-2.1c-0.2-0.1-0.4-0.2-0.5-0.3L47-45.2
					c-1.6-1-3-1.9-4.7-2.1l0,0c-0.2,0.2-0.4,0.4-0.6,0.7c-0.1,0.1-0.3,0.2-0.4,0.3c-1.1,0.4-2.2,0-2.9-0.4c-0.3,0.1-0.6,0.2-0.9,0.4
					c-0.4,0.2-0.8,0.1-1.1-0.2s-0.4-0.7-0.3-1c0.3-0.8-0.1-1.2-1.1-2.2C34.6-49.8,34.4-50.1,34.2-50.4z M0.2-95.3v-1.2l0,0
					C0.5-96.1,0.5-95.6,0.2-95.3z M56.2-79.7c0.1,0,0.2-0.1,0.3-0.1c0.2,0,0.5,0.1,0.6,0.2c0.3,0.2,0.4,0.6,0.3,0.9
					c-0.6,2.7-2.2,3.6-3.6,4.4c-0.5,0.2-0.9,0.5-1.2,0.8c-0.3,0.7-0.7,1.4-1,2.2c0.1,0.1,0.2,0.2,0.4,0.4c0.8,0.8,1.4,1.4,2.2,1.1
					c0.4-0.1,0.9,0,1.1,0.4c0.2,0.4,0.2,0.9-0.1,1.2l-2,2c-0.3,0.3-0.8,0.4-1.2,0.1c-0.4-0.2-0.6-0.7-0.4-1.2c0.2-0.7-0.1-1.2-0.9-2
					c-1.2,2.6-2.7,5.1-5.5,6.5l2,1c1.1,0.3,2.3,0.7,3.2,1.4l0,0c0.2-0.2,0.3-0.3,0.5-0.5l0.6-2.3c0.1-0.4,0.5-0.7,0.9-0.7
					c0.5,0,0.8,0.3,1,0.7c0.5,1.5-0.1,2.5-0.7,3.3l-0.8,3.2c-0.1,0.6-0.2,1.3-0.5,2.1c-0.2,0.5-0.7,0.8-1.2,0.6
					c-0.5-0.2-0.8-0.7-0.7-1.2l0.5-1.9c0-0.6-0.1-0.9-0.2-1.1l-3.3-1.7c0,0,0,0-0.1,0c-1.7-0.5-3.5-1-4.6-2.4c0,0,0,0,0-0.1l0,0
					c-0.1-0.1-0.1-0.2-0.1-0.3l0,0c0-0.1,0-0.2,0-0.3c0-0.2,0.1-0.3,0.1-0.5l0,0c0-0.1,0.1-0.1,0.1-0.2l0,0l0,0l7.4-7.4l0.2-0.5
					c0.1-1.3,0.6-2.3,1.4-3.1C52-76.5,53.4-78.7,56.2-79.7z M43.5-58.9c0.2-0.1,0.4-0.2,0.5-0.2c0.3,0,0.6,0.1,0.7,0.3l6,7.1
					c0.3,0.4,0.3,0.9,0,1.2l-0.8,1c-0.2,0.2-0.4,0.4-0.7,0.4s-0.5-0.1-0.7-0.2L44-53.4c-0.4-0.3-0.4-0.9-0.1-1.3l0.4-0.5l-1.1-2.5
					C43-58.1,43.1-58.7,43.5-58.9z M20-75.8c0.1,0,0.2,0,0.2,0c0.3,0,0.7,0.2,0.9,0.5c0.2,0.4,0.2,0.9-0.2,1.2l-3.9,4
					c-0.3,0.3-0.8,0.4-1.1,0.2l-3.9-2c-0.4-0.2-0.6-0.6-0.5-1c0-0.4,0.3-0.8,0.7-0.9L20-75.8z M0.2-65.4v-5l1.4-0.8
					c0.2-0.1,0.3-0.1,0.5-0.1c0.3,0,0.5,0.1,0.7,0.3c0.3,0.3,0.4,0.8,0.1,1.2L0.2-65.4z M6.5-76.8c0,0.5-0.2,0.9-0.7,1l-2.1,0.7
					c-0.2,0.1-0.4,0.1-0.6,0c-0.2,0.1-0.5,0.1-0.7,0l-2.2-1V-80l1.1,0.1c0.5,0.1,0.9,0.5,0.9,1v0.4l0.4,0.6l3,0.3
					C6.1-77.6,6.4-77.3,6.5-76.8z M1.2-94.4c1.4-0.2,2.2-0.4,2.4-0.4c0,0,0,0,0.1,0s0.2,0,0.2,0c0.5,0,0.9,0.4,1,0.9
					c0,0.5-0.4,1-0.9,1.1c-0.2,0-0.9,0.2-1.7,0.5v4.5c0,0.4-0.2,0.7-0.6,0.9c-0.3,0.2-0.7,0.1-1-0.1c-0.2-0.1-0.3-0.3-0.5-0.4v-6
					c0.1,0,0.1-0.1,0.2-0.1C0.5-94.1,0.8-94.4,1.2-94.4z M5-83.4c0.3,0.5,0.2,1.1-0.3,1.4c-0.2,0.2-0.5,0.3-0.7,0.4
					c-1.4,0.8-2.5,1.2-3.5,1.2c-0.1,0-0.2,0-0.3,0V-83C1-82.6,2-82.7,3.1-83.3c0.2-0.1,0.4-0.2,0.6-0.3C4.1-84,4.7-83.9,5-83.4z
					 M10.1-99.3c0.1,0,0.2-0.1,0.3-0.1c0.2,0,0.4,0.1,0.6,0.2l2.8,2.3c0.3,0.2,0.4,0.6,0.3,1c-0.1,0.4-0.4,0.7-0.8,0.7l-2,0.4
					c0,0.1,0,0.1,0,0.2c0,1.3,0,3-1.8,4.2c-0.3,0.2-0.8,0.2-1.1,0c-0.3-0.2-0.5-0.6-0.4-1l1.4-7.1C9.6-98.9,9.8-99.2,10.1-99.3z
					 M13.9-84.1c0.2-0.1,0.4-0.2,0.6-0.2c0.2,0,0.3,0,0.5,0.1l1.6,0.9c0.3,0.2,0.5,0.4,0.5,0.8c0,0.3-0.1,0.6-0.3,0.8
					C16-81,16.1-80.3,16.2-79c0,0.4,0.1,0.7,0.1,1.1s-0.3,0.9-0.7,1l-2.4,0.8c-0.5,0.5-1.3,0.9-2.2,1l0.2,1.6
					c0.1,0.5-0.2,0.9-0.7,1.1l-1.9,0.6c-0.3,0.1-0.6,0.1-0.8-0.1c-0.1,0-0.1-0.1-0.2-0.1L6-67.3c-0.1,0.6-0.3,1.1-0.5,1.6
					S4.7-65,4.2-65.2s-0.7-0.7-0.6-1.2l0.5-1.4c0.2-0.8,0.2-1.7,0.2-2.5c0.1-2.1,0.1-4.4,2.6-5.8l0.4-1.2c0.1-0.3,0.3-0.5,0.6-0.6
					C8.2-78,8.5-78,8.7-77.8l1.2,0.6l2-0.7c0.3-0.6,0.4-1.4,0.5-2.3c0.1-0.9,0.2-2,0.7-2.9c-0.3,0.1-0.5,0-0.8-0.1l-1.1-0.7
					c-1.5-1-3-1.9-4.4-2.5l0,0l-0.1,0.1c0.1,0.1,0.2,0.2,0.3,0.4c1.4,1.7,2.5,3.2,2.3,4.5c-0.1,0.4-0.3,0.9-1,1.2
					C7.8-80,7.2-80.1,7-80.6l-3.4-6.6l0,0c-0.1-0.2-0.1-0.5-0.1-0.7V-88l0,0l0,0c0.1-0.2,0.2-0.3,0.4-0.5c0,0,0.1,0,0.1-0.1
					c0.1,0,0.2-0.1,0.3-0.1c0.3,0,0.5-0.1,0.8,0c0.1-0.2,0.1-0.4,0.3-0.5c0.2-0.3,0.6-0.4,1-0.4c0.8,0,1.9,0.4,7,5
					C13.8-84.6,13.9-84.3,13.9-84.1z M3.9-101.9c0.9,0,2-0.3,3.2-0.8c0.5-0.2,1.1,0,1.3,0.5s0,1.1-0.5,1.3c-0.7,0.4-1.3,0.8-1.6,1.2
					c0.3,0.9,0.4,1.9,0.2,3.1c0.3,0.4,0.5,0.8,0.3,1.3c-0.2,0.4-0.5,0.6-0.9,0.6c-0.5,0-0.8-0.3-1.2-1c-0.1-0.1-0.1-0.2-0.2-0.3
					c-0.6-1.2-0.8-2.5-0.5-3.6c-0.1-0.1-0.3-0.3-0.5-0.4c-0.5,0-1-0.1-1.5-0.2c-0.5,0-1.2,0.1-1.8,0.3v-3.9c0.7,0.8,1.3,1.3,2.1,1.6
					C2.9-102.1,3.4-102.1,3.9-101.9z M2.6-108.7c0,0.9-0.6,1.2-2.4,1.3v-2.3c0.4,0,0.7-0.1,1-0.1C2.4-109.7,2.6-109,2.6-108.7z
					 M118.7-71.5c0.2-0.2,0.5-0.3,0.7-0.3c0.4-0.4,0.8-0.9,1.1-1.5c0.2-0.3,0.5-0.5,0.9-0.5c0.1,0,0.2,0,0.3,0
					c0.4,0.1,0.7,0.5,0.7,1v4c0,0.4-0.2,0.8-0.6,0.9c-0.4,0.2-0.8,0.1-1.1-0.2l-1.2-1.2c-0.2,0.1-0.4,0.2-0.5,0.3l-0.8,0.9
					c-0.1,0.1-0.2,0.2-0.4,0.2c-1,0.3-1.9,0.2-2.9-0.4c-0.6-0.1-1.3-0.3-1.9-0.5h-0.1l-0.7,0.7c-0.3,0.3-0.7,0.4-1.1,0.2l0,0
					c-0.5,0.4-1,0.7-1.7,1.1c0,0.4,0,0.9,0.2,1.5c0.1,0.4-0.1,0.9-0.4,1.1c-0.4,0.2-0.8,0.2-1.2-0.1c-0.5-0.5-1.2-0.7-2-0.7
					c-0.2,0-0.4,0-0.6,0l-0.7,0.2l-2.7,0.5c-0.7,0.2-1.3,0.3-1.8,0.4l-0.3,2c-0.1,0.5-0.5,0.9-1,0.8c-0.5,0-0.9-0.5-0.9-1v-2.8l0,0
					c0-0.1,0-0.1,0-0.2l1.4-7.1c0.1-0.5,0.6-0.9,1.1-0.8s0.9,0.6,0.8,1.1l-0.8,5.7l1.6-0.3c1-0.2,2-0.5,2.9-0.6
					c0.1,0,0.3-0.1,0.4-0.2c0,0-0.1,0-0.1-0.1c-2.6-1.7-1.3-4.3-0.4-6.2c1.1-2.3,1.3-3.1,0.4-3.7c-0.4-0.3-0.5-0.8-0.3-1.2
					c0.2-0.3,0.5-0.5,0.9-0.5c0.1,0,0.2,0,0.3,0.1c1.5,0.5,2.5,0.8,3.3,0.2c0.3-0.3,0.8-0.3,1.2-0.1c0.4,0.3,0.5,0.7,0.4,1.1
					c-0.6,1.7-1.8,3.1-2.9,4.4c-1.9,2.2-2.6,3.3-1.6,4.5c0.2,0.3,0.3,0.7,0.2,1c0.4-0.2,0.8-0.4,1.2-0.6c0.5-1.2,1.6-1.8,2.7-2.1
					v-0.6c0-0.4,0.2-0.7,0.5-0.9c0.2-0.1,0.5-0.1,0.8,0c0.1-0.3,0.2-0.6,0.1-0.9c0-0.3,0.1-0.5,0.2-0.7c0.2-0.2,0.4-0.3,0.7-0.3
					c0.3,0,0.6-0.1,0.9-0.1c0.5-0.1,1.1-0.2,1.6-0.2c1.2,0,2.1,0.5,2.7,1.4c0.2,0.3,0.2,0.7,0,1c-0.3,0.4-0.6,0.8-1,1.1
					c0.2-0.1,0.5-0.1,0.7-0.2L118.7-71.5z M0.2-2.6c0.2,0.1,0.4,0.2,0.5,0.4l0.6,1.1c0.1,0.2,0.2,0.5,0.1,0.8c0,0,0,0,0,0.1H0.2
					V-2.6z M7.7-28.1c-0.2,0.6-0.4,1.2-0.6,1.8l0,0c-0.2,2.1-0.1,2.9,0.8,3.2c0.4,0.2,0.7,0.6,0.6,1s-0.3,0.9-0.7,0.9l-1.9,0.3
					c-0.1,0.4-0.1,0.9-0.1,1.2v0.7c0,0.5-0.4,1-1,1s-1-0.4-1-0.9c0-0.2,0-0.5,0-0.8v-2c0-0.3,0.1-0.6,0.4-0.8c0.2-1.2,0.6-2.7,1-4.1
					c0.1-0.8,0.1-1.4,0-2c0-0.3,0-0.5,0.2-0.7c0.1-0.2,0.4-0.4,0.6-0.4h0.3c0.1-0.3,0.3-0.7,0.4-1s0.3-0.5,0.6-0.6
					c0.8-0.3,1.5-0.4,2.1-0.4l0,0c1,0,1.9,0.3,2.5,1c0.2,0,0.3,0.1,0.5,0.2c0.2,0.2,0.4,0.4,0.4,0.7c0,0.3,0.1,0.7,0.1,1
					c0.3,1.2,0.3,2.7,0.3,4.1c0,1.3,0,2.5,0.2,3.2c0.1,0.2,0.3,0.3,0.4,0.4c0.4,0.3,0.5,0.8,0.3,1.3c-0.2,0.4-0.7,0.7-1.2,0.5
					c-0.4-0.1-0.9-0.4-1.3-1.1c-1.2-1.6-1-3.9-0.9-6c0.1-0.7,0.1-1.4,0.1-2.1l0,0L7.7-28.1z M2.6-8.2l-2,0.3c-0.1,0-0.3,0-0.4,0
					v-5.7C0.3-13.8,0.5-14,0.8-14c0.3-0.1,0.6,0,0.8,0.2l1.1,0.9l2.1-0.4c0.4-0.5,0.6-1.3,0.9-2.2c0.3-1.2,0.7-2.6,1.7-3.6
					c0.2-0.2,0.4-0.3,0.7-0.3c0.2,0,0.4,0.1,0.6,0.2l1.4,1.1c0.2,0.2,0.4,0.5,0.4,0.8s-0.2,0.6-0.4,0.8c-0.9,0.6-1,1.3-1,2.6
					c0,0.4,0,0.7,0,1.1c0,0.4-0.4,0.8-0.8,0.9l-2.5,0.4c-0.6,0.4-1.4,0.7-2.3,0.7v1.6C3.4-8.7,3.1-8.3,2.6-8.2z M46.2-136.1
					c0,0.1,0,0.1-0.1,0.2c0,0.1,0.1,0.2,0.1,0.4c0,0.2-0.1,0.3-0.2,0.5c0.4,0.1,0.7,0.4,0.7,0.8l0.1,1.3c0.6,0,1-0.1,1.4-0.1
					l0.3-0.1c0.5-0.1,1.1,0.1,1.2,0.7c0.2,0.5-0.1,1.1-0.6,1.2c-0.1,0-0.2,0.1-0.4,0.1l-2.4,0.7c-0.3,0.1-0.6,0-0.8-0.1
					c-0.2-0.1-0.3-0.2-0.3-0.4c-0.3,0-0.5,0-0.8,0H44c-0.4,0.1-0.8,0.1-1.3,0.2c-0.9,0.2-1.9,0.8-2.4,3c-0.1,0.3-0.4,0.6-0.7,0.7
					s-0.7,0-1-0.3l-5.1-5.2l-0.2-0.1c-0.6-0.2-1.3-0.3-1.9-0.5c-0.8,0.3-1.4,0.6-1.6,1.4c-0.1,0.4-0.6,0.7-1,0.7
					c-0.5-0.1-0.8-0.4-0.9-0.9l-0.3-2.7c0-0.3,0.1-0.6,0.3-0.8c0.2-0.2,0.4-0.3,0.7-0.3c0.1,0,0.1,0,0.2,0c0.8,0.1,1.7,0.3,2.6,0.6
					l0.2-0.1c0.3-0.1,0.6-0.2,0.9-0.3c0.4-0.1,0.8-0.1,1.1,0.2l1,1c2.9,0.8,5.7,1.5,7.9,1.5c0.4-0.1,0.8-0.1,1.3-0.2
					c0.6-0.2,0.9-0.5,1-0.9l-0.9,0.7c-0.2,0.2-0.5,0.2-0.7,0.2c-0.3,0-0.5-0.2-0.7-0.4c-1.4-1.7-2-3.4-2.7-5
					c-0.5-1.2-0.9-2.3-1.6-3.4l-0.1-0.2c0,0.3-0.1,0.6-0.4,0.8c-0.3,0.2-0.8,0.3-1.1,0l-1.7-1.1h6.2l4.8,5.3
					C46.1-136.7,46.2-136.4,46.2-136.1z M63.3-125.5c-0.4,0.4-1,0.4-1.4,0.1l-7.2-6c-0.4-0.3-0.5-1-0.1-1.4c0.2-0.2,0.5-0.4,0.8-0.4
					c0.2,0,0.4,0.1,0.6,0.2l0,0l0,0c1.5,1.2,2.7,1.4,4.1,1.7c0.4,0.1,0.8,0.1,1.2,0.2c0.5,0.1,0.9,0.6,0.8,1.1
					c-0.1,0.5-0.6,0.9-1.1,0.8h-0.1l2.3,2.2C63.6-126.5,63.6-125.9,63.3-125.5z M47.3-30.8h-2c-0.1,0-0.2,0-0.3-0.1l-5.9-2
					c-0.5-0.2-0.7-0.6-0.7-1.1c0.1-0.5,0.5-0.8,1-0.8h7.9c0.5,0,1,0.4,1,1v2C48.3-31.3,47.8-30.8,47.3-30.8z M22.3-25.3
					c0.2-0.3,0.5-0.5,0.8-0.5c0.1,0,0.2,0,0.3,0.1c0.6,0.2,1.2,0.4,1.7,0.6c2,0.6,4.1,1.3,5.8,2.9l0.7-0.7c0.2-0.5,0.3-1.1,0.3-1.7
					c0-0.5,0.5-1,1-0.9c0.5,0,1,0.5,0.9,1.1c0,0.2,0,0.7,0,1.7c0,0.3-0.1,0.5-0.3,0.7l-0.3,0.3c-0.2,0.5-0.5,0.9-0.7,1.2
					c0.4,0.4,0.8,0.8,1.1,1.2l3.8,3.9c0,0,0.1,0.1,0.1,0.2l0,0l0,0c0.1,0.1,0.1,0.3,0.2,0.4c0,0.1,0,0.2,0,0.4c0,0.1,0,0.2-0.1,0.2
					c-0.3,0.6-0.7,1.1-1.2,1.5c0.5,0.4,0.9,0.9,1.2,1.5c0.2,0.4,0.1,1-0.3,1.2c-0.2,0.2-0.8,0.1-1.1-0.2l-1.4-1.4
					c-0.3-0.1-0.8-0.2-1.3-0.3c-0.3,0-0.6,0-0.8,0H31c-0.5,0-1-0.4-1-1c0-0.5,0.4-1,1-1h1.7c0.3,0,0.6,0,0.8,0
					c0.5,0,0.9-0.1,1.3-0.3l0.7-0.7c-0.9-0.8-1.7-1.7-2.5-2.6l-2.5-2.6c-1-0.9-2-1.5-3-1.7c-0.1,0.1-0.2,0.2-0.3,0.3
					c-0.7,0.7-1.1,1.2-1.1,1.7c0.2,0.3,0.4,0.6,0.6,0.8c0.9,0.8,1.4,1.2,2.1,1c0.5-0.2,1,0.1,1.2,0.6s0,1-0.5,1.3
					c-0.7,0.4-1.1,0.9-1.3,1.8c0.1,1.1,0.1,2.2-0.1,3.4c-0.1,0.5-0.5,0.9-1,0.8c-0.5,0-0.9-0.5-0.9-1v-0.8c0-0.8,0-1.7,0.1-2.6
					c-0.1-1.2-0.5-2.3-1.1-3.2c-0.2-0.2-0.4-0.4-0.6-0.6c-0.3,0.1-0.4,0-0.4-0.2c0-0.1,0-0.1-0.1-0.2c-0.4-0.4-0.9-0.9-1.5-1.2
					c-0.3-0.3-0.4-0.5-0.4-0.8s0.1-0.6,0.3-0.8l1.3-1.3l-1.3-1.3C22.1-24.4,22.1-24.9,22.3-25.3z M37.2-18.2c0-0.3,0.2-0.5,0.3-0.7
					c0.2-0.2,0.5-0.3,0.8-0.3c0.2,0,0.4,0,0.8,0.2l0.8-0.8L38.7-21c-0.7-0.6-1.5-1.4-2.1-2.2c-0.3-0.4-0.3-1,0.1-1.3
					c0.2-0.2,0.4-0.2,0.6-0.2c0.3,0,0.5,0.1,0.7,0.3l2,2l0.3,0.3c1.9,1.6,4,3.5,3.9,6.4c0,0.4-0.3,0.8-0.8,0.9
					c-0.2,0-0.3,0.1-0.5,0.1C41.7-14.9,37.2-16.7,37.2-18.2z M25.1-49.3c-0.3,0.2-0.8,0.2-1.1,0l-1.5-1l-1,1.5
					c-0.1,0.2-0.4,0.4-0.6,0.4c-0.3,0-0.5,0-0.7-0.2l-3.7-2.6l-1.1,1.4c-0.3,0.4-0.9,0.5-1.3,0.3c-0.3-0.2-0.6-0.4-0.9-0.6
					c-0.6-0.4-1.1-0.7-1.6-0.8c-0.4,0.1-0.7,0.1-1,0.2c-0.5,0.1-1-0.1-1.2-0.6s0-1,0.4-1.3c0.5-0.3,1-0.4,1.5-0.4h0.1
					c1-0.2,2.3-0.3,3.8-0.3l0,0c0.1-0.2,0.4-0.4,0.6-0.4c0.1,0,0.1,0,0.2,0c0.2,0,0.4,0.1,0.6,0.2l0.4,0.3c2.1,0,4,0.1,5.5,0.2
					c0.4,0,0.7,0,1,0.1c0.2-0.2,0.6-0.2,0.8-0.2c0.4,0.1,1.4,0.4,1.2,1.3c0,0.2-0.1,0.4-0.3,0.6l0.1,0.8
					C25.6-49.9,25.5-49.5,25.1-49.3z M51.7-27.9c0.4,0,0.7,0,1.1,0l0,0c0.2,0,0.4,0.2,0.6,0.3l0.1,0.1l0,0l0,0
					c0.1,0.2,0.2,0.4,0.1,0.6l-1,6.7c0,0.3-0.2,0.6-0.5,0.7s-0.6,0.2-0.9,0c-0.8-0.3-1.1-0.9-1.3-1.3c-0.5-1.2,0.2-2.7,0.9-4.2
					c0.1-0.1,0.1-0.2,0.2-0.4c-0.2-0.1-0.3-0.2-0.5-0.3c-1.1,0.5-2.3,1.5-3.4,2.5l-0.8,0.7c-0.4,0.3-0.9,0.3-1.3-0.1
					c-0.4-0.3-0.4-0.9-0.1-1.3c3.3-4.3,4.5-5.1,5.4-5.1C51.1-28.9,51.5-28.4,51.7-27.9z M35-32.6c0.2-0.3,0.5-0.4,0.8-0.4
					c0.2,0,0.3,0,0.5,0.1c0.4,0.2,0.6,0.8,0.5,1.2L35.5-28c0.2,0,0.3,0.1,0.5,0.1l6.8-1.1c0.2,0,0.3,0,0.5,0c2.1,0.8,1.3,3,0.9,4.2
					c-0.1,0.3-0.2,0.6-0.3,0.9s-0.2,0.5-0.5,0.6c-0.2,0.1-0.5,0.1-0.8,0.1c-1.6-0.6-1.5-1.9-1.3-3.1c-2,0.7-3.5,0.8-5.4,0.4
					l-1.8,0.3c-0.3,0.1-0.7-0.1-0.9-0.3C33-26.1,33-26.4,33-26.6c-0.1,0-0.2,0-0.2-0.1c-0.3-0.1-0.6-0.3-0.7-0.6
					C32-27.6,32-28,32.2-28.2L35-32.6z M96.3-138c-0.1-0.5,0.2-1.1,0.8-1.2c0.1,0,0.1,0,0.2,0c0.5,0,0.9,0.3,1,0.8l0.3,1.5
					c0.2,0.1,0.3,0.2,0.5,0.3c0.9,0.6,1.6,1.1,2.4,0.6c0.4-0.2,0.9-0.2,1.2,0.2c0.3,0.3,0.4,0.8,0.1,1.2l-1.6,2.4l0,0l-3.1,4.7
					c-0.1,0.2-0.4,0.4-0.6,0.4c-0.3,0.1-0.5,0-0.7-0.1l-1.6-1.1c-0.2-0.1-0.4-0.4-0.4-0.6c-0.1-0.3,0-0.5,0.1-0.7l2.7-4
					c-0.6-1.1-0.9-2.3-1.1-3.5L96.3-138z M122.7-142.2h3.8c0.3,0.4,0.6,0.9,0.7,1.4c0.3,0,0.6,0.2,0.8,0.4c0.2,0.3,0.2,0.6,0.1,0.9
					c-0.1,0.3-0.2,0.6-0.3,0.9c-0.4,1.2-0.9,2.9-2.8,3.4l0.3,0.5c0.3,0.5,0.1,1.1-0.3,1.3c-0.5,0.3-1,0.7-1.5,1.2l0,0
					c0,0.4-0.2,0.7-0.5,0.9c-0.2,0.1-0.4,0.2-0.7,0.4c-1.4,1.7-2.2,3.7-2,5.1c0.5,1.1,1.4,2,2.7,2.7c0.5,0.2,0.7,0.8,0.5,1.3
					s-0.7,0.7-1.2,0.6c-0.4-0.1-0.6-0.3-1-0.4c0.3,0.2,0.5,0.6,0.5,0.8c0,0.5-0.5,1-1,1h-0.2l-0.4,2c-0.1,0.5-0.6,0.9-1.1,0.8
					l-2.7-0.5c-0.5-0.1-0.9-0.6-0.8-1.2l0.3-1.8c-2.3-0.5-4-1.9-5.7-3.2c-0.5-0.4-0.9-0.8-1.4-1.1c-0.4-0.3-0.5-0.9-0.3-1.3
					c0.3-0.4,0.9-0.6,1.3-0.3l1.1,0.6c0-0.6,0.2-1.2,0.5-1.8c-0.6-0.7-0.8-1.1-0.6-1.6c0.2-0.4,0.5-0.6,0.9-0.6c1,0,2.6,2.6,3,3.8
					c0.4,1.4,0.1,2.3-0.3,2.8c0.6,0.4,1.4,0.7,2.3,0.9c0.1,0,0.3,0,0.4,0.1c0.1,0,0.3,0.1,0.4,0.1c1.4,0.3,2.6,0.4,3,0.4h0.3
					c0.1,0,0.2,0,0.4,0.1c-1.5-0.8-2.4-1.9-2.7-3.5c-0.9-2.5,0-5.2,2.4-6.9c-0.2-0.2-0.4-0.3-0.6-0.5c-1.1-0.9-2.5-2-3.4-2
					c-0.2,0-0.6,0-1.2,1c-0.1,0.3-0.4,0.5-0.7,0.5c-0.3,0.1-0.6-0.1-0.9-0.3l-1.4-1.4c-0.4-0.4-0.4-1,0-1.4l2-2c0.4-0.4,1-0.4,1.4,0
					l1.2,1.2c2.8,1.1,4,1.3,4.4,1.2c-0.1-1-2.2-3.6-3.2-4.9c-0.4-0.5-0.8-1-1.1-1.4h3.5l3.2,5.3c0.7-0.9,1.2-1.7,1.3-2.4
					C124.2-139.9,123.4-141.1,122.7-142.2z M111.1-140.9c-0.1,0.3-0.4,0.7-1,1c-0.2,0.1-0.3,0.1-0.5,0.1l-0.8-0.1l0.6,0.8
					c0.3,0.4,0.2,0.9-0.1,1.3c-0.3,0.3-0.8,0.4-1.2,0.2l-5.2-3.2c-0.4-0.3-0.6-0.8-0.4-1.2h3.2c0.1,0,0.2,0.1,0.3,0.1
					c0.1,0,0.1-0.1,0.2-0.1h1.1l0.9,0.1c0.2,0,0.3-0.1,0.4-0.1h2.5C111.2-141.8,111.3-141.3,111.1-140.9z M142.2-141.3l-4.6,2.3
					c1.2-0.2,1.9-0.3,2.2-0.4c0,0,0,0,0.1,0l0,0l0,0c0.1,0,0.2,0,0.2,0c0.5,0,0.9,0.4,1,0.9c0,0.5-0.4,1-0.9,1.1
					c-0.1,0-0.5,0.1-0.9,0.2c0.1,0.1,0.1,0.3,0.1,0.4c0,0.3-0.2,0.5-0.4,0.7l-2,1.6c-0.4,0.3-0.9,0.3-1.2,0
					c-0.1,0.3-0.1,0.5-0.2,0.7l0.1,0.2c0.1,0.2,0.3,0.3,0.4,0.5c0,0,0,0.1,0.1,0.1c0.3-0.1,0.7,0,0.9,0.3l1.3,1.3
					c0.2-0.2,0.4-0.4,0.5-0.6l0.1-0.1c0.2-0.5,0.3-1.1,0.4-1.8c0-0.5,0.5-0.9,1-0.9l0,0c0.5,0,1,0.5,0.9,1.1c0,0.1,0,0.5,0,1.2
					c0.3,0.3,0.6,0.6,0.9,0.9v4.2l-1.9-2.9c-0.3,0.4-0.6,0.8-1,1c-0.1,0.3-0.1,0.6,0,0.9c0.2,0.5-0.1,1-0.6,1.2
					c-0.5,0.2-1,0-1.3-0.5l-1.9-3.9c-0.2,0-0.3,0-0.5,0c-0.7-0.2-1.2-0.7-1.3-1.4c-0.2-0.3-0.5-0.5-0.8-0.6
					c-0.7,0.2-1.2,0.3-1.7,0.4c-0.1,0.8-0.2,1.6-0.1,2.3c0.3,0.7,0.4,1.5,0.4,2.2v0.2c0.6,1.3,1.8,1.4,3.7,0.5
					c0.2-0.1,0.5-0.2,0.7-0.4c0.5-0.2,1.1-0.1,1.3,0.4c0.2,0.5,0.1,1.1-0.4,1.3c-0.3,0.1-0.5,0.3-0.8,0.4c-1.6,0.8-2.8,1.1-3.8,1.1
					c-2.3,0-2.6-2-2.7-3c-0.2-0.6-0.4-1.4-0.5-2.3c-0.1-0.1-0.3-0.2-0.6-0.2c-0.5,0-1.1,0.1-1.8,0.4c-0.4,0.1-0.8,0-1-0.2
					c-0.3-0.3-0.3-0.7-0.2-1l0.7-1.9c0.1-0.3,0.4-0.6,0.8-0.6l1.7-0.3l0.1-1.2c0-0.2,0-0.4,0.1-0.6l0.6-6.2v-0.1h2.2
					c0.8,1.2,0.2,3.1-0.3,4.7c-0.2,0.7-0.4,1.3-0.5,1.8v0.3c0.7-0.2,1.4-0.3,2-0.2c0.6-1.1,1.9-2,3.8-2.7c0.1-0.2,0.3-0.4,0.6-0.5
					c-0.3,0-0.6-0.2-0.8-0.5l-0.3-0.6l-2.8,0.2c-0.5,0-0.9-0.3-1-0.8s0.2-1,0.7-1.1l1.7-0.6h7.8v1.1H142.2L142.2-141.3z M87-139.1
					c-0.4,0.3-1,0.3-1.3-0.1l-3-3H86l1.2,1.8C87.4-140,87.4-139.5,87-139.1z M41.1-0.2h-6.2l-0.2-0.1c-0.3-0.2-0.5-0.5-0.5-0.9
					c0.1-1.8-1.8-4.4-3.4-6.6l-0.8-1c-0.2-0.3-0.2-0.6-0.1-0.8c-0.1-0.4,0-0.7,0.3-1c0.2-0.2,0.4-0.3,0.7-0.3c0.3,0,0.5,0.1,0.7,0.3
					L37.9-4c0.2,0.2,0.5,0.5,0.7,0.7c0.2-0.4,0.6-0.7,1-0.6L40-3.8c0.2,0,0.3,0,0.5,0l-0.6-0.8c-0.3-0.4-0.2-1,0.2-1.4
					c0-0.1,0.2-0.2,0.4-0.2l-2.4-1.5C37.7-8,37.5-8.5,37.8-9l2.4-4.5c0.2-0.3,0.5-0.5,0.9-0.5c0.1,0,0.1,0,0.2,0
					c0.4,0.1,0.7,0.4,0.8,0.8l0.8,5c0,0.2,0,0.4-0.1,0.6l-0.6,1.1c-0.1,0.2-0.3,0.4-0.6,0.5c-0.1,0-0.2,0-0.3,0c0,0,0.1,0,0.1,0.1
					c0.8,0.9,1.7,1.5,2.8,1.6c0.4,0,0.9,0,1.3,0c1.7-0.2,3.6-1.1,5.5-2.2v-0.8c0-0.3,0.2-0.6,0.4-0.7c0.2-0.2,0.5-0.2,0.8-0.2
					c0.4,0.1,0.7,0.1,1.1,0.2h0.2c0.7-0.4,1.3-0.7,1.9-0.9c0.1,0,0.2-0.1,0.3-0.1c0.3,0,0.6,0.1,0.8,0.4l2,2.8
					c0.1,0.1,0.1,0.3,0.2,0.4c0.2-0.3,0.5-0.4,0.8-0.4l0,0c0.3,0,0.5,0.1,0.6,0.2l7.8-5.9c0.1-0.1,0.2-0.1,0.3-0.1
					c-0.4,0-0.7-0.3-0.8-0.6c-0.2-0.7-0.1-0.8,1.7-2.4v-1.5c0-0.5,0.3-0.9,0.8-1c0.1,0,0.1,0,0.2,0c0.4,0,0.8,0.3,0.9,0.7l0.8,2.5
					c0.4,0.2,0.6,0.4,0.9,0.7c0.5,0.7,0.6,1.8,0.3,3.3c-0.1,0.4-0.5,0.8-0.9,0.8c-0.5,0-0.8-0.3-1-0.7L70.2-12
					c-0.4,0.1-0.9,0.3-1.2,0.4c-0.1,0.1-0.3,0.1-0.4,0.1c0.2,0,0.4,0.1,0.5,0.3c0.3,0.4,0.3,1,0,1.3l-5,5.1L69-1.5
					c0.4,0.3,0.5,0.9,0.3,1.3h-2.2l-6-3c0.1,0.2,0.2,0.5,0.4,0.8c0.3,0.5,0.6,1,0.9,1.5c0.2,0.3,0.3,0.5,0.5,0.8h-2.5
					C60.2-0.5,60-1,59.8-1.4c-0.3-0.6-0.5-1-0.6-1.4L59-3.2c-0.3-0.5-0.4-0.9-0.5-1.1l-0.1,0.1c-0.4,0.3-0.9,0.4-1.3,0
					c-1.2-1-2.3-1.3-3.2-1.5c-0.3,0.2-0.7,0.4-1,0.6l-0.4,4.9h-2.9c-2-1.6-3.3-2-4.2-2.1c-0.5,0-0.9,0-1.4,0c-0.2,0-0.3,0-0.5,0.1
					c0,0.1-0.1,0.2-0.1,0.3c-0.2,0.3-0.6,0.5-1,0.5l-2.8-0.4c0,0,0,0-0.1,0c0.1,0.1,0.2,0.2,0.2,0.3L41.1-0.2z M111.4-103.6
					l-0.3,0.3c0,0.2-0.1,0.3-0.3,0.4c-0.2,0.2-0.4,0.4-0.7,0.7c-0.3,0.3-0.6,0.5-0.8,0.8c-1.7,2.1-1.8,3.5-0.4,5
					c0.3,0.3,0.4,0.9,0.1,1.3c-0.3,0.4-0.8,0.5-1.2,0.3c-1.4-0.8-2.3-1.7-2.4-2.9c-0.3-1.9,1.1-3.6,2.5-5c0.3-0.3,0.5-0.6,0.8-1
					l-1.2-1.2c-0.3-0.3-0.4-0.8-0.1-1.2c0.2-0.4,0.7-0.6,1.1-0.4c0.8,0.3,1.4-0.3,2.2-1.1l0,0c-0.2-0.2-0.4-0.4-0.5-0.5
					c-0.2-0.2-0.3-0.3-0.5-0.5c0,0.3-0.2,0.5-0.4,0.7c-0.4,0.3-1,0.2-1.3-0.2c-2.1-2.5-6.2-3.8-10.3-5.1c-2-0.6-4.2-1.3-6-2.1
					c-0.4-0.2-0.7-0.7-0.6-1.1c0.1-0.5,0.5-0.8,1-0.7c0.1,0,0.1,0,0.2,0c-0.3-0.3-0.3-0.7-0.1-1.1c0.7-1.3,1.5-2.5,2.6-3.6l4.6-6.5
					c0.3-0.4,0.7-0.5,1.1-0.3s0.7,0.6,0.6,1l-0.1,0.5c0.9-0.5,1.8-0.9,2.8-1.3c1.7-1.1,3.1-2.2,4.1-3.4l-0.9,0.3
					c-0.3,0.1-0.7,0.1-0.9-0.2c0,0,0-0.1-0.1-0.1c-0.2,0.4-0.8,0.6-1.2,0.4c-0.4-0.2-0.6-0.5-0.6-0.9c0-0.1,0-0.3,0.1-0.4
					c0.6-1.3,0.1-2.8-1.5-4.7c-0.4-0.3-0.8-0.7-1.2-1c-1-0.8-2-1.7-2.8-2.7c-0.4-0.4-0.8-0.7-0.8-1.1h2.6c1,0.8,2.4,2,3.6,3.4
					c1,0.9,2,2.1,2.3,3.6c0,0,0,0,0.1,0l3.1-1.1c0.1,0,0.2-0.1,0.3-0.1c0.2,0,0.4,0.1,0.6,0.2c0.3,0.2,0.4,0.5,0.4,0.9l-0.2,1.7
					c0.7,4-3,5.6-6.1,7c-0.6,0.4-1.2,0.7-1.8,1.1c-2.4,1.5-4.8,2.9-6.7,5l-2.4,3.4c-0.1,0.1-0.1,0.2-0.2,0.2
					c0.5,0.1,0.9,0.1,1.2,0.1c0-0.4,0.3-0.8,0.7-0.9c0.1,0,0.2,0,0.3,0c0.4,0,0.7,0.2,0.9,0.6c0.8,1.7,3.4,2.6,5.9,3.6
					c1.6,0.6,3.3,1.2,4.6,2.1c0-0.1,0-0.2,0.1-0.2c-0.5-1.2-0.5-2.5,0-3.9c0.1-0.4,0.5-0.7,0.9-0.7h2c0.5,0,1,0.4,1,1v3.7
					c2,0.7,3,1.5,3.3,2.6C115-107.3,113.3-105.5,111.4-103.6z M103.2-118c0.5,0,1.1-0.2,1.5-0.3c1.1-0.8,2.1-1.4,3.1-1.7l0.3-2.5
					c0-0.4,0.3-0.7,0.7-0.8c0.4-0.1,0.8,0,1,0.3l2.6,3.4c0.8,0.5,1.4,1.3,1.7,2.4c0.1,0.5-0.1,0.9-0.5,1.2c-0.4,0.2-0.9,0.1-1.2-0.3
					l-1.3-1.7c-1-0.3-2.7,0.4-4.3,1c-0.5,0.2-0.9,0.4-1.4,0.5c-1.6,1.1-2.8,1.8-3.7,1.8c-0.6,0-1-0.2-1.4-0.6c-0.6-0.8-0.6-2,0-4.1
					l0.3-2.2c0-0.3,0.2-0.5,0.4-0.7l2.7-2.1c0.2-0.1,0.4-0.2,0.6-0.2s0.3,0,0.5,0.1c0.3,0.2,0.5,0.6,0.5,1l-0.3,2.2
					c0,0.3-0.2,0.5-0.4,0.7l-2.3,1.8C102.6-118,102.9-118,103.2-118z M79.6-0.4c1-1.7,1.6-3.5,1.9-4.3c0.2-0.5,0.4-1.1,1.1-1.1l0,0
					c0.3,0,0.6,0.1,0.8,0.4c0.3,0.3,0.3,0.5,0.1,1.4L86-0.2h-3.3l-0.3-0.3l-0.2,0.3h-2.8L79.6-0.4z M90.2-114.2
					c-0.4,0.3-1,0.2-1.3-0.2c-0.3-0.3-0.5-0.7-0.8-1c-0.6-0.9-1.2-1.7-2.1-2.3l-3.1-0.5l0.7,1c0.8,0.8,1.9,1.5,2.8,2l0,0l0,0l0,0
					l0,0l0,0l0,0c0.5,0.3,1,0.6,1.4,0.9l1.1,0.7c0.4,0.3,0.6,0.8,0.4,1.3l-0.6,1.1c-0.2,0.3-0.5,0.5-0.8,0.5c-0.4,0-0.7-0.1-0.9-0.4
					l-0.4-0.5l-5.9-0.9c-0.3,0-0.5-0.2-0.6-0.4l-1.4-1.9c-0.2-0.3-0.2-0.7-0.1-1.1c0.2-0.3,0.6-0.5,0.9-0.5c0.4,0,0.8,0.1,1.2,0.1
					c0.4,0.1,0.8,0.1,1.2,0.1c-0.8-0.7-1.3-1.5-1.6-2.2l-1.6-2.2c-0.1-0.1-0.3-0.1-0.4-0.2l-2.4-0.4c-0.3,0-0.5-0.2-0.6-0.4l-2-2.8
					c-0.3-0.4-0.2-1,0.2-1.3c0.2-0.2,0.4-0.2,0.6-0.2c0.3,0,0.5,0.1,0.7,0.3c1.2,1.2,2.5,2.2,4.1,2.9l0.5,0.1c0.3,0,0.5,0.2,0.6,0.4
					c0.8,0.3,1.6,0.5,2.4,0.8c0.1,0,0.3,0.1,0.4,0.1l3.4-2c0.2-0.1,0.3-0.1,0.5-0.1c0.1,0,0.2,0,0.3,0.1c0.3,0.1,0.5,0.3,0.6,0.6
					l1.4,3.9c0.1,0.3,0.1,0.7-0.2,0.9c0.6,0.7,1.1,1.4,1.6,2.3C90.8-115,90.7-114.5,90.2-114.2z M47.6-110c-1.3,0.9-3,1.5-4.6,2.2
					c-3,1.2-6,2.4-6.2,4.6c0,0.5-0.4,0.9-0.9,0.9s-0.9-0.3-1-0.8c-0.7-2.8,1.9-4.1,4-5.2c2.3-1.1,3.3-1.8,3-2.9
					c-0.1-0.5,0.1-1,0.6-1.2c0.1,0,0.2-0.1,0.4-0.1c0.3,0,0.7,0.2,0.9,0.5s0.4,0.4,0.9,0.4c0.1,0,0.2,0,0.4,0
					c-0.3-0.7-0.3-1.5-0.3-2.2c0-0.3,0-0.6,0-0.9l1-0.1l1-0.1c0,0.3,0,0.7,0,1.1c0,1.5,0.1,1.8,0.7,2c0.3,0.1,0.5,0.3,0.6,0.6
					C48.2-110.7,48-110.3,47.6-110z M89.8-95.5C89.6-95.2,89.3-95,89-95h-3.9c-0.5,0-0.9-0.3-1-0.8c-0.1-0.4,0.1-0.9,0.5-1.1
					l2.3-1.1l-0.7-1.5c-1.1-1.2-1.7-1.8-2.8-1.5c-0.5,0.1-1.1-0.2-1.2-0.7c-0.2-0.5,0.1-1.1,0.7-1.2c0.9-0.3,1-0.7,1-1.1
					c-1-1.4-1.2-1.8-0.9-2.4c0.2-0.3,0.5-0.6,0.9-0.6c0.9,0,1.6,1.4,1.8,2.1l0.3,0.3c0,0.1,0.1,0.1,0.1,0.2l1.9,3.7l0.2,0.2
					c0.5,0.6,1,1.2,1.6,1.6c0.3,0.2,0.4,0.5,0.4,0.9c0,0.3-0.2,0.6-0.5,0.8l0.3,0.7C90-96.2,90-95.8,89.8-95.5z M50.7-115.1
					c-0.1,0.4-0.4,0.6-0.8,0.7c-0.4,0.1-0.7-0.1-0.9-0.4l-3.9-5.9c-0.2-0.3-0.2-0.7,0-1c0.2-0.3,0.5-0.5,0.9-0.5h3.9
					c0.4,0,0.8,0.2,0.9,0.6c0.2,0.4,0.1,0.8-0.2,1.1l-1.3,1.3l0,0C50.1-118.4,51.3-117.1,50.7-115.1z M35.4-117.3h1.2
					c0.7,0,1.4,0,2-0.3c0.5-0.6,1-1.1,1.6-1.6c0.4-0.3,0.9-0.2,1.2,0.1c0.3,0.3,0.4,0.8,0.2,1.2c-0.4,0.9-1,1.5-1.8,1.9l0,0
					c-1,1.2-2.2,2.7-4.1,2.7c-0.4,0-0.7-0.1-1.1-0.2c-0.5-0.1-0.8-0.6-0.7-1c0-0.5,0-1,0-1.3c-0.5-0.4-0.9-0.8-1.2-1.2
					c-1,0.5-2.2,0.4-3.6-0.2c-1.5,0.4-2.8,1.1-3.4,1.6c-0.4,0.3-1,0.3-1.4-0.1c-0.3-0.4-0.3-1,0.1-1.4c0.8-0.7,1.4-1.5,1.9-2.5
					c-0.4-0.4-0.4-0.9-0.1-1.3c0.2-0.3,0.5-0.5,0.7-0.8l0.2-0.3l0.2-0.8c0.1-0.4,0.2-0.8,0.4-1.2c-0.1-0.1-0.2-0.2-0.3-0.3
					c-0.8-0.8-1.4-1.4-2.2-1.1c-0.4,0.1-0.9,0-1.1-0.4c-0.2-0.4-0.2-0.9,0.1-1.2c0.2-0.3,0.5-0.5,0.7-0.8c1-1,1.3-1.5,1.1-2.2
					c-0.1-0.4,0-0.9,0.4-1.2c0.4-0.2,0.9-0.2,1.2,0.1l1.8,1.8l0,0l2.9-1.9c0.2-0.1,0.4-0.2,0.5-0.2c0.3,0,0.6,0.1,0.8,0.4
					c0.3,0.4,0.2,1-0.2,1.4c-0.2,0.2-0.5,0.4-0.7,0.6c-0.7,0.7-1.6,1.5-2.8,1.7l-1.5,1l1.1,1.1c0,0,0,0,0.1,0.1
					c0.1,0.1,0.1,0.2,0.2,0.3c0.6,1.7-0.4,3-1,3.6c-0.1,0.3-0.2,0.6-0.3,0.9l0.8,0.8c0.6-0.1,1.2-0.2,1.8-0.2c0.4,0,0.8,0,1.2,0.1
					c0.2-0.7,0.6-1.4,1.2-2.3v-0.1c0.6-1.6,1.3-3.4,3.1-3.5l0,0l0,0l0,0l0,0l0,0l0,0l0,0c0.2,0,0.4,0.1,0.6,0.2l0.1,0.1l2,2
					c0.4,0.4,0.4,1,0,1.4l-1.1,1.6c-0.4,0.4-1,0.4-1.4,0l-1-1c-0.1,0.2-0.2,0.3-0.4,0.5c-0.3,0.8-0.6,1.5-1,2.1
					C34.8-118.2,35.2-117.8,35.4-117.3z M63.1-102.7l-1.6-6.2c-0.1-0.4,0-0.8,0.3-1c0.2-0.2,0.4-0.2,0.6-0.2c0.1,0,0.3,0,0.4,0.1
					c1.9,0.9,2,3.2,2.1,5.1c0,0.7,0,1.3,0.1,1.8l0.1,0.5c0,0.1,0.1,0.2,0.1,0.2c0.7-0.3,1.3-0.4,1.9-0.3c0.3-0.8,1-1.8,2.7-2.6
					c0.1-0.4,0.4-0.6,0.8-0.7c1.4-0.2,2.1-0.4,2.4-0.4h0.1c0.1,0,0.2,0,0.2,0l0,0c0.5,0,0.9,0.4,1,0.9c0,0.5-0.4,1-0.9,1.1
					c-0.1,0-0.2,0.1-0.4,0.1c0.1,0.1,0.1,0.3,0.1,0.4c0,0.3-0.1,0.5-0.2,0.7l-1.4,1.6c-0.3,0.3-0.7,0.4-1.1,0.3c0,0.1,0,0.2,0.1,0.3
					l0.9,0.7c0.4,0.3,0.5,0.8,0.3,1.2c-0.2,0.4-0.7,0.6-1.2,0.5c-0.7-0.2-1.2-0.6-1.6-1.2c-0.4-0.3-0.9-0.6-1.3-0.8
					c-0.4,0.2-0.9,0.3-1.2,0.3c0.2,0.7,0.4,1.4,0.7,2.1c0.5,0.6,0.9,1.4,1.2,2.1l0.1,0.3c1.2,1.5,2.5,1.7,4.2,0.8
					c0.2-0.1,0.4-0.2,0.6-0.3c0.5-0.3,1.1-0.2,1.3,0.3c0.3,0.5,0.2,1.1-0.3,1.4c-0.1,0.1-0.2,0.1-0.3,0.2c0.2,0,0.4-0.1,0.6,0
					c0.8,0.3,1.4-0.3,2.2-1.1c0.3-0.3,0.5-0.5,0.8-0.7c0.2-0.2,0.4-0.2,0.6-0.2s0.4,0.1,0.6,0.2c0.4,0.3,0.5,0.7,0.4,1.1
					c-0.5,1.4-1.4,2.8-2.2,4.2c-1.9,3.1-3,5.2-1.9,6.7c0.3,0.4,0.3,0.9,0,1.3c-0.3,0.4-0.9,0.4-1.3,0.2c-2.6-1.7-1.3-4.3-0.4-6.2
					c1.1-2.3,1.3-3.1,0.4-3.7c-0.4-0.3-0.6-0.8-0.4-1.3c0-0.1,0.1-0.2,0.2-0.2C72.2-92.3,71-92,70.1-92c-2.1,0-2.9-1.7-3.3-2.7
					c-0.5-0.7-0.9-1.4-1.3-2.4c-0.3-0.3-0.6-0.4-1.1-0.4l0,0c-0.4,0-1,0.1-1.6,0.4c-0.3,0.1-0.6,0.1-0.9-0.1
					c-0.3-0.2-0.4-0.5-0.4-0.8v-1.9c0-0.5,0.3-0.9,0.8-1l1.3-0.2l-0.2-0.9C63.2-102.3,63.2-102.5,63.1-102.7z M49.2-125.4
					c-0.1,0.5-0.3,1.2-1.1,1.2c-0.9,0-1-0.3-1.2-2.8l-1.2-0.9c-0.4-0.3-0.5-0.8-0.3-1.2c0.2-0.4,0.5-0.6,0.9-0.6c0.1,0,0.2,0,0.3,0
					l2.5,0.7c1.1-0.7,2.4-0.3,3.9,1.3c0.3,0.3,0.4,0.8,0.1,1.2c-0.2,0.4-0.7,0.6-1.1,0.4l-2.3-0.7C49.4-126.2,49.3-125.7,49.2-125.4
					z M21.9-132.8c0.2,0.2,0.3,0.6,0.2,0.9c-0.1,0.3-0.3,0.6-0.6,0.7c-0.6,0.2-1.3,0.4-1.9,0.4c-1.6,0-3.1-0.7-4.3-1.3
					c-1-0.5-2-1-2.8-1c-0.4,0-1,0.1-1.7,0.8c1.6,1.4,1.6,3.7,1.5,5.3v0.8c0,0.4-0.2,0.7-0.5,0.9c-0.3,0.2-0.7,0.1-1-0.1
					c-2.5-1.7-3.7-3.6-3.7-5.6c0-3.3,3.2-5.7,4.9-6.9c0.1-0.1,0.2-0.2,0.4-0.3c0-0.1,0-0.1,0.1-0.2c0.1-0.4,0.5-0.7,0.9-0.7
					c0.8,0,1.1,0.6,1.1,0.7c0.2,0.5,0,0.9-0.3,1.1c0.1,0.5,0.5,1,1.1,1.7c0.2,0.2,0.3,0.4,0.5,0.5c0.7,0.1,1.3-0.4,2-1.1
					c0.3-0.3,0.5-0.5,0.8-0.7c0.3-0.3,0.8-0.3,1.2-0.1c0.4,0.2,0.5,0.7,0.4,1.1c-0.3,0.8,0.1,1.2,1.1,2.2
					C21.5-133.3,21.7-133.1,21.9-132.8z M2.7-50.3c0.1,0.7-0.1,1.2-0.3,1.4c-0.6,0.7-1.5,0.7-1.8,0.7c-0.1,0-0.1,0-0.2,0v0.7
					c0,0.2-0.1,0.3-0.2,0.5v-8.7c0.2,0.1,0.5,0.2,0.7,0.2c0.9,0.3,1.8,0.6,2.7,0.9l0,0c0.1,0,0.2,0,0.3,0.1c0.5,0.2,1,0.5,1.5,0.8
					c1.5,0.9,2.7,2.2,3.5,4c0.2,0.5,0.1,1-0.3,1.3c-0.4,0.3-1,0.2-1.3-0.2c-0.3-0.3-0.5-0.7-0.8-1c-0.6-0.9-1.3-1.7-2.2-2.4
					c-0.4-0.2-0.8-0.4-1.2-0.6c-0.3,0-0.5-0.1-0.8-0.1c-0.4-0.1-0.9-0.1-1.3-0.1l1.5,2.1C2.6-50.6,2.7-50.5,2.7-50.3z M28.4-142.2
					h3.8c0.1,0.5,0,1.1,0,1.6c0.4,1.2,0.3,2.6-0.2,4c-0.1,0.4-0.6,0.7-1,0.6c-0.4,0-0.8-0.3-0.9-0.8c-0.2-1-0.1-2.2,0.1-3.3v-0.3
					C29.9-141,29.3-141.6,28.4-142.2z M29-137.4l-4.9,3c-0.3,0.2-0.6,0.2-0.8,0.1c-0.3-0.1-0.5-0.3-0.6-0.6l-1.4-3.9
					c-0.1-0.3-0.1-0.7,0.2-1c0.2-0.2,0.5-0.4,0.8-0.4h0.1l6.4,0.9c0.4,0.1,0.7,0.4,0.8,0.8C29.5-138.1,29.3-137.6,29-137.4z
					 M114.4-75.7c-0.1,0.4-0.6,0.7-1,0.6c-0.4,0-0.8-0.3-0.9-0.8c-0.2-1-0.1-2.2,0.1-3.4v-0.3c-0.3-0.7-1-1.4-1.9-2
					c-0.5,0.2-1.2,0.4-1.9,0.7c-0.4,0.2-0.8,0.1-1.1-0.2c-0.3-0.3-0.4-0.7-0.2-1.1l0.3-0.9c-0.1-0.1-0.3-0.1-0.4-0.2l-0.2-0.1
					c-1.6,0.1-2.3-0.6-2.6-1.3c-0.7-0.4-1.4-1.1-1.5-2.1c-0.1-1.3,0.9-2.4,1.7-3.1c0.1-0.1,0.3-0.2,0.5-0.2l3-0.5c0.1,0,0.1,0,0.2,0
					c0.4,0,0.8,0.3,0.9,0.7c0.2,0.5,0,1-0.5,1.2c-1.3,0.7-1.7,1.7-2.1,2.9c0,0.1,0,0.1-0.1,0.2c0.3,0.1,0.5,0.3,0.8,0.4
					c0.2,0,0.5-0.1,0.7-0.1c0.4-0.1,0.8-0.1,1.1-0.1c0.3,0,0.7,0.1,0.9,0.4c0.2,0.3,0.3,0.6,0.1,0.9l-0.1,0.2
					c0.2,0.1,0.5,0.2,0.7,0.4c1.4-0.3,2.4-0.1,3,0.7c0.7,0.8,0.7,2,0.6,3.2C115.1-78.5,115-77.2,114.4-75.7z M98.3-4.4L98.3-4.4
					c1.1-0.3,2.1-1.2,2.9-2.1c0.6-0.7,1.2-1.3,1.8-1.8c0.1-0.1,0.3-0.2,0.4-0.2l0,0c0.1,0,0.1,0,0.2,0l0,0l0,0l0,0
					c0.2,0,0.5,0.1,0.7,0.3l2,2c0.2,0.2,0.3,0.4,0.3,0.7s-0.1,0.5-0.3,0.7l-1.4,1.4c-0.4,0.4-1,0.4-1.4,0l-1.2-1.2
					c-0.9,1.1-2,2.2-3.6,2.3c-1,0.2-2.1,0.2-3.2-0.2c-0.1,0-0.3-0.1-0.4-0.2c-0.7-0.6-1.3-1.8-0.4-3.8c0-0.4,0-0.8,0.2-1.2
					c0-0.2,0.1-0.3,0.3-0.4c1-1,1.5-1.5,1.7-1.7c0,0,0,0,0.1-0.1c0.2-0.2,0.5-0.3,0.7-0.3c0.4,0,0.7,0.2,0.9,0.6
					c0.2,0.4,0,0.8-0.2,1.1l0,0c-0.2,0.2-1,1.1-1.5,2.2c0.2,0.5,0.6,0.9,1.1,1.4C98-4.7,98.2-4.6,98.3-4.4z M31.3-40.5l4.5,5.8
					c0.2,0.3,0.6,0.4,0.9,0.4c0.4-0.1,0.6-0.3,0.8-0.6c0.8-2.1,1.8-2.6,2.7-2.7c0.5,0,1,0,1.4,0s0.7,0.1,1.1,0.1
					c0.1,0.2,0.2,0.3,0.3,0.4c0.2,0.2,0.5,0.3,0.8,0.2l2.5-0.4c0.1,0,0.3,0,0.4-0.1c0.5-0.1,0.9-0.6,0.8-1.2c0-0.1,0-0.1-0.1-0.1
					c0.3,0.4,0.8,0.6,1.2,0.3c0.3-0.1,0.6-0.3,0.9-0.4c0.4,0,0.9,0.3,1.4,0.6c0.3,0.2,0.6,0.4,0.9,0.5c0.5,0.2,1,0.1,1.3-0.4
					l1.1-1.7l3.4,2.2c0.2,0.1,0.5,0.2,0.8,0.1s0.5-0.2,0.6-0.5l0,0l1.5,3.4c-0.5,0.8-0.9,0.8-1,0.8c-0.5,0-1.3-0.4-2-0.9
					c-1-0.6-2.1-1.2-3.2-1.2c-0.2,0-0.3,0-0.4,0c-0.9,0-1.4,0-1.5,0h-0.1c-0.5,0-1,0.4-1,0.9s0.4,1,0.9,1c0.8,0.1,1.4,0.2,1.8,0.4
					c-0.4,0.2-0.7,0.5-0.8,0.7c-0.3,0.4-0.5,1.2-0.1,2.3c0.1,0.3,0.4,0.5,0.7,0.6s0.7,0,0.9-0.3l1.7-1.7c2.1,0.2,5.2,1.6,7,3.6
					l1,2.3c-0.1-0.1-0.2-0.3-0.4-0.4l-0.8-0.4c0-0.1,0-0.2-0.1-0.3c-0.2-0.3-0.5-0.6-0.9-0.6l0,0c-0.4,0-0.7,0.2-1.1,0.5
					c-0.2,0.2-0.4,0.5-0.4,0.8c-0.2,0.2-0.4,0.5-0.7,0.8c-0.9,1.2-2.2,2.7-3.4,4.4l-0.4,0.2c-0.5,0.2-0.8,0.8-0.6,1.3l0,0
					c-0.8,1.2-1.5,2.3-1.9,3.3c-0.3,0.5-0.6,1-0.6,1.6c-0.1,0.5,0.3,1,0.8,1.1s1-0.2,1.1-0.6c0.1-0.3,0.2-0.6,0.4-0.9
					c0.3-0.3,0.9-0.6,1.6-0.8c0.3-0.1,0.7-0.3,1-0.4c0.5-0.2,0.7-0.7,0.5-1.2l-0.9-1.5l0.1-0.1l4.2-1.5c0.5-0.2,0.8-0.8,0.6-1.3
					l-0.6-1.7l1.7-0.6c0.4-0.1,0.6-0.5,0.6-0.9c0-0.2,0-0.3-0.1-0.4l0.5,1.2c0.2,0.4,0.6,0.7,1.1,0.6s0.8-0.5,0.8-1
					c0-1.5-0.6-3-1.8-4.3l-2.2-5.2c0.6-2-0.6-3.3-1.5-4.2c-0.2-0.2-0.4-0.4-0.6-0.7c0-0.1-0.1-0.1-0.2-0.1l1,0.6
					c0.3,0.2,0.7,0.2,1.1,0c0.3-0.2,0.5-0.6,0.4-1l-0.1-1c0.2-0.2,0.3-0.4,0.3-0.7c0-0.9-0.9-1.1-1.3-1.1h-0.1
					c-0.3,0-0.5,0.1-0.7,0.3l0,0c-0.3,0-0.6,0-1,0.1c-1.4,0.1-3.3,0.2-5.2,0.5L54.2-42c-0.2-0.2-0.5-0.2-0.8-0.2
					c-0.3,0.1-0.5,0.2-0.6,0.5l-0.1,0.1c-1.4,0.2-2.6,0.5-3.6,0.8c-0.5,0.1-1.1,0.3-1.6,0.7c-0.3,0.3-0.5,0.7-0.3,1.1
					c-0.2-0.3-0.6-0.5-1-0.4l-0.3,0.1c-0.4,0.1-0.9,0-1.4,0v-1.3c0-0.5-0.4-0.9-0.9-1c-0.5,0-1,0.3-1,0.8c-0.1,0.7-0.4,1-1.1,1.1
					c-0.5,0-0.9,0-1.3,0c-2-0.2-4.8-1.3-7.6-2.4l-0.9-1.1c-0.2-0.3-0.6-0.5-1-0.3c-0.3,0.1-0.6,0.1-0.9,0.2h-0.2
					c-0.9-0.4-1.8-0.7-2.5-0.9c-0.1,0-0.2,0-0.3,0c-0.2,0-0.4,0.1-0.6,0.2c-0.2,0.2-0.4,0.5-0.4,0.8v2.8c0,0.5,0.3,0.9,0.8,1
					c0.4,0.1,0.9-0.1,1.1-0.5c0.3-0.7,0.9-1,1.8-1.2C30.1-40.9,30.7-40.6,31.3-40.5L31.3-40.5z M59.8-39.7L59.8-39.7L59.8-39.7
					C59.9-39.7,59.9-39.7,59.8-39.7z M71.9-5.7l0.5-0.5c0.8-0.9,1.5-2.4,1.8-3.6c-0.2-0.1-0.4-0.3-0.5-0.5c-0.1-0.3-0.1-0.6,0.1-0.8
					c0.3-0.6,0.7-1.3,1.5-1.3c0.3,0,0.6,0.2,0.8,0.4c0.2,0.2,0.3,0.4,0.3,0.7c0.3,0,0.7,0,1,0.1c-0.1,0-0.2-0.1-0.2-0.2l-1-1.1
					C76-12.7,75.9-13,76-13.2c0-0.3,0.2-0.5,0.4-0.7l0.9-0.7c0.3-0.3,0.7-0.5,1-0.8c0.1-0.1,0.2-0.2,0.3-0.2
					c0.6-0.5,1.3-1.2,1.8-1.8L81-19c-0.1,0-0.2,0-0.4,0c-0.4,0-0.9,0.1-1.3,0.1c-0.3,0-0.5,0.1-0.8,0.1c-0.3,0.2-0.6,0.4-0.9,0.6
					c-0.6,0.6-0.9,1.4-1.2,2.2c-0.1,0.4-0.3,0.7-0.4,1.1c-0.2,0.4-0.7,0.7-1.2,0.5c-0.5-0.1-0.8-0.6-0.7-1.1c0.3-1.8,1-3.2,2.2-4.2
					c0.4-0.3,0.8-0.6,1.3-0.9c0.1-0.1,0.2-0.1,0.4-0.1c0.7-0.4,1.5-0.6,2.3-0.9c0.6-0.2,1.3-0.4,1.9-0.7c0.1-0.2,0.4-0.4,0.7-0.5
					l0.4-0.1c1.3-0.7,2.2-1.6,2.9-2.7c0.2-0.3,0.5-0.5,0.8-0.5c0.1,0,0.3,0,0.4,0.1c0.5,0.2,0.7,0.8,0.5,1.2l-1,2.8
					c-0.1,0.3-0.4,0.6-0.8,0.6L83.8-21c-0.1,0-0.1,0.1-0.2,0.1l-0.7,2c0,0.8-0.3,1.6-0.9,2.5l0,0c0.2,0.1,1,0,1.7-0.1
					c0.4-0.1,0.8-0.1,1.1-0.1c0.3,0,0.7,0.1,0.9,0.4c0.2,0.3,0.3,0.6,0.1,0.9l-0.7,1.9c-0.1,0.3-0.4,0.6-0.8,0.6l-5.4,0.9l-0.1,0.3
					c-0.1,0.2-0.3,0.4-0.5,0.5c0.4,0,0.8,0,1.1,0.1l2.1-0.3c0.3-0.1,0.6,0,0.8,0.2c0.2,0.2,0.3,0.5,0.3,0.8c0,0.6-0.1,1.2-0.3,1.8
					c0,1-0.6,2.4-1.8,4.2c-0.1,0-0.2,0.1-0.3,0.2L79-3.4c-1.8,1.4-3.8,2.5-6,3.1c-0.5,0.1-1-0.1-1.2-0.6s0-1,0.5-1.2l5.5-3
					c1.2-1.1,2.1-2.4,2.6-3.7c-0.1-0.1-0.3-0.2-0.9-0.3l-2.9,0.5c-0.3,1.6-1.6,2.9-2.9,4C73.5-4.4,73.3-4.2,73-4l-1.7,1.4
					c-0.3,0.2-0.6,0.2-1,0.1c-0.3-0.1-0.6-0.4-0.6-0.8c0,0-0.1-0.1-0.5-0.1s-0.9,0.1-1.3,0.1s-0.8,0.1-1.1,0.1c-0.5,0-1-0.3-1-0.8
					c-0.1-0.5,0.2-1,0.7-1.1s1-0.6,1.4-1.3c0.7-2.3,1-2.9,1.8-2.9c0.4,0,0.7,0.2,0.9,0.5C71-8.1,70.4-6.8,70-6
					C70.5-5.6,71.2-5.3,71.9-5.7z M56.8-11.9c-0.5-0.2-0.8-0.6-0.7-1.1s0.6-0.8,1.1-0.8c0.8,0.1,1.6-0.1,2.4-0.7l0.5-0.5
					c0.4-0.4,0.9-0.9,1.3-1.3l0.4-0.5c0.1-0.1,0.1-0.2,0.2-0.3c0.1-0.1,0.2-0.2,0.3-0.3l0.1-0.1c0.4-0.5,0.8-1.1,1.2-1.6L63-19.7
					c-0.3-0.3-0.4-0.7-0.2-1.1s0.5-0.6,0.9-0.6c0,0,0,0,0.1,0l4.3,0.3c0.5,0,0.8,0.4,0.9,0.8c0.1,0.5-0.2,0.9-0.6,1.1
					c-0.6,0.3-1.2,0.5-1.7,0.9v0.1c0.7-0.1,1.4-0.3,1.9-0.7c0.2-0.2,0.3-0.4,0.5-0.7c0.2-0.5,0.8-0.7,1.3-0.4
					c0.5,0.2,0.7,0.8,0.5,1.3s-0.5,0.9-0.9,1.2c-1.2,1.2-2.9,1.4-4.4,1.5c-0.3,0-0.5,0.1-0.8,0.1c-0.1,0.3-0.2,0.6-0.2,0.9
					c0.2,0.2,0.4,0.4,0.6,0.6c0.2,0.3,0.5,0.5,0.7,0.8c0.2,0.2,0.3,0.5,0.2,0.8c0,0.3-0.2,0.5-0.4,0.7L65.5-12
					c0.1,0.1,0.1,0.2,0.2,0.3c0.2,0.3,0.3,0.7,0.1,1.1c-0.2,0.3-0.6,0.5-0.9,0.5l-2.1-0.1c-0.4,0-0.8-0.3-0.9-0.7
					c-0.1-0.4,0-0.8,0.4-1.1l0.8-0.6c-0.2-0.6-0.3-1.1-0.4-1.7c0,0,0-0.1-0.1-0.1c-0.5,0.6-1,1.1-1.6,1.5c-0.6,0.6-1.2,1.2-1.5,1.8
					c0,0.4,0.1,0.8,0.1,1.2c0,0.3,0,0.6,0,0.9c0,0.5-0.3,0.9-0.7,1c-0.5,0.1-0.9-0.1-1.1-0.5c-0.5-0.9-0.6-1.9-0.3-2.8
					C57.2-11.7,57-11.8,56.8-11.9z M92.6-41.3c-0.2,0.3-0.6,0.4-1,0.4l-5.5-1c-1.7,0.5-3.4,0.9-5.1,1.2c-2.5,1.8-2.8,2.5-2.8,2.7
					l0,0c0.1,0.5-0.1,1.1-0.7,1.2c-0.5,0.2-1.1-0.1-1.2-0.6l0,0l0,0l0,0l-1-3.4c-0.1-0.3,0-0.6,0.2-0.9c0.2-0.2,0.5-0.4,0.8-0.4
					c0.9,0,2.3-0.2,4-0.5l0.3-0.2c0.7-0.5,1.5-1.1,1.7-1.4s0.6-0.4,0.9-0.3L86-44c1.9-0.6,3.5-1.2,4.9-1.8c0.7-1.1,2-1.8,3.2-2.4
					c0.2-0.3,0.1-0.5-0.1-0.8c-0.3-0.4-0.2-1,0.2-1.3c0.2-0.2,0.4-0.2,0.6-0.2c0.3,0,0.5,0.1,0.7,0.3l1,1c0.5-0.2,1-0.5,1.4-0.8l0,0
					c-0.1-1,0.1-1.9,0.2-2.8c0-0.2,0.1-0.5,0.1-0.7h-0.4c-0.3,0-0.5-0.1-0.7-0.3l-2-2c-0.3-0.3-0.4-0.7-0.2-1.1
					c0.1-0.4,0.5-0.6,0.9-0.6h0.5c2.1,0,3.4,0.7,3.8,2c1.3-0.1,2.2-0.4,2.8-1.4c0.2-0.4,0.6-0.6,1.1-0.5c0.4,0.1,0.8,0.5,0.8,1v2
					c0,0.4-0.2,0.7-0.6,0.9c-0.9,0.4-1.7,0.7-2.2,0.9c-0.2,0.6-0.8,1.5-2.2,3.1c0,0.3,0,0.6-0.2,0.8c-0.1,0.1-0.1,0.2-0.2,0.2
					l-1.8,1.8c-0.4,0.4-1,0.4-1.4,0l0,0l-0.7,0.3c-0.6,0.8-1.6,1.5-3,2.2c-0.2,0.5,0,1.2,0.3,2C92.9-42,92.8-41.6,92.6-41.3z
					 M123.7-2.4c0.9,0.5,2,1.2,2.8,2.2h-3.8c-0.1-0.2-0.3-0.5-0.4-0.7C123.7-2.4,122.3-2.3,123.7-2.4z M70.9-63.3
					c-0.1-0.5,0.2-1,0.7-1.2c0.3-0.1,0.7-0.2,1.1-0.2c1.3-0.2,2.1-0.4,2.5-1.3l0,0l0,0c0.2-0.4,0.5-0.6,0.9-0.6c0.1,0,0.3,0,0.4,0.1
					c0.5,0.2,0.7,0.8,0.5,1.3l-2.8,6c-0.2,0.5-0.8,0.7-1.3,0.5s-0.7-0.7-0.6-1.2l0.9-2.8L72-62.5C71.5-62.4,71-62.8,70.9-63.3z
					 M136.8-104c-0.4,0.2-0.8,0.1-1.1-0.2c-0.3-0.3-0.4-0.7-0.2-1.1l0.7-1.9c0.1-0.3,0.4-0.6,0.8-0.6l1.7-0.3
					c0.3-0.3,0.7-0.6,1.2-0.9c0.1-0.1,0.2-0.1,0.4-0.2c0.6-0.2,1.3-0.4,1.9-0.5v2.3c-0.3,0-0.7,0.1-1,0.1l-0.1,0.2l0,0l-0.5,1.3
					c0.2,0.2,0.4,0.4,0.6,0.6c0.2,0.2,0.4,0.5,0.7,0.8l0.2,0.2c0.1,0.1,0.1,0.2,0.2,0.2v3.9c-0.4,0.1-0.9,0.3-1.4,0.4
					c-0.3,0.1-0.6,0.1-0.8-0.1l2.2,3.1v1.2l-0.1,0.1c-0.3,0.2-0.6,0.3-0.9,0.2c-0.3,0.1-0.7,0-0.9-0.2l-7.9-7.1
					c-0.4-0.3-0.4-0.8-0.2-1.2c0.2-0.3,0.5-0.5,0.8-0.5c0.1,0,0.2,0,0.3,0s0.2,0,0.3,0s0.2,0,0.3,0.1l3.7,1.4
					c0.2,0.1,0.3,0.2,0.5,0.3l1.5,2c0-0.2,0-0.4,0-0.6l0.8-2.2l-0.6-0.7C138.9-104.5,138.1-104.6,136.8-104z M131.2-2.1
					c-0.2,0.3-0.6,0.6-0.9,0.5l-2.1-0.1c-0.4,0-0.8-0.3-0.9-0.7s0-0.8,0.4-1.1l0.8-0.6c-0.2-0.6-0.3-1.1-0.4-1.7
					c-0.6-0.9-0.6-1.9-0.1-2.8c0.1-0.1,0.2-0.3,0.3-0.4l1-0.7c0.1-0.1,0.2-0.2,0.3-0.4l-1-1c-0.3-0.3-0.4-0.7-0.2-1.1
					c0.2-0.4,0.5-0.6,0.9-0.6c0,0,0,0,0.1,0l4.3,0.2c0.5,0,0.8,0.4,0.9,0.8c0.1,0.5-0.2,0.9-0.6,1.1c-0.6,0.3-1.2,0.6-1.7,0.9
					c0,0.3-0.2,0.5-0.4,0.7l-1.1,0.8c-0.4,0.6-0.6,1.2-0.6,1.8c0.2,0.2,0.4,0.4,0.6,0.6c0.3,0.3,0.5,0.5,0.7,0.8
					c0.2,0.2,0.3,0.5,0.2,0.8c0,0.3-0.2,0.5-0.4,0.7l-0.2,0.1c0.1,0.1,0.1,0.2,0.2,0.3C131.3-2.9,131.4-2.5,131.2-2.1z M48.8-5.8
					c-0.3,0.3-0.8,0.4-1.2,0.1L44-8c-0.3-0.2-0.5-0.6-0.4-1s0.4-0.7,0.8-0.8l1.4-0.2c0-0.2,0-0.3,0-0.5l-0.4-1.2
					c0-0.1-0.1-0.3,0-0.5c0.2-1,0.7-1.8,1.7-2.2c0.4-0.4,0.8-0.8,1.3-1.2l-0.3-0.9c-0.1-0.4,0-0.8,0.3-1.1c0.2-0.1,0.4-0.2,0.6-0.2
					c0.2,0,0.4,0.1,0.5,0.2l1.8,1.2c0.3,0.2,0.5,0.6,0.4,1s-0.3,0.7-0.7,0.8c-0.1,0-0.2,0.1-0.3,0.1l0.1,0.2
					c0.1,0.3,0.1,0.5-0.1,0.8c-0.1,0.2-0.4,0.4-0.6,0.5c-0.3,0.1-0.7,0.1-1,0.2c-0.3,0-0.6,0.1-0.8,0.2c-0.3,0.5-0.5,1.2-0.5,1.8
					l0.4,1.2c0,0.3,0,0.6-0.1,0.8c0.2,0.6,0.5,1.2,0.9,1.7C49.2-6.7,49.2-6.2,48.8-5.8z M8.9-139.1c0.4,0.1,0.7,0.4,0.8,0.7
					c0.1,0.4-0.1,0.8-0.4,1l-3.4,2.5c-0.5,0.8-1.3,1.4-2.4,1.7c-0.5,0.1-0.9-0.1-1.1-0.5c-0.2-0.4-0.1-0.9,0.3-1.2l1.7-1.2
					c0.3-1-0.3-2.8-0.8-4.4c-0.2-0.5-0.3-0.9-0.5-1.4C3-142,3-142.1,2.9-142.2h2.3c0.6,1,1.1,1.9,1.3,2.7L8.9-139.1z M71.8-17.5
					l-2-5.9c-0.1-0.3,0-0.6,0.1-0.9c0.2-0.3,0.5-0.4,0.8-0.4h1.8c0.2-0.1,0.4-0.1,0.6-0.2c0.3-1,0.6-1.8,0.9-2.7
					c-0.1-0.1-0.2-0.3-0.4-0.4c-1-1.1-2.2-2.3-1.9-3.8c0.1-0.4,0.3-0.7,0.7-0.8c0.4-0.1,0.7,0,1,0.2l1.2,1.2
					c0.6-0.6,1.2-1.1,1.8-1.7c1.7-1.5,3.3-2.8,3.2-4.8c0-0.4,0.2-0.8,0.6-1c0.1,0,0.2-0.1,0.3-0.1c0.3,0,0.6,0.1,0.8,0.4l1.2,1.5
					l3.5,0.1c0.5,0,0.9,0.4,1,1c0,0.5-0.4,1-0.9,1c-4.6,0.3-7.7,2.4-9.7,6.7c0.5,0.7,0.8,1.5,0.6,2.4c-0.3,1.1-1.3,1.7-2.1,2.1
					c-0.4,1.7-0.7,3.5-1,5l-0.1,0.8c-0.1,0.4-0.4,0.8-0.9,0.8C72.3-16.8,72-17.1,71.8-17.5z M3.9-129c0.4-0.1,0.9,0.1,1.1,0.5
					c0.2,0.4,0.2,0.9-0.2,1.2l-2,2C2.6-125.1,2.3-125,2-125c-0.3,0-0.6-0.2-0.7-0.4l-1.1-2v-4.2c0.2,0.2,0.4,0.5,0.6,0.7
					C1.9-129.7,2.7-128.7,3.9-129z M103.8-0.7c0.7,0.2,1.4,0.4,2,0.5h-3.2l0,0C102.8-0.7,103.3-0.9,103.8-0.7z M25.5-33.8l-1.3-0.7
					c-0.1,0.1-0.2,0.3-0.2,0.4l-0.4,1.2c0,0.2-0.1,0.3-0.2,0.4c-0.7,0.8-1.6,1-2.7,0.8c-0.5,0.1-1.1,0.2-1.7,0.2l-0.3,0.9
					c-0.1,0.4-0.5,0.7-0.9,0.7s-0.8-0.2-1-0.6l-0.8-2c-0.1-0.4-0.1-0.8,0.2-1.1c0.3-0.3,0.7-0.4,1-0.3c0.1,0,0.2,0.1,0.3,0.1
					l0.1-0.2c0.1-0.3,0.3-0.5,0.5-0.6s0.5-0.1,0.8,0s0.6,0.3,0.9,0.4s0.5,0.3,0.8,0.4c0.6-0.2,1.1-0.6,1.5-1.2l0.4-1.3
					c0.1-0.3,0.3-0.5,0.5-0.6c0.2-0.6,0.3-1.2,0.3-1.9c0-0.1,0-0.3,0.1-0.4c0,0,0,0-0.1,0.1c-0.3,0.1-0.8,0.1-1-0.2
					c-2.7-2.5-4.4-3-5.5-3.1c-0.5,0-0.9,0-1.4,0c-0.2,0-0.3,0-0.5,0.1c0,0.1-0.1,0.2-0.1,0.3c-0.2,0.3-0.6,0.5-1,0.5L11-41.9
					c-0.1,0-0.3,0-0.4-0.1c-0.4-0.2-0.8-0.7-0.7-1.2s0.6-0.9,1.1-0.8l0.4,0.1c0.2,0,0.3,0,0.5,0l-0.6-0.8c-0.3-0.4-0.2-1,0.2-1.4
					c0.4-0.3,1-0.3,1.4,0.1c0.8,0.9,1.7,1.5,2.8,1.6c0.4,0,0.9,0,1.3,0c1.7-0.2,3.6-1.1,5.5-2.2v-0.8c0-0.3,0.2-0.6,0.4-0.7
					c0.2-0.2,0.5-0.2,0.8-0.2c0.4,0.1,0.7,0.1,1.1,0.2H25c0.7-0.4,1.3-0.7,1.9-0.9c0.1,0,0.2-0.1,0.3-0.1c0.3,0,0.6,0.1,0.8,0.4
					l2,2.8c0.3,0.4,0.2,1-0.1,1.3c-0.4,0.3-0.9,0.4-1.3,0c-1.2-1-2.3-1.3-3.2-1.5c-0.3,0.2-0.7,0.4-1,0.6l-0.3,5.4
					c0,0.1-0.1,0.2-0.1,0.4c0.1-0.1,0.2-0.1,0.3-0.1c0.1,0,0.1,0,0.2,0c0.4,0,0.8,0.2,0.9,0.6l1.6,4c0.2,0.4,0.1,0.8-0.2,1.1
					C26.3-33.7,25.9-33.6,25.5-33.8z M13.3-31.1c-1.7-0.5-2-2-2-3.2c-1.9,0.8-3.4,1-5.7,0.5l-1.7,0.3c-0.3,0.1-0.6,0-0.8-0.2
					s-0.3-0.5-0.3-0.8l0,0c-0.2,0-0.4-0.1-0.6-0.1c-0.3-0.1-0.5-0.2-0.7-0.5c-0.1-0.2-0.2-0.5-0.1-0.8l1.4-4.4
					C2.9-40.7,3.3-41,3.7-41c0,0,0.1,0,0.2,0c0.5,0.1,0.8,0.5,0.8,1v3.9C5-36,5.3-35.9,5.6-35.9L12-37l0,0l0,0l0,0l0,0l0,0
					c0.1,0,0.2,0,0.3,0l0,0l0,0l0,0l0,0l0,0l0,0l0,0h0.1c2,0.6,2,2.6,2.1,3.9c0,0.3,0,0.6,0,0.9s-0.1,0.7-0.4,0.9
					C14-31,13.6-31,13.3-31.1z M67.1-126.6c0.3,0.1,0.6,0.4,0.7,0.7c0.4,2.1-1.1,3.8-2.4,5.1c-0.2,0.2-0.3,0.4-0.5,0.6
					c-0.1,0.8-0.4,1.7-0.7,2.6c0.2,0.3,0.6,0.6,1.2,0.9c0.1,0.1,0.2,0.2,0.3,0.4c0.1,0,0.2-0.1,0.3-0.1c0.6,0,1.6,0.8,3,2.5
					c0.6,0.7,1.1,1.6,1.6,2.4l5.7,1.4l-5.2,0.8c-0.1,0.7-0.6,1.9-2.8,1.9c-0.5,0-1-0.4-1-1c0,0,0,0,0-0.1c-0.3,0-0.5-0.1-0.8-0.1
					l0.9-0.1c0.1-0.4,0.5-0.6,0.9-0.6c0.7,0,0.8-0.2,0.8-0.2s0,0,0-0.1c0-1.3-2.6-4.4-3.4-4.9c-0.2-0.1-0.4-0.3-0.5-0.5
					c-0.1,0.1-0.3,0.1-0.5,0.1c-0.9,0-1.7,0.3-2.6,1.1c-0.1,0.2-0.2,0.3-0.4,0.6l-1.9,1.9c-0.3,0.4-0.7,0.8-1.1,1.2l1.1,1.5
					c0.3,0.4,0.2,1-0.1,1.3c-0.4,0.3-1,0.3-1.3,0l-2-2c0,0-0.1-0.1-0.1-0.2l-3-4.5c0.1,0.2,0.2,0.6,0.2,1.4c0.6,1,0.9,2.3,1.1,3.5
					l1.9,4.1c0.6,0.2,1.4,0.1,2.5-0.2c0.5-0.1,1,0.1,1.2,0.5c0.2,0.4,0.1,1-0.3,1.3c-0.9,0.6-0.9,1.3-0.9,2.6c0,0.4,0,0.7,0,1
					c0,0.1,0,0.3-0.1,0.4l0,0c0,0.1-0.1,0.1-0.1,0.2c-0.1,0.2-0.3,0.3-0.6,0.4l0,0l0,0l0,0l-2,0.3v4.7c0,0.4-0.2,0.8-0.6,0.9
					c-0.5,1.3-1.4,2.3-2.7,3.2c-0.4,0.2-0.8,0.2-1.2,0L48.9-92c-0.3-0.2-0.4-0.6-0.3-1c0.1-0.4,0.4-0.7,0.8-0.7l4.7-0.8
					c0.2-0.9,0.2-1.9,0.2-2.9c0-0.6,0-1.2,0-1.8c0-0.1,0-0.3,0.1-0.4l0,0l0,0l0,0l0,0l0,0c0-0.1,0.1-0.2,0.2-0.3
					c0.1-0.1,0.3-0.2,0.5-0.3l0,0l0,0l0,0l0,0l0,0l0,0l0,0l0,0l0,0l0,0l0,0l0,0l0,0l0,0l0,0l0,0l0,0l0,0l0,0l0,0l0,0l0,0l0,0
					l1.5-0.3l-1.4-2.9c-1.3-0.9-1.8-2.5-2.1-4.1H53c-0.3,0.1-0.6,0.1-0.9,0.2c-0.6,0.8-1.4,1.4-2.3,1.7c-0.4,0.1-0.8,0-1-0.3
					c-0.3-0.3-0.3-0.7-0.1-1.1c0.4-0.9,1.2-1.6,2.2-2c0.5-1,0.7-2.3,0.8-2.9c-0.2-0.2-0.2-0.5-0.2-0.7c0.1-0.7,0.1-1.8,1.2-1.8
					c0.3,0,0.5,0.1,0.7,0.3c0,0,0,0,0.1,0.1l-1.3-1.2c-0.3-0.4-0.2-1,0.2-1.4c0.4-0.3,1-0.2,1.4,0.2l3.5,4.7l1.2-1.3
					c0.6-0.7,1.3-1.5,2-2.1c0.5-0.8,1-1.7,1.4-2.4c-0.5-1.5,0.4-2.8,1-3.5c0-0.9-0.2-1.5-0.7-1.9c-0.2-0.2-0.3-0.5-0.3-0.8
					c0-0.3,0.1-0.6,0.4-0.8c0.2-0.2,0.4-0.4,0.7-0.6c0.8-0.8,1.7-1.7,3.1-1.7C66.3-126.8,66.7-126.7,67.1-126.6z M51.3-134.4
					c2.7,1.7,3.8,4,4.5,5.8c0.4,0.8,0.7,1.6,0.8,2.3v0.2l0.1,0.3c0.7,2.6,1.4,5,3.5,6.7c0.3,0.3,0.4,0.7,0.3,1
					c-0.1,0.4-0.4,0.7-0.8,0.7c-1.6,0.2-2.8-0.2-3.7-1.1c-1.5-1.6-1.4-4.4-1.4-6.7v-0.8c-0.2-0.7-0.4-1.3-0.6-1.9
					c-0.9-1.7-2.6-3.7-3.9-5.1c-0.3-0.1-0.5-0.3-0.8-0.4c-0.1-0.1-0.2-0.2-0.3-0.3c-0.6-0.7-1-1.2-0.7-1.9c0.2-0.4,0.6-0.6,0.9-0.6
					C49.5-136,49.8-136,51.3-134.4z M26.4-141.6c-0.4,0.2-0.8,0.1-1.1-0.2c-0.1-0.1-0.2-0.2-0.2-0.4h2.8
					C27.4-142.1,26.9-141.9,26.4-141.6z M16.1-141c-0.3,0.5-0.8,0.6-1.3,0.4c-0.2-0.1-0.5-0.3-0.7-0.4c-0.5-0.4-1-0.7-1.4-1.1h3.2
					C16.3-141.9,16.3-141.4,16.1-141z M99.1-1.3c0.2,0,0.4,0.1,0.7,0.2c0.2,0.1,0.3,0.2,0.4,0.4c0,0.1,0.1,0.1,0.1,0.2
					c0.1,0.1,0.2,0.2,0.4,0.3h-2.6c0-0.1,0-0.3,0.1-0.4C98.3-1,98.7-1.3,99.1-1.3z M118.8-92c-0.2-0.2-0.3-0.5-0.3-0.8l0,0
					c-0.2,0-0.4-0.1-0.6-0.1c-0.3-0.1-0.5-0.2-0.7-0.5c-0.1-0.2-0.2-0.5-0.1-0.8l1.4-4.4c0.1-0.4,0.5-0.7,0.9-0.7c0,0,0.1,0,0.2,0
					c0.5,0.1,0.8,0.5,0.8,1v3.9c0.3,0.1,0.6,0.2,0.9,0.2l6.4-1.1c0,0,0,0,0.1,0l0,0l0,0l0,0l0,0l0,0c0.1,0,0.1,0,0.2,0l0,0l0,0l0,0
					l0,0l0,0l0,0l0,0l0,0l0,0l0,0c0.1,0,0.1,0,0.2,0c2,0.6,2,2.6,2.1,3.8c0,0.3,0,0.6,0,0.9s-0.1,0.7-0.4,0.9
					c-0.3,0.2-0.6,0.3-0.9,0.2c-1.7-0.5-2-2-2-3.2c-1.9,0.8-3.4,1-5.7,0.5l-1.7,0.3C119.3-91.7,119-91.8,118.8-92z M132.8-82.9v0.5
					c0.1,0.2,0.1,0.3,0.1,0.5c0,0.3,0,0.6,0,1s0,0.8-0.1,1.2c0.2,2.7,1.1,3.9,3.1,4c0.5,0,0.9,0.4,0.9,0.9c0.1,0.5-0.2,0.9-0.7,1.1
					c-1.8,0.5-3.1,0.2-4.1-0.7c-1.2-1.2-1.3-3.3-1.2-5.1c0-0.4,0-0.8,0-1.3l-1.7-0.1c-0.5,0-0.8-0.3-0.9-0.8
					c-0.1-0.4,0.1-0.9,0.6-1.1c0.7-0.3,0.8-0.9,0.9-2.3l0,0c-0.2,0-0.5,0-0.7,0c-1.1,0-2.2,0-3.2-0.3l0,0c-0.4,0.3-1,0.2-1.3-0.2
					c-0.1-0.1-0.1-0.2-0.1-0.3c-1.2-0.6-2-1.5-2.7-2.8c-0.2-0.4-0.1-0.9,0.2-1.2l1.4-1.4c0.2-0.2,0.4-0.3,0.7-0.3
					c0.3,0,0.5,0.1,0.7,0.3l2.5,2.7c2.3-1.1,3.8-1,4.7,0C133-87.4,132.9-85.3,132.8-82.9z M90.9-25.4c1.8,2.1,3.7,4.3,6.3,5.4l2,0.6
					c0.5,0.2,0.8,0.7,0.7,1.2c-0.1,0.5-0.6,0.8-1.1,0.7c-0.7-0.1-1.5-0.4-2.2-0.7L88-20.8c-0.4-0.1-0.7-0.5-0.7-1s0.3-0.8,0.8-0.9
					l1.3-0.3c-0.4-0.8-0.7-1.6-0.9-2.5c-1.3-1.5-2.5-2.6-3.8-3.1L84-26.8c-0.1,0.3-0.4,0.5-0.7,0.6l-2.1,0.5c-0.5,0.1-1-0.2-1.2-0.8
					l-0.5-2.7c-0.1-0.3,0-0.5,0.1-0.7s0.4-0.4,0.6-0.4l2.1-0.4h0.4c0.6,0,1.2,0.1,1.7,0.2c0.6-0.2,1.1-0.3,1.5-0.3
					c2.7,0,3.5,2.6,4.2,4.5C90.4-26,90.7-25.7,90.9-25.4z M107.3-0.2h-1.1c0.2-0.1,0.3-0.1,0.5-0.1L107.3-0.2z M136.5-1.5l0.7-1.6
					c0.3-0.8,0.4-1.7,0.6-2.6c0-0.1,0.1-0.3,0.1-0.4c0,0.1-0.1,0.1-0.1,0.2c-0.1,0.1-0.2,0.3-0.4,0.4c-0.3,0.8-0.8,1.4-1.4,1.7
					c-0.1,0.3-0.1,0.6,0,0.9c0.2,0.5-0.1,1-0.6,1.2s-1,0-1.3-0.5l-2-4c-0.2-0.4-0.1-1,0.3-1.2c0.4-0.3,0.9-0.2,1.3,0.1L135-6
					c0.2-0.2,0.4-0.4,0.5-0.6l0.1-0.1c0.2-0.5,0.3-1.1,0.4-1.8c0-0.5,0.5-0.9,1-0.9c0.3,0,0.5,0.1,0.7,0.3s0.3,0.5,0.3,0.8
					c0,0.2,0,0.6,0,1.5c0.5-2.2,1.2-4.5,3.5-5.5l0.5-1.2l0.1-0.1v5.7c-0.1,0-0.3-0.1-0.4-0.2l0,0L139-2.3c-0.1,0.3-0.2,0.5-0.3,0.7
					l2.8-0.9c0.1,0,0.2-0.1,0.3-0.1s0.2,0,0.4,0.1v2.3h-7.8l2-0.7C136.4-1.1,136.4-1.3,136.5-1.5z M120.1-81.4l2.8-0.5
					c0.1,0,0.1,0,0.2,0c0.4,0,0.8,0.2,0.9,0.6c0.2,0.4,0,0.9-0.4,1.2c-0.9,0.6-0.9,1.3-0.9,2.6c0,0.1,0,0.2,0,0.3
					c0.4,0.2,0.9,0.4,1.4,0.6c0.2,0,0.4-0.1,0.7-0.1c0.4-0.1,0.7-0.1,1.1-0.1c0.3,0,0.5,0.1,0.7,0.3c0.2,0.2,0.3,0.5,0.3,0.7v0.3
					c0.4,0.2,0.8,0.4,1.2,0.5c0.4-0.1,0.7-0.1,1.1-0.1c2.6,0,3.2,2.3,3.6,3.7c0.2,0.2,0.3,0.5,0.4,0.7v-1.2c0-0.4,0.3-0.8,0.7-0.9
					s0.8,0,1.1,0.3c0.5,0.6,0.9,0.7,1.1,0.7c0.6,0,1.4-0.5,2.2-1c1.1-0.7,2.3-1.5,3.8-1.5c0.1,0,0.1,0,0.2,0v2.3l-7.6,3.8
					c-0.2,0.1-0.5,0.1-0.7,0c0,0.3,0.1,0.5,0.1,0.8c0,0.4-0.3,0.8-0.7,1c-0.4,0.1-0.9-0.1-1.1-0.5c-0.6-1-0.9-2.2-1.1-3.3l-0.1-0.4
					c-0.7-0.8-1.6-1.6-3-2.3c-0.5,0.2-1,0.4-1.6,0.7c-0.3,0.2-0.7,0.1-1,0c-0.3-0.2-0.5-0.5-0.5-0.8v-1.2c-0.3-0.1-0.6-0.2-0.9-0.3
					l-0.3-0.1c-1.3,0.1-2.2-0.3-2.8-1.2c-1-0.5-2-1.2-2.3-2.4c-0.2-0.9,0.1-1.8,0.8-2.8C119.6-81.2,119.8-81.3,120.1-81.4z
					 M87.9-37.5c-0.2,0.1-0.4,0.2-0.6,0.2l-2,0.1c-0.6,0-1-0.4-1-0.9l-0.1-2.1c0-0.5,0.4-1,0.9-1l2-0.1l0,0c0.3,0,0.6,0.1,0.7,0.3
					l1.1,1.2c0.2,0.2,0.3,0.5,0.2,0.7c0,0.3-0.2,0.5-0.4,0.7L87.9-37.5z M116.3-2.9c0.2-0.4,0.6-0.6,1.1-0.6c0.4,0,0.9,0.2,1.6,0.5
					c0.2,0.1,0.3,0.2,0.4,0.4l1.5,2.5h-3.5C116.3-1.6,116-2.3,116.3-2.9z M106.3-26.5l1.4-1.6l0.1-0.1c-0.2,0.3-0.2,0.6-0.1,0.9
					c0.2,0.4,0.5,0.6,0.9,0.6h3.9c0.4,0,0.8-0.3,0.9-0.7c0.4-1.4,0.4-2.6,0-3.9c0.2-0.4,0.1-0.8-0.2-1.1l-3.2-3.3l1.3-1.3
					c0,0,0,0,0.1-0.1c0.1-0.2,0.2-0.4,0.2-0.6l0,0l0,0l0,0l0,0l0,0l0,0l0,0l0,0l0,0l0,0l0,0l0,0l0,0c0-0.2-0.1-0.5-0.2-0.6
					c-0.2-0.3-0.5-0.5-0.7-0.8c-1-1-1.3-1.5-1.1-2.2c0.2-0.5-0.1-1-0.5-1.2s-1-0.1-1.2,0.3c-0.7,0.9-1.3,1.4-2,1.6l-4.6-1.8
					c-1.1-0.8-2.3-1.5-3.5-1.9c-0.9-1-1.2-1-1.5-1c-0.4,0-0.8,0.2-0.9,0.6c-0.3,0.7,0.2,1.2,0.7,1.8c0.2,0.2,0.4,0.3,0.6,0.3
					c0,0,0,0,0.1,0c0.4,0.5,1.1,1.5,1.4,2.5c-0.5,0.9-0.6,1.8-0.3,2.8c0,0.1,0.1,0.2,0.2,0.3c-0.1,0-0.2-0.1-0.3-0.1
					c-0.8-0.4-1.6-0.5-2.2-0.5c-1.1,0-1.7,0.5-2,0.9c-0.3,0.3-0.3,0.8-0.1,1.1c0.2,0.4,0.6,0.5,1,0.4c0.6-0.1,1.1-0.2,1.6-0.2
					c0.4,0,0.7,0,1,0.1s0.7,0.3,1,0.5c0.7,0.6,1.2,1.8,1.7,3c0.2,0.5,0.4,1,0.6,1.5c0,0.2,0.1,0.4,0.3,0.6c0.7,1.4,2,3.1,4.7,3.7
					C105.7-26.1,106.1-26.2,106.3-26.5z M102.5-30.8l-0.2-0.2v-0.7c0.4,0,0.8-0.3,1-0.7c0.3-1.3-3.4-3.6-4.1-4
					c-0.1-0.1-0.2-0.2-0.4-0.2c0.3,0,0.6-0.1,0.8-0.4c0.5-0.7,0.8-1.6,0.7-2.6c0.2-0.2,0.3-0.4,0.5-0.6l0.1-0.1c1.5,1,3,1.9,4.7,1.7
					l3.2,1.3l-0.9,0.9c-0.1,0.1-0.1,0.1-0.1,0.2l0,0l0,0c-0.1,0.2-0.1,0.3-0.1,0.5l0,0l0,0c0,0.1,0,0.2,0.1,0.3l0,0l0,0l0,0l0,0l0,0
					c0,0.1,0.1,0.2,0.2,0.3l0,0c0.4,0.5,0.8,0.9,1.3,1.3c0.7,0.7,1.4,1.4,1.9,2.1l-3.1,3.2l0,0c0.1-0.3,0.1-0.7-0.1-0.9
					c-0.3-0.4-0.8-0.5-1.2-0.3C105-28.8,103.8-29.7,102.5-30.8z M68.3-134.2h3.9c0.4,0,0.8,0.3,0.9,0.7c0.1,0.4,0,0.8-0.3,1.1
					c-1.9,1.6-1.9,3-1.6,4.3c0.9,1.8,1.8,3.6,2,5.6c0.4,1.9-0.1,3.5-1.4,5l8.7,5.3c0.5,0.3,0.6,0.9,0.4,1.3
					c-0.3,0.5-0.8,0.6-1.3,0.4l-11.8-5.9c-0.4-0.2-0.6-0.7-0.5-1.1s0.5-0.8,1-0.8h1.5c1.1-1.2,1.6-2.5,1.5-3.9
					c-0.2-0.8-0.6-1.7-1-2.6c-0.4-0.8-0.7-1.7-1-2.5c-0.9-1.8-1.8-3.7-2.1-5.7c0-0.3,0.1-0.6,0.2-0.8C67.8-134,68-134.2,68.3-134.2z
					 M7.8-39.6l-1-0.1c-0.4,0-0.7-0.3-0.8-0.6c-1.9-0.8-3.4-1.5-4.6-2.1C1-42.6,0.6-42.8,0.3-43v-2c0.1,0,0.1,0,0.2,0
					c0.2,0,0.4,0,0.5,0.2c0.3,0.2,0.7,0.4,1.2,0.7c0.9,0.3,2.1,0.4,3.3,0.6c0.5,0.1,1.1,0.1,1.6,0.2s0.8,0.5,0.8,1v0.8l0.4,0.2
					l7.2,0.7c0.5,0.1,0.9,0.5,0.9,1v0.9l3.4,0.3c0.5,0,0.8,0.4,0.9,0.9c0,0.5-0.2,0.9-0.7,1l-0.7,0.2c-0.1,0.4-0.5,0.7-1,0.7
					c-0.2,0-0.3,0-1-0.2c-0.2-0.1-0.4-0.2-0.6-0.4c-0.4-0.2-1-0.4-1.6-0.6C13.3-37.6,10.5-38.6,7.8-39.6z M62.8-142.2
					c0.5,0.8,0.9,1.5,1.1,2.2c0.2-0.2,0.5-0.4,0.8-0.3c0.4,0,0.8,0.1,1.2,0.1c0.6,0.1,1.2,0.2,1.5,0.1c0-0.4,0.3-0.8,0.7-0.9
					c0.1,0,0.2,0,0.3,0c0.4,0,0.7,0.2,0.9,0.6c0.8,1.7,3.4,2.6,5.9,3.6c2.9,1.1,5.8,2.1,7,4.6c0.2,0.5,0.1,1-0.4,1.3
					c-0.4,0.3-1,0.2-1.3-0.2c-2.1-2.5-6.3-3.8-10.3-5.1c-2-0.6-4.2-1.3-6-2.1c-0.1,0-0.1-0.1-0.2-0.1c0,0.1-0.1,0.3-0.1,0.4
					c0.4,1.2,0.8,2.4,1.1,3.6c0.1,0.5-0.1,0.9-0.5,1.1c-0.4,0.2-0.9,0.1-1.2-0.3c-0.3-0.3-0.5-0.7-0.8-1c-0.9-1.2-1.7-2.3-3.4-3.1
					c-0.1-0.1-0.3-0.2-0.3-0.3l0.7,2c0.1,0.3,0.1,0.7-0.2,1c-0.2,0.3-0.6,0.4-0.9,0.4l-6.3-1c-0.4-0.1-0.7-0.4-0.8-0.8
					s0.1-0.8,0.5-1l4.9-2.9c0.2-0.1,0.3-0.1,0.5-0.1c0.1,0,0.2,0,0.3,0.1c0.3,0.1,0.5,0.3,0.6,0.6l0.5,1.3c0-0.1,0-0.2,0.1-0.3
					c0.2-0.5,0.7-0.8,1.2-0.6c0.7,0.2,1.3,0.3,1.7,0.4c-0.4-1-0.8-1.9-1.2-2.9h2.4C62.8-141.8,62.8-142.2,62.8-142.2z M1.4-142.2
					c-0.1,0.2-0.3,0.4-0.5,0.5l-0.7,0.4v-0.9C0.2-142.2,1.4-142.2,1.4-142.2z M52.5-141.8c0,0.4-0.3,0.7-0.6,0.9
					c-0.3,0.1-0.8,0.1-1-0.2c-0.4-0.4-0.9-0.7-1.2-1.1h2.9L52.5-141.8z M15.3-0.7c0.2,0.1,0.3,0.2,0.5,0.3c0.1,0,0.1,0.1,0.2,0.2
					h-3.2c-1.3-1.2-2-2.4-2.3-3.8C9.9-5,9.3-6,8.7-6.8c-0.2-0.3-0.3-0.7-0.1-1C8.7-8.2,9-8.4,9.4-8.4h1.2c0.4-1.1,1.2-2.1,2-3
					l0.8-1.3c0.3-0.5,0.6-1,0.9-1.5c0.1-0.3,0-0.6-0.2-1c-0.8,0.4-1.7,0.7-2.6,0.9c-0.4,0.1-0.9-0.1-1.1-0.5
					c-0.2-0.4-0.1-0.9,0.2-1.2l2-2c0.3-0.3,0.8-0.4,1.2-0.1c0.2,0.1,0.4,0.2,0.5,0.4c1.9-1.5,3-3.8,3.8-5.9
					c-0.2-0.6-0.1-1.2,0.1-1.9c0-0.1,0.1-0.3,0.2-0.4c0.2-0.2,0.5-0.5,0.8-0.8v-0.1c0.3-1,0.6-1.9,1-2.8c0-0.1,0.1-0.1,0.1-0.2
					c1.6-2.4,7.7-3,9.1-3c0.6,0,1.7,0,1.8,1c0,0.4-0.1,0.7-0.4,0.9c0.3,0.3,0.6,0.6,0.9,1s0.3,1-0.1,1.4s-1,0.3-1.4,0l-1-1.1
					c-0.6-0.4-1.2-0.6-1.8-0.6c-2.1,0-4.5,2.5-6.4,4.5l0,0c-0.2,0.6-0.4,1.3-0.7,1.9c0.2,0.3,0.5,0.7,0.9,1c0.3,0.3,0.5,0.5,0.7,0.8
					c0.3,0.4,0.3,1-0.1,1.3l-1.2,1.2c0.5,0.5,1,1,1.5,1.6l1.7,1.7c0.1,0.1,0.1,0.1,0.2,0.2c0,0.1,0.1,0.1,0.1,0.2
					c0.2,0.5,0.2,1,0.1,1.5c-0.2,1.7-1.5,2.8-2.6,3.7c-0.5,0.4-1,0.8-1.3,1.3v0.1c0,0.2,0,0.4,0,0.6c0,1.1,0,1.9-0.2,2.6
					C20-5.3,20-4.5,20.2-4c0.3,0.3,0.6,0.5,0.9,0.8c0.2,0.2,0.4,0.4,0.7,0.6c0.4,0.3,0.5,0.8,0.2,1.3c-0.2,0.4-0.8,0.6-1.2,0.4
					c-1-0.4-1.7-1-2.2-1.9C18.2-3,17.9-3,17.5-2.9c-0.5,0.2-1-0.1-1.2-0.5c-0.2-0.5,0-1,0.4-1.3c0.7-0.4,1.2-1,1.4-1.8l0.1-0.2
					c0.1-0.6,0.1-1.1,0.1-1.6v-0.5c0-0.1,0-0.2-0.1-0.3c0-0.1,0-0.3,0-0.4v-0.1c-0.1-1.3-0.2-2.6,0-3.8c0.1-0.4,0.3-0.7,0.7-0.8
					c0.4-0.1,0.7,0,1,0.2l1.2,1.3c0.5-0.5,1-1.1,1.1-1.6c0-0.1,0-0.2,0-0.4c-0.6-0.5-1.1-1.1-1.6-1.6L19-18.2
					c-0.3-0.2-0.6-0.3-0.8-0.3c-0.3,1.8-1.1,3.5-2,5c-0.3,1-1,2-1.8,3c-1.1,1.8-2.2,3.9-2,5.8C13.3-3.1,14.4-1.4,15.3-0.7z M5.2-0.2
					H2.9c-1-1.7-1.8-3.2-1.2-4.3c0.2-0.4,0.7-0.9,1.9-0.9c0.6,0,1.5,0.2,2.7,0.5C6.8-4.8,7-4.3,6.9-3.8S6.3-2.9,5.8-2.9
					c-0.6,0-1,0.1-1.1,0.3s-0.2,0.7,0.2,2C5-0.5,5.1-0.4,5.2-0.2z M80.8-137c0-0.2,0-0.3,0.2-0.4l2-1.2c0.1,0,0.1-0.1,0.2-0.1h0.1
					c0.1,0,0.2,0.1,0.2,0.2l0.6,1.6c0,0.1,0,0.3-0.1,0.4c-0.1,0.1-0.2,0.2-0.4,0.1l-2.5-0.4C80.9-136.8,80.8-136.9,80.8-137z
					 M90.5-140.8c-0.2-0.5-0.5-0.9-0.8-1.4h2.4l0.2,0.7c0.2,0.5,0.4,1,0.5,1.4h0.1c0.1,0,0.1,0,0.2,0c0.3,0.1,0.5,0.2,0.6,0.5
					c0.9,1.5,1.2,3,0.9,4.6v0.2c0.1,0.3,0.1,0.6,0.2,0.9c0,0.2,0.1,0.4,0,0.5c-0.2,0.8-0.7,1.4-1.4,1.9c-0.4,1.1-0.7,2.2-0.4,3.4
					l0.1,0.2c0.1,0.5-0.1,1.1-0.7,1.2c-0.5,0.1-1.1-0.1-1.2-0.7l0,0l0,0l-0.1-0.3l0,0c-0.1-0.2-0.1-0.5-0.2-0.7
					c-0.3-1.3-0.5-1.9-1.2-2.1c-0.4-0.1-0.7-0.5-0.7-0.9s0.3-0.8,0.7-1c0.3-0.1,0.7-0.2,1-0.2c0.4-0.1,0.8-0.2,1.1-0.3v-0.1
					c0.3-0.7,0.5-1.3,0.6-2c-0.2-0.9-0.4-1.3-0.9-1.5c-3.3,1.1-4.8,2.5-4.9,4.7c0.3,0.8,0.4,1.7,0.5,2.6c0.1,0.7,0.1,1.3,0.3,1.8
					c0.8,0.4,1.5,1,2.1,1.5c1.4,1.2,2.7,2.2,4.1,1.2c0.4-0.3,0.9-0.2,1.3,0.1c0.3,0.3,0.4,0.9,0.1,1.3l-1.1,1.6
					c-0.3,0.4-0.8,0.6-1.2,0.3l-12.5-6.1c-0.5-0.2-0.7-0.8-0.5-1.2c0.2-0.5,0.7-0.7,1.2-0.6l4.2,1.2c-0.3-1.3-0.5-2.4-0.5-3.4
					c-0.2-0.4-0.5-0.7-1-0.9c-0.4-0.1-0.6-0.4-0.7-0.8c-0.1-0.4,0.1-0.7,0.4-1l7.5-5.1c0-0.1-0.1-0.1-0.1-0.2L90.5-140.8z M25.1-0.9
					l0.3-0.9C25.3-1.9,25.1-1.9,25-2l-0.2-0.1c-1.6,0.1-2.3-0.6-2.6-1.3c-0.7-0.4-1.4-1.1-1.5-2.1c-0.1-1.3,0.9-2.4,1.7-3.1
					c0.1-0.1,0.3-0.2,0.5-0.2l3-0.5c0.1,0,0.1,0,0.2,0c0.4,0,0.8,0.3,0.9,0.7c0.2,0.5,0,1-0.5,1.2c-1.3,0.7-1.7,1.7-2.1,2.9
					c0,0.1,0,0.1-0.1,0.2c0.3,0.1,0.5,0.3,0.8,0.4c0.2,0,0.5-0.1,0.7-0.1c0.4-0.2,0.8-0.3,1.1-0.3c0.3,0,0.7,0.1,0.9,0.4
					C28-3.6,28.1-3.3,27.9-3l-0.1,0.2c0.2,0.1,0.5,0.2,0.7,0.4c1.4-0.3,2.4-0.1,3,0.7c0.5,0.4,0.7,0.9,0.7,1.5h-3.8
					c-0.1,0-0.1-0.1-0.2-0.1s-0.3,0.1-0.4,0.1H25C25-0.4,25-0.7,25.1-0.9z M74.1-130.6l0.8-0.1l0.6-0.8c0.2-0.2,0.5-0.4,0.8-0.4
					c0.2,0,0.4,0,0.5,0.1l1.5,0.9c0.4,0.2,0.5,0.7,0.4,1.1c-0.1,0.4-0.5,0.7-0.9,0.8l-2,0.2l-1.5,1.9c-0.3,0.4-0.8,0.5-1.2,0.3
					c-0.4-0.2-0.6-0.7-0.5-1.1l0.6-2.2C73.4-130.3,73.7-130.6,74.1-130.6z M68-141.7l-0.9-0.5h2.2v0.1C69-141.7,68.4-141.5,68-141.7
					z M81.2-141.2c-1.3,2.2-2.7,3.6-4.3,4.2c-0.4,0.2-0.9,0-1.2-0.4c-0.2-0.4-0.2-0.9,0.1-1.2l3.6-3.6h2.8L81.2-141.2z M117-114.5
					L117-114.5h1.3c0.2-0.3,0.5-0.5,1-0.7c0.1,0,0.2-0.1,0.2-0.1c0.4-0.1,0.9-0.2,1.5-0.2c2.3,0,2.6,0.7,2.6,1.2
					c0,0.7-0.5,1.1-1.5,1.1c-0.4,0-0.8,0-1.4-0.1v1.3c0.3,0.3,0.7,0.7,1,1.1c0.3,0.3,0.6,0.6,0.9,0.9l0.3,0.3c1,1,2,2,3.2,2.6
					c0.6,0.1,1.1,0.3,1.6,0.5c0.8,0.1,1.8,0.1,2.7-0.3c0.5-0.2,1,0.1,1.2,0.6s0,1.1-0.5,1.3s-0.7,0.5-0.9,0.7c0.7,1,1.1,2.2,1.3,3.5
					c0.6,0.7,0.9,1,0.7,1.6c-0.2,0.4-0.5,0.6-0.9,0.6s-0.7-0.2-1.4-1l0,0c-0.1-0.1-0.1-0.1-0.2-0.2c-0.8-1-1.6-2.5-1.6-3.9
					c-0.3-0.4-0.7-0.7-1.2-0.9c-0.5-0.1-1.1-0.3-1.6-0.5c-0.9-0.1-1.8-0.1-2.8,0.2c-0.3,0.1-0.6,0-0.9-0.2c-0.2-0.2-0.4-0.5-0.4-0.8
					v-2.4l-1.1-1.2c-1.2-1.2-2-1.5-3.1-1.1c-0.3,0.1-0.6,0-0.9-0.1c-0.3-0.2-0.4-0.5-0.4-0.8v-2C116-114.1,116.4-114.5,117-114.5z
					 M116.4-101.9h1.5c0.1-0.1,0.3-0.3,0.4-0.4c1-1,1.3-1.5,1.1-2.2c-0.1-0.4,0-0.9,0.4-1.2c0.2-0.1,0.3-0.1,0.5-0.1
					c0.3,0,0.5,0.1,0.7,0.3l2,2l0,0l3.9,4c0.4,0.4,0.4,1,0,1.4l-1.4,1.4c-0.4,0.4-1,0.4-1.4,0l-3.4-3.4c-0.9,0.3-1.8,0.4-2.7,0.4
					h-1.7c-0.2,0-0.4-0.1-0.5-0.2c-0.2,0.2-0.6,0.3-0.9,0.3c-1.2-0.2-2.2-0.2-2.5-0.1c-0.1,0.1-0.2,0.2-0.4,0.3
					c-0.1,0.5,0.3,1.7,0.5,2.5c0.2,0.5,0.3,1,0.4,1.4v-0.1c0.2-0.3,0.5-0.5,0.8-0.5l0,0c0.5,0,0.8,0.3,1.3,1
					c0.1,0.2,0.2,0.4,0.2,0.7c0,0,0,0.1,0,0.3c0.2,0.4,0.4,0.8,0.6,1.2c0.3,0.5,0.6,1,0.9,1.5c1.1,1.8,2.2,3.6,1.6,4.8
					c0.4,1.2,0.8,2.4,1.1,3.6c0.1,0.5-0.1,0.9-0.5,1.1s-0.9,0.1-1.2-0.3c-0.3-0.3-0.5-0.7-0.8-1c-0.9-1.2-1.7-2.3-3.4-3.1
					c-0.5-0.2-0.7-0.8-0.5-1.3s0.7-0.8,1.2-0.6c0.7,0.2,1.3,0.3,1.7,0.4c-0.5-1.4-1.1-2.9-1.7-4.3c-0.3-0.6-0.5-1-0.6-1.4l-0.2-0.4
					c-0.1-0.1-0.1-0.2-0.1-0.3c0.1,2.3-1.3,3.2-2.6,3.5c-0.3,0.1-0.5,0-0.7-0.1l-2.6-1.6c-0.4-0.3-0.6-0.8-0.4-1.3s0.7-0.7,1.2-0.5
					c0.7,0.2,1.2,0.4,1.7,0.4c0.6,0,0.8-0.2,1.2-1.1l-1-1.3c-0.5,0.2-1.2-0.1-1.4-0.6c-0.4-1,0.9-3,1.7-3.9c0.3-0.4,0.6-0.7,1.1-0.9
					c0.6-0.4,1.3-0.6,2-0.6s1.5,0.2,2.2,0.7C115.8-101.8,116.1-101.9,116.4-101.9z M89.1-1c-1.4-2.1-3-4.5-1.7-7L87-9.1
					c-0.1-0.3,0-0.6,0.1-0.9c0.2-0.3,0.5-0.4,0.8-0.4h1.6l1.4-1.4c-0.1-0.5-0.5-1.2-0.8-1.9c-0.6-1.1-1.3-2.4-1.1-3.7
					c0.1-0.5,0.5-0.8,1-0.8h2c0.3,0,0.6,0.2,0.8,0.4c0.2,0.3,0.2,0.6,0.1,0.9c-0.3,0.8,0.1,1.2,1.1,2.2c0.3,0.3,0.5,0.5,0.7,0.8
					l0.1,0.1l0,0c0-0.5,0.4-1,0.9-1.1l6.6-0.7c0.4,0,0.7,0.1,0.9,0.4l0,0c-2.3-3-3.1-6.5-3.7-9.3v-0.2c-0.7-1.2-1.6-2.4-2.4-3.7
					l-0.6-0.8c0,0.1,0,0.1,0,0.2c0.3,1.5-0.4,3-2.3,4.5c-0.4,0.3-0.9,0.3-1.2,0c-0.4-0.3-0.5-0.8-0.3-1.2l1.6-3.3
					c-0.5-0.4-0.9-0.9-1.3-1.4c-1-1.2-1.9-2.2-3.1-1.9c-0.3,0.1-0.6,0-0.9-0.2c-0.2-0.2-0.4-0.5-0.4-0.8v-0.8c0-2-0.1-4.7,2.5-6
					c0.1-0.1,0.3-0.1,0.4-0.1c0.3,0,0.5,0.1,0.7,0.3c0.3,0.3,0.3,0.8,0.1,1.2c-1.7,2.5-0.5,3.9,1.6,6.1c0.8,0.8,1.5,1.6,2,2.4l0,0
					c0.1,0,0.1,0.1,0.1,0.2c0-0.2,0-0.3,0.1-0.5c0.2-0.3,0.5-0.5,0.8-0.5H97c2.6,0,3.3,2.7,4,5.4c1.9,3,3.7,6.3,3.9,9.6
					c0.2,0.3,0.5,0.6,0.8,0.9s0.4,0.7,0.2,1.1c-0.1,0.4-0.5,0.6-0.9,0.6h-0.3c-0.1,0.6-0.3,1.3-0.5,1.9c-0.1,0.4-0.5,0.6-0.9,0.6
					c-0.3,0-0.8-0.2-0.9-0.6l-0.8-1.8L95.5-13c-0.4,0-0.7-0.2-0.9-0.5c0,0.3-0.1,0.6-0.3,0.8l-1.7,1.8c0,0.6-0.4,1.2-1.1,1.7
					l1.1,1.1c0.2,0.2,0.3,0.4,0.3,0.7s-0.1,0.5-0.3,0.7l-1.4,1.3c-0.2,0.2-0.5,0.3-0.8,0.3l1.7,4.9h-2.4C89.5-0.5,89.3-0.7,89.1-1z
					 M93.3-107.5c0.6-0.3,1.3-0.8,2.1-1.4c0.1-0.1,0.2-0.2,0.3-0.3c0.1-0.1,0.2-0.2,0.3-0.2c1-1,1.8-2,2-2.3c0.2-0.4,0.5-0.7,1-0.7
					c0.4,0,0.7,0.2,0.9,0.5c0.3,0.5,0,0.9-0.2,1.2l1.4,1.4c0.4,0.4,0.4,1,0,1.4l-2,2c-0.4,0.4-1,0.4-1.4,0l-1.3-1.3
					c-1.8,1.7-3.8,2.3-5.8,2.9c-0.6,0.2-1.2,0.4-1.7,0.6s-1-0.1-1.2-0.5c-0.2-0.5,0-1,0.5-1.3l1.2-0.6c-0.5-0.4-0.9-0.8-1.3-1.4
					c-0.3,0-0.5,0-0.7,0c-0.5,0-1.1-0.5-1.1-1c0-0.9,0.7-1.2,2.7-1.2C91.3-109.6,92.9-108.8,93.3-107.5z M125-125.3
					c0.2-0.3,0.5-0.5,0.9-0.5c0.1,0,0.3,0,0.4,0.1l1.8,0.9c0.5,0.2,0.7,0.8,0.4,1.3l-0.9,1.8c0,0.1-0.1,0.2-0.2,0.3L123-117
					c-0.3,0.3-0.9,0.4-1.3,0.1c-0.4-0.3-0.5-0.8-0.3-1.2L125-125.3z M136.2-124.9c1-0.2,2-0.3,3-0.3c1.1,0,2,0.1,3,0.3v2.7l-0.7,0.4
					c0.1,0.2,0.1,0.5,0,0.8c-0.1,0.4-0.6,0.7-1.1,0.7c-0.9,0-3.8-1.4-4.7-2.6c-0.4-0.6-0.4-1.1-0.3-1.4
					C135.5-124.6,135.8-124.8,136.2-124.9z M129.9-0.9C130-1,130.2-1,130.4-1s0.3,0,0.5,0.1c0.3,0.2,0.6,0.4,0.7,0.7h-2.2
					C129.5-0.5,129.6-0.8,129.9-0.9z M129.8-122c0.1,0,0.2,0,0.3,0c0.8,0.2,1.6,0.5,2.5,0.9h0.2c0.3-0.1,0.6-0.1,0.9-0.2
					c0.4-0.1,0.8,0,1,0.3l0.9,1.1c2.4,1,4.7,1.8,6.5,2.2v2.6c-0.6,0.4-1.1,1-1.6,2.3c-0.1,0.3-0.4,0.6-0.8,0.6
					c-0.3,0.1-0.7-0.1-0.9-0.4l-4.5-5.8l-0.2-0.1c-0.6-0.2-1.2-0.5-1.8-0.7c-0.9,0.2-1.4,0.5-1.8,1.2c-0.2,0.4-0.7,0.6-1.1,0.5
					c-0.4-0.1-0.8-0.5-0.8-1v-2.8c0-0.3,0.1-0.6,0.4-0.8C129.4-121.9,129.6-122,129.8-122z M133.9-116c0.2-0.3,0.4-0.5,0.8-0.5h0.1
					c0.3,0,0.6,0.1,0.8,0.4c0.2,0.2,0.4,0.5,0.6,0.7c0.9,1,2.2,2.3,1.5,4.2c-0.1,0.4-0.5,0.7-0.9,0.7s-0.8-0.2-0.9-0.6
					c-0.5-1.1-1-2-1.5-2.4c-1.3,0.9-3.1,0.9-4.6,0.9l-0.3,0.2c-0.8,0.5-1.7,1-2.5,1.4c0.3,0.2,0.5,0.4,0.8,0.5h1.3
					c0.5,0,0.9,0.4,1,0.8c0.1,0.5-0.2,0.9-0.7,1.1c-0.7,0.2-1.3,0.2-1.9,0.1h-2.3c-0.5,0-0.9-0.4-1-0.9c-0.1-0.7,0-1.3,0-1.8
					c0-0.2-0.1-0.4,0-0.5c0-0.2,0.1-0.3,0.3-0.4c0.8-2.2,3.2-2.4,4.8-2.4C130.6-115.5,132.3-116.3,133.9-116z M141.3-61.4h-0.2
					c-1.1,0.4-2.3,0.9-3.6,1.4l-0.9,0.4c-0.3,0.1-0.6,0.1-0.9-0.1c-0.3-0.2-0.4-0.4-0.5-0.7c-0.1-0.8,0.1-1.4,0.5-1.9
					c0.8-0.9,2.2-1.1,4.3-1.1h0.8c0.4-0.2,0.9-0.3,1.4-0.5v2.5C141.9-61.4,141.6-61.4,141.3-61.4z M108.8-0.3
					c-0.2-0.3-0.4-0.5-0.6-0.8s-0.5-0.7-0.7-1s-0.2-0.7,0-1l0.6-1.1c0.2-0.3,0.5-0.5,0.8-0.5l0,0c0.3,0,0.7,0.2,0.8,0.5
					c0.9,1.5,1.2,2.7,1.1,3.8c0.1,0.1,0.1,0.2,0.2,0.4h-2.5C108.7-0.2,108.8-0.3,108.8-0.3z M51.6-84.8
					C51.6-84.7,51.6-84.7,51.6-84.8l0.2,0.3c0.1-0.1,0.3-0.1,0.4-0.2c1.4-2.8,4.4-4.8,6.7-6.4l0.3-0.1c0.6-1,1.3-2,1.9-3.1l0.5-0.8
					c0.1-0.2,0.4-0.4,0.7-0.5c0.1,0,0.1,0,0.2,0c0.2,0,0.4,0.1,0.6,0.2c0.8,0.6,1,1.3,1,1.8c0,1.3-1.3,2.3-3.4,3.8
					c-1.7,2.5-3.7,5.1-6.8,6.6c-0.1,0.2-0.2,0.5-0.2,0.7c-0.1,0.3-0.3,0.6-0.6,0.7s-0.7,0.1-0.9-0.1l-0.5-0.4
					c-0.8,0.3-1.8,0.4-2.7,0.6c-0.4,0.1-0.8-0.2-1-0.5c-0.2-0.4-0.1-0.8,0.2-1.1l0.9-0.9l-4.9-3.6c-0.4-0.3-0.5-0.9-0.2-1.4
					c0.3-0.4,0.9-0.5,1.3-0.3l5.9,4C51.4-85.3,51.6-85.1,51.6-84.8z M7.5-123.2c0.5,0.1,0.8,0.6,0.8,1.1c-0.1,0.6-0.6,0.9-1.1,0.9
					c-1.3-0.2-2.5-0.5-3.5-0.8l-2.8-0.6l-0.7,0.4v-2.7c1.2,0.2,2.3,0.5,3.4,0.8L7.5-123.2z M76.5-105.1c0.4-1.3,1-3,2.8-3.8
					c0.1-0.1,0.3-0.1,0.4-0.1c0.3,0,0.5,0.1,0.7,0.3c0.3,0.3,0.4,0.8,0.2,1.1l-3.9,7.9c-0.1,0.3-0.4,0.5-0.7,0.5
					c-0.3,0.1-0.6-0.1-0.9-0.3l-2-2c-0.3-0.3-0.4-0.8-0.2-1.2c0.2-0.4,0.6-0.6,1-0.5C75.4-102.7,75.8-103.2,76.5-105.1z M2.5-40.5
					c-0.2,0.4-0.6,0.7-1.1,0.6C1-40,0.6-40,0.2-40.1v-2.3c0.7,0,1.3,0.3,1.9,0.7C2.5-41.4,2.7-40.9,2.5-40.5z M3.4-29.6
					c0.5,0.1,0.8,0.5,0.8,1c0,0.3,0,0.6,0,0.9c0,1.3,0,3-1.9,4.3L0.2-18v-6.7c0.1,0,0.3-0.1,0.5-0.2l1.6-4.2
					C2.5-29.5,2.9-29.8,3.4-29.6z M104.5-107.2c0.1-0.1,0.2-0.2,0.3-0.2h0.1c0.2,0,0.3,0.2,0.3,0.4l0.1,4.5c0,0.1,0,0.2-0.1,0.3
					c-0.1,0.1-0.2,0.1-0.3,0.1l-2.5-0.4c-0.1,0-0.2-0.1-0.3-0.2s0-0.3,0-0.4L104.5-107.2z M93.2-104.8c0.6-0.3,1.2-0.5,1.8-0.7
					c0.1-0.1,0.3-0.1,0.4-0.1h0.1c0.1,0,0.2,0,0.2,0c2.5-0.1,3.5,2,4.2,3.6c1.2,0.9,2.8,2.2,3.1,4c0.3,0,0.6,0.2,0.7,0.5
					c0.1,0.3,0.1,0.6,0,0.9s-0.3,0.6-0.4,0.8c-0.5,1.2-1.2,2.9-3.3,3c-0.4,0-0.8-0.2-1-0.6s-0.1-0.8,0.2-1.1
					c0.9-0.9,1.4-1.6,1.7-2.3c-1.3-0.9-2-2.5-2.6-4L98-101c-0.8-0.6-1.6-1.2-2.2-1.8c-0.1,0.3-0.2,0.6-0.2,0.9l0.5,1.2
					c0.2,0.4,0,1-0.4,1.2c-0.4,0.2-0.9,0.2-1.3-0.2c-0.5-0.5-0.7-1.1-0.8-1.8l-0.9-2.1C92.6-104,92.8-104.6,93.2-104.8z M81.3-101.3
					l1.4,1.3c0.4,0.4,0.4,1,0.1,1.4l-1.3,1.5c-0.2,0.2-0.5,0.3-0.8,0.3l-1.6-0.1c-0.3,0-0.5-0.1-0.7-0.4c-0.2-0.2-0.2-0.5-0.2-0.8
					l0.2-1.2c0-0.2,0.1-0.4,0.2-0.5l1.3-1.5c0.2-0.2,0.4-0.3,0.7-0.3l0,0C80.9-101.5,81.1-101.5,81.3-101.3z M91.4-94.8
					c0.3,0,0.6,0.1,1,0.2c0.3-0.3,0.7-0.5,1.1-0.8c0.1,0,0.1-0.1,0.2-0.1l0,0l0,0h0.1l0,0l0,0l0,0h0.1c0.2,0,0.4,0.1,0.5,0.2l0,0
					l5.9,4c0.3,0.2,0.5,0.6,0.4,1c-0.1,0.4-0.3,0.7-0.7,0.8c-0.4,0.1-0.7,0.2-1.1,0.2c-1.9,0-3-1.4-4.1-2.7
					c-0.2-0.2-0.3-0.4-0.5-0.6c-0.2,0.2-0.7,0.4-1.2,0.3c-0.3,0.8-0.3,1.9-0.3,3v0.8c0,0.5-0.3,0.9-0.8,1s-0.9-0.2-1.1-0.6
					c-1.5-3.8-1.5-5.1-1-5.9C90.2-94.4,90.6-94.8,91.4-94.8z M57.3-46.5c-0.5,0.1-0.9-0.1-1.1-0.5l-1-2.1l-1.3-0.3
					c-0.3-0.1-0.5-0.2-0.6-0.5c-0.1-0.2-0.1-0.5-0.1-0.7l1.2-4.1c0.1-0.4,0.5-0.7,0.9-0.7c0.1,0,0.2,0,0.2,0l1.8,0.4
					c0.4,0.1,0.8,0.5,0.8,1v6.6C58.1-47,57.7-46.6,57.3-46.5z M89.7-46.3c-0.2,0.3-0.6,0.4-0.9,0.3c-2.2-0.4-3.8-1.4-4.7-2.9
					C84-49,84-49.1,84-49.2l-0.2-1c-0.1-0.4,0.1-0.8,0.5-1c0.2-0.1,0.3-0.1,0.5-0.1s0.4,0.1,0.6,0.2c0.2,0.2,0.4,0.3,0.6,0.5
					c1.3,1.1,2.4,2,4,1.2c0.4-0.2,0.9-0.1,1.2,0.3c0.3,0.4,0.3,0.9,0,1.3L89.7-46.3z M91-50.6h-2c-0.4,0-0.8-0.3-0.9-0.7l-1.9-5.9
					c-0.1-0.4,0-0.9,0.4-1.2c0.2-0.1,0.3-0.1,0.5-0.1c0.3,0,0.5,0.1,0.7,0.3l1.7,1.7h1.6c0.5,0,1,0.4,1,1v4
					C92-51.1,91.6-50.6,91-50.6z M62.8-59.2c-0.4,0.4-1,0.4-1.4,0L60-60.6c-0.3-0.3-0.4-0.8-0.2-1.1l2.8-5.6
					c0.2-0.3,0.5-0.5,0.9-0.5c0.1,0,0.1,0,0.2,0c0.4,0.1,0.8,0.5,0.8,1v2.4l1.1,1.1c0.4,0.4,0.4,1,0,1.4L62.8-59.2z M83.9-46.9
					c-0.4,0.3-1,0.1-1.3-0.3c-0.8-1.1-1.3-2.2-1.6-3.4l-2.7-5.9c-0.2-0.4-0.1-0.9,0.2-1.2c0.3-0.3,0.8-0.3,1.2-0.1l1.1,0.7
					c0.2-0.8,0.6-1.7,1-2.5c0.3-1.8,0.3-3.2-0.5-4.3l-0.8,1.3c-0.3,0.5-0.9,0.6-1.4,0.3l-1.7-1c-0.2-0.1-0.4-0.4-0.4-0.6
					c-0.1-0.3,0-0.5,0.1-0.7l1.5-2.4c0.1-0.2,0.4-0.4,0.6-0.4c0.1,0,0.1,0,0.2,0c0.2,0,0.4,0.1,0.5,0.1l1.6,1c1.6,0.6,2.5,1.4,3,2.4
					c0.7,1.7-0.1,3.5-0.9,5.1c-0.1,0.5-0.2,1-0.3,1.6c-0.5,2-0.9,4.1-0.5,6.2l1.4,3.1C84.5-47.7,84.3-47.2,83.9-46.9z M6.5-54.2
					c-0.4-0.1-0.7-0.4-0.8-0.8l-0.4-2c-0.1,0-0.1,0-0.2,0c-0.2,0-0.5,0-0.7,0c-1.1,0-2.5-0.2-3.6-1.6c-0.2-0.3-0.3-0.8,0-1.1
					c0.2-0.4,0.5-0.5,0.8-0.5h0.1l7.1,1.1c0.3,0.1,0.6,0.3,0.8,0.6c0.1,0.3,0.1,0.7-0.1,1l-2.1,3C7.2-54.3,6.8-54.2,6.5-54.2z
					 M93-76.2c0-0.4,0-0.7,0-1.1c0-0.3,0.2-0.5,0.4-0.7c0.2-0.2,0.5-0.2,0.8-0.2h0.2c0-0.1,0-0.2,0.1-0.3c0.1-0.4,0.3-0.7,0.7-0.8
					c0.1,0,0.2,0,0.3,0c0.3,0,0.5,0.1,0.7,0.3l1.4,1.6c0.3,0.3,0.3,0.8,0.1,1.1c-0.2,0.4-0.6,0.6-1,0.5L95.8-76
					c-0.3,0.5-0.6,1-0.9,1.5c-0.3,1.1-0.9,1.8-1.9,2.1c-0.1,0-0.3,0.1-0.5,0l-1.3-0.1c-0.1,0-0.3,0-0.5,0v1.5c0,0.4-0.3,0.8-0.6,0.9
					c-0.4,0.1-0.8,0-1.1-0.3l-2.8-3.2c-0.3-0.3-0.3-0.9-0.1-1.2c0.3-0.4,0.8-0.5,1.2-0.3c0.6,0.3,1.3,0.5,1.8,0.6
					c0.2-0.2,0.5-0.2,0.7-0.2l1.3,0.2c0.7-0.1,1.2-0.4,1.7-0.8C93-75.6,93-75.9,93-76.2z M33.3-43.2c-0.4,0.2-0.8,0.1-1.1-0.2
					c-1.7-1.8-2.5-3.7-2.9-5.2c-0.1-0.2-0.1-0.4-0.2-0.6l-0.3-1c-0.4-1.7-0.8-3.2-1.8-4.3l0,0c-0.3,0.1-0.6,0.1-0.9,0.2
					c-0.2,0-0.4,0-0.5,0c-1.3-0.4-1.7-1.3-1.9-2.1c-0.3-0.1-0.5-0.1-0.8-0.2c-0.4-0.1-0.7-0.4-0.8-0.8c-0.1-0.4,0.1-0.8,0.4-1
					c0.9-0.6,0.9-1.3,0.9-2.6c0-0.4,0-0.7,0-1.1c0-0.5,0.5-0.9,1-0.9l0,0l7.1,0.2c0.5,0,0.9,0.4,0.9,0.8c0.1,0.5-0.2,0.9-0.7,1.1
					c-0.9,0.3-1.8,0.4-2.8,0.5c-1.8,0.2-2.9,0.3-3.6,1.4c0,0.2,0,0.5,0,0.7c0,0.1,0,0.2,0,0.3c0.8,0.3,1.5,0.7,2.2,1.2
					c0.8-0.2,1.3-0.5,1.6-1.1c0.2-0.4,0.5-0.6,1-0.6c0.4,0,0.8,0.3,0.9,0.7c0.4,1.4,0.2,3,0.1,4.5C31-52,30.8-50.8,31-49.8l0.1,0.5
					c0.2,0.5,0.6,1.1,1.9,1.4c0.5,0.1,0.8,0.5,0.8,1v2.7C33.9-43.8,33.7-43.4,33.3-43.2z M33.2-56.5c-0.1-0.4,0-0.8,0.3-1l5.3-4.8
					c0.2-0.2,0.4-0.3,0.7-0.3c0.1,0,0.2,0,0.3,0.1c0.3,0.1,0.6,0.4,0.6,0.8l0.6,3.9c0.1,0.4-0.1,0.8-0.5,1c-0.3,0.2-0.8,0.2-1.1-0.1
					L37.9-58l0,0c-0.8,1.1-1.9,2.5-3.9,2.1C33.6-55.8,33.3-56.1,33.2-56.5z M115.4-62.3c-1.1,2-2.5,3-4.3,3.8l-1.2,1.2
					c-0.4,0.4-1,0.4-1.4,0l-0.1-0.1c-0.2,0.1-0.5,0.2-0.8,0.3c-0.5,0.2-1,0-1.3-0.5l-2-4c-0.2-0.4-0.1-1,0.3-1.2
					c0.4-0.3,0.9-0.2,1.3,0.1l2.9,2.9l0,0c0.4-0.1,0.7-0.3,1.1-0.4l4.4-4.5l0,0l0,0c0.1-0.1,0.2-0.2,0.4-0.2c0.4-0.1,0.7-0.2,1-0.2
					c1.4,0,2.4,0.9,3.1,1.7c0.2,0.2,0.4,0.4,0.7,0.6c0.3,0.2,0.4,0.6,0.3,0.9c0,0.2-0.2,0.4-0.3,0.5c0.3,0,0.6,0.2,0.7,0.4
					c0.3,0.4,0.2,1-0.2,1.3l-0.8,0.7c-1.8,1.4-3.8,3-3.8,4.6c0,0.5-0.3,0.9-0.8,1l-2.1,0.3c-0.3,0.1-0.7-0.1-0.9-0.3
					c-0.2-0.3-0.3-0.6-0.2-1l0.1-0.4l-0.6,0.4c-0.7,0.7-1.2,1.6-1.8,2.4c-0.8,1.3-1.6,2.6-3.2,3.8c-0.4,0.3-1,0.2-1.3-0.2l-2-2.3
					c-0.2-0.2-0.3-0.5-0.2-0.8c0-0.3,0.2-0.6,0.5-0.7l6.8-3.9c0.7-0.6,1.4-1.1,2.3-1.5c0.1,0,0.2-0.1,0.3-0.1l0.4-0.1l5.8-3.3
					C117.3-60.8,116.2-61.5,115.4-62.3z M56.2-59.7c0.1-0.4,0.4-0.7,0.8-0.8c0.2,0,0.5-0.1,0.7-0.1l0,0c1.8,0,3.2,1.3,4.4,2.5
					c0.5,0.5,1,0.9,1.4,1.2l0.4,0.3c0.2,0.1,0.3,0.1,0.5,0.1c0.3-0.5,0.8-1,1.3-1.3c-0.3-0.8-0.3-1.9,0.4-3.4l0,0
					C66-61.6,66-62,66.3-62.3c1-1,1.5-1.5,1.7-1.7c0,0,0,0,0.1-0.1c0.2-0.2,0.5-0.3,0.8-0.3l0,0c0.4,0,0.7,0.3,0.9,0.6
					c0.1,0.4,0,0.8-0.3,1.1l0,0l-0.1,0.1c0.4,0.1,0.6,0.5,0.6,0.9v2c0,0.4-0.2,0.7-0.5,0.9c0.1,0,0.1,0.1,0.2,0.1H71
					c0.5,0,0.9,0.4,1,0.8c0.1,0.5-0.2,0.9-0.7,1.1c-0.7,0.2-1.4,0.2-2,0c-0.6,0-1.2,0-1.8,0.2c-0.2,0.3-0.4,0.6-0.6,0.8
					c0.7,0.4,1.3,0.8,2,1.1c0.9,0.1,1.7,0.5,2.5,0.8l0.3,0.1c2.1,0.4,3.4-0.2,4.1-1.8c0.1-0.2,0.1-0.4,0.2-0.6
					c0.2-0.5,0.7-0.8,1.2-0.6c0.5,0.2,0.8,0.7,0.6,1.2c-0.1,0.2-0.2,0.5-0.3,0.7c-1,2.4-2.3,3.5-4,3.5c-0.9,0-1.7-0.3-2.5-0.6
					c-0.9-0.2-1.8-0.5-2.8-0.9c-0.6-0.1-1.4,0-2.3,1.5c-0.2,0.3-0.4,0.4-0.7,0.4c-0.3,0-0.6-0.1-0.8-0.3L63-52.7
					c-0.2-0.2-0.3-0.4-0.3-0.7s0.1-0.5,0.3-0.7l0.7-0.7L63-55.2c-0.2-0.1-0.4-0.2-0.5-0.3L56.7-59C56.3-58.9,56.1-59.3,56.2-59.7z
					 M49.6-100.2l-0.3,1c0.1,1.8-0.5,3.6-1.8,5.3c-0.3,0.4-0.8,0.5-1.2,0.3c-0.4-0.2-0.6-0.7-0.5-1.2l1.5-4.6
					c-0.1-1.1-0.7-2.2-1.6-3.1c-0.5-0.2-1-0.1-1.8,0.4l-1.5,1.5c1.1,1.1,1.4,2.5,1.4,3.7c0,0.3,0,0.5,0,0.8s0,0.6,0,0.8v0.8
					c0,0.3-0.2,0.6-0.4,0.8c-0.3,0.2-0.6,0.2-0.9,0.1c-0.2-0.1-0.3-0.1-0.4-0.1c-0.6,0-1.1,0.5-1.8,1.2c-0.3,0.3-0.5,0.5-0.8,0.7
					c-0.4,0.3-0.9,0.3-1.3,0c-0.4-0.3-0.4-0.9-0.1-1.3c0.2-0.2,0-0.6-0.2-0.9c-1.7-1.5-2-2-1.8-2.6c-0.5-0.7-1-1.3-1.8-1.8
					c-0.4-0.2-0.8-0.4-1.2-0.6c-0.3,0-0.5-0.1-0.8-0.1c-0.4-0.1-0.9-0.1-1.3-0.1l1,1.5c0.8,0.8,1.9,1.5,2.8,2l0,0l0,0l0,0l0,0l0,0
					l0,0c0.5,0.3,1,0.6,1.4,0.9l1.1,0.7c0.4,0.3,0.6,0.8,0.4,1.3l-0.5,0.9c-0.2,0.3-0.5,0.5-0.8,0.5c-0.4,0-0.7-0.1-0.9-0.4
					l-0.3-0.4l-5.9-0.9c-0.3,0-0.5-0.2-0.6-0.4l-1.5-2c-0.2-0.3-0.2-0.7-0.1-1.1c0.2-0.3,0.5-0.5,0.9-0.5s0.8,0.1,1.2,0.1
					c0.4,0.1,0.8,0.1,1.2,0.1c-0.8-0.7-1.3-1.5-1.6-2.2l-1.6-2.2c-0.1-0.1-0.3-0.1-0.4-0.2l-2.4-0.4c-0.3,0-0.5-0.2-0.6-0.4l-2-2.8
					c-0.3-0.4-0.2-1,0.2-1.3c0.2-0.2,0.4-0.2,0.6-0.2c0.3,0,0.5,0.1,0.7,0.3c1.2,1.2,2.5,2.2,4.1,2.9l0.5,0.1c0.3,0,0.5,0.2,0.6,0.4
					c0.8,0.3,1.6,0.5,2.4,0.8c0.9,0.3,1.8,0.6,2.7,0.9l0,0c0.1,0,0.2,0,0.3,0.1c0.6,0.2,1,0.5,1.5,0.9c1.5,0.9,2.6,2.2,3.5,4
					C39-96.1,39-96,39-95.8c0.1,0.1,0.1,0.2,0.2,0.2c1.7-0.1,2.4-0.5,2.5-0.8c0-0.1,0-0.2,0-0.4c-0.2-0.9-1.3-2.1-2.3-2.9
					c-0.1,0-0.2,0.1-0.3,0.1c-0.4,0.1-0.9,0-1.1-0.4c-0.2-0.3-0.7-1-0.4-1.7c0.2-0.3,0.6-0.6,1-0.6c0.2,0,0.5,0,1,0.3
					c0.5-0.3,1.1-0.6,1.6-1c0.5-0.3,1-0.6,1.4-0.9l1.4-1.4c0.2-0.2,0.4-0.3,0.7-0.3c0.2,0,0.3,0,0.5,0.1c0.6,0.3,1.1,0.7,1.5,1.1
					c1,0.5,1.9,1.6,2.8,3.3C49.7-100.7,49.7-100.4,49.6-100.2z M141.6-44.7c0.2-0.2,0.4-0.3,0.6-0.3v2c-0.2-0.1-0.3-0.2-0.5-0.4
					C141.3-43.7,141.3-44.3,141.6-44.7z M122.5-27.7L122.5-27.7c0.4,0.3,0.5,0.7,0.4,1.1c0.3,1.5-0.4,3-2.3,4.5
					c-0.4,0.3-0.9,0.3-1.2,0c-0.4-0.3-0.5-0.8-0.3-1.2l1.6-3.3c-0.5-0.4-0.9-0.9-1.3-1.4c-1-1.2-1.9-2.2-3.1-1.9
					c-0.3,0.1-0.6,0-0.9-0.2c-0.2-0.2-0.4-0.5-0.4-0.8v-0.8c0-2-0.1-4.7,2.5-6c0.1-0.1,0.3-0.1,0.4-0.1c0.3,0,0.5,0.1,0.7,0.3
					c0.3,0.3,0.3,0.8,0.1,1.2c-1.7,2.5-0.5,3.9,1.6,6.1C121.3-29.3,122-28.6,122.5-27.7z M140.9-40c-0.1,0.1-0.2,0.2-0.4,0.3
					c-0.1,0.5,0.3,1.7,0.5,2.5c0.2,0.5,0.3,1,0.4,1.5c0.1,0.2,0.1,0.4,0.1,0.5c0.6,3-1,4-2.5,4.3c-0.3,0.1-0.5,0-0.7-0.1l-2.6-1.6
					c-0.4-0.3-0.6-0.8-0.4-1.3c0.2-0.5,0.7-0.7,1.2-0.5c0.7,0.2,1.2,0.4,1.7,0.4c0.6,0,0.8-0.2,1.2-1.1l-1-1.3
					c-0.5,0.2-1.2-0.1-1.4-0.6c-0.4-1,0.8-3,1.7-3.9c0.3-0.4,0.6-0.7,1.1-0.9c0.6-0.4,1.3-0.6,2-0.6c0.1,0,0.2,0,0.3,0v2.3
					C141.6-40.1,141.1-40,140.9-40z M67.7-68.3c-0.6-0.1-1.3-0.3-1.9-0.6l-0.7,0.7c-0.3,0.3-0.7,0.4-1.1,0.2
					c-0.4-0.2-0.6-0.5-0.6-0.9v-2c0-0.4,0.2-0.7,0.5-0.9c0.3-0.2,0.7-0.1,1,0.1c0.1,0.1,0.3,0.2,0.4,0.3l0.2-0.2
					c0.2-0.2,0.5-0.3,0.8-0.3s0.6,0.2,0.7,0.4c0.3,0.5,0.7,0.9,1.1,1.1c2,0.2,3.9-0.9,5.1-3.1c0.2-0.3,0.4-0.4,0.7-0.5H74
					c0.3,0,0.5,0.1,0.7,0.3l2,2c0.2,0.2,0.3,0.6,0.3,0.9c-0.1,0.3-0.3,0.6-0.6,0.7c-0.5,0.2-1.1,0.4-1.7,0.7c-1.5,0.6-3.3,1.4-5,1.4
					C69.1-67.8,68.3-68,67.7-68.3z M134-78.8c-0.4,0-0.8-0.3-0.9-0.8c-0.1-0.4,0.1-0.8,0.4-1.1l1-0.6c0.2-0.1,0.3-0.1,0.5-0.1
					c0.1,0,0.2,0,0.2,0.1c0.1,0,0.2-0.1,0.3-0.1s0.3,0,0.4,0.1l1.9,0.8l4.4,0.4v3.9l-5.4-2.4L134-78.8z M103.3-47
					c0.1,0,0.2,0,0.2,0.1l4,2.9c0.2,0.1,0.2,0.3,0.1,0.5s-0.3,0.3-0.5,0.2l-6-1.8c-0.1,0-0.3-0.2-0.3-0.3c0-0.2,0.1-0.3,0.2-0.4
					l2-1.2C103.1-47,103.2-47,103.3-47z M125-36.1c1.3-0.7,1.7-1.7,2.1-2.9c0.1-0.4,0.3-0.7,0.4-1c0.2-0.4,0.5-0.6,0.9-0.6l0,0
					l7,0.2c0.5,0,0.9,0.4,0.9,0.9c0.1,0.5-0.2,0.9-0.7,1.1c-1,0.3-1.9,0.4-2.9,0.5c-1.7,0.2-3.2,0.3-4.5,1.7
					c-0.1,0.3-0.2,0.5-0.3,0.8c0,0.1,0,0.1-0.1,0.2c0.6,0.3,1,0.6,1.4,1c0.9-0.2,1.6-0.6,2.2-1.3c0.3-0.3,0.7-0.4,1.1-0.3
					c0.4,0.2,0.6,0.6,0.6,1c-0.1,1.4-0.8,2.9-1.5,4.5c-0.6,1.2-1.2,2.5-1.3,3.5v0.4c0,0.4,0.1,0.9,1.1,1.1c0.3,0.1,0.5,0.2,0.6,0.5
					c0.1,0.2,0.2,0.5,0.1,0.8l-1,2.8c-0.1,0.4-0.4,0.6-0.8,0.6c-0.4,0-0.7-0.1-0.9-0.5c-1.1-1.9-1.2-3.9-1.1-5.4c0-0.2,0-0.4,0-0.6
					l0.1-1c0.2-1.5,0.3-2.9-0.1-3.9c-0.3,0.1-0.6,0.1-0.9,0.2c-0.2,0-0.4,0-0.6,0c-0.6-0.2-1.4-0.7-1.4-2.1c-0.2,0-0.3-0.1-0.5-0.1
					c-0.4-0.1-0.7-0.4-0.8-0.8C124.4-35.5,124.6-35.9,125-36.1z M115.2-22.3c-0.5-2-0.2-3.5,0.9-4.8c0.2-0.2,0.5-0.3,0.7-0.3
					s0.4,0.1,0.6,0.2c0.4,0.3,0.5,0.9,0.2,1.3c-0.6,0.9-0.7,1.9-0.5,3.2c0.2,0.8,0.5,1.6,0.9,2.3c0.8,1.9,1.6,3.8,0.8,5.5
					c-0.5,1.1-1.6,1.9-3.3,2.5c-0.5,0.1-0.9,0-1.2-0.5c-0.2-0.4-0.1-0.9,0.2-1.2c2.3-1.9,1.8-3.8,1.1-6.2
					C115.5-20.9,115.3-21.6,115.2-22.3z M122.4-5l-6.3-3.7c-0.2,0.3-0.3,0.7-0.5,1.2c-0.1,0.4-0.3,0.8-0.4,1.2c0,0,0,0,0,0.1
					S115.1-6,115-6l0,0l0,0c-0.1,0.1-0.3,0.2-0.4,0.3c-0.1,0-0.2,0.1-0.4,0c-0.1,0-0.2,0-0.4-0.1h-0.1l-1.3-0.8l0.7,1.8
					c0.7,2.9-1.7,1.1-1.7,1.1c-0.9-0.9-2.2-1.8-4-2.7c-0.5-0.2-0.7-0.8-0.5-1.3s0.7-0.7,1.2-0.6c0.4,0.1,0.7,0.2,0.9,0.2
					c0.2,0,0.2,0,0.4-0.5c0.1-0.3,0.2-0.5,0.3-0.7c0,0,0-0.1,0.1-0.1l0,0l0,0c0.1-0.1,0.3-0.3,0.4-0.3s0.1,0,0.2-0.1
					c0.2,0,0.5,0,0.7,0.1l0,0l2.7,1.6l0.8-2.4c0.1-0.3,0.3-0.5,0.6-0.6c0.3-0.1,0.6-0.1,0.8,0.1l0,0c0.4-0.1,0.8-0.2,1.3-0.2
					c0.8,0,1.7,0.2,2.8,0.5c0.2,0.1,0.4,0.2,0.5,0.3l3.1,3.9c0.3,0.4,0.3,0.9,0,1.3C123.3-4.9,122.8-4.8,122.4-5z M121.9-33.8
					c0.2,0,0.4,0.1,0.6,0.2L124-33c0.1,0.1,0.2,0.3,0.3,0.4l3.7,6.1c0.2,0.5-0.1,1-0.5,1.2c-0.5,0.2-1,0-1.3-0.4l-5.2-6.7
					c-0.2-0.4-0.1-0.9,0.3-1.2C121.5-33.8,121.7-33.8,121.9-33.8z M141.7-46.6c-0.4,0.1-0.8,0-1.1-0.4l-1.4-1.9
					c-0.2-0.3-0.2-0.7-0.1-1.1c0.2-0.3,0.6-0.5,0.9-0.5c0.2,0,0.4,0,0.5,0.1l0.2-2.2l-1.4-2c-0.1-0.1-0.3-0.1-0.4-0.2l-2.4-0.4
					c-0.3,0-0.5-0.2-0.6-0.4l-2-2.8c-0.3-0.4-0.2-1,0.2-1.3c0.2-0.2,0.4-0.2,0.6-0.2c0.3,0,0.5,0.1,0.7,0.3c1.2,1.2,2.5,2.2,4.1,2.9
					l0.5,0.1c0.3,0,0.5,0.2,0.6,0.4c0.5,0.2,1.1,0.4,1.6,0.6v8.7C142.1-46.9,141.9-46.7,141.7-46.6z M132.4-19.2
					c0-0.1,0.1-0.1,0.1-0.2c-0.1-0.6,0-1.5,0.1-2.8c0-0.4,0.3-0.8,0.8-0.9l1.9-0.5c0.1,0,0.1,0,0.2,0c0.2,0,0.5,0.1,0.6,0.2
					c0.2,0.2,0.4,0.5,0.3,0.8l-0.2,3.4c0,0.1,0,0.2-0.1,0.4c0.2,0.1,0.3,0.2,0.5,0.3c0.2,0.2,0.4,0.4,0.4,0.7s0,0.5-0.2,0.8
					c-0.1,0.2,0.1,1.2,0.2,1.6c0.2,0.7,0.4,1.5,0.2,2.1l0.7,1.3c0.2,0.4,0.1,1-0.3,1.3c-0.4,0.3-1,0.2-1.3-0.2l-1.5-1.7
					c-0.3-0.3-0.3-0.7-0.1-1.1c0,0,0-0.1,0.1-0.1l-2.3-4.6C132.3-18.6,132.3-19,132.4-19.2z M114-19.8c0.3,0.1,0.5,0.4,0.5,0.7
					c0.1,0.3,0,0.6-0.3,0.9l-1.4,1.4c-0.2,0.2-0.4,0.3-0.7,0.3s-0.5-0.1-0.7-0.3l-0.9-0.9l-0.2,0.8c0.1,0.7,0.5,1.3,1,2
					c0.7,1.1,1.5,2.4,1.3,4.1c-0.1,0.5-0.5,0.9-1,0.9h-3.9c-0.3,0-0.6-0.1-0.8-0.4c-0.2-0.2-0.2-0.6-0.2-0.9l1.6-5.8
					c-0.1-0.7,0-1.5,0.4-2.2c0-0.1,0.1-0.2,0.2-0.3l0.2-0.2l1.5-5.3c0.1-0.4,0.5-0.7,0.9-0.7h0.1c0.5,0.1,0.8,0.5,0.8,1v0.8
					C112.6-21.9,112.6-20.5,114-19.8z M127.1-9.7c0.4,0.4,0.4,1,0,1.4s-1,0.4-1.4,0.1c-0.2-0.2-0.4-0.4-0.6-0.6l-1.4-1.4
					c-0.2-0.2-0.3-0.5-0.3-0.8c-0.7-1.1-1.4-2.3-2.1-3.6c-0.5-0.6-0.9-1.1-1.4-1.4c-0.2-0.2-0.4-0.4-0.4-0.7c0-0.3,0.1-0.6,0.3-0.8
					l0.1-0.1c-0.1-0.3-0.2-0.5-0.3-0.8c-0.1-0.3-0.1-0.7,0.1-0.9c1.2-1.7,2.7-2.4,4.2-2.2c0.2-0.1,0.3-0.2,0.5-0.2s0.4,0.1,0.6,0.2
					c0.3,0.2,0.5,0.4,0.8,0.7c1.1,0.7,2.2,1.8,3.1,2.8c0.9,0.9,1.8,1.9,2.5,2.2c0.2,0,0.4,0,0.7,0c0.5,0,0.9,0.3,1,0.8
					s-0.2,1-0.7,1.1c-0.5,0.2-1.1,0.1-1.7-0.1c-2.1-0.5-3.5-2.1-4.9-3.8c-0.5-0.5-0.9-1.1-1.4-1.6c-0.1,0-0.1-0.1-0.2-0.1l-2.2,2.2
					c0.2,0.5,0.5,1,0.7,1.5l0,0c1,1.2,1.9,2.2,3.1,1.9c0.4-0.1,0.9,0.1,1.1,0.4c0.2,0.4,0.2,0.9-0.2,1.2l-1.2,1.2
					c0.2,0.3,0.5,0.6,0.7,0.8L127.1-9.7z M113.1-49.7l-0.7,2.1c-0.1,0.3-0.4,0.6-0.8,0.6l-2.1,0.3c-0.3,0.1-0.7-0.1-0.9-0.3
					c-0.2-0.3-0.3-0.6-0.2-1l1-2.8c0.1-0.3,0.4-0.6,0.8-0.6l2-0.3c1-0.3,1.9-0.5,2.5-0.5c0.9,0,1.6,0.3,2,0.9c0.8,1.1,0.4,2.7,0,4.4
					c0,0.4,0,0.9,0,1.4c0,1.7,0,3.5,0.9,4.6l1.4,0.8c0-0.1,0.1-0.1,0.1-0.2c0.1-0.1,0.2-0.2,0.2-0.2c-0.1-0.1-0.2-0.3-0.3-0.4
					c-0.2-0.2-0.3-0.5-0.2-0.8c0-0.3,0.2-0.5,0.5-0.7c1.6-1,2.7-1.9,3.3-2.6c0.2-1.2-0.5-2.2-1.7-3.8c-0.8-1-1.7-2.2-2.4-3.7
					c0,0,0-0.1-0.1-0.1c0-0.1-0.1-0.2,0-0.3c0-0.1,0-0.3,0.1-0.4c0,0,0-0.1,0.1-0.1c0.4-0.6,0.8-1.1,1.3-1.4l-1.2-1.3
					c-0.4-0.4-0.4-1,0-1.4c0.2-0.2,0.4-0.3,0.7-0.3c0.3,0,0.5,0.1,0.7,0.3l1.9,1.9c2.2,0.2,3.9,2.9,5.7,5.8c0.3,0.5,0.6,1,0.9,1.5
					l3,3.2h0.1l0,0c1.2-1.3,3.3-2.6,4-2.6c0.5,0,0.9,0.3,1,0.8c0.2,0.9-0.4,1.2-2.3,2.2c-0.5,0.6-1,1.1-1.5,1.3
					c-0.1,0.1-0.2,0.2-0.2,0.4c-0.1,0.3-0.4,0.5-0.7,0.5s-0.6-0.1-0.8-0.3l-0.6-0.6c-1.3-0.6-2.4-2.1-3.4-3.6l-5.8-6.2l-0.5,0.5
					l3.2,3.3c0.2,0.2,0.3,0.4,0.3,0.7c0,0.3,0.1,0.6,0.3,1c0.4,0.9,0.9,2.2-0.1,3.8c-0.3,1.2-1.1,2.4-2.3,3.7
					c0.5,0.7,1.1,1.8,0.6,3.2c-0.1,0.3-0.4,0.6-0.7,0.7c-0.3,0.1-0.7,0-0.9-0.3l-1.1-1.1c-0.2,0.2-0.5,0.3-0.8,0.2
					c-1.2-0.3-2.1-0.8-2.8-1.6l-4.4-2.6c-0.4-0.2-0.6-0.6-0.5-1s0.4-0.7,0.8-0.8l2-0.3c0-0.9,0.2-1.9,0.5-2.9
					C114.7-48.8,114.3-49.5,113.1-49.7z M135-67.6c0.6-0.7,1.4-1.1,2.4-1.4c0.4,0,0.8,0,1.1,0.1c1-0.2,2-0.5,2.7-1l1-0.6v5l-0.5,0.9
					c-0.2,0.3-0.5,0.5-0.8,0.5s-0.6-0.1-0.8-0.4s-0.4-0.6-0.6-0.9c-0.4-0.6-0.7-1.1-1.1-1.4c-0.8,0.2-1.5,0.4-2.1,0.7
					c-0.5,0.7-0.7,1.8-1,2.8l-0.2,0.8c-0.1,0.5-0.5,0.7-1,0.8c-0.5,0-0.9-0.3-0.9-0.8C132.8-64.8,133.4-66.5,135-67.6z M135.5-24.6
					c-0.3,0.1-0.7-0.1-0.9-0.4s-0.3-0.7-0.1-1c0.6-1.6,1.7-1.8,2.3-1.8c0.2,0,0.4,0,0.6,0.1c-0.2-0.5-0.6-1-1.1-1.5
					c-0.3-0.3-0.4-0.7-0.2-1.1s0.5-0.6,0.9-0.6l0,0c0.2,0,0.5,0.1,0.7,0.3c0.1,0.1,0.5,0.4,1,0.9c1.2,0.7,1.6,2,1.9,3.2
					c0.4,1.5,0.7,1.9,1.2,1.9c0.1,0,0.3,0,0.5-0.1v6.7l-0.1,0.3c-0.2,1.7-0.7,3.3-1.8,4.5c-0.3,0.4-0.8,0.5-1.3,0.2
					c-0.4-0.2-0.6-0.8-0.4-1.2l1.5-4c0.1-2.6-1-5.4-2.3-6.8L135.5-24.6z M132.8-56.4c0.7,0.5,1.4,1.2,1.9,1.9c1,1.2,1.9,2.2,3.1,1.9
					c0.4-0.1,0.9,0.1,1.1,0.4c0.2,0.4,0.2,0.9-0.2,1.2l-2,2c-0.2,0.2-0.5,0.3-0.8,0.3s-0.6-0.2-0.7-0.4l-3.9-5.9
					c-0.3-0.4-0.2-0.9,0.1-1.3c0.2-0.2,0.4-0.3,0.7-0.3C132.5-56.6,132.7-56.5,132.8-56.4z M127.7-62.3c-2.1-1.4-3.7-1.4-5.6-1.5
					c-1,0-2,0-3-0.2c-0.5-0.1-0.8-0.5-0.8-1s0.4-0.9,0.9-0.9l6.9-0.7h0.1c0.3,0,0.5,0.1,0.7,0.3c0.3,0.3,0.6,0.6,0.9,1
					c1,1.1,1.8,2.2,3.6,2.8c0.4,0.1,0.7,0.5,0.6,1s-0.3,0.8-0.7,0.9c0,0,0,0-0.1,0c0.1,0.4,0.2,0.8,0.1,1.2
					c-0.1,0.3-0.3,0.8-0.9,1.1c-0.2,0.1-0.4,0.1-0.6,0.1c-0.2,0-0.5-0.1-0.7-0.1c0.2,1,0.9,2.2,1.5,3.4l0.5,1
					c0.1,0.2,0.2,0.4,0.3,0.6c0.8,1.6,1.6,3.5,1.3,5.4c-0.1,0.4-0.3,0.7-0.7,0.8c-0.4,0.1-0.8,0-1-0.3l-2.2-2.6
					c-0.2-0.3-0.3-0.6-0.2-0.9s0.3-0.6,0.6-0.7c0.4-0.1,0.5-0.3,0.5-0.3s0-0.2-0.1-0.5l-0.2-0.4c-0.6-1-1.8-2.2-2.9-3.4
					c-1.3-1.4-2.7-2.9-3.4-4.1c-0.2-0.4-0.1-0.9,0.2-1.2c0.3-0.3,0.8-0.3,1.2-0.1c1.1,0.8,2.1,1.1,3,1.2c0.2-0.3,0.4-0.6,0.7-0.8
					l-0.1-0.1C128.1-61.7,127.9-62,127.7-62.3z M135.6-91.1l-1.6-6.2c-0.1-0.4,0-0.8,0.3-1c0.2-0.2,0.4-0.2,0.6-0.2
					c0.1,0,0.3,0,0.4,0.1c1.9,0.9,2,3.2,2.1,5.1c0,0.7,0,1.3,0.1,1.8l0.1,0.5c0,0.1,0.1,0.2,0.1,0.2c0.7-0.3,1.3-0.4,1.9-0.3
					c0.3-1,1.2-1.8,2.6-2.5v6l-0.1-0.1c-0.7-0.6-1.3-1.1-2-1.3c-0.4,0.2-0.9,0.3-1.2,0.3c0.2,0.7,0.4,1.4,0.7,2.1
					c0.5,0.6,0.9,1.4,1.2,2.1l0.1,0.3c0.4,0.5,0.9,0.9,1.3,1.1v2.6c-1.8-0.2-2.6-1.7-3-2.6c-0.5-0.7-0.9-1.4-1.3-2.4
					c-0.6-0.5-1.4-0.5-2.7,0c-0.3,0.1-0.6,0.1-0.9-0.1c-0.3-0.2-0.4-0.5-0.4-0.8v-1.9c0-0.5,0.3-0.9,0.8-1l1.3-0.2l-0.2-0.8
					C135.7-90.6,135.6-90.9,135.6-91.1z"/>
			</g>
		</g>
	</g>
</pattern>
<pattern  id="SVGID_1_" xlink:href="#SVGID_2_" patternTransform="matrix(1 0 0 -1 320.6377 -34102.6016)">
</pattern>
<polygon class="st2" points="430.3,0 430.3,517.8 0,517.8 "/>
</svg>
